%TF.GenerationSoftware,KiCad,Pcbnew,9.0.2*%
%TF.CreationDate,2026-03-12T18:43:54+01:00*%
%TF.ProjectId,MMS3_hat_protcol_board_basic,4d4d5333-5f68-4617-945f-70726f74636f,R0*%
%TF.SameCoordinates,Original*%
%TF.FileFunction,Legend,Top*%
%TF.FilePolarity,Positive*%
%FSLAX46Y46*%
G04 Gerber Fmt 4.6, Leading zero omitted, Abs format (unit mm)*
G04 Created by KiCad (PCBNEW 9.0.2) date 2026-03-12 18:43:54*
%MOMM*%
%LPD*%
G01*
G04 APERTURE LIST*
G04 Aperture macros list*
%AMRoundRect*
0 Rectangle with rounded corners*
0 $1 Rounding radius*
0 $2 $3 $4 $5 $6 $7 $8 $9 X,Y pos of 4 corners*
0 Add a 4 corners polygon primitive as box body*
4,1,4,$2,$3,$4,$5,$6,$7,$8,$9,$2,$3,0*
0 Add four circle primitives for the rounded corners*
1,1,$1+$1,$2,$3*
1,1,$1+$1,$4,$5*
1,1,$1+$1,$6,$7*
1,1,$1+$1,$8,$9*
0 Add four rect primitives between the rounded corners*
20,1,$1+$1,$2,$3,$4,$5,0*
20,1,$1+$1,$4,$5,$6,$7,0*
20,1,$1+$1,$6,$7,$8,$9,0*
20,1,$1+$1,$8,$9,$2,$3,0*%
G04 Aperture macros list end*
%ADD10C,0.300000*%
%ADD11C,1.000000*%
%ADD12C,0.100000*%
%ADD13C,0.150000*%
%ADD14C,0.120000*%
%ADD15RoundRect,0.250000X-0.600000X-0.725000X0.600000X-0.725000X0.600000X0.725000X-0.600000X0.725000X0*%
%ADD16O,1.700000X1.950000*%
%ADD17RoundRect,0.250000X-1.000000X-0.300000X1.000000X-0.300000X1.000000X0.300000X-1.000000X0.300000X0*%
%ADD18C,0.500000*%
%ADD19RoundRect,0.250000X-0.920000X-1.550000X0.920000X-1.550000X0.920000X1.550000X-0.920000X1.550000X0*%
%ADD20RoundRect,0.100000X-0.100000X0.637500X-0.100000X-0.637500X0.100000X-0.637500X0.100000X0.637500X0*%
%ADD21RoundRect,0.244000X0.269000X-0.244000X0.269000X0.244000X-0.269000X0.244000X-0.269000X-0.244000X0*%
%ADD22C,3.100000*%
%ADD23C,4.700000*%
%ADD24RoundRect,0.159000X-0.189000X0.159000X-0.189000X-0.159000X0.189000X-0.159000X0.189000X0.159000X0*%
%ADD25RoundRect,0.244000X-0.244000X-0.269000X0.244000X-0.269000X0.244000X0.269000X-0.244000X0.269000X0*%
%ADD26R,1.000000X3.000000*%
%ADD27C,1.296000*%
%ADD28R,1.700000X1.700000*%
%ADD29C,1.700000*%
%ADD30O,1.950000X0.570000*%
%ADD31C,2.700000*%
%ADD32RoundRect,0.244000X-0.269000X0.244000X-0.269000X-0.244000X0.269000X-0.244000X0.269000X0.244000X0*%
%ADD33RoundRect,0.159000X0.189000X-0.159000X0.189000X0.159000X-0.189000X0.159000X-0.189000X-0.159000X0*%
%ADD34RoundRect,0.218750X0.256250X-0.218750X0.256250X0.218750X-0.256250X0.218750X-0.256250X-0.218750X0*%
%ADD35RoundRect,0.159000X-0.159000X-0.189000X0.159000X-0.189000X0.159000X0.189000X-0.159000X0.189000X0*%
G04 APERTURE END LIST*
D10*
X111425828Y-130170489D02*
X109925828Y-130170489D01*
X109925828Y-130170489D02*
X110997257Y-129670489D01*
X110997257Y-129670489D02*
X109925828Y-129170489D01*
X109925828Y-129170489D02*
X111425828Y-129170489D01*
X109925828Y-128170488D02*
X109925828Y-127884774D01*
X109925828Y-127884774D02*
X109997257Y-127741917D01*
X109997257Y-127741917D02*
X110140114Y-127599060D01*
X110140114Y-127599060D02*
X110425828Y-127527631D01*
X110425828Y-127527631D02*
X110925828Y-127527631D01*
X110925828Y-127527631D02*
X111211542Y-127599060D01*
X111211542Y-127599060D02*
X111354400Y-127741917D01*
X111354400Y-127741917D02*
X111425828Y-127884774D01*
X111425828Y-127884774D02*
X111425828Y-128170488D01*
X111425828Y-128170488D02*
X111354400Y-128313346D01*
X111354400Y-128313346D02*
X111211542Y-128456203D01*
X111211542Y-128456203D02*
X110925828Y-128527631D01*
X110925828Y-128527631D02*
X110425828Y-128527631D01*
X110425828Y-128527631D02*
X110140114Y-128456203D01*
X110140114Y-128456203D02*
X109997257Y-128313346D01*
X109997257Y-128313346D02*
X109925828Y-128170488D01*
X111354400Y-126956202D02*
X111425828Y-126741917D01*
X111425828Y-126741917D02*
X111425828Y-126384774D01*
X111425828Y-126384774D02*
X111354400Y-126241917D01*
X111354400Y-126241917D02*
X111282971Y-126170488D01*
X111282971Y-126170488D02*
X111140114Y-126099059D01*
X111140114Y-126099059D02*
X110997257Y-126099059D01*
X110997257Y-126099059D02*
X110854400Y-126170488D01*
X110854400Y-126170488D02*
X110782971Y-126241917D01*
X110782971Y-126241917D02*
X110711542Y-126384774D01*
X110711542Y-126384774D02*
X110640114Y-126670488D01*
X110640114Y-126670488D02*
X110568685Y-126813345D01*
X110568685Y-126813345D02*
X110497257Y-126884774D01*
X110497257Y-126884774D02*
X110354400Y-126956202D01*
X110354400Y-126956202D02*
X110211542Y-126956202D01*
X110211542Y-126956202D02*
X110068685Y-126884774D01*
X110068685Y-126884774D02*
X109997257Y-126813345D01*
X109997257Y-126813345D02*
X109925828Y-126670488D01*
X109925828Y-126670488D02*
X109925828Y-126313345D01*
X109925828Y-126313345D02*
X109997257Y-126099059D01*
X111425828Y-125456203D02*
X109925828Y-125456203D01*
X113703805Y-129313346D02*
X113775234Y-129384774D01*
X113775234Y-129384774D02*
X113846662Y-129599060D01*
X113846662Y-129599060D02*
X113846662Y-129741917D01*
X113846662Y-129741917D02*
X113775234Y-129956203D01*
X113775234Y-129956203D02*
X113632376Y-130099060D01*
X113632376Y-130099060D02*
X113489519Y-130170489D01*
X113489519Y-130170489D02*
X113203805Y-130241917D01*
X113203805Y-130241917D02*
X112989519Y-130241917D01*
X112989519Y-130241917D02*
X112703805Y-130170489D01*
X112703805Y-130170489D02*
X112560948Y-130099060D01*
X112560948Y-130099060D02*
X112418091Y-129956203D01*
X112418091Y-129956203D02*
X112346662Y-129741917D01*
X112346662Y-129741917D02*
X112346662Y-129599060D01*
X112346662Y-129599060D02*
X112418091Y-129384774D01*
X112418091Y-129384774D02*
X112489519Y-129313346D01*
X113775234Y-128741917D02*
X113846662Y-128527632D01*
X113846662Y-128527632D02*
X113846662Y-128170489D01*
X113846662Y-128170489D02*
X113775234Y-128027632D01*
X113775234Y-128027632D02*
X113703805Y-127956203D01*
X113703805Y-127956203D02*
X113560948Y-127884774D01*
X113560948Y-127884774D02*
X113418091Y-127884774D01*
X113418091Y-127884774D02*
X113275234Y-127956203D01*
X113275234Y-127956203D02*
X113203805Y-128027632D01*
X113203805Y-128027632D02*
X113132376Y-128170489D01*
X113132376Y-128170489D02*
X113060948Y-128456203D01*
X113060948Y-128456203D02*
X112989519Y-128599060D01*
X112989519Y-128599060D02*
X112918091Y-128670489D01*
X112918091Y-128670489D02*
X112775234Y-128741917D01*
X112775234Y-128741917D02*
X112632376Y-128741917D01*
X112632376Y-128741917D02*
X112489519Y-128670489D01*
X112489519Y-128670489D02*
X112418091Y-128599060D01*
X112418091Y-128599060D02*
X112346662Y-128456203D01*
X112346662Y-128456203D02*
X112346662Y-128099060D01*
X112346662Y-128099060D02*
X112418091Y-127884774D01*
X100313924Y-129384774D02*
X100242495Y-129527632D01*
X100242495Y-129527632D02*
X100242495Y-129741917D01*
X100242495Y-129741917D02*
X100313924Y-129956203D01*
X100313924Y-129956203D02*
X100456781Y-130099060D01*
X100456781Y-130099060D02*
X100599638Y-130170489D01*
X100599638Y-130170489D02*
X100885352Y-130241917D01*
X100885352Y-130241917D02*
X101099638Y-130241917D01*
X101099638Y-130241917D02*
X101385352Y-130170489D01*
X101385352Y-130170489D02*
X101528209Y-130099060D01*
X101528209Y-130099060D02*
X101671067Y-129956203D01*
X101671067Y-129956203D02*
X101742495Y-129741917D01*
X101742495Y-129741917D02*
X101742495Y-129599060D01*
X101742495Y-129599060D02*
X101671067Y-129384774D01*
X101671067Y-129384774D02*
X101599638Y-129313346D01*
X101599638Y-129313346D02*
X101099638Y-129313346D01*
X101099638Y-129313346D02*
X101099638Y-129599060D01*
X101742495Y-128670489D02*
X100242495Y-128670489D01*
X100242495Y-128670489D02*
X101742495Y-127813346D01*
X101742495Y-127813346D02*
X100242495Y-127813346D01*
X101742495Y-127099060D02*
X100242495Y-127099060D01*
X100242495Y-127099060D02*
X100242495Y-126741917D01*
X100242495Y-126741917D02*
X100313924Y-126527631D01*
X100313924Y-126527631D02*
X100456781Y-126384774D01*
X100456781Y-126384774D02*
X100599638Y-126313345D01*
X100599638Y-126313345D02*
X100885352Y-126241917D01*
X100885352Y-126241917D02*
X101099638Y-126241917D01*
X101099638Y-126241917D02*
X101385352Y-126313345D01*
X101385352Y-126313345D02*
X101528209Y-126384774D01*
X101528209Y-126384774D02*
X101671067Y-126527631D01*
X101671067Y-126527631D02*
X101742495Y-126741917D01*
X101742495Y-126741917D02*
X101742495Y-127099060D01*
X102663328Y-130313346D02*
X102663328Y-129384774D01*
X102663328Y-129384774D02*
X103234757Y-129884774D01*
X103234757Y-129884774D02*
X103234757Y-129670489D01*
X103234757Y-129670489D02*
X103306185Y-129527632D01*
X103306185Y-129527632D02*
X103377614Y-129456203D01*
X103377614Y-129456203D02*
X103520471Y-129384774D01*
X103520471Y-129384774D02*
X103877614Y-129384774D01*
X103877614Y-129384774D02*
X104020471Y-129456203D01*
X104020471Y-129456203D02*
X104091900Y-129527632D01*
X104091900Y-129527632D02*
X104163328Y-129670489D01*
X104163328Y-129670489D02*
X104163328Y-130099060D01*
X104163328Y-130099060D02*
X104091900Y-130241917D01*
X104091900Y-130241917D02*
X104020471Y-130313346D01*
X102663328Y-128956203D02*
X104163328Y-128456203D01*
X104163328Y-128456203D02*
X102663328Y-127956203D01*
X102663328Y-127599061D02*
X102663328Y-126670489D01*
X102663328Y-126670489D02*
X103234757Y-127170489D01*
X103234757Y-127170489D02*
X103234757Y-126956204D01*
X103234757Y-126956204D02*
X103306185Y-126813347D01*
X103306185Y-126813347D02*
X103377614Y-126741918D01*
X103377614Y-126741918D02*
X103520471Y-126670489D01*
X103520471Y-126670489D02*
X103877614Y-126670489D01*
X103877614Y-126670489D02*
X104020471Y-126741918D01*
X104020471Y-126741918D02*
X104091900Y-126813347D01*
X104091900Y-126813347D02*
X104163328Y-126956204D01*
X104163328Y-126956204D02*
X104163328Y-127384775D01*
X104163328Y-127384775D02*
X104091900Y-127527632D01*
X104091900Y-127527632D02*
X104020471Y-127599061D01*
X106512734Y-130241917D02*
X106584162Y-130027632D01*
X106584162Y-130027632D02*
X106584162Y-129670489D01*
X106584162Y-129670489D02*
X106512734Y-129527632D01*
X106512734Y-129527632D02*
X106441305Y-129456203D01*
X106441305Y-129456203D02*
X106298448Y-129384774D01*
X106298448Y-129384774D02*
X106155591Y-129384774D01*
X106155591Y-129384774D02*
X106012734Y-129456203D01*
X106012734Y-129456203D02*
X105941305Y-129527632D01*
X105941305Y-129527632D02*
X105869876Y-129670489D01*
X105869876Y-129670489D02*
X105798448Y-129956203D01*
X105798448Y-129956203D02*
X105727019Y-130099060D01*
X105727019Y-130099060D02*
X105655591Y-130170489D01*
X105655591Y-130170489D02*
X105512734Y-130241917D01*
X105512734Y-130241917D02*
X105369876Y-130241917D01*
X105369876Y-130241917D02*
X105227019Y-130170489D01*
X105227019Y-130170489D02*
X105155591Y-130099060D01*
X105155591Y-130099060D02*
X105084162Y-129956203D01*
X105084162Y-129956203D02*
X105084162Y-129599060D01*
X105084162Y-129599060D02*
X105155591Y-129384774D01*
X106441305Y-127884775D02*
X106512734Y-127956203D01*
X106512734Y-127956203D02*
X106584162Y-128170489D01*
X106584162Y-128170489D02*
X106584162Y-128313346D01*
X106584162Y-128313346D02*
X106512734Y-128527632D01*
X106512734Y-128527632D02*
X106369876Y-128670489D01*
X106369876Y-128670489D02*
X106227019Y-128741918D01*
X106227019Y-128741918D02*
X105941305Y-128813346D01*
X105941305Y-128813346D02*
X105727019Y-128813346D01*
X105727019Y-128813346D02*
X105441305Y-128741918D01*
X105441305Y-128741918D02*
X105298448Y-128670489D01*
X105298448Y-128670489D02*
X105155591Y-128527632D01*
X105155591Y-128527632D02*
X105084162Y-128313346D01*
X105084162Y-128313346D02*
X105084162Y-128170489D01*
X105084162Y-128170489D02*
X105155591Y-127956203D01*
X105155591Y-127956203D02*
X105227019Y-127884775D01*
X106584162Y-127241918D02*
X105084162Y-127241918D01*
X106584162Y-126384775D02*
X105727019Y-127027632D01*
X105084162Y-126384775D02*
X105941305Y-127241918D01*
X109004995Y-130170489D02*
X107504995Y-130170489D01*
X107504995Y-130170489D02*
X108576424Y-129670489D01*
X108576424Y-129670489D02*
X107504995Y-129170489D01*
X107504995Y-129170489D02*
X109004995Y-129170489D01*
X109004995Y-128456203D02*
X107504995Y-128456203D01*
X108933567Y-127813345D02*
X109004995Y-127599060D01*
X109004995Y-127599060D02*
X109004995Y-127241917D01*
X109004995Y-127241917D02*
X108933567Y-127099060D01*
X108933567Y-127099060D02*
X108862138Y-127027631D01*
X108862138Y-127027631D02*
X108719281Y-126956202D01*
X108719281Y-126956202D02*
X108576424Y-126956202D01*
X108576424Y-126956202D02*
X108433567Y-127027631D01*
X108433567Y-127027631D02*
X108362138Y-127099060D01*
X108362138Y-127099060D02*
X108290709Y-127241917D01*
X108290709Y-127241917D02*
X108219281Y-127527631D01*
X108219281Y-127527631D02*
X108147852Y-127670488D01*
X108147852Y-127670488D02*
X108076424Y-127741917D01*
X108076424Y-127741917D02*
X107933567Y-127813345D01*
X107933567Y-127813345D02*
X107790709Y-127813345D01*
X107790709Y-127813345D02*
X107647852Y-127741917D01*
X107647852Y-127741917D02*
X107576424Y-127670488D01*
X107576424Y-127670488D02*
X107504995Y-127527631D01*
X107504995Y-127527631D02*
X107504995Y-127170488D01*
X107504995Y-127170488D02*
X107576424Y-126956202D01*
X107504995Y-126027631D02*
X107504995Y-125741917D01*
X107504995Y-125741917D02*
X107576424Y-125599060D01*
X107576424Y-125599060D02*
X107719281Y-125456203D01*
X107719281Y-125456203D02*
X108004995Y-125384774D01*
X108004995Y-125384774D02*
X108504995Y-125384774D01*
X108504995Y-125384774D02*
X108790709Y-125456203D01*
X108790709Y-125456203D02*
X108933567Y-125599060D01*
X108933567Y-125599060D02*
X109004995Y-125741917D01*
X109004995Y-125741917D02*
X109004995Y-126027631D01*
X109004995Y-126027631D02*
X108933567Y-126170489D01*
X108933567Y-126170489D02*
X108790709Y-126313346D01*
X108790709Y-126313346D02*
X108504995Y-126384774D01*
X108504995Y-126384774D02*
X108004995Y-126384774D01*
X108004995Y-126384774D02*
X107719281Y-126313346D01*
X107719281Y-126313346D02*
X107576424Y-126170489D01*
X107576424Y-126170489D02*
X107504995Y-126027631D01*
X127347257Y-129659774D02*
X127275828Y-129802632D01*
X127275828Y-129802632D02*
X127275828Y-130016917D01*
X127275828Y-130016917D02*
X127347257Y-130231203D01*
X127347257Y-130231203D02*
X127490114Y-130374060D01*
X127490114Y-130374060D02*
X127632971Y-130445489D01*
X127632971Y-130445489D02*
X127918685Y-130516917D01*
X127918685Y-130516917D02*
X128132971Y-130516917D01*
X128132971Y-130516917D02*
X128418685Y-130445489D01*
X128418685Y-130445489D02*
X128561542Y-130374060D01*
X128561542Y-130374060D02*
X128704400Y-130231203D01*
X128704400Y-130231203D02*
X128775828Y-130016917D01*
X128775828Y-130016917D02*
X128775828Y-129874060D01*
X128775828Y-129874060D02*
X128704400Y-129659774D01*
X128704400Y-129659774D02*
X128632971Y-129588346D01*
X128632971Y-129588346D02*
X128132971Y-129588346D01*
X128132971Y-129588346D02*
X128132971Y-129874060D01*
X128775828Y-128945489D02*
X127275828Y-128945489D01*
X127275828Y-128945489D02*
X128775828Y-128088346D01*
X128775828Y-128088346D02*
X127275828Y-128088346D01*
X128775828Y-127374060D02*
X127275828Y-127374060D01*
X127275828Y-127374060D02*
X127275828Y-127016917D01*
X127275828Y-127016917D02*
X127347257Y-126802631D01*
X127347257Y-126802631D02*
X127490114Y-126659774D01*
X127490114Y-126659774D02*
X127632971Y-126588345D01*
X127632971Y-126588345D02*
X127918685Y-126516917D01*
X127918685Y-126516917D02*
X128132971Y-126516917D01*
X128132971Y-126516917D02*
X128418685Y-126588345D01*
X128418685Y-126588345D02*
X128561542Y-126659774D01*
X128561542Y-126659774D02*
X128704400Y-126802631D01*
X128704400Y-126802631D02*
X128775828Y-127016917D01*
X128775828Y-127016917D02*
X128775828Y-127374060D01*
X129625828Y-130374059D02*
X129625828Y-129445487D01*
X129625828Y-129445487D02*
X130197257Y-129945487D01*
X130197257Y-129945487D02*
X130197257Y-129731202D01*
X130197257Y-129731202D02*
X130268685Y-129588345D01*
X130268685Y-129588345D02*
X130340114Y-129516916D01*
X130340114Y-129516916D02*
X130482971Y-129445487D01*
X130482971Y-129445487D02*
X130840114Y-129445487D01*
X130840114Y-129445487D02*
X130982971Y-129516916D01*
X130982971Y-129516916D02*
X131054400Y-129588345D01*
X131054400Y-129588345D02*
X131125828Y-129731202D01*
X131125828Y-129731202D02*
X131125828Y-130159773D01*
X131125828Y-130159773D02*
X131054400Y-130302630D01*
X131054400Y-130302630D02*
X130982971Y-130374059D01*
X129625828Y-129016916D02*
X131125828Y-128516916D01*
X131125828Y-128516916D02*
X129625828Y-128016916D01*
X129625828Y-127659774D02*
X129625828Y-126731202D01*
X129625828Y-126731202D02*
X130197257Y-127231202D01*
X130197257Y-127231202D02*
X130197257Y-127016917D01*
X130197257Y-127016917D02*
X130268685Y-126874060D01*
X130268685Y-126874060D02*
X130340114Y-126802631D01*
X130340114Y-126802631D02*
X130482971Y-126731202D01*
X130482971Y-126731202D02*
X130840114Y-126731202D01*
X130840114Y-126731202D02*
X130982971Y-126802631D01*
X130982971Y-126802631D02*
X131054400Y-126874060D01*
X131054400Y-126874060D02*
X131125828Y-127016917D01*
X131125828Y-127016917D02*
X131125828Y-127445488D01*
X131125828Y-127445488D02*
X131054400Y-127588345D01*
X131054400Y-127588345D02*
X130982971Y-127659774D01*
X133575828Y-129409774D02*
X132861542Y-129909774D01*
X133575828Y-130266917D02*
X132075828Y-130266917D01*
X132075828Y-130266917D02*
X132075828Y-129695488D01*
X132075828Y-129695488D02*
X132147257Y-129552631D01*
X132147257Y-129552631D02*
X132218685Y-129481202D01*
X132218685Y-129481202D02*
X132361542Y-129409774D01*
X132361542Y-129409774D02*
X132575828Y-129409774D01*
X132575828Y-129409774D02*
X132718685Y-129481202D01*
X132718685Y-129481202D02*
X132790114Y-129552631D01*
X132790114Y-129552631D02*
X132861542Y-129695488D01*
X132861542Y-129695488D02*
X132861542Y-130266917D01*
X132075828Y-128909774D02*
X133575828Y-127909774D01*
X132075828Y-127909774D02*
X133575828Y-128909774D01*
X134375828Y-130445488D02*
X134375828Y-129588346D01*
X135875828Y-130016917D02*
X134375828Y-130016917D01*
X134375828Y-129231203D02*
X135875828Y-128231203D01*
X134375828Y-128231203D02*
X135875828Y-129231203D01*
X148522257Y-129874061D02*
X148450828Y-130016919D01*
X148450828Y-130016919D02*
X148450828Y-130231204D01*
X148450828Y-130231204D02*
X148522257Y-130445490D01*
X148522257Y-130445490D02*
X148665114Y-130588347D01*
X148665114Y-130588347D02*
X148807971Y-130659776D01*
X148807971Y-130659776D02*
X149093685Y-130731204D01*
X149093685Y-130731204D02*
X149307971Y-130731204D01*
X149307971Y-130731204D02*
X149593685Y-130659776D01*
X149593685Y-130659776D02*
X149736542Y-130588347D01*
X149736542Y-130588347D02*
X149879400Y-130445490D01*
X149879400Y-130445490D02*
X149950828Y-130231204D01*
X149950828Y-130231204D02*
X149950828Y-130088347D01*
X149950828Y-130088347D02*
X149879400Y-129874061D01*
X149879400Y-129874061D02*
X149807971Y-129802633D01*
X149807971Y-129802633D02*
X149307971Y-129802633D01*
X149307971Y-129802633D02*
X149307971Y-130088347D01*
X149950828Y-129159776D02*
X148450828Y-129159776D01*
X148450828Y-129159776D02*
X149950828Y-128302633D01*
X149950828Y-128302633D02*
X148450828Y-128302633D01*
X149950828Y-127588347D02*
X148450828Y-127588347D01*
X148450828Y-127588347D02*
X148450828Y-127231204D01*
X148450828Y-127231204D02*
X148522257Y-127016918D01*
X148522257Y-127016918D02*
X148665114Y-126874061D01*
X148665114Y-126874061D02*
X148807971Y-126802632D01*
X148807971Y-126802632D02*
X149093685Y-126731204D01*
X149093685Y-126731204D02*
X149307971Y-126731204D01*
X149307971Y-126731204D02*
X149593685Y-126802632D01*
X149593685Y-126802632D02*
X149736542Y-126874061D01*
X149736542Y-126874061D02*
X149879400Y-127016918D01*
X149879400Y-127016918D02*
X149950828Y-127231204D01*
X149950828Y-127231204D02*
X149950828Y-127588347D01*
X150800828Y-130588346D02*
X150800828Y-129659774D01*
X150800828Y-129659774D02*
X151372257Y-130159774D01*
X151372257Y-130159774D02*
X151372257Y-129945489D01*
X151372257Y-129945489D02*
X151443685Y-129802632D01*
X151443685Y-129802632D02*
X151515114Y-129731203D01*
X151515114Y-129731203D02*
X151657971Y-129659774D01*
X151657971Y-129659774D02*
X152015114Y-129659774D01*
X152015114Y-129659774D02*
X152157971Y-129731203D01*
X152157971Y-129731203D02*
X152229400Y-129802632D01*
X152229400Y-129802632D02*
X152300828Y-129945489D01*
X152300828Y-129945489D02*
X152300828Y-130374060D01*
X152300828Y-130374060D02*
X152229400Y-130516917D01*
X152229400Y-130516917D02*
X152157971Y-130588346D01*
X150800828Y-129231203D02*
X152300828Y-128731203D01*
X152300828Y-128731203D02*
X150800828Y-128231203D01*
X150800828Y-127874061D02*
X150800828Y-126945489D01*
X150800828Y-126945489D02*
X151372257Y-127445489D01*
X151372257Y-127445489D02*
X151372257Y-127231204D01*
X151372257Y-127231204D02*
X151443685Y-127088347D01*
X151443685Y-127088347D02*
X151515114Y-127016918D01*
X151515114Y-127016918D02*
X151657971Y-126945489D01*
X151657971Y-126945489D02*
X152015114Y-126945489D01*
X152015114Y-126945489D02*
X152157971Y-127016918D01*
X152157971Y-127016918D02*
X152229400Y-127088347D01*
X152229400Y-127088347D02*
X152300828Y-127231204D01*
X152300828Y-127231204D02*
X152300828Y-127659775D01*
X152300828Y-127659775D02*
X152229400Y-127802632D01*
X152229400Y-127802632D02*
X152157971Y-127874061D01*
X154679400Y-130552632D02*
X154750828Y-130338347D01*
X154750828Y-130338347D02*
X154750828Y-129981204D01*
X154750828Y-129981204D02*
X154679400Y-129838347D01*
X154679400Y-129838347D02*
X154607971Y-129766918D01*
X154607971Y-129766918D02*
X154465114Y-129695489D01*
X154465114Y-129695489D02*
X154322257Y-129695489D01*
X154322257Y-129695489D02*
X154179400Y-129766918D01*
X154179400Y-129766918D02*
X154107971Y-129838347D01*
X154107971Y-129838347D02*
X154036542Y-129981204D01*
X154036542Y-129981204D02*
X153965114Y-130266918D01*
X153965114Y-130266918D02*
X153893685Y-130409775D01*
X153893685Y-130409775D02*
X153822257Y-130481204D01*
X153822257Y-130481204D02*
X153679400Y-130552632D01*
X153679400Y-130552632D02*
X153536542Y-130552632D01*
X153536542Y-130552632D02*
X153393685Y-130481204D01*
X153393685Y-130481204D02*
X153322257Y-130409775D01*
X153322257Y-130409775D02*
X153250828Y-130266918D01*
X153250828Y-130266918D02*
X153250828Y-129909775D01*
X153250828Y-129909775D02*
X153322257Y-129695489D01*
X154750828Y-129052633D02*
X153250828Y-129052633D01*
X153250828Y-129052633D02*
X153250828Y-128695490D01*
X153250828Y-128695490D02*
X153322257Y-128481204D01*
X153322257Y-128481204D02*
X153465114Y-128338347D01*
X153465114Y-128338347D02*
X153607971Y-128266918D01*
X153607971Y-128266918D02*
X153893685Y-128195490D01*
X153893685Y-128195490D02*
X154107971Y-128195490D01*
X154107971Y-128195490D02*
X154393685Y-128266918D01*
X154393685Y-128266918D02*
X154536542Y-128338347D01*
X154536542Y-128338347D02*
X154679400Y-128481204D01*
X154679400Y-128481204D02*
X154750828Y-128695490D01*
X154750828Y-128695490D02*
X154750828Y-129052633D01*
X154322257Y-127624061D02*
X154322257Y-126909776D01*
X154750828Y-127766918D02*
X153250828Y-127266918D01*
X153250828Y-127266918D02*
X154750828Y-126766918D01*
X156979400Y-130516918D02*
X157050828Y-130302633D01*
X157050828Y-130302633D02*
X157050828Y-129945490D01*
X157050828Y-129945490D02*
X156979400Y-129802633D01*
X156979400Y-129802633D02*
X156907971Y-129731204D01*
X156907971Y-129731204D02*
X156765114Y-129659775D01*
X156765114Y-129659775D02*
X156622257Y-129659775D01*
X156622257Y-129659775D02*
X156479400Y-129731204D01*
X156479400Y-129731204D02*
X156407971Y-129802633D01*
X156407971Y-129802633D02*
X156336542Y-129945490D01*
X156336542Y-129945490D02*
X156265114Y-130231204D01*
X156265114Y-130231204D02*
X156193685Y-130374061D01*
X156193685Y-130374061D02*
X156122257Y-130445490D01*
X156122257Y-130445490D02*
X155979400Y-130516918D01*
X155979400Y-130516918D02*
X155836542Y-130516918D01*
X155836542Y-130516918D02*
X155693685Y-130445490D01*
X155693685Y-130445490D02*
X155622257Y-130374061D01*
X155622257Y-130374061D02*
X155550828Y-130231204D01*
X155550828Y-130231204D02*
X155550828Y-129874061D01*
X155550828Y-129874061D02*
X155622257Y-129659775D01*
X156907971Y-128159776D02*
X156979400Y-128231204D01*
X156979400Y-128231204D02*
X157050828Y-128445490D01*
X157050828Y-128445490D02*
X157050828Y-128588347D01*
X157050828Y-128588347D02*
X156979400Y-128802633D01*
X156979400Y-128802633D02*
X156836542Y-128945490D01*
X156836542Y-128945490D02*
X156693685Y-129016919D01*
X156693685Y-129016919D02*
X156407971Y-129088347D01*
X156407971Y-129088347D02*
X156193685Y-129088347D01*
X156193685Y-129088347D02*
X155907971Y-129016919D01*
X155907971Y-129016919D02*
X155765114Y-128945490D01*
X155765114Y-128945490D02*
X155622257Y-128802633D01*
X155622257Y-128802633D02*
X155550828Y-128588347D01*
X155550828Y-128588347D02*
X155550828Y-128445490D01*
X155550828Y-128445490D02*
X155622257Y-128231204D01*
X155622257Y-128231204D02*
X155693685Y-128159776D01*
X157050828Y-126802633D02*
X157050828Y-127516919D01*
X157050828Y-127516919D02*
X155550828Y-127516919D01*
D11*
X148760274Y-121433476D02*
X148760274Y-117433476D01*
X150474560Y-117814428D02*
X150665036Y-117623952D01*
X150665036Y-117623952D02*
X151045989Y-117433476D01*
X151045989Y-117433476D02*
X151998370Y-117433476D01*
X151998370Y-117433476D02*
X152379322Y-117623952D01*
X152379322Y-117623952D02*
X152569798Y-117814428D01*
X152569798Y-117814428D02*
X152760275Y-118195380D01*
X152760275Y-118195380D02*
X152760275Y-118576333D01*
X152760275Y-118576333D02*
X152569798Y-119147761D01*
X152569798Y-119147761D02*
X150284084Y-121433476D01*
X150284084Y-121433476D02*
X152760275Y-121433476D01*
X156760275Y-121052523D02*
X156569799Y-121243000D01*
X156569799Y-121243000D02*
X155998370Y-121433476D01*
X155998370Y-121433476D02*
X155617418Y-121433476D01*
X155617418Y-121433476D02*
X155045989Y-121243000D01*
X155045989Y-121243000D02*
X154665037Y-120862047D01*
X154665037Y-120862047D02*
X154474560Y-120481095D01*
X154474560Y-120481095D02*
X154284084Y-119719190D01*
X154284084Y-119719190D02*
X154284084Y-119147761D01*
X154284084Y-119147761D02*
X154474560Y-118385857D01*
X154474560Y-118385857D02*
X154665037Y-118004904D01*
X154665037Y-118004904D02*
X155045989Y-117623952D01*
X155045989Y-117623952D02*
X155617418Y-117433476D01*
X155617418Y-117433476D02*
X155998370Y-117433476D01*
X155998370Y-117433476D02*
X156569799Y-117623952D01*
X156569799Y-117623952D02*
X156760275Y-117814428D01*
X127385274Y-118408476D02*
X127385274Y-121646571D01*
X127385274Y-121646571D02*
X127575751Y-122027523D01*
X127575751Y-122027523D02*
X127766227Y-122218000D01*
X127766227Y-122218000D02*
X128147179Y-122408476D01*
X128147179Y-122408476D02*
X128909084Y-122408476D01*
X128909084Y-122408476D02*
X129290036Y-122218000D01*
X129290036Y-122218000D02*
X129480513Y-122027523D01*
X129480513Y-122027523D02*
X129670989Y-121646571D01*
X129670989Y-121646571D02*
X129670989Y-118408476D01*
X131385274Y-121265619D02*
X133290036Y-121265619D01*
X131004322Y-122408476D02*
X132337655Y-118408476D01*
X132337655Y-118408476D02*
X133670989Y-122408476D01*
X137290036Y-122408476D02*
X135956702Y-120503714D01*
X135004321Y-122408476D02*
X135004321Y-118408476D01*
X135004321Y-118408476D02*
X136528131Y-118408476D01*
X136528131Y-118408476D02*
X136909083Y-118598952D01*
X136909083Y-118598952D02*
X137099560Y-118789428D01*
X137099560Y-118789428D02*
X137290036Y-119170380D01*
X137290036Y-119170380D02*
X137290036Y-119741809D01*
X137290036Y-119741809D02*
X137099560Y-120122761D01*
X137099560Y-120122761D02*
X136909083Y-120313238D01*
X136909083Y-120313238D02*
X136528131Y-120503714D01*
X136528131Y-120503714D02*
X135004321Y-120503714D01*
X138432893Y-118408476D02*
X140718607Y-118408476D01*
X139575750Y-122408476D02*
X139575750Y-118408476D01*
X102394798Y-123193000D02*
X102966227Y-123383476D01*
X102966227Y-123383476D02*
X103918608Y-123383476D01*
X103918608Y-123383476D02*
X104299560Y-123193000D01*
X104299560Y-123193000D02*
X104490036Y-123002523D01*
X104490036Y-123002523D02*
X104680513Y-122621571D01*
X104680513Y-122621571D02*
X104680513Y-122240619D01*
X104680513Y-122240619D02*
X104490036Y-121859666D01*
X104490036Y-121859666D02*
X104299560Y-121669190D01*
X104299560Y-121669190D02*
X103918608Y-121478714D01*
X103918608Y-121478714D02*
X103156703Y-121288238D01*
X103156703Y-121288238D02*
X102775751Y-121097761D01*
X102775751Y-121097761D02*
X102585274Y-120907285D01*
X102585274Y-120907285D02*
X102394798Y-120526333D01*
X102394798Y-120526333D02*
X102394798Y-120145380D01*
X102394798Y-120145380D02*
X102585274Y-119764428D01*
X102585274Y-119764428D02*
X102775751Y-119573952D01*
X102775751Y-119573952D02*
X103156703Y-119383476D01*
X103156703Y-119383476D02*
X104109084Y-119383476D01*
X104109084Y-119383476D02*
X104680513Y-119573952D01*
X106394798Y-123383476D02*
X106394798Y-119383476D01*
X106394798Y-119383476D02*
X107918608Y-119383476D01*
X107918608Y-119383476D02*
X108299560Y-119573952D01*
X108299560Y-119573952D02*
X108490037Y-119764428D01*
X108490037Y-119764428D02*
X108680513Y-120145380D01*
X108680513Y-120145380D02*
X108680513Y-120716809D01*
X108680513Y-120716809D02*
X108490037Y-121097761D01*
X108490037Y-121097761D02*
X108299560Y-121288238D01*
X108299560Y-121288238D02*
X107918608Y-121478714D01*
X107918608Y-121478714D02*
X106394798Y-121478714D01*
X110394798Y-123383476D02*
X110394798Y-119383476D01*
D12*
X156300000Y-102000000D02*
X156700000Y-102600000D01*
X156300000Y-102000000D02*
X156300000Y-103800000D01*
X156300000Y-102000000D02*
X155800000Y-102600000D01*
D13*
X155738095Y-104202438D02*
X155642857Y-104154819D01*
X155642857Y-104154819D02*
X155500000Y-104154819D01*
X155500000Y-104154819D02*
X155357143Y-104202438D01*
X155357143Y-104202438D02*
X155261905Y-104297676D01*
X155261905Y-104297676D02*
X155214286Y-104392914D01*
X155214286Y-104392914D02*
X155166667Y-104583390D01*
X155166667Y-104583390D02*
X155166667Y-104726247D01*
X155166667Y-104726247D02*
X155214286Y-104916723D01*
X155214286Y-104916723D02*
X155261905Y-105011961D01*
X155261905Y-105011961D02*
X155357143Y-105107200D01*
X155357143Y-105107200D02*
X155500000Y-105154819D01*
X155500000Y-105154819D02*
X155595238Y-105154819D01*
X155595238Y-105154819D02*
X155738095Y-105107200D01*
X155738095Y-105107200D02*
X155785714Y-105059580D01*
X155785714Y-105059580D02*
X155785714Y-104726247D01*
X155785714Y-104726247D02*
X155595238Y-104726247D01*
X156214286Y-105154819D02*
X156214286Y-104154819D01*
X156214286Y-104154819D02*
X156785714Y-105154819D01*
X156785714Y-105154819D02*
X156785714Y-104154819D01*
X157261905Y-105154819D02*
X157261905Y-104154819D01*
X157261905Y-104154819D02*
X157500000Y-104154819D01*
X157500000Y-104154819D02*
X157642857Y-104202438D01*
X157642857Y-104202438D02*
X157738095Y-104297676D01*
X157738095Y-104297676D02*
X157785714Y-104392914D01*
X157785714Y-104392914D02*
X157833333Y-104583390D01*
X157833333Y-104583390D02*
X157833333Y-104726247D01*
X157833333Y-104726247D02*
X157785714Y-104916723D01*
X157785714Y-104916723D02*
X157738095Y-105011961D01*
X157738095Y-105011961D02*
X157642857Y-105107200D01*
X157642857Y-105107200D02*
X157500000Y-105154819D01*
X157500000Y-105154819D02*
X157261905Y-105154819D01*
X177407200Y-104000000D02*
X177454819Y-103857143D01*
X177454819Y-103857143D02*
X177454819Y-103619048D01*
X177454819Y-103619048D02*
X177407200Y-103523810D01*
X177407200Y-103523810D02*
X177359580Y-103476191D01*
X177359580Y-103476191D02*
X177264342Y-103428572D01*
X177264342Y-103428572D02*
X177169104Y-103428572D01*
X177169104Y-103428572D02*
X177073866Y-103476191D01*
X177073866Y-103476191D02*
X177026247Y-103523810D01*
X177026247Y-103523810D02*
X176978628Y-103619048D01*
X176978628Y-103619048D02*
X176931009Y-103809524D01*
X176931009Y-103809524D02*
X176883390Y-103904762D01*
X176883390Y-103904762D02*
X176835771Y-103952381D01*
X176835771Y-103952381D02*
X176740533Y-104000000D01*
X176740533Y-104000000D02*
X176645295Y-104000000D01*
X176645295Y-104000000D02*
X176550057Y-103952381D01*
X176550057Y-103952381D02*
X176502438Y-103904762D01*
X176502438Y-103904762D02*
X176454819Y-103809524D01*
X176454819Y-103809524D02*
X176454819Y-103571429D01*
X176454819Y-103571429D02*
X176502438Y-103428572D01*
X177407200Y-102619048D02*
X177454819Y-102714286D01*
X177454819Y-102714286D02*
X177454819Y-102904762D01*
X177454819Y-102904762D02*
X177407200Y-103000000D01*
X177407200Y-103000000D02*
X177311961Y-103047619D01*
X177311961Y-103047619D02*
X176931009Y-103047619D01*
X176931009Y-103047619D02*
X176835771Y-103000000D01*
X176835771Y-103000000D02*
X176788152Y-102904762D01*
X176788152Y-102904762D02*
X176788152Y-102714286D01*
X176788152Y-102714286D02*
X176835771Y-102619048D01*
X176835771Y-102619048D02*
X176931009Y-102571429D01*
X176931009Y-102571429D02*
X177026247Y-102571429D01*
X177026247Y-102571429D02*
X177121485Y-103047619D01*
X177454819Y-102000000D02*
X177407200Y-102095238D01*
X177407200Y-102095238D02*
X177311961Y-102142857D01*
X177311961Y-102142857D02*
X176454819Y-102142857D01*
X177407200Y-101238095D02*
X177454819Y-101333333D01*
X177454819Y-101333333D02*
X177454819Y-101523809D01*
X177454819Y-101523809D02*
X177407200Y-101619047D01*
X177407200Y-101619047D02*
X177311961Y-101666666D01*
X177311961Y-101666666D02*
X176931009Y-101666666D01*
X176931009Y-101666666D02*
X176835771Y-101619047D01*
X176835771Y-101619047D02*
X176788152Y-101523809D01*
X176788152Y-101523809D02*
X176788152Y-101333333D01*
X176788152Y-101333333D02*
X176835771Y-101238095D01*
X176835771Y-101238095D02*
X176931009Y-101190476D01*
X176931009Y-101190476D02*
X177026247Y-101190476D01*
X177026247Y-101190476D02*
X177121485Y-101666666D01*
X177407200Y-100333333D02*
X177454819Y-100428571D01*
X177454819Y-100428571D02*
X177454819Y-100619047D01*
X177454819Y-100619047D02*
X177407200Y-100714285D01*
X177407200Y-100714285D02*
X177359580Y-100761904D01*
X177359580Y-100761904D02*
X177264342Y-100809523D01*
X177264342Y-100809523D02*
X176978628Y-100809523D01*
X176978628Y-100809523D02*
X176883390Y-100761904D01*
X176883390Y-100761904D02*
X176835771Y-100714285D01*
X176835771Y-100714285D02*
X176788152Y-100619047D01*
X176788152Y-100619047D02*
X176788152Y-100428571D01*
X176788152Y-100428571D02*
X176835771Y-100333333D01*
X176788152Y-100047618D02*
X176788152Y-99666666D01*
X176454819Y-99904761D02*
X177311961Y-99904761D01*
X177311961Y-99904761D02*
X177407200Y-99857142D01*
X177407200Y-99857142D02*
X177454819Y-99761904D01*
X177454819Y-99761904D02*
X177454819Y-99666666D01*
X177407200Y-98952380D02*
X177454819Y-99047618D01*
X177454819Y-99047618D02*
X177454819Y-99238094D01*
X177454819Y-99238094D02*
X177407200Y-99333332D01*
X177407200Y-99333332D02*
X177311961Y-99380951D01*
X177311961Y-99380951D02*
X176931009Y-99380951D01*
X176931009Y-99380951D02*
X176835771Y-99333332D01*
X176835771Y-99333332D02*
X176788152Y-99238094D01*
X176788152Y-99238094D02*
X176788152Y-99047618D01*
X176788152Y-99047618D02*
X176835771Y-98952380D01*
X176835771Y-98952380D02*
X176931009Y-98904761D01*
X176931009Y-98904761D02*
X177026247Y-98904761D01*
X177026247Y-98904761D02*
X177121485Y-99380951D01*
X177454819Y-98047618D02*
X176454819Y-98047618D01*
X177407200Y-98047618D02*
X177454819Y-98142856D01*
X177454819Y-98142856D02*
X177454819Y-98333332D01*
X177454819Y-98333332D02*
X177407200Y-98428570D01*
X177407200Y-98428570D02*
X177359580Y-98476189D01*
X177359580Y-98476189D02*
X177264342Y-98523808D01*
X177264342Y-98523808D02*
X176978628Y-98523808D01*
X176978628Y-98523808D02*
X176883390Y-98476189D01*
X176883390Y-98476189D02*
X176835771Y-98428570D01*
X176835771Y-98428570D02*
X176788152Y-98333332D01*
X176788152Y-98333332D02*
X176788152Y-98142856D01*
X176788152Y-98142856D02*
X176835771Y-98047618D01*
X149238095Y-102554819D02*
X149238095Y-103364342D01*
X149238095Y-103364342D02*
X149285714Y-103459580D01*
X149285714Y-103459580D02*
X149333333Y-103507200D01*
X149333333Y-103507200D02*
X149428571Y-103554819D01*
X149428571Y-103554819D02*
X149619047Y-103554819D01*
X149619047Y-103554819D02*
X149714285Y-103507200D01*
X149714285Y-103507200D02*
X149761904Y-103459580D01*
X149761904Y-103459580D02*
X149809523Y-103364342D01*
X149809523Y-103364342D02*
X149809523Y-102554819D01*
X150809523Y-103554819D02*
X150238095Y-103554819D01*
X150523809Y-103554819D02*
X150523809Y-102554819D01*
X150523809Y-102554819D02*
X150428571Y-102697676D01*
X150428571Y-102697676D02*
X150333333Y-102792914D01*
X150333333Y-102792914D02*
X150238095Y-102840533D01*
X150066666Y-96854819D02*
X150066666Y-97569104D01*
X150066666Y-97569104D02*
X150019047Y-97711961D01*
X150019047Y-97711961D02*
X149923809Y-97807200D01*
X149923809Y-97807200D02*
X149780952Y-97854819D01*
X149780952Y-97854819D02*
X149685714Y-97854819D01*
X150447619Y-96854819D02*
X151066666Y-96854819D01*
X151066666Y-96854819D02*
X150733333Y-97235771D01*
X150733333Y-97235771D02*
X150876190Y-97235771D01*
X150876190Y-97235771D02*
X150971428Y-97283390D01*
X150971428Y-97283390D02*
X151019047Y-97331009D01*
X151019047Y-97331009D02*
X151066666Y-97426247D01*
X151066666Y-97426247D02*
X151066666Y-97664342D01*
X151066666Y-97664342D02*
X151019047Y-97759580D01*
X151019047Y-97759580D02*
X150971428Y-97807200D01*
X150971428Y-97807200D02*
X150876190Y-97854819D01*
X150876190Y-97854819D02*
X150590476Y-97854819D01*
X150590476Y-97854819D02*
X150495238Y-97807200D01*
X150495238Y-97807200D02*
X150447619Y-97759580D01*
D14*
%TO.C,J4*%
X146340000Y-132095000D02*
X147760000Y-132095000D01*
X146340000Y-143815000D02*
X146340000Y-132095000D01*
X147760000Y-132095000D02*
X147760000Y-136595000D01*
X147760000Y-136595000D02*
X152650000Y-136595000D01*
X148600000Y-132405000D02*
X149200000Y-132405000D01*
X148650000Y-137705000D02*
X148650000Y-143205000D01*
X148650000Y-143205000D02*
X149150000Y-143205000D01*
X148900000Y-133005000D02*
X148600000Y-132405000D01*
X149150000Y-137705000D02*
X148650000Y-137705000D01*
X149150000Y-143205000D02*
X149150000Y-137705000D01*
X149200000Y-132405000D02*
X148900000Y-133005000D01*
X151150000Y-137705000D02*
X151150000Y-143205000D01*
X151150000Y-143205000D02*
X151650000Y-143205000D01*
X151650000Y-137705000D02*
X151150000Y-137705000D01*
X151650000Y-143205000D02*
X151650000Y-137705000D01*
X152650000Y-143815000D02*
X146340000Y-143815000D01*
X152650000Y-143815000D02*
X158960000Y-143815000D01*
X153650000Y-137705000D02*
X153650000Y-143205000D01*
X153650000Y-143205000D02*
X154150000Y-143205000D01*
X154150000Y-137705000D02*
X153650000Y-137705000D01*
X154150000Y-143205000D02*
X154150000Y-137705000D01*
X156150000Y-137705000D02*
X156150000Y-143205000D01*
X156150000Y-143205000D02*
X156650000Y-143205000D01*
X156650000Y-137705000D02*
X156150000Y-137705000D01*
X156650000Y-143205000D02*
X156650000Y-137705000D01*
X157540000Y-132095000D02*
X157540000Y-136595000D01*
X157540000Y-136595000D02*
X152650000Y-136595000D01*
X158960000Y-132095000D02*
X157540000Y-132095000D01*
X158960000Y-143815000D02*
X158960000Y-132095000D01*
D13*
%TO.C,U3*%
X160855000Y-90120000D02*
X163795000Y-90120000D01*
X160855000Y-96780000D02*
X160855000Y-90120000D01*
X163795000Y-90120000D02*
X163795000Y-96780000D01*
X163795000Y-96780000D02*
X160855000Y-96780000D01*
X164205000Y-96450000D02*
G75*
G02*
X164145000Y-96450000I-30000J0D01*
G01*
X164145000Y-96450000D02*
G75*
G02*
X164205000Y-96450000I30000J0D01*
G01*
D14*
%TO.C,U1*%
X140265000Y-104200000D02*
X140265000Y-102000000D01*
X140265000Y-104200000D02*
X140265000Y-106400000D01*
X148335000Y-104200000D02*
X148335000Y-102000000D01*
X148335000Y-104200000D02*
X148335000Y-106400000D01*
X147875000Y-100340000D02*
X147635000Y-100010000D01*
X148115000Y-100010000D01*
X147875000Y-100340000D01*
G36*
X147875000Y-100340000D02*
G01*
X147635000Y-100010000D01*
X148115000Y-100010000D01*
X147875000Y-100340000D01*
G37*
%TO.C,J2*%
X107620000Y-92958272D02*
X108190000Y-92958272D01*
X107620000Y-98158272D02*
X107620000Y-92958272D01*
X107620000Y-98158272D02*
X108190000Y-98158272D01*
X108190000Y-92958272D02*
X108190000Y-91598272D01*
X109710000Y-92958272D02*
X110730000Y-92958272D01*
X109710000Y-98158272D02*
X110730000Y-98158272D01*
X112250000Y-92958272D02*
X113270000Y-92958272D01*
X112250000Y-98158272D02*
X113270000Y-98158272D01*
X114790000Y-92958272D02*
X115810000Y-92958272D01*
X114790000Y-98158272D02*
X115810000Y-98158272D01*
X117330000Y-92958272D02*
X118350000Y-92958272D01*
X117330000Y-98158272D02*
X118350000Y-98158272D01*
X119870000Y-92958272D02*
X120890000Y-92958272D01*
X119870000Y-98158272D02*
X120890000Y-98158272D01*
X122410000Y-92958272D02*
X123430000Y-92958272D01*
X122410000Y-98158272D02*
X123430000Y-98158272D01*
X124950000Y-92958272D02*
X125970000Y-92958272D01*
X124950000Y-98158272D02*
X125970000Y-98158272D01*
X127490000Y-92958272D02*
X128510000Y-92958272D01*
X127490000Y-98158272D02*
X128510000Y-98158272D01*
X130030000Y-92958272D02*
X131050000Y-92958272D01*
X130030000Y-98158272D02*
X131050000Y-98158272D01*
X132570000Y-92958272D02*
X133590000Y-92958272D01*
X132570000Y-98158272D02*
X133590000Y-98158272D01*
X135110000Y-92958272D02*
X136130000Y-92958272D01*
X135110000Y-98158272D02*
X136130000Y-98158272D01*
X137650000Y-92958272D02*
X138670000Y-92958272D01*
X137650000Y-98158272D02*
X138670000Y-98158272D01*
X140190000Y-92958272D02*
X141210000Y-92958272D01*
X140190000Y-98158272D02*
X141210000Y-98158272D01*
X142730000Y-92958272D02*
X143750000Y-92958272D01*
X142730000Y-98158272D02*
X143750000Y-98158272D01*
X145270000Y-92958272D02*
X146290000Y-92958272D01*
X145270000Y-98158272D02*
X146290000Y-98158272D01*
X147810000Y-92958272D02*
X148380000Y-92958272D01*
X147810000Y-98158272D02*
X148380000Y-98158272D01*
X148380000Y-98158272D02*
X148380000Y-92958272D01*
%TO.C,J3*%
X149790000Y-101380000D02*
X149790000Y-100000000D01*
X151170000Y-101380000D02*
X149790000Y-101380000D01*
X152440000Y-98620000D02*
X160170000Y-98620000D01*
X152440000Y-101380000D02*
X152440000Y-98620000D01*
X152440000Y-101380000D02*
X160170000Y-101380000D01*
X160170000Y-101380000D02*
X160170000Y-98620000D01*
D13*
%TO.C,U2*%
X164090000Y-98250000D02*
X164090000Y-98340000D01*
X164090000Y-98250000D02*
X167910000Y-98250000D01*
X164090000Y-103250000D02*
X164090000Y-103160000D01*
X167910000Y-98250000D02*
X167910000Y-98340000D01*
X167910000Y-103250000D02*
X164090000Y-103250000D01*
X167910000Y-103250000D02*
X167910000Y-103160000D01*
X168280000Y-103250000D02*
G75*
G02*
X168220000Y-103250000I-30000J0D01*
G01*
X168220000Y-103250000D02*
G75*
G02*
X168280000Y-103250000I30000J0D01*
G01*
D14*
%TO.C,D1*%
X174615000Y-100600000D02*
X174615000Y-102885000D01*
X174615000Y-102885000D02*
X176085000Y-102885000D01*
X176085000Y-102885000D02*
X176085000Y-100600000D01*
%TO.C,J7*%
X97990000Y-132040000D02*
X99410000Y-132040000D01*
X97990000Y-143760000D02*
X97990000Y-132040000D01*
X99410000Y-132040000D02*
X99410000Y-136540000D01*
X99410000Y-136540000D02*
X106800000Y-136540000D01*
X100250000Y-132350000D02*
X100850000Y-132350000D01*
X100300000Y-137650000D02*
X100300000Y-143150000D01*
X100300000Y-143150000D02*
X100800000Y-143150000D01*
X100550000Y-132950000D02*
X100250000Y-132350000D01*
X100800000Y-137650000D02*
X100300000Y-137650000D01*
X100800000Y-143150000D02*
X100800000Y-137650000D01*
X100850000Y-132350000D02*
X100550000Y-132950000D01*
X102800000Y-137650000D02*
X102800000Y-143150000D01*
X102800000Y-143150000D02*
X103300000Y-143150000D01*
X103300000Y-137650000D02*
X102800000Y-137650000D01*
X103300000Y-143150000D02*
X103300000Y-137650000D01*
X105300000Y-137650000D02*
X105300000Y-143150000D01*
X105300000Y-143150000D02*
X105800000Y-143150000D01*
X105800000Y-137650000D02*
X105300000Y-137650000D01*
X105800000Y-143150000D02*
X105800000Y-137650000D01*
X106800000Y-143760000D02*
X97990000Y-143760000D01*
X106800000Y-143760000D02*
X115610000Y-143760000D01*
X107800000Y-137650000D02*
X107800000Y-143150000D01*
X107800000Y-143150000D02*
X108300000Y-143150000D01*
X108300000Y-137650000D02*
X107800000Y-137650000D01*
X108300000Y-143150000D02*
X108300000Y-137650000D01*
X110300000Y-137650000D02*
X110300000Y-143150000D01*
X110300000Y-143150000D02*
X110800000Y-143150000D01*
X110800000Y-137650000D02*
X110300000Y-137650000D01*
X110800000Y-143150000D02*
X110800000Y-137650000D01*
X112800000Y-137650000D02*
X112800000Y-143150000D01*
X112800000Y-143150000D02*
X113300000Y-143150000D01*
X113300000Y-137650000D02*
X112800000Y-137650000D01*
X113300000Y-143150000D02*
X113300000Y-137650000D01*
X114190000Y-132040000D02*
X114190000Y-136540000D01*
X114190000Y-136540000D02*
X106800000Y-136540000D01*
X115610000Y-132040000D02*
X114190000Y-132040000D01*
X115610000Y-143760000D02*
X115610000Y-132040000D01*
%TO.C,J11*%
X125590000Y-131820000D02*
X127010000Y-131820000D01*
X125590000Y-143540000D02*
X125590000Y-131820000D01*
X127010000Y-131820000D02*
X127010000Y-136320000D01*
X127010000Y-136320000D02*
X131900000Y-136320000D01*
X127850000Y-132130000D02*
X128450000Y-132130000D01*
X127900000Y-137430000D02*
X127900000Y-142930000D01*
X127900000Y-142930000D02*
X128400000Y-142930000D01*
X128150000Y-132730000D02*
X127850000Y-132130000D01*
X128400000Y-137430000D02*
X127900000Y-137430000D01*
X128400000Y-142930000D02*
X128400000Y-137430000D01*
X128450000Y-132130000D02*
X128150000Y-132730000D01*
X130400000Y-137430000D02*
X130400000Y-142930000D01*
X130400000Y-142930000D02*
X130900000Y-142930000D01*
X130900000Y-137430000D02*
X130400000Y-137430000D01*
X130900000Y-142930000D02*
X130900000Y-137430000D01*
X131900000Y-143540000D02*
X125590000Y-143540000D01*
X131900000Y-143540000D02*
X138210000Y-143540000D01*
X132900000Y-137430000D02*
X132900000Y-142930000D01*
X132900000Y-142930000D02*
X133400000Y-142930000D01*
X133400000Y-137430000D02*
X132900000Y-137430000D01*
X133400000Y-142930000D02*
X133400000Y-137430000D01*
X135400000Y-137430000D02*
X135400000Y-142930000D01*
X135400000Y-142930000D02*
X135900000Y-142930000D01*
X135900000Y-137430000D02*
X135400000Y-137430000D01*
X135900000Y-142930000D02*
X135900000Y-137430000D01*
X136790000Y-131820000D02*
X136790000Y-136320000D01*
X136790000Y-136320000D02*
X131900000Y-136320000D01*
X138210000Y-131820000D02*
X136790000Y-131820000D01*
X138210000Y-143540000D02*
X138210000Y-131820000D01*
%TD*%
%LPC*%
D15*
%TO.C,J4*%
X148900000Y-134505000D03*
D16*
X151400000Y-134505000D03*
X153900000Y-134505000D03*
X156400000Y-134505000D03*
%TD*%
D17*
%TO.C,U3*%
X165395000Y-95750000D03*
X165395000Y-93450000D03*
X165395000Y-91150000D03*
D18*
X159425000Y-92450000D03*
X159425000Y-93450000D03*
D19*
X159425000Y-93450000D03*
D18*
X159425000Y-94450000D03*
%TD*%
D20*
%TO.C,U1*%
X147875000Y-101337500D03*
X147225000Y-101337500D03*
X146575000Y-101337500D03*
X145925000Y-101337500D03*
X145275000Y-101337500D03*
X144625000Y-101337500D03*
X143975000Y-101337500D03*
X143325000Y-101337500D03*
X142675000Y-101337500D03*
X142025000Y-101337500D03*
X141375000Y-101337500D03*
X140725000Y-101337500D03*
X140725000Y-107062500D03*
X141375000Y-107062500D03*
X142025000Y-107062500D03*
X142675000Y-107062500D03*
X143325000Y-107062500D03*
X143975000Y-107062500D03*
X144625000Y-107062500D03*
X145275000Y-107062500D03*
X145925000Y-107062500D03*
X146575000Y-107062500D03*
X147225000Y-107062500D03*
X147875000Y-107062500D03*
%TD*%
D21*
%TO.C,C4*%
X157350000Y-94755000D03*
X157350000Y-93195000D03*
%TD*%
D22*
%TO.C,H1*%
X82000000Y-92000000D03*
D23*
X82000000Y-92000000D03*
%TD*%
D24*
%TO.C,R2*%
X156650000Y-96000000D03*
X156650000Y-97000000D03*
%TD*%
D25*
%TO.C,C3*%
X163595000Y-89075000D03*
X165155000Y-89075000D03*
%TD*%
D26*
%TO.C,J2*%
X108950000Y-93038272D03*
X108950000Y-98078272D03*
X111490000Y-93038272D03*
X111490000Y-98078272D03*
X114030000Y-93038272D03*
X114030000Y-98078272D03*
X116570000Y-93038272D03*
X116570000Y-98078272D03*
X119110000Y-93038272D03*
X119110000Y-98078272D03*
X121650000Y-93038272D03*
X121650000Y-98078272D03*
X124190000Y-93038272D03*
X124190000Y-98078272D03*
X126730000Y-93038272D03*
X126730000Y-98078272D03*
X129270000Y-93038272D03*
X129270000Y-98078272D03*
X131810000Y-93038272D03*
X131810000Y-98078272D03*
X134350000Y-93038272D03*
X134350000Y-98078272D03*
X136890000Y-93038272D03*
X136890000Y-98078272D03*
X139430000Y-93038272D03*
X139430000Y-98078272D03*
X141970000Y-93038272D03*
X141970000Y-98078272D03*
X144510000Y-93038272D03*
X144510000Y-98078272D03*
X147050000Y-93038272D03*
X147050000Y-98078272D03*
%TD*%
D27*
%TO.C,H8*%
X176350000Y-96250000D03*
%TD*%
D28*
%TO.C,J3*%
X151170000Y-100000000D03*
D29*
X153710000Y-100000000D03*
X156250000Y-100000000D03*
X158790000Y-100000000D03*
%TD*%
D27*
%TO.C,H7*%
X86800000Y-135550000D03*
%TD*%
D30*
%TO.C,U2*%
X168710000Y-102660000D03*
X168710000Y-101390000D03*
X168710000Y-100110000D03*
X168710000Y-98840000D03*
X163290000Y-98840000D03*
X163290000Y-100110000D03*
X163290000Y-101390000D03*
X163290000Y-102660000D03*
%TD*%
D31*
%TO.C,H6*%
X153000000Y-94000000D03*
%TD*%
D32*
%TO.C,C2*%
X161450000Y-102670000D03*
X161450000Y-104230000D03*
%TD*%
D33*
%TO.C,R1*%
X173600000Y-101600000D03*
X173600000Y-100600000D03*
%TD*%
D31*
%TO.C,H5*%
X103000000Y-94000000D03*
%TD*%
D34*
%TO.C,D1*%
X175350000Y-102187500D03*
X175350000Y-100612500D03*
%TD*%
D31*
%TO.C,H2*%
X174000000Y-134000000D03*
%TD*%
D15*
%TO.C,J7*%
X100550000Y-134450000D03*
D16*
X103050000Y-134450000D03*
X105550000Y-134450000D03*
X108050000Y-134450000D03*
X110550000Y-134450000D03*
X113050000Y-134450000D03*
%TD*%
D21*
%TO.C,C1*%
X149050000Y-106980000D03*
X149050000Y-105420000D03*
%TD*%
D31*
%TO.C,H4*%
X174000000Y-92000000D03*
%TD*%
D27*
%TO.C,H9*%
X86450000Y-90725000D03*
%TD*%
D24*
%TO.C,R3*%
X157750000Y-96650000D03*
X157750000Y-97650000D03*
%TD*%
D35*
%TO.C,R4*%
X153000000Y-103000000D03*
X154000000Y-103000000D03*
%TD*%
D31*
%TO.C,H3*%
X82000000Y-134000000D03*
%TD*%
D15*
%TO.C,J11*%
X128150000Y-134230000D03*
D16*
X130650000Y-134230000D03*
X133150000Y-134230000D03*
X135650000Y-134230000D03*
%TD*%
%LPD*%
M02*
