%TF.GenerationSoftware,KiCad,Pcbnew,9.0.2*%
%TF.CreationDate,2026-03-12T18:43:54+01:00*%
%TF.ProjectId,MMS3_hat_protcol_board_basic,4d4d5333-5f68-4617-945f-70726f74636f,R0*%
%TF.SameCoordinates,Original*%
%TF.FileFunction,Copper,L1,Top*%
%TF.FilePolarity,Positive*%
%FSLAX46Y46*%
G04 Gerber Fmt 4.6, Leading zero omitted, Abs format (unit mm)*
G04 Created by KiCad (PCBNEW 9.0.2) date 2026-03-12 18:43:54*
%MOMM*%
%LPD*%
G01*
G04 APERTURE LIST*
G04 Aperture macros list*
%AMRoundRect*
0 Rectangle with rounded corners*
0 $1 Rounding radius*
0 $2 $3 $4 $5 $6 $7 $8 $9 X,Y pos of 4 corners*
0 Add a 4 corners polygon primitive as box body*
4,1,4,$2,$3,$4,$5,$6,$7,$8,$9,$2,$3,0*
0 Add four circle primitives for the rounded corners*
1,1,$1+$1,$2,$3*
1,1,$1+$1,$4,$5*
1,1,$1+$1,$6,$7*
1,1,$1+$1,$8,$9*
0 Add four rect primitives between the rounded corners*
20,1,$1+$1,$2,$3,$4,$5,0*
20,1,$1+$1,$4,$5,$6,$7,0*
20,1,$1+$1,$6,$7,$8,$9,0*
20,1,$1+$1,$8,$9,$2,$3,0*%
G04 Aperture macros list end*
%TA.AperFunction,ComponentPad*%
%ADD10RoundRect,0.250000X-0.600000X-0.725000X0.600000X-0.725000X0.600000X0.725000X-0.600000X0.725000X0*%
%TD*%
%TA.AperFunction,ComponentPad*%
%ADD11O,1.700000X1.950000*%
%TD*%
%TA.AperFunction,SMDPad,CuDef*%
%ADD12RoundRect,0.250000X-1.000000X-0.300000X1.000000X-0.300000X1.000000X0.300000X-1.000000X0.300000X0*%
%TD*%
%TA.AperFunction,ComponentPad*%
%ADD13C,0.500000*%
%TD*%
%TA.AperFunction,SMDPad,CuDef*%
%ADD14RoundRect,0.250000X-0.920000X-1.550000X0.920000X-1.550000X0.920000X1.550000X-0.920000X1.550000X0*%
%TD*%
%TA.AperFunction,SMDPad,CuDef*%
%ADD15RoundRect,0.100000X-0.100000X0.637500X-0.100000X-0.637500X0.100000X-0.637500X0.100000X0.637500X0*%
%TD*%
%TA.AperFunction,SMDPad,CuDef*%
%ADD16RoundRect,0.225000X0.250000X-0.225000X0.250000X0.225000X-0.250000X0.225000X-0.250000X-0.225000X0*%
%TD*%
%TA.AperFunction,ComponentPad*%
%ADD17C,3.100000*%
%TD*%
%TA.AperFunction,ConnectorPad*%
%ADD18C,4.700000*%
%TD*%
%TA.AperFunction,SMDPad,CuDef*%
%ADD19RoundRect,0.140000X-0.170000X0.140000X-0.170000X-0.140000X0.170000X-0.140000X0.170000X0.140000X0*%
%TD*%
%TA.AperFunction,SMDPad,CuDef*%
%ADD20RoundRect,0.225000X-0.225000X-0.250000X0.225000X-0.250000X0.225000X0.250000X-0.225000X0.250000X0*%
%TD*%
%TA.AperFunction,SMDPad,CuDef*%
%ADD21R,1.000000X3.000000*%
%TD*%
%TA.AperFunction,ComponentPad*%
%ADD22R,1.700000X1.700000*%
%TD*%
%TA.AperFunction,ComponentPad*%
%ADD23C,1.700000*%
%TD*%
%TA.AperFunction,SMDPad,CuDef*%
%ADD24O,1.950000X0.570000*%
%TD*%
%TA.AperFunction,SMDPad,CuDef*%
%ADD25RoundRect,0.225000X-0.250000X0.225000X-0.250000X-0.225000X0.250000X-0.225000X0.250000X0.225000X0*%
%TD*%
%TA.AperFunction,SMDPad,CuDef*%
%ADD26RoundRect,0.140000X0.170000X-0.140000X0.170000X0.140000X-0.170000X0.140000X-0.170000X-0.140000X0*%
%TD*%
%TA.AperFunction,SMDPad,CuDef*%
%ADD27RoundRect,0.218750X0.256250X-0.218750X0.256250X0.218750X-0.256250X0.218750X-0.256250X-0.218750X0*%
%TD*%
%TA.AperFunction,SMDPad,CuDef*%
%ADD28RoundRect,0.140000X-0.140000X-0.170000X0.140000X-0.170000X0.140000X0.170000X-0.140000X0.170000X0*%
%TD*%
%TA.AperFunction,ViaPad*%
%ADD29C,0.500000*%
%TD*%
%TA.AperFunction,Conductor*%
%ADD30C,0.200000*%
%TD*%
%TA.AperFunction,Conductor*%
%ADD31C,0.300000*%
%TD*%
G04 APERTURE END LIST*
D10*
%TO.P,J4,1,Pin_1*%
%TO.N,GND*%
X148900000Y-134505000D03*
D11*
%TO.P,J4,2,Pin_2*%
%TO.N,+3V3*%
X151400000Y-134505000D03*
%TO.P,J4,3,Pin_3*%
%TO.N,/Chainbus.SDA*%
X153900000Y-134505000D03*
%TO.P,J4,4,Pin_4*%
%TO.N,/Chainbus.SCL*%
X156400000Y-134505000D03*
%TD*%
D12*
%TO.P,U3,1,GND*%
%TO.N,GND*%
X165395000Y-95750000D03*
%TO.P,U3,2,VOUT*%
%TO.N,+3V3*%
X165395000Y-93450000D03*
%TO.P,U3,3,VIN*%
%TO.N,+5V*%
X165395000Y-91150000D03*
D13*
%TO.P,U3,4,VOUT*%
%TO.N,+3V3*%
X159425000Y-92450000D03*
X159425000Y-93450000D03*
D14*
X159425000Y-93450000D03*
D13*
X159425000Y-94450000D03*
%TD*%
D15*
%TO.P,U1,1,~{1OE}*%
%TO.N,/Bus_switch/SEL1*%
X147875000Y-101337500D03*
%TO.P,U1,2,1B1*%
%TO.N,/Chainbus.RX*%
X147225000Y-101337500D03*
%TO.P,U1,3,1A1*%
%TO.N,/Bus_switch/Chainbus_In.RX*%
X146575000Y-101337500D03*
%TO.P,U1,4,1A2*%
%TO.N,/Bus_switch/Chainbus_In.TX*%
X145925000Y-101337500D03*
%TO.P,U1,5,1B2*%
%TO.N,/Chainbus.TX*%
X145275000Y-101337500D03*
%TO.P,U1,6,1B3*%
%TO.N,/Chainbus.MISO*%
X144625000Y-101337500D03*
%TO.P,U1,7,1A3*%
%TO.N,/Bus_switch/Chainbus_In.MISO*%
X143975000Y-101337500D03*
%TO.P,U1,8,1A4*%
%TO.N,/Bus_switch/Chainbus_In.MOSI*%
X143325000Y-101337500D03*
%TO.P,U1,9,1B4*%
%TO.N,/Chainbus.MOSI*%
X142675000Y-101337500D03*
%TO.P,U1,10,1B5*%
%TO.N,/Chainbus.SCK*%
X142025000Y-101337500D03*
%TO.P,U1,11,1A5*%
%TO.N,/Bus_switch/Chainbus_In.SCK*%
X141375000Y-101337500D03*
%TO.P,U1,12,GND*%
%TO.N,GND*%
X140725000Y-101337500D03*
%TO.P,U1,13,~{2OE}*%
%TO.N,/Bus_switch/SEL1*%
X140725000Y-107062500D03*
%TO.P,U1,14,2A1*%
%TO.N,/Bus_switch/Chainbus_In.CS*%
X141375000Y-107062500D03*
%TO.P,U1,15,2B1*%
%TO.N,/Chainbus.CS*%
X142025000Y-107062500D03*
%TO.P,U1,16,2B2*%
%TO.N,/Chainbus.SDA*%
X142675000Y-107062500D03*
%TO.P,U1,17,2A2*%
%TO.N,/Bus_switch/Chainbus_In.SDA*%
X143325000Y-107062500D03*
%TO.P,U1,18,2A3*%
%TO.N,/Bus_switch/Chainbus_In.SCL*%
X143975000Y-107062500D03*
%TO.P,U1,19,2B3*%
%TO.N,/Chainbus.SCL*%
X144625000Y-107062500D03*
%TO.P,U1,20,2B4*%
%TO.N,unconnected-(U1-2B4-Pad20)*%
X145275000Y-107062500D03*
%TO.P,U1,21,2A4*%
%TO.N,unconnected-(U1-2A4-Pad21)*%
X145925000Y-107062500D03*
%TO.P,U1,22,2A5*%
%TO.N,unconnected-(U1-2A5-Pad22)*%
X146575000Y-107062500D03*
%TO.P,U1,23,2B5*%
%TO.N,unconnected-(U1-2B5-Pad23)*%
X147225000Y-107062500D03*
%TO.P,U1,24,VCC*%
%TO.N,+3V3*%
X147875000Y-107062500D03*
%TD*%
D16*
%TO.P,C4,1*%
%TO.N,+3V3*%
X157350000Y-94755000D03*
%TO.P,C4,2*%
%TO.N,GND*%
X157350000Y-93195000D03*
%TD*%
D17*
%TO.P,H1,1,1*%
%TO.N,GND*%
X82000000Y-92000000D03*
D18*
X82000000Y-92000000D03*
%TD*%
D19*
%TO.P,R2,1*%
%TO.N,+3V3*%
X156650000Y-96000000D03*
%TO.P,R2,2*%
%TO.N,/Chainbus.SCL*%
X156650000Y-97000000D03*
%TD*%
D20*
%TO.P,C3,1*%
%TO.N,+5V*%
X163595000Y-89075000D03*
%TO.P,C3,2*%
%TO.N,GND*%
X165155000Y-89075000D03*
%TD*%
D21*
%TO.P,J2,1,Pin_1*%
%TO.N,GND*%
X108950000Y-93038272D03*
%TO.P,J2,2,Pin_2*%
%TO.N,/Interboard_connector/SEL2*%
X108950000Y-98078272D03*
%TO.P,J2,3,Pin_3*%
%TO.N,+5V*%
X111490000Y-93038272D03*
%TO.P,J2,4,Pin_4*%
%TO.N,/Interboard_connector/SEL3*%
X111490000Y-98078272D03*
%TO.P,J2,5,Pin_5*%
%TO.N,+5V*%
X114030000Y-93038272D03*
%TO.P,J2,6,Pin_6*%
%TO.N,/Interboard_connector/SEL4*%
X114030000Y-98078272D03*
%TO.P,J2,7,Pin_7*%
%TO.N,GND*%
X116570000Y-93038272D03*
%TO.P,J2,8,Pin_8*%
%TO.N,/Interboard_connector/SEL5*%
X116570000Y-98078272D03*
%TO.P,J2,9,Pin_9*%
%TO.N,BRD_VIN*%
X119110000Y-93038272D03*
%TO.P,J2,10,Pin_10*%
%TO.N,/Interboard_connector/SEL6*%
X119110000Y-98078272D03*
%TO.P,J2,11,Pin_11*%
%TO.N,BRD_VIN*%
X121650000Y-93038272D03*
%TO.P,J2,12,Pin_12*%
%TO.N,/Interboard_connector/SEL7*%
X121650000Y-98078272D03*
%TO.P,J2,13,Pin_13*%
%TO.N,BRD_VIN*%
X124190000Y-93038272D03*
%TO.P,J2,14,Pin_14*%
%TO.N,/Interboard_connector/SEL8*%
X124190000Y-98078272D03*
%TO.P,J2,15,Pin_15*%
%TO.N,BRD_VIN*%
X126730000Y-93038272D03*
%TO.P,J2,16,Pin_16*%
%TO.N,unconnected-(J2-Pin_16-Pad16)*%
X126730000Y-98078272D03*
%TO.P,J2,17,Pin_17*%
%TO.N,GND*%
X129270000Y-93038272D03*
%TO.P,J2,18,Pin_18*%
%TO.N,/Bus_switch/Chainbus_In.SDA*%
X129270000Y-98078272D03*
%TO.P,J2,19,Pin_19*%
%TO.N,GND*%
X131810000Y-93038272D03*
%TO.P,J2,20,Pin_20*%
%TO.N,/Bus_switch/Chainbus_In.SCL*%
X131810000Y-98078272D03*
%TO.P,J2,21,Pin_21*%
%TO.N,GND*%
X134350000Y-93038272D03*
%TO.P,J2,22,Pin_22*%
%TO.N,/Bus_switch/Chainbus_In.CS*%
X134350000Y-98078272D03*
%TO.P,J2,23,Pin_23*%
%TO.N,GND*%
X136890000Y-93038272D03*
%TO.P,J2,24,Pin_24*%
%TO.N,/Bus_switch/Chainbus_In.SCK*%
X136890000Y-98078272D03*
%TO.P,J2,25,Pin_25*%
%TO.N,unconnected-(J2-Pin_25-Pad25)*%
X139430000Y-93038272D03*
%TO.P,J2,26,Pin_26*%
%TO.N,/Bus_switch/Chainbus_In.MOSI*%
X139430000Y-98078272D03*
%TO.P,J2,27,Pin_27*%
%TO.N,unconnected-(J2-Pin_27-Pad27)*%
X141970000Y-93038272D03*
%TO.P,J2,28,Pin_28*%
%TO.N,/Bus_switch/Chainbus_In.MISO*%
X141970000Y-98078272D03*
%TO.P,J2,29,Pin_29*%
%TO.N,+12V stby*%
X144510000Y-93038272D03*
%TO.P,J2,30,Pin_30*%
%TO.N,/Bus_switch/Chainbus_In.TX*%
X144510000Y-98078272D03*
%TO.P,J2,31,Pin_31*%
%TO.N,GND*%
X147050000Y-93038272D03*
%TO.P,J2,32,Pin_32*%
%TO.N,/Bus_switch/Chainbus_In.RX*%
X147050000Y-98078272D03*
%TD*%
D22*
%TO.P,J3,1,Pin_1*%
%TO.N,/Chainbus.SDA*%
X151170000Y-100000000D03*
D23*
%TO.P,J3,2,Pin_2*%
%TO.N,/Chainbus.SCL*%
X153710000Y-100000000D03*
%TO.P,J3,3,Pin_3*%
%TO.N,GND*%
X156250000Y-100000000D03*
%TO.P,J3,4,Pin_4*%
%TO.N,+3V3*%
X158790000Y-100000000D03*
%TD*%
D24*
%TO.P,U2,1,A0*%
%TO.N,GND*%
X168710000Y-102660000D03*
%TO.P,U2,2,A1*%
X168710000Y-101390000D03*
%TO.P,U2,3,A2*%
X168710000Y-100110000D03*
%TO.P,U2,4,VSS*%
X168710000Y-98840000D03*
%TO.P,U2,5,SDA*%
%TO.N,/Chainbus.SDA*%
X163290000Y-98840000D03*
%TO.P,U2,6,SCL*%
%TO.N,/Chainbus.SCL*%
X163290000Y-100110000D03*
%TO.P,U2,7,#WC*%
%TO.N,unconnected-(U2-#WC-Pad7)*%
X163290000Y-101390000D03*
%TO.P,U2,8,VCC*%
%TO.N,+3V3*%
X163290000Y-102660000D03*
%TD*%
D25*
%TO.P,C2,1*%
%TO.N,+3V3*%
X161450000Y-102670000D03*
%TO.P,C2,2*%
%TO.N,GND*%
X161450000Y-104230000D03*
%TD*%
D26*
%TO.P,R1,1*%
%TO.N,/Bus_switch/SEL1*%
X173600000Y-101600000D03*
%TO.P,R1,2*%
%TO.N,Net-(D1-A)*%
X173600000Y-100600000D03*
%TD*%
D27*
%TO.P,D1,1,K*%
%TO.N,GND*%
X175350000Y-102187500D03*
%TO.P,D1,2,A*%
%TO.N,Net-(D1-A)*%
X175350000Y-100612500D03*
%TD*%
D10*
%TO.P,J7,1,Pin_1*%
%TO.N,GND*%
X100550000Y-134450000D03*
D11*
%TO.P,J7,2,Pin_2*%
%TO.N,+3V3*%
X103050000Y-134450000D03*
%TO.P,J7,3,Pin_3*%
%TO.N,/Chainbus.SCK*%
X105550000Y-134450000D03*
%TO.P,J7,4,Pin_4*%
%TO.N,/Chainbus.MISO*%
X108050000Y-134450000D03*
%TO.P,J7,5,Pin_5*%
%TO.N,/Chainbus.MOSI*%
X110550000Y-134450000D03*
%TO.P,J7,6,Pin_6*%
%TO.N,/Chainbus.CS*%
X113050000Y-134450000D03*
%TD*%
D16*
%TO.P,C1,1*%
%TO.N,+3V3*%
X149050000Y-106980000D03*
%TO.P,C1,2*%
%TO.N,GND*%
X149050000Y-105420000D03*
%TD*%
D19*
%TO.P,R3,1*%
%TO.N,+3V3*%
X157750000Y-96650000D03*
%TO.P,R3,2*%
%TO.N,/Chainbus.SDA*%
X157750000Y-97650000D03*
%TD*%
D28*
%TO.P,R4,1*%
%TO.N,/Bus_switch/SEL1*%
X153000000Y-103000000D03*
%TO.P,R4,2*%
%TO.N,+3V3*%
X154000000Y-103000000D03*
%TD*%
D10*
%TO.P,J11,1,Pin_1*%
%TO.N,GND*%
X128150000Y-134230000D03*
D11*
%TO.P,J11,2,Pin_2*%
%TO.N,+3V3*%
X130650000Y-134230000D03*
%TO.P,J11,3,Pin_3*%
%TO.N,/Chainbus.RX*%
X133150000Y-134230000D03*
%TO.P,J11,4,Pin_4*%
%TO.N,/Chainbus.TX*%
X135650000Y-134230000D03*
%TD*%
D29*
%TO.N,/Chainbus.MISO*%
X144575000Y-102900000D03*
X141350000Y-102875000D03*
X139150000Y-103650000D03*
X138250000Y-104550000D03*
%TO.N,/Chainbus.SCK*%
X137225000Y-103750000D03*
X138525000Y-103025000D03*
%TO.N,/Chainbus.MOSI*%
X138925000Y-105300000D03*
X139725000Y-104275000D03*
%TO.N,/Chainbus.RX*%
X147250000Y-102625000D03*
X149000000Y-102600000D03*
%TO.N,/Chainbus.TX*%
X145300000Y-102725000D03*
%TO.N,/Chainbus.SCL*%
X153425000Y-106175000D03*
%TO.N,/Chainbus.SDA*%
X151062500Y-105437500D03*
%TO.N,+3V3*%
X155312500Y-106587500D03*
%TO.N,GND*%
X170500000Y-102700000D03*
X133050000Y-92050000D03*
X155800000Y-90700000D03*
X115650000Y-93800000D03*
X115650000Y-91750000D03*
X110100000Y-92950000D03*
X148150000Y-92950000D03*
X139700000Y-101250000D03*
X170550000Y-98800000D03*
X162500000Y-104250000D03*
X130500000Y-94000000D03*
X170600000Y-100150000D03*
X175350000Y-103550000D03*
X148150000Y-94000000D03*
X148150000Y-91950000D03*
X170500000Y-101350000D03*
X115650000Y-92750000D03*
X150050000Y-105400000D03*
X110100000Y-91950000D03*
X133050000Y-94100000D03*
X130500000Y-92950000D03*
X135600000Y-92000000D03*
X135600000Y-94050000D03*
X148900000Y-107900000D03*
X135600000Y-93000000D03*
X110100000Y-94000000D03*
X133050000Y-93050000D03*
X130500000Y-91950000D03*
%TO.N,/Chainbus.SCL*%
X156600000Y-97900000D03*
X144600000Y-108400000D03*
%TO.N,+3V3*%
X150050000Y-107000000D03*
%TO.N,+5V*%
X112750000Y-92000000D03*
X112750000Y-93600000D03*
X112750000Y-92850000D03*
X112750000Y-94300000D03*
%TO.N,/Chainbus.SDA*%
X143600000Y-108500000D03*
%TO.N,/Bus_switch/Chainbus_In.RX*%
X148200000Y-98050000D03*
%TO.N,/Bus_switch/Chainbus_In.MOSI*%
X140450000Y-98000000D03*
%TO.N,/Bus_switch/Chainbus_In.SDA*%
X142200000Y-105600000D03*
X130300000Y-98100000D03*
%TO.N,/Bus_switch/SEL1*%
X140000000Y-107200000D03*
X141200000Y-105500000D03*
%TO.N,/Interboard_connector/SEL2*%
X110250000Y-98000000D03*
%TO.N,/Bus_switch/Chainbus_In.TX*%
X145650000Y-97950000D03*
%TO.N,/Interboard_connector/SEL8*%
X125563272Y-98063272D03*
%TO.N,/Interboard_connector/SEL5*%
X117750000Y-98000000D03*
%TO.N,/Interboard_connector/SEL7*%
X123063272Y-98063272D03*
%TO.N,/Interboard_connector/SEL4*%
X115250000Y-98000000D03*
%TO.N,/Bus_switch/Chainbus_In.SCK*%
X137850000Y-98050000D03*
%TO.N,/Bus_switch/Chainbus_In.MISO*%
X143000000Y-98000000D03*
%TO.N,+12V stby*%
X143400000Y-93050000D03*
%TO.N,/Bus_switch/Chainbus_In.SCL*%
X132850000Y-98050000D03*
X143900000Y-105900000D03*
%TO.N,/Bus_switch/Chainbus_In.CS*%
X135400000Y-98050000D03*
%TO.N,/Interboard_connector/SEL3*%
X112750000Y-98000000D03*
%TO.N,/Interboard_connector/SEL6*%
X120250000Y-98000000D03*
%TO.N,BRD_VIN*%
X122900000Y-92950000D03*
X120350000Y-93900000D03*
X125450000Y-91950000D03*
X120350000Y-92900000D03*
X122900000Y-93950000D03*
X125450000Y-92950000D03*
X120350000Y-91900000D03*
X122900000Y-91950000D03*
X125450000Y-93950000D03*
%TD*%
D30*
%TO.N,/Chainbus.MISO*%
X144575000Y-102900000D02*
X144575000Y-101387500D01*
X144575000Y-101387500D02*
X144625000Y-101337500D01*
X140575000Y-103650000D02*
X141350000Y-102875000D01*
X139150000Y-103650000D02*
X140575000Y-103650000D01*
%TO.N,/Chainbus.SCK*%
X141826000Y-101337500D02*
X142025000Y-101337500D01*
X141826000Y-102123160D02*
X141826000Y-101337500D01*
X141623160Y-102326000D02*
X141826000Y-102123160D01*
X141126840Y-102326000D02*
X141623160Y-102326000D01*
X140973160Y-102326000D02*
X141050000Y-102249160D01*
X140624000Y-102326000D02*
X140973160Y-102326000D01*
X141050000Y-102249160D02*
X141126840Y-102326000D01*
X140053554Y-102646446D02*
X140303554Y-102646446D01*
X140303554Y-102646446D02*
X140624000Y-102326000D01*
X139875000Y-102825000D02*
X140053554Y-102646446D01*
X138725000Y-102825000D02*
X139875000Y-102825000D01*
X138525000Y-103025000D02*
X138725000Y-102825000D01*
%TO.N,/Chainbus.MISO*%
X137575000Y-105225000D02*
X138250000Y-104550000D01*
X137575000Y-105425000D02*
X137575000Y-105225000D01*
%TO.N,/Chainbus.SCK*%
X136325000Y-104650000D02*
X135350000Y-104650000D01*
X137225000Y-103750000D02*
X136325000Y-104650000D01*
X135350000Y-104650000D02*
X105550000Y-134450000D01*
%TO.N,/Chainbus.MISO*%
X137075000Y-105425000D02*
X137575000Y-105425000D01*
X108050000Y-134450000D02*
X137075000Y-105425000D01*
%TO.N,/Chainbus.MOSI*%
X142675000Y-102400000D02*
X142675000Y-101337500D01*
X140800000Y-104275000D02*
X142675000Y-102400000D01*
X139725000Y-104275000D02*
X140800000Y-104275000D01*
X138925000Y-106075000D02*
X138925000Y-105300000D01*
X110550000Y-134450000D02*
X138925000Y-106075000D01*
%TO.N,/Bus_switch/Chainbus_In.CS*%
X134350000Y-99650000D02*
X134350000Y-98078272D01*
X140600000Y-105900000D02*
X134350000Y-99650000D01*
X141176000Y-106276840D02*
X140973160Y-106074000D01*
X141176000Y-106863500D02*
X141176000Y-106276840D01*
X141375000Y-107062500D02*
X141176000Y-106863500D01*
X140973160Y-106074000D02*
X140600000Y-106074000D01*
X140600000Y-106074000D02*
X140600000Y-105900000D01*
%TO.N,/Chainbus.CS*%
X115374999Y-134450000D02*
X113050000Y-134450000D01*
X142025000Y-107799999D02*
X115374999Y-134450000D01*
X142025000Y-107062500D02*
X142025000Y-107799999D01*
%TO.N,/Chainbus.RX*%
X147250000Y-102625000D02*
X147250000Y-101362500D01*
X150551000Y-104151000D02*
X149000000Y-102600000D01*
X146275000Y-109525000D02*
X148233521Y-109525000D01*
X147250000Y-101362500D02*
X147225000Y-101337500D01*
X133150000Y-122650000D02*
X146275000Y-109525000D01*
X133150000Y-134230000D02*
X133150000Y-122650000D01*
X148233521Y-109525000D02*
X150551000Y-107207521D01*
X150551000Y-107207521D02*
X150551000Y-104151000D01*
%TO.N,/Chainbus.TX*%
X145275000Y-102700000D02*
X145300000Y-102725000D01*
X145275000Y-101337500D02*
X145275000Y-102700000D01*
%TO.N,/Chainbus.SCL*%
X156400000Y-134505000D02*
X156400000Y-109150000D01*
X156400000Y-109150000D02*
X153425000Y-106175000D01*
%TO.N,/Chainbus.SDA*%
X153900000Y-108275000D02*
X151062500Y-105437500D01*
X153900000Y-134505000D02*
X153900000Y-108275000D01*
D31*
%TO.N,+3V3*%
X156037500Y-106587500D02*
X155312500Y-106587500D01*
X164775000Y-135875000D02*
X164775000Y-115325000D01*
X163850000Y-136800000D02*
X164775000Y-135875000D01*
X164775000Y-115325000D02*
X156037500Y-106587500D01*
X149355000Y-136800000D02*
X163850000Y-136800000D01*
X130575000Y-134555000D02*
X130575000Y-136800000D01*
X130575000Y-136800000D02*
X149355000Y-136800000D01*
X149355000Y-136800000D02*
X151500000Y-134655000D01*
X105400000Y-136800000D02*
X130575000Y-136800000D01*
X103050000Y-134450000D02*
X105400000Y-136800000D01*
D30*
%TO.N,GND*%
X168710000Y-101390000D02*
X170460000Y-101390000D01*
X170560000Y-100110000D02*
X170600000Y-100150000D01*
X168710000Y-102660000D02*
X170460000Y-102660000D01*
X161450000Y-104230000D02*
X162480000Y-104230000D01*
X170510000Y-98840000D02*
X170550000Y-98800000D01*
X149050000Y-105420000D02*
X150030000Y-105420000D01*
X139787500Y-101337500D02*
X139700000Y-101250000D01*
X175350000Y-101943655D02*
X175350000Y-103550000D01*
X150030000Y-105420000D02*
X150050000Y-105400000D01*
X168710000Y-98840000D02*
X170510000Y-98840000D01*
X170460000Y-102660000D02*
X170500000Y-102700000D01*
X162480000Y-104230000D02*
X162500000Y-104250000D01*
X140725000Y-101337500D02*
X139787500Y-101337500D01*
X170460000Y-101390000D02*
X170500000Y-101350000D01*
X168710000Y-100110000D02*
X170560000Y-100110000D01*
%TO.N,/Chainbus.SCL*%
X154811000Y-98899000D02*
X153710000Y-100000000D01*
X144600000Y-108400000D02*
X144600000Y-107087500D01*
X156600000Y-97900000D02*
X156600000Y-97050000D01*
X154811000Y-98899000D02*
X161389000Y-98899000D01*
X162600000Y-100110000D02*
X161389000Y-98899000D01*
D31*
%TO.N,+3V3*%
X155790000Y-103000000D02*
X158790000Y-100000000D01*
X165395000Y-93450000D02*
X159425000Y-93450000D01*
X150050000Y-107000000D02*
X147937500Y-107000000D01*
X161450000Y-102660000D02*
X158790000Y-100000000D01*
X147937500Y-107000000D02*
X147875000Y-107062500D01*
X157750000Y-94810000D02*
X158810000Y-93750000D01*
X157750000Y-96650000D02*
X157750000Y-94810000D01*
X154000000Y-103000000D02*
X155790000Y-103000000D01*
X163290000Y-102660000D02*
X161450000Y-102660000D01*
X156650000Y-95910000D02*
X158810000Y-93750000D01*
%TO.N,+5V*%
X163250000Y-90075000D02*
X114600000Y-90075000D01*
X163595000Y-89350000D02*
X163872500Y-89627500D01*
X163872500Y-89627500D02*
X163872500Y-89927500D01*
X163595000Y-89075000D02*
X163595000Y-89350000D01*
X163872500Y-89927500D02*
X163792500Y-89927500D01*
X163595000Y-89730000D02*
X163250000Y-90075000D01*
X165395000Y-91150000D02*
X164320000Y-90075000D01*
X163872500Y-89927500D02*
X163725000Y-90075000D01*
X164320000Y-90075000D02*
X163725000Y-90075000D01*
X163792500Y-89927500D02*
X163595000Y-89730000D01*
X163872500Y-89627500D02*
X164320000Y-90075000D01*
X114600000Y-90075000D02*
X112025000Y-92650000D01*
X163595000Y-89075000D02*
X163595000Y-89730000D01*
X163725000Y-90075000D02*
X163250000Y-90075000D01*
D30*
%TO.N,/Chainbus.SDA*%
X143600000Y-108500000D02*
X143151000Y-108051000D01*
X142800000Y-107187500D02*
X142675000Y-107062500D01*
X152622000Y-98548000D02*
X151170000Y-100000000D01*
X142800000Y-107700000D02*
X142800000Y-107187500D01*
X157750000Y-97650000D02*
X157750000Y-98548000D01*
X142874000Y-107848160D02*
X142874000Y-107774000D01*
X143151000Y-108051000D02*
X143076840Y-108051000D01*
X142874000Y-107774000D02*
X142800000Y-107700000D01*
X163290000Y-98840000D02*
X162998000Y-98548000D01*
X162998000Y-98548000D02*
X157750000Y-98548000D01*
X157750000Y-98548000D02*
X152622000Y-98548000D01*
X143076840Y-108051000D02*
X142874000Y-107848160D01*
%TO.N,Net-(D1-A)*%
X173600000Y-100600000D02*
X175118655Y-100600000D01*
%TO.N,/Bus_switch/Chainbus_In.RX*%
X146575000Y-101337500D02*
X146575000Y-98553272D01*
X146575000Y-98553272D02*
X147050000Y-98078272D01*
X148171728Y-98078272D02*
X148200000Y-98050000D01*
X147050000Y-98078272D02*
X148171728Y-98078272D01*
%TO.N,/Bus_switch/Chainbus_In.MOSI*%
X139430000Y-98078272D02*
X141700728Y-100349000D01*
X139430000Y-98078272D02*
X140371728Y-98078272D01*
X143325000Y-100600001D02*
X143325000Y-101337500D01*
X141700728Y-100349000D02*
X143073999Y-100349000D01*
X143073999Y-100349000D02*
X143325000Y-100600001D01*
X140371728Y-98078272D02*
X140450000Y-98000000D01*
%TO.N,/Bus_switch/Chainbus_In.SDA*%
X130278272Y-98078272D02*
X130300000Y-98100000D01*
X143325000Y-106325001D02*
X143325000Y-107062500D01*
X142599999Y-105600000D02*
X143325000Y-106325001D01*
X129270000Y-98078272D02*
X130278272Y-98078272D01*
X142200000Y-105600000D02*
X142599999Y-105600000D01*
%TO.N,/Bus_switch/SEL1*%
X141200000Y-105500000D02*
X141601000Y-105099000D01*
X148437500Y-101900000D02*
X147875000Y-101337500D01*
X140587500Y-107200000D02*
X140725000Y-107062500D01*
X141601000Y-105099000D02*
X146799000Y-105099000D01*
X169500000Y-105700000D02*
X154541999Y-105700000D01*
X150741999Y-101900000D02*
X148437500Y-101900000D01*
X152920999Y-103079001D02*
X151920999Y-103079001D01*
X173600000Y-101600000D02*
X169500000Y-105700000D01*
X151920999Y-103079001D02*
X150741999Y-101900000D01*
X146800000Y-105100000D02*
X147875000Y-104025000D01*
X154541999Y-105700000D02*
X151920999Y-103079001D01*
X140000000Y-107200000D02*
X140587500Y-107200000D01*
X147875000Y-104025000D02*
X147875000Y-101337500D01*
X146799000Y-105099000D02*
X146800000Y-105100000D01*
%TO.N,/Interboard_connector/SEL2*%
X110250000Y-98000000D02*
X109028272Y-98000000D01*
%TO.N,/Bus_switch/Chainbus_In.TX*%
X144510000Y-98078272D02*
X145925000Y-99493272D01*
X145925000Y-99493272D02*
X145925000Y-101337500D01*
X145521728Y-98078272D02*
X145650000Y-97950000D01*
X144510000Y-98078272D02*
X145521728Y-98078272D01*
%TO.N,/Interboard_connector/SEL8*%
X125563272Y-98063272D02*
X124205000Y-98063272D01*
%TO.N,/Interboard_connector/SEL5*%
X117750000Y-98000000D02*
X116648272Y-98000000D01*
%TO.N,/Interboard_connector/SEL7*%
X123063272Y-98063272D02*
X121665000Y-98063272D01*
%TO.N,/Interboard_connector/SEL4*%
X115250000Y-98000000D02*
X114108272Y-98000000D01*
%TO.N,/Bus_switch/Chainbus_In.SCK*%
X136890000Y-98078272D02*
X137821728Y-98078272D01*
X140453432Y-99829272D02*
X138641000Y-99829272D01*
X141375000Y-100750840D02*
X140453432Y-99829272D01*
X138641000Y-99829272D02*
X136890000Y-98078272D01*
X137821728Y-98078272D02*
X137850000Y-98050000D01*
%TO.N,/Bus_switch/Chainbus_In.MISO*%
X141970000Y-98078272D02*
X143975000Y-100083272D01*
X143975000Y-100083272D02*
X143975000Y-101337500D01*
X143000000Y-98000000D02*
X142048272Y-98000000D01*
D31*
%TO.N,+12V stby*%
X143400000Y-93050000D02*
X144498272Y-93050000D01*
D30*
%TO.N,/Bus_switch/Chainbus_In.SCL*%
X143900000Y-105900000D02*
X143900000Y-106987500D01*
X131810000Y-98078272D02*
X132821728Y-98078272D01*
X132821728Y-98078272D02*
X132850000Y-98050000D01*
%TO.N,/Bus_switch/Chainbus_In.CS*%
X135371728Y-98078272D02*
X135400000Y-98050000D01*
X134350000Y-98078272D02*
X135371728Y-98078272D01*
%TO.N,/Interboard_connector/SEL3*%
X112750000Y-98000000D02*
X111568272Y-98000000D01*
%TO.N,/Interboard_connector/SEL6*%
X120250000Y-98000000D02*
X119188272Y-98000000D01*
%TD*%
%TA.AperFunction,Conductor*%
%TO.N,GND*%
G36*
X117300000Y-94450000D02*
G01*
X115250000Y-94450000D01*
X115250000Y-91300000D01*
X117300000Y-91300000D01*
X117300000Y-94450000D01*
G37*
%TD.AperFunction*%
%TD*%
%TA.AperFunction,Conductor*%
%TO.N,GND*%
G36*
X137400000Y-94600000D02*
G01*
X128700000Y-94600000D01*
X128700000Y-91450000D01*
X137400000Y-91450000D01*
X137400000Y-94600000D01*
G37*
%TD.AperFunction*%
%TD*%
%TA.AperFunction,Conductor*%
%TO.N,GND*%
G36*
X110350000Y-94600000D02*
G01*
X108300000Y-94600000D01*
X108300000Y-91450000D01*
X110350000Y-91450000D01*
X110350000Y-94600000D01*
G37*
%TD.AperFunction*%
%TD*%
%TA.AperFunction,Conductor*%
%TO.N,GND*%
G36*
X148400000Y-94600000D02*
G01*
X146350000Y-94600000D01*
X146350000Y-91450000D01*
X148400000Y-91450000D01*
X148400000Y-94600000D01*
G37*
%TD.AperFunction*%
%TD*%
%TA.AperFunction,Conductor*%
%TO.N,+5V*%
G36*
X114443039Y-91469685D02*
G01*
X114488794Y-91522489D01*
X114500000Y-91574000D01*
X114500000Y-94476000D01*
X114480315Y-94543039D01*
X114427511Y-94588794D01*
X114376000Y-94600000D01*
X111124000Y-94600000D01*
X111056961Y-94580315D01*
X111011206Y-94527511D01*
X111000000Y-94476000D01*
X111000000Y-91574000D01*
X111019685Y-91506961D01*
X111072489Y-91461206D01*
X111124000Y-91450000D01*
X114376000Y-91450000D01*
X114443039Y-91469685D01*
G37*
%TD.AperFunction*%
%TD*%
%TA.AperFunction,Conductor*%
%TO.N,BRD_VIN*%
G36*
X127340955Y-91469685D02*
G01*
X127386710Y-91522489D01*
X127397899Y-91576066D01*
X127352032Y-94328066D01*
X127331233Y-94394769D01*
X127277674Y-94439637D01*
X127228049Y-94450000D01*
X118721951Y-94450000D01*
X118654912Y-94430315D01*
X118609157Y-94377511D01*
X118597968Y-94328066D01*
X118552101Y-91576066D01*
X118570666Y-91508708D01*
X118622700Y-91462080D01*
X118676084Y-91450000D01*
X127273916Y-91450000D01*
X127340955Y-91469685D01*
G37*
%TD.AperFunction*%
%TD*%
%TA.AperFunction,Conductor*%
%TO.N,GND*%
G36*
X148312453Y-102180433D02*
G01*
X148317147Y-102179759D01*
X148331594Y-102182722D01*
X148397938Y-102200500D01*
X148495685Y-102200500D01*
X148562724Y-102220185D01*
X148608479Y-102272989D01*
X148618423Y-102342147D01*
X148603072Y-102386500D01*
X148580201Y-102426114D01*
X148549500Y-102540691D01*
X148549500Y-102659309D01*
X148580201Y-102773886D01*
X148639511Y-102876613D01*
X148723387Y-102960489D01*
X148826114Y-103019799D01*
X148940691Y-103050500D01*
X148974167Y-103050500D01*
X149041206Y-103070185D01*
X149061848Y-103086819D01*
X150214181Y-104239152D01*
X150247666Y-104300475D01*
X150250500Y-104326833D01*
X150250500Y-104990095D01*
X150230815Y-105057134D01*
X150178011Y-105102889D01*
X150108853Y-105112833D01*
X150045297Y-105083808D01*
X150008794Y-105029099D01*
X149961547Y-104886518D01*
X149961542Y-104886507D01*
X149872575Y-104742271D01*
X149872572Y-104742267D01*
X149752732Y-104622427D01*
X149752728Y-104622424D01*
X149608492Y-104533457D01*
X149608481Y-104533452D01*
X149447606Y-104480144D01*
X149348322Y-104470000D01*
X149300000Y-104470000D01*
X149300000Y-105296000D01*
X149280315Y-105363039D01*
X149227511Y-105408794D01*
X149176000Y-105420000D01*
X149050000Y-105420000D01*
X149050000Y-105546000D01*
X149030315Y-105613039D01*
X148977511Y-105658794D01*
X148926000Y-105670000D01*
X148075001Y-105670000D01*
X148075001Y-105693322D01*
X148085144Y-105792607D01*
X148140725Y-105960339D01*
X148137946Y-105961259D01*
X148146431Y-106017206D01*
X148117897Y-106080984D01*
X148059412Y-106119210D01*
X148023446Y-106123568D01*
X148023446Y-106124500D01*
X147730143Y-106124500D01*
X147730117Y-106124502D01*
X147705013Y-106127413D01*
X147600086Y-106173743D01*
X147530807Y-106182814D01*
X147499914Y-106173743D01*
X147486230Y-106167701D01*
X147394991Y-106127415D01*
X147369865Y-106124500D01*
X147080143Y-106124500D01*
X147080117Y-106124502D01*
X147055013Y-106127413D01*
X146950086Y-106173743D01*
X146880807Y-106182814D01*
X146849914Y-106173743D01*
X146836230Y-106167701D01*
X146744991Y-106127415D01*
X146719865Y-106124500D01*
X146430143Y-106124500D01*
X146430117Y-106124502D01*
X146405013Y-106127413D01*
X146300086Y-106173743D01*
X146230807Y-106182814D01*
X146199914Y-106173743D01*
X146186230Y-106167701D01*
X146094991Y-106127415D01*
X146069865Y-106124500D01*
X145780143Y-106124500D01*
X145780117Y-106124502D01*
X145755013Y-106127413D01*
X145650086Y-106173743D01*
X145580807Y-106182814D01*
X145549914Y-106173743D01*
X145536230Y-106167701D01*
X145444991Y-106127415D01*
X145419865Y-106124500D01*
X145130143Y-106124500D01*
X145130117Y-106124502D01*
X145105013Y-106127413D01*
X145000086Y-106173743D01*
X144930807Y-106182814D01*
X144899914Y-106173743D01*
X144886230Y-106167701D01*
X144794991Y-106127415D01*
X144769865Y-106124500D01*
X144480143Y-106124500D01*
X144476561Y-106124708D01*
X144476482Y-106123356D01*
X144413067Y-106112445D01*
X144361546Y-106065251D01*
X144343718Y-105997694D01*
X144347896Y-105969025D01*
X144350500Y-105959309D01*
X144350500Y-105840691D01*
X144319799Y-105726114D01*
X144260489Y-105623387D01*
X144248283Y-105611181D01*
X144214798Y-105549858D01*
X144219782Y-105480166D01*
X144261654Y-105424233D01*
X144327118Y-105399816D01*
X144335964Y-105399500D01*
X146744716Y-105399500D01*
X146759972Y-105400500D01*
X146760438Y-105400500D01*
X146839560Y-105400500D01*
X146839562Y-105400500D01*
X146915988Y-105380021D01*
X146984511Y-105340460D01*
X147040460Y-105284511D01*
X147178294Y-105146677D01*
X148075000Y-105146677D01*
X148075000Y-105170000D01*
X148800000Y-105170000D01*
X148800000Y-104470000D01*
X148799999Y-104469999D01*
X148751693Y-104470000D01*
X148751675Y-104470001D01*
X148652392Y-104480144D01*
X148491518Y-104533452D01*
X148491507Y-104533457D01*
X148347271Y-104622424D01*
X148347267Y-104622427D01*
X148227427Y-104742267D01*
X148227424Y-104742271D01*
X148138457Y-104886507D01*
X148138452Y-104886518D01*
X148085144Y-105047393D01*
X148075000Y-105146677D01*
X147178294Y-105146677D01*
X148115460Y-104209511D01*
X148155022Y-104140988D01*
X148175500Y-104064562D01*
X148175500Y-103985438D01*
X148175500Y-102302497D01*
X148182543Y-102278509D01*
X148185512Y-102253683D01*
X148192218Y-102245560D01*
X148195185Y-102235458D01*
X148214076Y-102219088D01*
X148229998Y-102199806D01*
X148240030Y-102196598D01*
X148247989Y-102189703D01*
X148272734Y-102186144D01*
X148296550Y-102178532D01*
X148312453Y-102180433D01*
G37*
%TD.AperFunction*%
%TA.AperFunction,Conductor*%
G36*
X162922481Y-88520185D02*
G01*
X162968236Y-88572989D01*
X162978180Y-88642147D01*
X162965928Y-88680789D01*
X162960281Y-88691874D01*
X162960279Y-88691878D01*
X162944500Y-88791506D01*
X162944500Y-89358493D01*
X162960279Y-89458121D01*
X162960280Y-89458124D01*
X162960281Y-89458126D01*
X163004141Y-89544206D01*
X163017037Y-89612875D01*
X162990760Y-89677615D01*
X162933654Y-89717872D01*
X162893656Y-89724500D01*
X114553856Y-89724500D01*
X114464712Y-89748386D01*
X114464709Y-89748387D01*
X114384791Y-89794527D01*
X114384786Y-89794531D01*
X112971137Y-91208181D01*
X112909814Y-91241666D01*
X112883456Y-91244500D01*
X111123992Y-91244500D01*
X111080313Y-91249197D01*
X111028825Y-91260397D01*
X111018627Y-91262890D01*
X111018624Y-91262891D01*
X110937916Y-91305899D01*
X110937913Y-91305901D01*
X110885104Y-91351660D01*
X110867154Y-91369247D01*
X110863171Y-91374457D01*
X110852355Y-91386811D01*
X110845448Y-91393717D01*
X110801132Y-91460041D01*
X110801131Y-91460042D01*
X110789500Y-91518519D01*
X110789500Y-94558024D01*
X110801131Y-94616501D01*
X110801132Y-94616502D01*
X110845447Y-94682824D01*
X110908614Y-94725031D01*
X110915039Y-94729627D01*
X110919243Y-94732841D01*
X110919245Y-94732842D01*
X110919246Y-94732843D01*
X110999063Y-94777490D01*
X111066102Y-94797175D01*
X111124000Y-94805500D01*
X111124004Y-94805500D01*
X114375991Y-94805500D01*
X114376000Y-94805500D01*
X114419684Y-94800803D01*
X114448875Y-94794452D01*
X114471174Y-94789602D01*
X114471190Y-94789598D01*
X114471195Y-94789597D01*
X114481373Y-94787110D01*
X114521658Y-94765643D01*
X114568232Y-94740825D01*
X114569120Y-94742493D01*
X114603035Y-94728172D01*
X114608231Y-94727139D01*
X114674552Y-94682824D01*
X114718867Y-94616503D01*
X114718867Y-94616501D01*
X114718868Y-94616501D01*
X114730499Y-94558024D01*
X114730500Y-94558022D01*
X114730500Y-91518521D01*
X114730499Y-91518519D01*
X114729066Y-91511310D01*
X114729066Y-91511309D01*
X114718867Y-91460042D01*
X114718867Y-91460041D01*
X114674551Y-91393718D01*
X114628052Y-91362648D01*
X114603232Y-91340750D01*
X114598351Y-91335117D01*
X114598344Y-91335110D01*
X114580757Y-91317160D01*
X114580756Y-91317159D01*
X114580754Y-91317157D01*
X114580752Y-91317156D01*
X114580750Y-91317154D01*
X114550083Y-91300000D01*
X115250000Y-91300000D01*
X115250000Y-94450000D01*
X115570000Y-94450000D01*
X115570000Y-94586116D01*
X115576401Y-94645644D01*
X115576403Y-94645651D01*
X115626645Y-94780358D01*
X115626649Y-94780365D01*
X115712809Y-94895459D01*
X115712812Y-94895462D01*
X115827906Y-94981622D01*
X115827913Y-94981626D01*
X115962620Y-95031868D01*
X115962627Y-95031870D01*
X116022155Y-95038271D01*
X116022172Y-95038272D01*
X116320000Y-95038272D01*
X116320000Y-94450000D01*
X116820000Y-94450000D01*
X116820000Y-95038272D01*
X117117828Y-95038272D01*
X117117844Y-95038271D01*
X117177372Y-95031870D01*
X117177379Y-95031868D01*
X117312086Y-94981626D01*
X117312093Y-94981622D01*
X117427187Y-94895462D01*
X117427190Y-94895459D01*
X117513350Y-94780365D01*
X117513354Y-94780358D01*
X117563596Y-94645651D01*
X117563598Y-94645644D01*
X117569999Y-94586116D01*
X117570000Y-94586099D01*
X117570000Y-93288272D01*
X117300000Y-93288272D01*
X117300000Y-92788272D01*
X117570000Y-92788272D01*
X117570000Y-91579492D01*
X118346629Y-91579492D01*
X118392496Y-94331484D01*
X118392497Y-94331493D01*
X118397536Y-94373420D01*
X118397538Y-94373433D01*
X118406442Y-94412779D01*
X118409500Y-94440148D01*
X118409500Y-94558024D01*
X118421131Y-94616501D01*
X118421132Y-94616502D01*
X118465447Y-94682824D01*
X118531769Y-94727139D01*
X118531770Y-94727140D01*
X118590247Y-94738771D01*
X118590250Y-94738772D01*
X118590252Y-94738772D01*
X119629750Y-94738772D01*
X119629751Y-94738771D01*
X119649418Y-94734859D01*
X119688228Y-94727140D01*
X119688228Y-94727139D01*
X119688231Y-94727139D01*
X119754552Y-94682824D01*
X119754552Y-94682822D01*
X119764168Y-94676398D01*
X119830846Y-94655520D01*
X119833060Y-94655500D01*
X120926940Y-94655500D01*
X120993979Y-94675185D01*
X120995832Y-94676398D01*
X121005447Y-94682822D01*
X121005448Y-94682824D01*
X121071769Y-94727139D01*
X121071771Y-94727139D01*
X121071772Y-94727140D01*
X121071770Y-94727140D01*
X121130247Y-94738771D01*
X121130250Y-94738772D01*
X121130252Y-94738772D01*
X122169750Y-94738772D01*
X122169751Y-94738771D01*
X122189418Y-94734859D01*
X122228228Y-94727140D01*
X122228228Y-94727139D01*
X122228231Y-94727139D01*
X122294552Y-94682824D01*
X122294552Y-94682822D01*
X122304168Y-94676398D01*
X122370846Y-94655520D01*
X122373060Y-94655500D01*
X123466940Y-94655500D01*
X123533979Y-94675185D01*
X123535832Y-94676398D01*
X123545447Y-94682822D01*
X123545448Y-94682824D01*
X123611769Y-94727139D01*
X123611771Y-94727139D01*
X123611772Y-94727140D01*
X123611770Y-94727140D01*
X123670247Y-94738771D01*
X123670250Y-94738772D01*
X123670252Y-94738772D01*
X124709750Y-94738772D01*
X124709751Y-94738771D01*
X124729418Y-94734859D01*
X124768228Y-94727140D01*
X124768228Y-94727139D01*
X124768231Y-94727139D01*
X124834552Y-94682824D01*
X124834552Y-94682822D01*
X124844168Y-94676398D01*
X124910846Y-94655520D01*
X124913060Y-94655500D01*
X126006940Y-94655500D01*
X126073979Y-94675185D01*
X126075832Y-94676398D01*
X126085447Y-94682822D01*
X126085448Y-94682824D01*
X126151769Y-94727139D01*
X126151771Y-94727139D01*
X126151772Y-94727140D01*
X126151770Y-94727140D01*
X126210247Y-94738771D01*
X126210250Y-94738772D01*
X126210252Y-94738772D01*
X127249750Y-94738772D01*
X127249751Y-94738771D01*
X127264568Y-94735824D01*
X127308229Y-94727140D01*
X127308229Y-94727139D01*
X127308231Y-94727139D01*
X127374552Y-94682824D01*
X127418867Y-94616503D01*
X127418868Y-94616495D01*
X127423538Y-94605223D01*
X127427308Y-94606784D01*
X127449162Y-94564969D01*
X127458796Y-94555984D01*
X127463199Y-94552297D01*
X127481447Y-94535005D01*
X127527417Y-94455942D01*
X127548216Y-94389239D01*
X127557503Y-94331491D01*
X127603370Y-91579491D01*
X127599059Y-91534056D01*
X127597450Y-91526354D01*
X127594552Y-91512472D01*
X127589948Y-91490427D01*
X128270000Y-91490427D01*
X128270000Y-92788272D01*
X128700000Y-92788272D01*
X128700000Y-93288272D01*
X128270000Y-93288272D01*
X128270000Y-94586116D01*
X128276401Y-94645644D01*
X128276403Y-94645651D01*
X128326645Y-94780358D01*
X128326649Y-94780365D01*
X128412809Y-94895459D01*
X128412812Y-94895462D01*
X128527906Y-94981622D01*
X128527913Y-94981626D01*
X128662620Y-95031868D01*
X128662627Y-95031870D01*
X128722155Y-95038271D01*
X128722172Y-95038272D01*
X129020000Y-95038272D01*
X129020000Y-94600000D01*
X129520000Y-94600000D01*
X129520000Y-95038272D01*
X129817828Y-95038272D01*
X129817844Y-95038271D01*
X129877372Y-95031870D01*
X129877379Y-95031868D01*
X130012086Y-94981626D01*
X130012093Y-94981622D01*
X130127187Y-94895462D01*
X130127190Y-94895459D01*
X130213350Y-94780365D01*
X130213354Y-94780358D01*
X130263596Y-94645651D01*
X130263598Y-94645644D01*
X130268506Y-94600000D01*
X130811493Y-94600000D01*
X130816401Y-94645644D01*
X130816403Y-94645651D01*
X130866645Y-94780358D01*
X130866649Y-94780365D01*
X130952809Y-94895459D01*
X130952812Y-94895462D01*
X131067906Y-94981622D01*
X131067913Y-94981626D01*
X131202620Y-95031868D01*
X131202627Y-95031870D01*
X131262155Y-95038271D01*
X131262172Y-95038272D01*
X131560000Y-95038272D01*
X131560000Y-94600000D01*
X132060000Y-94600000D01*
X132060000Y-95038272D01*
X132357828Y-95038272D01*
X132357844Y-95038271D01*
X132417372Y-95031870D01*
X132417379Y-95031868D01*
X132552086Y-94981626D01*
X132552093Y-94981622D01*
X132667187Y-94895462D01*
X132667190Y-94895459D01*
X132753350Y-94780365D01*
X132753354Y-94780358D01*
X132803596Y-94645651D01*
X132803598Y-94645644D01*
X132808506Y-94600000D01*
X133351493Y-94600000D01*
X133356401Y-94645644D01*
X133356403Y-94645651D01*
X133406645Y-94780358D01*
X133406649Y-94780365D01*
X133492809Y-94895459D01*
X133492812Y-94895462D01*
X133607906Y-94981622D01*
X133607913Y-94981626D01*
X133742620Y-95031868D01*
X133742627Y-95031870D01*
X133802155Y-95038271D01*
X133802172Y-95038272D01*
X134100000Y-95038272D01*
X134100000Y-94600000D01*
X134600000Y-94600000D01*
X134600000Y-95038272D01*
X134897828Y-95038272D01*
X134897844Y-95038271D01*
X134957372Y-95031870D01*
X134957379Y-95031868D01*
X135092086Y-94981626D01*
X135092093Y-94981622D01*
X135207187Y-94895462D01*
X135207190Y-94895459D01*
X135293350Y-94780365D01*
X135293354Y-94780358D01*
X135343596Y-94645651D01*
X135343598Y-94645644D01*
X135348506Y-94600000D01*
X135891493Y-94600000D01*
X135896401Y-94645644D01*
X135896403Y-94645651D01*
X135946645Y-94780358D01*
X135946649Y-94780365D01*
X136032809Y-94895459D01*
X136032812Y-94895462D01*
X136147906Y-94981622D01*
X136147913Y-94981626D01*
X136282620Y-95031868D01*
X136282627Y-95031870D01*
X136342155Y-95038271D01*
X136342172Y-95038272D01*
X136640000Y-95038272D01*
X136640000Y-94600000D01*
X137140000Y-94600000D01*
X137140000Y-95038272D01*
X137437828Y-95038272D01*
X137437844Y-95038271D01*
X137497372Y-95031870D01*
X137497379Y-95031868D01*
X137632086Y-94981626D01*
X137632093Y-94981622D01*
X137747187Y-94895462D01*
X137747190Y-94895459D01*
X137833350Y-94780365D01*
X137833354Y-94780358D01*
X137883596Y-94645651D01*
X137883598Y-94645644D01*
X137889999Y-94586116D01*
X137890000Y-94586099D01*
X137890000Y-93288272D01*
X137400000Y-93288272D01*
X137400000Y-92788272D01*
X137890000Y-92788272D01*
X137890000Y-91518519D01*
X138729500Y-91518519D01*
X138729500Y-94558024D01*
X138741131Y-94616501D01*
X138741132Y-94616502D01*
X138785447Y-94682824D01*
X138851769Y-94727139D01*
X138851770Y-94727140D01*
X138910247Y-94738771D01*
X138910250Y-94738772D01*
X138910252Y-94738772D01*
X139949750Y-94738772D01*
X139949751Y-94738771D01*
X139964568Y-94735824D01*
X140008229Y-94727140D01*
X140008229Y-94727139D01*
X140008231Y-94727139D01*
X140074552Y-94682824D01*
X140118867Y-94616503D01*
X140118867Y-94616501D01*
X140118868Y-94616501D01*
X140130499Y-94558024D01*
X140130500Y-94558022D01*
X140130500Y-91518521D01*
X140130499Y-91518519D01*
X141269500Y-91518519D01*
X141269500Y-94558024D01*
X141281131Y-94616501D01*
X141281132Y-94616502D01*
X141325447Y-94682824D01*
X141391769Y-94727139D01*
X141391770Y-94727140D01*
X141450247Y-94738771D01*
X141450250Y-94738772D01*
X141450252Y-94738772D01*
X142489750Y-94738772D01*
X142489751Y-94738771D01*
X142504568Y-94735824D01*
X142548229Y-94727140D01*
X142548229Y-94727139D01*
X142548231Y-94727139D01*
X142614552Y-94682824D01*
X142658867Y-94616503D01*
X142658867Y-94616501D01*
X142658868Y-94616501D01*
X142670499Y-94558024D01*
X142670500Y-94558022D01*
X142670500Y-92990691D01*
X142949500Y-92990691D01*
X142949500Y-93109309D01*
X142980201Y-93223886D01*
X143039511Y-93326613D01*
X143123387Y-93410489D01*
X143226114Y-93469799D01*
X143340691Y-93500500D01*
X143340694Y-93500500D01*
X143459306Y-93500500D01*
X143459309Y-93500500D01*
X143573886Y-93469799D01*
X143573888Y-93469797D01*
X143573890Y-93469797D01*
X143573891Y-93469796D01*
X143623499Y-93441155D01*
X143691399Y-93424681D01*
X143757426Y-93447533D01*
X143800617Y-93502453D01*
X143809500Y-93548541D01*
X143809500Y-94558024D01*
X143821131Y-94616501D01*
X143821132Y-94616502D01*
X143865447Y-94682824D01*
X143931769Y-94727139D01*
X143931770Y-94727140D01*
X143990247Y-94738771D01*
X143990250Y-94738772D01*
X143990252Y-94738772D01*
X145029750Y-94738772D01*
X145029751Y-94738771D01*
X145044568Y-94735824D01*
X145088229Y-94727140D01*
X145088229Y-94727139D01*
X145088231Y-94727139D01*
X145154552Y-94682824D01*
X145198867Y-94616503D01*
X145198867Y-94616501D01*
X145198868Y-94616501D01*
X145210499Y-94558024D01*
X145210500Y-94558022D01*
X145210500Y-91518521D01*
X145210499Y-91518519D01*
X145209066Y-91511310D01*
X145209066Y-91511309D01*
X145204912Y-91490427D01*
X146050000Y-91490427D01*
X146050000Y-92788272D01*
X146350000Y-92788272D01*
X146350000Y-93288272D01*
X146050000Y-93288272D01*
X146050000Y-94586116D01*
X146056401Y-94645644D01*
X146056403Y-94645651D01*
X146106645Y-94780358D01*
X146106649Y-94780365D01*
X146192809Y-94895459D01*
X146192812Y-94895462D01*
X146307906Y-94981622D01*
X146307913Y-94981626D01*
X146442620Y-95031868D01*
X146442627Y-95031870D01*
X146502155Y-95038271D01*
X146502172Y-95038272D01*
X146800000Y-95038272D01*
X146800000Y-94600000D01*
X147300000Y-94600000D01*
X147300000Y-95038272D01*
X147597828Y-95038272D01*
X147597844Y-95038271D01*
X147657372Y-95031870D01*
X147657379Y-95031868D01*
X147792086Y-94981626D01*
X147792093Y-94981622D01*
X147907187Y-94895462D01*
X147907190Y-94895459D01*
X147993350Y-94780365D01*
X147993354Y-94780358D01*
X148043596Y-94645651D01*
X148043598Y-94645644D01*
X148048506Y-94600000D01*
X148400000Y-94600000D01*
X148400000Y-93874038D01*
X151399500Y-93874038D01*
X151399500Y-94125962D01*
X151403750Y-94152793D01*
X151438910Y-94374785D01*
X151516760Y-94614383D01*
X151577118Y-94732841D01*
X151614139Y-94805499D01*
X151631132Y-94838848D01*
X151779201Y-95042649D01*
X151779205Y-95042654D01*
X151957345Y-95220794D01*
X151957350Y-95220798D01*
X152062650Y-95297302D01*
X152161155Y-95368870D01*
X152300683Y-95439963D01*
X152385616Y-95483239D01*
X152385618Y-95483239D01*
X152385621Y-95483241D01*
X152625215Y-95561090D01*
X152874038Y-95600500D01*
X152874039Y-95600500D01*
X153125961Y-95600500D01*
X153125962Y-95600500D01*
X153374785Y-95561090D01*
X153614379Y-95483241D01*
X153838845Y-95368870D01*
X154042656Y-95220793D01*
X154220793Y-95042656D01*
X154368870Y-94838845D01*
X154483241Y-94614379D01*
X154561090Y-94374785D01*
X154600500Y-94125962D01*
X154600500Y-93874038D01*
X154561090Y-93625215D01*
X154483241Y-93385621D01*
X154483239Y-93385618D01*
X154483239Y-93385616D01*
X154406416Y-93234844D01*
X154368870Y-93161155D01*
X154299228Y-93065301D01*
X154245546Y-92991413D01*
X154245545Y-92991412D01*
X154220796Y-92957347D01*
X154185126Y-92921677D01*
X156375000Y-92921677D01*
X156375000Y-92945000D01*
X157100000Y-92945000D01*
X157100000Y-92245000D01*
X157099999Y-92244999D01*
X157051693Y-92245000D01*
X157051675Y-92245001D01*
X156952392Y-92255144D01*
X156791518Y-92308452D01*
X156791507Y-92308457D01*
X156647271Y-92397424D01*
X156647267Y-92397427D01*
X156527427Y-92517267D01*
X156527424Y-92517271D01*
X156438457Y-92661507D01*
X156438452Y-92661518D01*
X156385144Y-92822393D01*
X156375000Y-92921677D01*
X154185126Y-92921677D01*
X154042654Y-92779205D01*
X154042649Y-92779201D01*
X153838848Y-92631132D01*
X153838847Y-92631131D01*
X153838845Y-92631130D01*
X153768747Y-92595413D01*
X153614383Y-92516760D01*
X153374785Y-92438910D01*
X153125962Y-92399500D01*
X152874038Y-92399500D01*
X152749626Y-92419205D01*
X152625214Y-92438910D01*
X152385616Y-92516760D01*
X152161151Y-92631132D01*
X151957350Y-92779201D01*
X151957345Y-92779205D01*
X151779205Y-92957345D01*
X151779201Y-92957350D01*
X151631132Y-93161151D01*
X151516760Y-93385616D01*
X151457628Y-93567607D01*
X151438910Y-93625215D01*
X151399500Y-93874038D01*
X148400000Y-93874038D01*
X148400000Y-91450000D01*
X148045652Y-91450000D01*
X148043598Y-91430899D01*
X148043596Y-91430892D01*
X147993354Y-91296185D01*
X147993350Y-91296178D01*
X147907190Y-91181084D01*
X147907187Y-91181081D01*
X147792093Y-91094921D01*
X147792086Y-91094917D01*
X147657379Y-91044675D01*
X147657372Y-91044673D01*
X147597844Y-91038272D01*
X147300000Y-91038272D01*
X147300000Y-91450000D01*
X146800000Y-91450000D01*
X146800000Y-91038272D01*
X146502155Y-91038272D01*
X146442627Y-91044673D01*
X146442620Y-91044675D01*
X146307913Y-91094917D01*
X146307906Y-91094921D01*
X146192812Y-91181081D01*
X146192809Y-91181084D01*
X146106649Y-91296178D01*
X146106645Y-91296185D01*
X146056403Y-91430892D01*
X146056401Y-91430899D01*
X146050000Y-91490427D01*
X145204912Y-91490427D01*
X145198867Y-91460042D01*
X145198867Y-91460041D01*
X145154552Y-91393719D01*
X145088230Y-91349404D01*
X145088229Y-91349403D01*
X145029752Y-91337772D01*
X145029748Y-91337772D01*
X143990252Y-91337772D01*
X143990247Y-91337772D01*
X143931770Y-91349403D01*
X143931769Y-91349404D01*
X143865447Y-91393719D01*
X143821132Y-91460041D01*
X143821131Y-91460042D01*
X143809500Y-91518519D01*
X143809500Y-92551458D01*
X143789815Y-92618497D01*
X143737011Y-92664252D01*
X143667853Y-92674196D01*
X143623500Y-92658845D01*
X143573889Y-92630202D01*
X143573890Y-92630202D01*
X143564494Y-92627684D01*
X143459309Y-92599500D01*
X143340691Y-92599500D01*
X143226114Y-92630201D01*
X143226112Y-92630201D01*
X143226112Y-92630202D01*
X143123387Y-92689511D01*
X143123384Y-92689513D01*
X143039513Y-92773384D01*
X143039511Y-92773387D01*
X142980201Y-92876114D01*
X142949500Y-92990691D01*
X142670500Y-92990691D01*
X142670500Y-91518521D01*
X142670499Y-91518519D01*
X142658868Y-91460042D01*
X142658867Y-91460041D01*
X142614552Y-91393719D01*
X142548230Y-91349404D01*
X142548229Y-91349403D01*
X142489752Y-91337772D01*
X142489748Y-91337772D01*
X141450252Y-91337772D01*
X141450247Y-91337772D01*
X141391770Y-91349403D01*
X141391769Y-91349404D01*
X141325447Y-91393719D01*
X141281132Y-91460041D01*
X141281131Y-91460042D01*
X141269500Y-91518519D01*
X140130499Y-91518519D01*
X140118868Y-91460042D01*
X140118867Y-91460041D01*
X140074552Y-91393719D01*
X140008230Y-91349404D01*
X140008229Y-91349403D01*
X139949752Y-91337772D01*
X139949748Y-91337772D01*
X138910252Y-91337772D01*
X138910247Y-91337772D01*
X138851770Y-91349403D01*
X138851769Y-91349404D01*
X138785447Y-91393719D01*
X138741132Y-91460041D01*
X138741131Y-91460042D01*
X138729500Y-91518519D01*
X137890000Y-91518519D01*
X137890000Y-91490444D01*
X137889999Y-91490427D01*
X137883598Y-91430899D01*
X137883596Y-91430892D01*
X137833354Y-91296185D01*
X137833350Y-91296178D01*
X137747190Y-91181084D01*
X137747187Y-91181081D01*
X137632093Y-91094921D01*
X137632086Y-91094917D01*
X137497379Y-91044675D01*
X137497372Y-91044673D01*
X137437844Y-91038272D01*
X137140000Y-91038272D01*
X137140000Y-91450000D01*
X136640000Y-91450000D01*
X136640000Y-91038272D01*
X136342155Y-91038272D01*
X136282627Y-91044673D01*
X136282620Y-91044675D01*
X136147913Y-91094917D01*
X136147906Y-91094921D01*
X136032812Y-91181081D01*
X136032809Y-91181084D01*
X135946649Y-91296178D01*
X135946645Y-91296185D01*
X135896403Y-91430892D01*
X135896401Y-91430899D01*
X135894347Y-91450000D01*
X135345652Y-91450000D01*
X135343598Y-91430899D01*
X135343596Y-91430892D01*
X135293354Y-91296185D01*
X135293350Y-91296178D01*
X135207190Y-91181084D01*
X135207187Y-91181081D01*
X135092093Y-91094921D01*
X135092086Y-91094917D01*
X134957379Y-91044675D01*
X134957372Y-91044673D01*
X134897844Y-91038272D01*
X134600000Y-91038272D01*
X134600000Y-91450000D01*
X134100000Y-91450000D01*
X134100000Y-91038272D01*
X133802155Y-91038272D01*
X133742627Y-91044673D01*
X133742620Y-91044675D01*
X133607913Y-91094917D01*
X133607906Y-91094921D01*
X133492812Y-91181081D01*
X133492809Y-91181084D01*
X133406649Y-91296178D01*
X133406645Y-91296185D01*
X133356403Y-91430892D01*
X133356401Y-91430899D01*
X133354347Y-91450000D01*
X132805652Y-91450000D01*
X132803598Y-91430899D01*
X132803596Y-91430892D01*
X132753354Y-91296185D01*
X132753350Y-91296178D01*
X132667190Y-91181084D01*
X132667187Y-91181081D01*
X132552093Y-91094921D01*
X132552086Y-91094917D01*
X132417379Y-91044675D01*
X132417372Y-91044673D01*
X132357844Y-91038272D01*
X132060000Y-91038272D01*
X132060000Y-91450000D01*
X131560000Y-91450000D01*
X131560000Y-91038272D01*
X131262155Y-91038272D01*
X131202627Y-91044673D01*
X131202620Y-91044675D01*
X131067913Y-91094917D01*
X131067906Y-91094921D01*
X130952812Y-91181081D01*
X130952809Y-91181084D01*
X130866649Y-91296178D01*
X130866645Y-91296185D01*
X130816403Y-91430892D01*
X130816401Y-91430899D01*
X130814347Y-91450000D01*
X130265652Y-91450000D01*
X130263598Y-91430899D01*
X130263596Y-91430892D01*
X130213354Y-91296185D01*
X130213350Y-91296178D01*
X130127190Y-91181084D01*
X130127187Y-91181081D01*
X130012093Y-91094921D01*
X130012086Y-91094917D01*
X129877379Y-91044675D01*
X129877372Y-91044673D01*
X129817844Y-91038272D01*
X129520000Y-91038272D01*
X129520000Y-91450000D01*
X129020000Y-91450000D01*
X129020000Y-91038272D01*
X128722155Y-91038272D01*
X128662627Y-91044673D01*
X128662620Y-91044675D01*
X128527913Y-91094917D01*
X128527906Y-91094921D01*
X128412812Y-91181081D01*
X128412809Y-91181084D01*
X128326649Y-91296178D01*
X128326645Y-91296185D01*
X128276403Y-91430892D01*
X128276401Y-91430899D01*
X128270000Y-91490427D01*
X127589948Y-91490427D01*
X127587873Y-91480491D01*
X127587483Y-91478867D01*
X127585026Y-91468627D01*
X127542016Y-91387915D01*
X127496261Y-91335111D01*
X127496260Y-91335110D01*
X127496255Y-91335104D01*
X127478673Y-91317160D01*
X127478672Y-91317159D01*
X127478670Y-91317157D01*
X127478668Y-91317156D01*
X127478666Y-91317154D01*
X127398856Y-91272511D01*
X127398851Y-91272509D01*
X127331819Y-91252826D01*
X127331815Y-91252825D01*
X127331814Y-91252825D01*
X127273916Y-91244500D01*
X118676084Y-91244500D01*
X118676080Y-91244500D01*
X118630733Y-91249567D01*
X118630719Y-91249569D01*
X118577348Y-91261646D01*
X118565545Y-91264687D01*
X118565541Y-91264689D01*
X118485553Y-91309039D01*
X118433531Y-91355656D01*
X118433523Y-91355664D01*
X118415865Y-91373551D01*
X118415865Y-91373552D01*
X118372554Y-91454102D01*
X118372553Y-91454104D01*
X118372553Y-91454105D01*
X118366364Y-91476557D01*
X118353986Y-91521469D01*
X118346629Y-91579492D01*
X117570000Y-91579492D01*
X117570000Y-91490444D01*
X117569999Y-91490427D01*
X117563598Y-91430899D01*
X117563596Y-91430892D01*
X117513354Y-91296185D01*
X117513350Y-91296178D01*
X117427190Y-91181084D01*
X117427187Y-91181081D01*
X117312093Y-91094921D01*
X117312086Y-91094917D01*
X117177379Y-91044675D01*
X117177372Y-91044673D01*
X117117844Y-91038272D01*
X116820000Y-91038272D01*
X116820000Y-91300000D01*
X116320000Y-91300000D01*
X116320000Y-91038272D01*
X116022155Y-91038272D01*
X115962627Y-91044673D01*
X115962620Y-91044675D01*
X115827913Y-91094917D01*
X115827906Y-91094921D01*
X115712812Y-91181081D01*
X115712809Y-91181084D01*
X115626649Y-91296178D01*
X115626645Y-91296185D01*
X115625222Y-91300000D01*
X115250000Y-91300000D01*
X114550083Y-91300000D01*
X114500940Y-91272511D01*
X114500935Y-91272509D01*
X114433903Y-91252826D01*
X114433899Y-91252825D01*
X114433898Y-91252825D01*
X114376000Y-91244500D01*
X114375996Y-91244500D01*
X114225544Y-91244500D01*
X114158505Y-91224815D01*
X114112750Y-91172011D01*
X114102806Y-91102853D01*
X114131831Y-91039297D01*
X114137863Y-91032819D01*
X114708863Y-90461819D01*
X114770186Y-90428334D01*
X114796544Y-90425500D01*
X163203856Y-90425500D01*
X163678856Y-90425500D01*
X163902758Y-90425500D01*
X163969797Y-90445185D01*
X164015552Y-90497989D01*
X164025496Y-90567147D01*
X164002528Y-90623134D01*
X163992207Y-90637117D01*
X163992206Y-90637119D01*
X163947353Y-90765298D01*
X163947353Y-90765300D01*
X163944500Y-90795730D01*
X163944500Y-91504269D01*
X163947353Y-91534699D01*
X163947353Y-91534701D01*
X163992206Y-91662880D01*
X163992207Y-91662882D01*
X164072850Y-91772150D01*
X164182118Y-91852793D01*
X164224845Y-91867744D01*
X164310299Y-91897646D01*
X164340730Y-91900500D01*
X164340734Y-91900500D01*
X166449270Y-91900500D01*
X166479699Y-91897646D01*
X166479701Y-91897646D01*
X166547167Y-91874038D01*
X172399500Y-91874038D01*
X172399500Y-92125962D01*
X172419961Y-92255144D01*
X172438910Y-92374785D01*
X172516760Y-92614383D01*
X172561584Y-92702354D01*
X172622747Y-92822393D01*
X172631132Y-92838848D01*
X172779201Y-93042649D01*
X172779205Y-93042654D01*
X172957345Y-93220794D01*
X172957350Y-93220798D01*
X173095267Y-93321000D01*
X173161155Y-93368870D01*
X173288576Y-93433794D01*
X173385616Y-93483239D01*
X173385618Y-93483239D01*
X173385621Y-93483241D01*
X173625215Y-93561090D01*
X173874038Y-93600500D01*
X173874039Y-93600500D01*
X174125961Y-93600500D01*
X174125962Y-93600500D01*
X174374785Y-93561090D01*
X174614379Y-93483241D01*
X174838845Y-93368870D01*
X175042656Y-93220793D01*
X175220793Y-93042656D01*
X175368870Y-92838845D01*
X175483241Y-92614379D01*
X175561090Y-92374785D01*
X175600500Y-92125962D01*
X175600500Y-91874038D01*
X175561090Y-91625215D01*
X175483241Y-91385621D01*
X175483239Y-91385618D01*
X175483239Y-91385616D01*
X175437668Y-91296178D01*
X175368870Y-91161155D01*
X175320748Y-91094921D01*
X175220798Y-90957350D01*
X175220794Y-90957345D01*
X175042654Y-90779205D01*
X175042649Y-90779201D01*
X174838848Y-90631132D01*
X174838847Y-90631131D01*
X174838845Y-90631130D01*
X174768747Y-90595413D01*
X174614383Y-90516760D01*
X174374785Y-90438910D01*
X174290118Y-90425500D01*
X174125962Y-90399500D01*
X173874038Y-90399500D01*
X173749626Y-90419205D01*
X173625214Y-90438910D01*
X173385616Y-90516760D01*
X173161151Y-90631132D01*
X172957350Y-90779201D01*
X172957345Y-90779205D01*
X172779205Y-90957345D01*
X172779201Y-90957350D01*
X172631132Y-91161151D01*
X172516760Y-91385616D01*
X172438910Y-91625214D01*
X172429105Y-91687118D01*
X172399500Y-91874038D01*
X166547167Y-91874038D01*
X166607882Y-91852793D01*
X166717150Y-91772150D01*
X166797793Y-91662882D01*
X166826972Y-91579493D01*
X166842646Y-91534701D01*
X166842646Y-91534699D01*
X166845500Y-91504269D01*
X166845500Y-90795730D01*
X166842646Y-90765300D01*
X166842646Y-90765298D01*
X166797793Y-90637119D01*
X166797792Y-90637117D01*
X166793375Y-90631132D01*
X166717150Y-90527850D01*
X166607882Y-90447207D01*
X166607880Y-90447206D01*
X166479700Y-90402353D01*
X166449270Y-90399500D01*
X166449266Y-90399500D01*
X165191544Y-90399500D01*
X165124505Y-90379815D01*
X165103863Y-90363181D01*
X164935521Y-90194839D01*
X164902036Y-90133516D01*
X164905000Y-90092069D01*
X164905000Y-90049999D01*
X165405000Y-90049999D01*
X165428308Y-90049999D01*
X165428322Y-90049998D01*
X165527607Y-90039855D01*
X165688481Y-89986547D01*
X165688492Y-89986542D01*
X165832728Y-89897575D01*
X165832732Y-89897572D01*
X165952572Y-89777732D01*
X165952575Y-89777728D01*
X166041542Y-89633492D01*
X166041547Y-89633481D01*
X166094855Y-89472606D01*
X166104999Y-89373322D01*
X166105000Y-89373309D01*
X166105000Y-89325000D01*
X165405000Y-89325000D01*
X165405000Y-90049999D01*
X164905000Y-90049999D01*
X164905000Y-89199000D01*
X164924685Y-89131961D01*
X164977489Y-89086206D01*
X165029000Y-89075000D01*
X165155000Y-89075000D01*
X165155000Y-88949000D01*
X165174685Y-88881961D01*
X165227489Y-88836206D01*
X165279000Y-88825000D01*
X166104999Y-88825000D01*
X166104999Y-88776692D01*
X166104998Y-88776677D01*
X166094855Y-88677393D01*
X166090253Y-88663502D01*
X166087853Y-88593673D01*
X166123586Y-88533632D01*
X166186107Y-88502441D01*
X166207960Y-88500500D01*
X177375500Y-88500500D01*
X177442539Y-88520185D01*
X177488294Y-88572989D01*
X177499500Y-88624500D01*
X177499500Y-95126000D01*
X177479815Y-95193039D01*
X177427011Y-95238794D01*
X177375500Y-95250000D01*
X175350000Y-95250000D01*
X175350000Y-97250000D01*
X177375500Y-97250000D01*
X177442539Y-97269685D01*
X177488294Y-97322489D01*
X177499500Y-97374000D01*
X177499500Y-137375500D01*
X177479815Y-137442539D01*
X177427011Y-137488294D01*
X177375500Y-137499500D01*
X78624500Y-137499500D01*
X78557461Y-137479815D01*
X78511706Y-137427011D01*
X78500500Y-137375500D01*
X78500500Y-136550000D01*
X85800000Y-136550000D01*
X87800000Y-136550000D01*
X87800000Y-134550000D01*
X85800000Y-134550000D01*
X85800000Y-136550000D01*
X78500500Y-136550000D01*
X78500500Y-133874038D01*
X80399500Y-133874038D01*
X80399500Y-134125962D01*
X80423349Y-134276535D01*
X80438910Y-134374785D01*
X80516760Y-134614383D01*
X80575679Y-134730017D01*
X80616834Y-134810788D01*
X80631132Y-134838848D01*
X80779201Y-135042649D01*
X80779205Y-135042654D01*
X80957345Y-135220794D01*
X80957350Y-135220798D01*
X81050967Y-135288814D01*
X81161155Y-135368870D01*
X81304184Y-135441747D01*
X81385616Y-135483239D01*
X81385618Y-135483239D01*
X81385621Y-135483241D01*
X81625215Y-135561090D01*
X81874038Y-135600500D01*
X81874039Y-135600500D01*
X82125961Y-135600500D01*
X82125962Y-135600500D01*
X82374785Y-135561090D01*
X82614379Y-135483241D01*
X82838845Y-135368870D01*
X83042656Y-135220793D01*
X83220793Y-135042656D01*
X83368870Y-134838845D01*
X83483241Y-134614379D01*
X83561090Y-134374785D01*
X83600500Y-134125962D01*
X83600500Y-133874038D01*
X83585492Y-133779281D01*
X83571551Y-133691262D01*
X83568977Y-133675013D01*
X99200000Y-133675013D01*
X99200000Y-134200000D01*
X100145854Y-134200000D01*
X100107370Y-134266657D01*
X100075000Y-134387465D01*
X100075000Y-134512535D01*
X100107370Y-134633343D01*
X100145854Y-134700000D01*
X99200001Y-134700000D01*
X99200001Y-135224986D01*
X99210494Y-135327697D01*
X99265641Y-135494119D01*
X99265643Y-135494124D01*
X99357684Y-135643345D01*
X99481654Y-135767315D01*
X99630875Y-135859356D01*
X99630880Y-135859358D01*
X99797302Y-135914505D01*
X99797309Y-135914506D01*
X99900019Y-135924999D01*
X100299999Y-135924999D01*
X100300000Y-135924998D01*
X100300000Y-134854145D01*
X100366657Y-134892630D01*
X100487465Y-134925000D01*
X100612535Y-134925000D01*
X100733343Y-134892630D01*
X100800000Y-134854145D01*
X100800000Y-135924999D01*
X101199972Y-135924999D01*
X101199986Y-135924998D01*
X101302697Y-135914505D01*
X101469119Y-135859358D01*
X101469124Y-135859356D01*
X101618345Y-135767315D01*
X101742315Y-135643345D01*
X101834356Y-135494124D01*
X101834358Y-135494119D01*
X101889505Y-135327697D01*
X101889506Y-135327690D01*
X101899999Y-135224986D01*
X101899999Y-135153528D01*
X101919683Y-135086488D01*
X101972486Y-135040732D01*
X102041644Y-135030788D01*
X102105200Y-135059812D01*
X102127101Y-135084635D01*
X102234022Y-135244655D01*
X102380342Y-135390975D01*
X102380345Y-135390977D01*
X102552402Y-135505941D01*
X102743580Y-135585130D01*
X102897825Y-135615811D01*
X102946530Y-135625499D01*
X102946534Y-135625500D01*
X102946535Y-135625500D01*
X103153466Y-135625500D01*
X103153467Y-135625499D01*
X103356420Y-135585130D01*
X103515359Y-135519295D01*
X103584829Y-135511826D01*
X103647308Y-135543101D01*
X103650493Y-135546175D01*
X105184788Y-137080470D01*
X105264712Y-137126614D01*
X105353856Y-137150500D01*
X105353858Y-137150500D01*
X163896142Y-137150500D01*
X163896144Y-137150500D01*
X163985288Y-137126614D01*
X164065212Y-137080470D01*
X165055470Y-136090212D01*
X165101614Y-136010288D01*
X165125500Y-135921143D01*
X165125500Y-135828856D01*
X165125500Y-133874038D01*
X172399500Y-133874038D01*
X172399500Y-134125962D01*
X172423349Y-134276535D01*
X172438910Y-134374785D01*
X172516760Y-134614383D01*
X172575679Y-134730017D01*
X172616834Y-134810788D01*
X172631132Y-134838848D01*
X172779201Y-135042649D01*
X172779205Y-135042654D01*
X172957345Y-135220794D01*
X172957350Y-135220798D01*
X173050967Y-135288814D01*
X173161155Y-135368870D01*
X173304184Y-135441747D01*
X173385616Y-135483239D01*
X173385618Y-135483239D01*
X173385621Y-135483241D01*
X173625215Y-135561090D01*
X173874038Y-135600500D01*
X173874039Y-135600500D01*
X174125961Y-135600500D01*
X174125962Y-135600500D01*
X174374785Y-135561090D01*
X174614379Y-135483241D01*
X174838845Y-135368870D01*
X175042656Y-135220793D01*
X175220793Y-135042656D01*
X175368870Y-134838845D01*
X175483241Y-134614379D01*
X175561090Y-134374785D01*
X175600500Y-134125962D01*
X175600500Y-133874038D01*
X175561090Y-133625215D01*
X175483241Y-133385621D01*
X175483239Y-133385618D01*
X175483239Y-133385616D01*
X175417529Y-133256654D01*
X175368870Y-133161155D01*
X175348185Y-133132684D01*
X175220798Y-132957350D01*
X175220794Y-132957345D01*
X175042654Y-132779205D01*
X175042649Y-132779201D01*
X174838848Y-132631132D01*
X174838847Y-132631131D01*
X174838845Y-132631130D01*
X174768747Y-132595413D01*
X174614383Y-132516760D01*
X174374785Y-132438910D01*
X174125962Y-132399500D01*
X173874038Y-132399500D01*
X173749626Y-132419205D01*
X173625214Y-132438910D01*
X173385616Y-132516760D01*
X173161151Y-132631132D01*
X172957350Y-132779201D01*
X172957345Y-132779205D01*
X172779205Y-132957345D01*
X172779201Y-132957350D01*
X172631132Y-133161151D01*
X172516760Y-133385616D01*
X172438910Y-133625214D01*
X172414508Y-133779281D01*
X172399500Y-133874038D01*
X165125500Y-133874038D01*
X165125500Y-115278856D01*
X165101614Y-115189712D01*
X165055470Y-115109788D01*
X156252712Y-106307030D01*
X156252711Y-106307029D01*
X156252708Y-106307027D01*
X156172788Y-106260886D01*
X156167641Y-106259507D01*
X156163924Y-106258511D01*
X156110793Y-106244274D01*
X156098868Y-106237006D01*
X156051134Y-106207911D01*
X156051133Y-106207910D01*
X156032220Y-106168976D01*
X156020604Y-106145064D01*
X156028898Y-106075688D01*
X156073383Y-106021810D01*
X156139935Y-106000535D01*
X156142887Y-106000500D01*
X169539560Y-106000500D01*
X169539562Y-106000500D01*
X169615989Y-105980021D01*
X169684511Y-105940460D01*
X169740460Y-105884511D01*
X173170817Y-102454152D01*
X174375001Y-102454152D01*
X174385056Y-102552583D01*
X174437906Y-102712072D01*
X174437908Y-102712077D01*
X174526114Y-102855080D01*
X174644919Y-102973885D01*
X174787922Y-103062091D01*
X174787927Y-103062093D01*
X174947416Y-103114942D01*
X175045855Y-103124999D01*
X175600000Y-103124999D01*
X175654136Y-103124999D01*
X175654152Y-103124998D01*
X175752583Y-103114943D01*
X175912072Y-103062093D01*
X175912077Y-103062091D01*
X176055080Y-102973885D01*
X176173885Y-102855080D01*
X176262091Y-102712077D01*
X176262093Y-102712072D01*
X176314942Y-102552583D01*
X176324999Y-102454150D01*
X176325000Y-102454137D01*
X176325000Y-102437500D01*
X175600000Y-102437500D01*
X175600000Y-103124999D01*
X175045855Y-103124999D01*
X175099999Y-103124998D01*
X175100000Y-103124998D01*
X175100000Y-102437500D01*
X174375001Y-102437500D01*
X174375001Y-102454152D01*
X173170817Y-102454152D01*
X173508152Y-102116817D01*
X173569475Y-102083333D01*
X173595833Y-102080499D01*
X173809895Y-102080499D01*
X173809900Y-102080499D01*
X173859487Y-102073972D01*
X173968316Y-102023224D01*
X174053224Y-101938316D01*
X174103972Y-101829487D01*
X174110500Y-101779901D01*
X174110499Y-101420100D01*
X174103972Y-101370513D01*
X174053224Y-101261684D01*
X173979221Y-101187681D01*
X173974882Y-101179735D01*
X173967635Y-101174310D01*
X173958400Y-101149550D01*
X173945736Y-101126358D01*
X173946381Y-101117328D01*
X173943218Y-101108846D01*
X173948834Y-101083025D01*
X173950720Y-101056666D01*
X173956538Y-101047612D01*
X173958070Y-101040573D01*
X173979221Y-101012319D01*
X174054721Y-100936819D01*
X174116044Y-100903334D01*
X174142402Y-100900500D01*
X174582512Y-100900500D01*
X174649551Y-100920185D01*
X174692996Y-100968204D01*
X174750342Y-101080751D01*
X174750344Y-101080753D01*
X174750346Y-101080756D01*
X174797377Y-101127787D01*
X174830862Y-101189110D01*
X174825878Y-101258802D01*
X174784006Y-101314735D01*
X174774793Y-101321006D01*
X174644924Y-101401110D01*
X174644920Y-101401113D01*
X174526114Y-101519919D01*
X174437908Y-101662922D01*
X174437906Y-101662927D01*
X174385057Y-101822416D01*
X174375000Y-101920849D01*
X174375000Y-101937500D01*
X176324999Y-101937500D01*
X176324999Y-101920864D01*
X176324998Y-101920847D01*
X176314943Y-101822416D01*
X176262093Y-101662927D01*
X176262091Y-101662922D01*
X176173885Y-101519919D01*
X176055080Y-101401114D01*
X175925206Y-101321007D01*
X175878482Y-101269059D01*
X175867259Y-101200096D01*
X175895103Y-101136014D01*
X175902623Y-101127786D01*
X175949654Y-101080755D01*
X175949658Y-101080751D01*
X176009951Y-100962420D01*
X176009951Y-100962418D01*
X176009952Y-100962417D01*
X176025500Y-100864251D01*
X176025500Y-100360748D01*
X176009952Y-100262582D01*
X175988311Y-100220110D01*
X175949658Y-100144249D01*
X175949654Y-100144245D01*
X175949653Y-100144243D01*
X175855756Y-100050346D01*
X175855753Y-100050344D01*
X175855751Y-100050342D01*
X175737420Y-99990049D01*
X175737419Y-99990048D01*
X175737416Y-99990047D01*
X175737417Y-99990047D01*
X175639251Y-99974500D01*
X175639246Y-99974500D01*
X175060754Y-99974500D01*
X175060749Y-99974500D01*
X174962582Y-99990047D01*
X174886498Y-100028815D01*
X174844249Y-100050342D01*
X174844248Y-100050343D01*
X174844243Y-100050346D01*
X174750346Y-100144243D01*
X174750343Y-100144247D01*
X174750342Y-100144249D01*
X174705733Y-100231797D01*
X174657762Y-100282591D01*
X174595251Y-100299500D01*
X174142402Y-100299500D01*
X174075363Y-100279815D01*
X174054721Y-100263181D01*
X173968316Y-100176776D01*
X173909730Y-100149457D01*
X173859487Y-100126028D01*
X173859485Y-100126027D01*
X173859486Y-100126027D01*
X173809901Y-100119500D01*
X173390105Y-100119500D01*
X173374386Y-100121569D01*
X173340513Y-100126028D01*
X173340511Y-100126029D01*
X173340509Y-100126029D01*
X173231683Y-100176776D01*
X173146776Y-100261683D01*
X173096027Y-100370514D01*
X173089500Y-100420097D01*
X173089500Y-100779894D01*
X173089501Y-100779900D01*
X173096028Y-100829487D01*
X173096029Y-100829489D01*
X173096029Y-100829490D01*
X173146776Y-100938316D01*
X173220779Y-101012319D01*
X173254264Y-101073642D01*
X173249280Y-101143334D01*
X173220779Y-101187681D01*
X173146776Y-101261683D01*
X173096027Y-101370514D01*
X173089500Y-101420098D01*
X173089500Y-101634166D01*
X173069815Y-101701205D01*
X173053181Y-101721847D01*
X169411848Y-105363181D01*
X169350525Y-105396666D01*
X169324167Y-105399500D01*
X161923012Y-105399500D01*
X161855973Y-105379815D01*
X161810218Y-105327011D01*
X161800274Y-105257853D01*
X161829299Y-105194297D01*
X161884008Y-105157794D01*
X162008481Y-105116547D01*
X162008492Y-105116542D01*
X162152728Y-105027575D01*
X162152732Y-105027572D01*
X162272572Y-104907732D01*
X162272575Y-104907728D01*
X162361542Y-104763492D01*
X162361547Y-104763481D01*
X162414855Y-104602606D01*
X162424999Y-104503322D01*
X162425000Y-104503309D01*
X162425000Y-104480000D01*
X160475001Y-104480000D01*
X160475001Y-104503322D01*
X160485144Y-104602607D01*
X160538452Y-104763481D01*
X160538457Y-104763492D01*
X160627424Y-104907728D01*
X160627427Y-104907732D01*
X160747267Y-105027572D01*
X160747271Y-105027575D01*
X160891507Y-105116542D01*
X160891518Y-105116547D01*
X161015992Y-105157794D01*
X161073437Y-105197567D01*
X161100260Y-105262083D01*
X161087945Y-105330858D01*
X161040402Y-105382058D01*
X160976988Y-105399500D01*
X154717832Y-105399500D01*
X154650793Y-105379815D01*
X154630151Y-105363181D01*
X152989150Y-103722180D01*
X152955665Y-103660857D01*
X152960649Y-103591165D01*
X153002521Y-103535232D01*
X153067985Y-103510815D01*
X153076822Y-103510499D01*
X153179900Y-103510499D01*
X153229487Y-103503972D01*
X153338316Y-103453224D01*
X153412319Y-103379221D01*
X153473642Y-103345736D01*
X153543334Y-103350720D01*
X153587681Y-103379221D01*
X153661684Y-103453224D01*
X153770513Y-103503972D01*
X153820099Y-103510500D01*
X154179900Y-103510499D01*
X154229487Y-103503972D01*
X154338316Y-103453224D01*
X154404721Y-103386819D01*
X154466044Y-103353334D01*
X154492402Y-103350500D01*
X155836142Y-103350500D01*
X155836144Y-103350500D01*
X155925288Y-103326614D01*
X156005212Y-103280470D01*
X158277896Y-101007784D01*
X158339217Y-100974301D01*
X158408909Y-100979285D01*
X158413028Y-100980906D01*
X158483580Y-101010130D01*
X158672016Y-101047612D01*
X158686530Y-101050499D01*
X158686534Y-101050500D01*
X158686535Y-101050500D01*
X158893466Y-101050500D01*
X158893467Y-101050499D01*
X159096420Y-101010130D01*
X159166972Y-100980905D01*
X159236438Y-100973437D01*
X159298918Y-101004711D01*
X159302104Y-101007786D01*
X160738181Y-102443863D01*
X160771666Y-102505186D01*
X160774500Y-102531544D01*
X160774500Y-102928493D01*
X160790279Y-103028121D01*
X160790280Y-103028124D01*
X160790281Y-103028126D01*
X160851472Y-103148220D01*
X160851473Y-103148221D01*
X160851476Y-103148225D01*
X160876609Y-103173358D01*
X160910094Y-103234681D01*
X160905110Y-103304373D01*
X160863238Y-103360306D01*
X160854026Y-103366577D01*
X160747268Y-103432426D01*
X160627427Y-103552267D01*
X160627424Y-103552271D01*
X160538457Y-103696507D01*
X160538452Y-103696518D01*
X160485144Y-103857393D01*
X160475000Y-103956677D01*
X160475000Y-103980000D01*
X162424999Y-103980000D01*
X162424999Y-103956692D01*
X162424998Y-103956677D01*
X162414855Y-103857392D01*
X162361547Y-103696518D01*
X162361542Y-103696507D01*
X162272575Y-103552271D01*
X162272572Y-103552267D01*
X162152732Y-103432427D01*
X162152728Y-103432424D01*
X162045974Y-103366577D01*
X161999249Y-103314629D01*
X161988028Y-103245667D01*
X162007617Y-103192677D01*
X162014524Y-103182223D01*
X162048528Y-103148220D01*
X162087379Y-103071969D01*
X162091233Y-103066138D01*
X162112799Y-103047925D01*
X162132177Y-103027409D01*
X162139413Y-103025451D01*
X162144615Y-103021059D01*
X162165986Y-103018263D01*
X162194687Y-103010500D01*
X162212538Y-103010500D01*
X162279577Y-103030185D01*
X162300219Y-103046819D01*
X162301896Y-103048496D01*
X162412604Y-103112414D01*
X162536083Y-103145500D01*
X162536085Y-103145500D01*
X164043915Y-103145500D01*
X164043917Y-103145500D01*
X164167396Y-103112414D01*
X164278104Y-103048496D01*
X164368496Y-102958104D01*
X164396269Y-102910000D01*
X167273875Y-102910000D01*
X167324340Y-103031834D01*
X167410250Y-103160407D01*
X167410253Y-103160411D01*
X167519588Y-103269746D01*
X167519592Y-103269749D01*
X167648164Y-103355659D01*
X167791023Y-103414832D01*
X167791031Y-103414834D01*
X167942679Y-103444999D01*
X167942683Y-103445000D01*
X168460000Y-103445000D01*
X168960000Y-103445000D01*
X169477317Y-103445000D01*
X169477320Y-103444999D01*
X169628968Y-103414834D01*
X169628976Y-103414832D01*
X169771835Y-103355659D01*
X169900407Y-103269749D01*
X169900411Y-103269746D01*
X170009746Y-103160411D01*
X170009749Y-103160407D01*
X170095659Y-103031834D01*
X170146125Y-102910000D01*
X168960000Y-102910000D01*
X168960000Y-103445000D01*
X168460000Y-103445000D01*
X168460000Y-102910000D01*
X167273875Y-102910000D01*
X164396269Y-102910000D01*
X164432414Y-102847396D01*
X164465500Y-102723917D01*
X164465500Y-102596083D01*
X164432414Y-102472604D01*
X164396269Y-102409999D01*
X167273875Y-102409999D01*
X167273875Y-102410000D01*
X168460000Y-102410000D01*
X168960000Y-102410000D01*
X170146125Y-102410000D01*
X170146124Y-102409999D01*
X170095659Y-102288165D01*
X170009749Y-102159592D01*
X170009746Y-102159588D01*
X169962839Y-102112681D01*
X169929354Y-102051358D01*
X169934338Y-101981666D01*
X169962839Y-101937319D01*
X170009746Y-101890411D01*
X170009749Y-101890407D01*
X170095659Y-101761834D01*
X170146125Y-101640000D01*
X168960000Y-101640000D01*
X168960000Y-102410000D01*
X168460000Y-102410000D01*
X168460000Y-101640000D01*
X167273875Y-101640000D01*
X167324340Y-101761834D01*
X167410250Y-101890407D01*
X167410253Y-101890411D01*
X167457161Y-101937319D01*
X167490646Y-101998642D01*
X167485662Y-102068334D01*
X167457161Y-102112681D01*
X167410253Y-102159588D01*
X167410250Y-102159592D01*
X167324340Y-102288165D01*
X167273875Y-102409999D01*
X164396269Y-102409999D01*
X164368496Y-102361896D01*
X164278104Y-102271504D01*
X164167396Y-102207586D01*
X164043917Y-102174500D01*
X162536083Y-102174500D01*
X162412603Y-102207586D01*
X162301896Y-102271504D01*
X162301893Y-102271506D01*
X162300219Y-102273181D01*
X162298459Y-102274142D01*
X162295450Y-102276451D01*
X162295089Y-102275981D01*
X162273291Y-102287884D01*
X162247473Y-102304477D01*
X162241272Y-102305368D01*
X162238896Y-102306666D01*
X162212538Y-102309500D01*
X162184496Y-102309500D01*
X162117457Y-102289815D01*
X162074011Y-102241794D01*
X162066578Y-102227206D01*
X162048528Y-102191780D01*
X162048525Y-102191777D01*
X162048523Y-102191774D01*
X161953225Y-102096476D01*
X161953221Y-102096473D01*
X161953220Y-102096472D01*
X161833126Y-102035281D01*
X161833124Y-102035280D01*
X161833121Y-102035279D01*
X161733493Y-102019500D01*
X161733488Y-102019500D01*
X161356544Y-102019500D01*
X161289505Y-101999815D01*
X161268863Y-101983181D01*
X160611765Y-101326083D01*
X162114500Y-101326083D01*
X162114500Y-101453917D01*
X162147586Y-101577396D01*
X162211504Y-101688104D01*
X162301896Y-101778496D01*
X162412604Y-101842414D01*
X162536083Y-101875500D01*
X162536085Y-101875500D01*
X164043915Y-101875500D01*
X164043917Y-101875500D01*
X164167396Y-101842414D01*
X164278104Y-101778496D01*
X164368496Y-101688104D01*
X164432414Y-101577396D01*
X164465500Y-101453917D01*
X164465500Y-101326083D01*
X164432414Y-101202604D01*
X164396269Y-101139999D01*
X167273875Y-101139999D01*
X167273875Y-101140000D01*
X168460000Y-101140000D01*
X168960000Y-101140000D01*
X170146125Y-101140000D01*
X170146124Y-101139999D01*
X170095659Y-101018165D01*
X170009749Y-100889592D01*
X170009746Y-100889588D01*
X169957839Y-100837681D01*
X169924354Y-100776358D01*
X169929338Y-100706666D01*
X169957839Y-100662319D01*
X170009746Y-100610411D01*
X170009749Y-100610407D01*
X170095659Y-100481834D01*
X170146125Y-100360000D01*
X168960000Y-100360000D01*
X168960000Y-101140000D01*
X168460000Y-101140000D01*
X168460000Y-100360000D01*
X167273875Y-100360000D01*
X167324340Y-100481834D01*
X167410250Y-100610407D01*
X167410253Y-100610411D01*
X167462161Y-100662319D01*
X167495646Y-100723642D01*
X167490662Y-100793334D01*
X167462161Y-100837681D01*
X167410253Y-100889588D01*
X167410250Y-100889592D01*
X167324340Y-101018165D01*
X167273875Y-101139999D01*
X164396269Y-101139999D01*
X164368496Y-101091896D01*
X164278104Y-101001504D01*
X164167396Y-100937586D01*
X164043917Y-100904500D01*
X162536083Y-100904500D01*
X162412603Y-100937586D01*
X162301896Y-101001504D01*
X162301893Y-101001506D01*
X162211506Y-101091893D01*
X162211504Y-101091896D01*
X162147586Y-101202603D01*
X162129779Y-101269059D01*
X162114500Y-101326083D01*
X160611765Y-101326083D01*
X159797786Y-100512104D01*
X159764301Y-100450781D01*
X159769285Y-100381089D01*
X159770887Y-100377015D01*
X159800130Y-100306420D01*
X159840500Y-100103465D01*
X159840500Y-99896535D01*
X159800130Y-99693580D01*
X159720941Y-99502402D01*
X159647434Y-99392390D01*
X159626557Y-99325713D01*
X159645042Y-99258333D01*
X159697021Y-99211643D01*
X159750537Y-99199500D01*
X161213167Y-99199500D01*
X161280206Y-99219185D01*
X161300848Y-99235819D01*
X162078181Y-100013152D01*
X162111666Y-100074475D01*
X162114500Y-100100833D01*
X162114500Y-100173917D01*
X162147586Y-100297396D01*
X162211504Y-100408104D01*
X162301896Y-100498496D01*
X162412604Y-100562414D01*
X162536083Y-100595500D01*
X162536085Y-100595500D01*
X164043915Y-100595500D01*
X164043917Y-100595500D01*
X164167396Y-100562414D01*
X164278104Y-100498496D01*
X164368496Y-100408104D01*
X164432414Y-100297396D01*
X164465500Y-100173917D01*
X164465500Y-100046083D01*
X164432414Y-99922604D01*
X164396269Y-99859999D01*
X167273875Y-99859999D01*
X167273875Y-99860000D01*
X168460000Y-99860000D01*
X168960000Y-99860000D01*
X170146125Y-99860000D01*
X170146124Y-99859999D01*
X170095659Y-99738165D01*
X170009749Y-99609592D01*
X170009746Y-99609588D01*
X169962839Y-99562681D01*
X169929354Y-99501358D01*
X169934338Y-99431666D01*
X169962839Y-99387319D01*
X170009746Y-99340411D01*
X170009749Y-99340407D01*
X170095659Y-99211834D01*
X170146125Y-99090000D01*
X168960000Y-99090000D01*
X168960000Y-99860000D01*
X168460000Y-99860000D01*
X168460000Y-99090000D01*
X167273875Y-99090000D01*
X167324340Y-99211834D01*
X167410250Y-99340407D01*
X167410253Y-99340411D01*
X167457161Y-99387319D01*
X167490646Y-99448642D01*
X167485662Y-99518334D01*
X167457161Y-99562681D01*
X167410253Y-99609588D01*
X167410250Y-99609592D01*
X167324340Y-99738165D01*
X167273875Y-99859999D01*
X164396269Y-99859999D01*
X164368496Y-99811896D01*
X164278104Y-99721504D01*
X164167396Y-99657586D01*
X164043917Y-99624500D01*
X164043916Y-99624500D01*
X162590833Y-99624500D01*
X162561392Y-99615855D01*
X162531406Y-99609332D01*
X162526390Y-99605577D01*
X162523794Y-99604815D01*
X162503152Y-99588181D01*
X162452152Y-99537181D01*
X162418667Y-99475858D01*
X162423651Y-99406166D01*
X162465523Y-99350233D01*
X162530987Y-99325816D01*
X162539833Y-99325500D01*
X164043915Y-99325500D01*
X164043917Y-99325500D01*
X164167396Y-99292414D01*
X164278104Y-99228496D01*
X164368496Y-99138104D01*
X164432414Y-99027396D01*
X164465500Y-98903917D01*
X164465500Y-98776083D01*
X164432414Y-98652604D01*
X164396269Y-98589999D01*
X167273875Y-98589999D01*
X167273875Y-98590000D01*
X168460000Y-98590000D01*
X168960000Y-98590000D01*
X170146125Y-98590000D01*
X170146124Y-98589999D01*
X170095659Y-98468165D01*
X170009749Y-98339592D01*
X170009746Y-98339588D01*
X169900411Y-98230253D01*
X169900407Y-98230250D01*
X169771835Y-98144340D01*
X169628976Y-98085167D01*
X169628968Y-98085165D01*
X169477320Y-98055000D01*
X168960000Y-98055000D01*
X168960000Y-98590000D01*
X168460000Y-98590000D01*
X168460000Y-98055000D01*
X167942679Y-98055000D01*
X167791031Y-98085165D01*
X167791023Y-98085167D01*
X167648164Y-98144340D01*
X167519592Y-98230250D01*
X167519588Y-98230253D01*
X167410253Y-98339588D01*
X167410250Y-98339592D01*
X167324340Y-98468165D01*
X167273875Y-98589999D01*
X164396269Y-98589999D01*
X164368496Y-98541896D01*
X164278104Y-98451504D01*
X164167396Y-98387586D01*
X164043917Y-98354500D01*
X164043916Y-98354500D01*
X163280833Y-98354500D01*
X163213794Y-98334815D01*
X163193152Y-98318181D01*
X163182512Y-98307541D01*
X163182504Y-98307535D01*
X163134847Y-98280020D01*
X163134847Y-98280021D01*
X163117233Y-98269852D01*
X163113989Y-98267979D01*
X163037562Y-98247500D01*
X163037560Y-98247500D01*
X158243402Y-98247500D01*
X158176363Y-98227815D01*
X158130608Y-98175011D01*
X158120664Y-98105853D01*
X158149689Y-98042297D01*
X158155721Y-98035819D01*
X158203224Y-97988316D01*
X158253972Y-97879487D01*
X158260500Y-97829901D01*
X158260499Y-97470100D01*
X158253972Y-97420513D01*
X158203224Y-97311684D01*
X158129221Y-97237681D01*
X158095736Y-97176358D01*
X158100720Y-97106666D01*
X158129221Y-97062319D01*
X158203224Y-96988316D01*
X158253972Y-96879487D01*
X158260500Y-96829901D01*
X158260499Y-96470100D01*
X158253972Y-96420513D01*
X158203224Y-96311684D01*
X158136819Y-96245279D01*
X158122115Y-96218351D01*
X158105523Y-96192533D01*
X158104631Y-96186332D01*
X158103334Y-96183956D01*
X158100500Y-96157598D01*
X158100500Y-96099986D01*
X163645001Y-96099986D01*
X163655494Y-96202697D01*
X163710641Y-96369119D01*
X163710643Y-96369124D01*
X163802684Y-96518345D01*
X163926654Y-96642315D01*
X164075875Y-96734356D01*
X164075880Y-96734358D01*
X164242302Y-96789505D01*
X164242309Y-96789506D01*
X164345019Y-96799999D01*
X165144999Y-96799999D01*
X165645000Y-96799999D01*
X166444972Y-96799999D01*
X166444986Y-96799998D01*
X166547697Y-96789505D01*
X166714119Y-96734358D01*
X166714124Y-96734356D01*
X166863345Y-96642315D01*
X166987315Y-96518345D01*
X167079356Y-96369124D01*
X167079358Y-96369119D01*
X167134505Y-96202697D01*
X167134506Y-96202690D01*
X167144999Y-96099986D01*
X167145000Y-96099973D01*
X167145000Y-96000000D01*
X165645000Y-96000000D01*
X165645000Y-96799999D01*
X165144999Y-96799999D01*
X165145000Y-96799998D01*
X165145000Y-96000000D01*
X163645001Y-96000000D01*
X163645001Y-96099986D01*
X158100500Y-96099986D01*
X158100500Y-95507002D01*
X158120185Y-95439963D01*
X158172989Y-95394208D01*
X158242147Y-95384264D01*
X158282617Y-95400874D01*
X158283899Y-95398449D01*
X158292115Y-95402791D01*
X158292118Y-95402793D01*
X158334845Y-95417744D01*
X158420299Y-95447646D01*
X158450730Y-95450500D01*
X158450734Y-95450500D01*
X160399270Y-95450500D01*
X160429699Y-95447646D01*
X160429701Y-95447646D01*
X160493790Y-95425219D01*
X160557882Y-95402793D01*
X160561649Y-95400013D01*
X163645000Y-95400013D01*
X163645000Y-95500000D01*
X165145000Y-95500000D01*
X165645000Y-95500000D01*
X167144999Y-95500000D01*
X167144999Y-95400028D01*
X167144998Y-95400013D01*
X167134505Y-95297302D01*
X167079358Y-95130880D01*
X167079356Y-95130875D01*
X166987315Y-94981654D01*
X166863345Y-94857684D01*
X166714124Y-94765643D01*
X166714119Y-94765641D01*
X166547697Y-94710494D01*
X166547690Y-94710493D01*
X166444986Y-94700000D01*
X165645000Y-94700000D01*
X165645000Y-95500000D01*
X165145000Y-95500000D01*
X165145000Y-94700000D01*
X164345028Y-94700000D01*
X164345012Y-94700001D01*
X164242302Y-94710494D01*
X164075880Y-94765641D01*
X164075875Y-94765643D01*
X163926654Y-94857684D01*
X163802684Y-94981654D01*
X163710643Y-95130875D01*
X163710641Y-95130880D01*
X163655494Y-95297302D01*
X163655493Y-95297309D01*
X163645000Y-95400013D01*
X160561649Y-95400013D01*
X160667150Y-95322150D01*
X160747793Y-95212882D01*
X160776487Y-95130880D01*
X160792646Y-95084701D01*
X160792646Y-95084699D01*
X160795500Y-95054269D01*
X160795500Y-93924500D01*
X160815185Y-93857461D01*
X160867989Y-93811706D01*
X160919500Y-93800500D01*
X163847404Y-93800500D01*
X163914443Y-93820185D01*
X163960198Y-93872989D01*
X163964445Y-93883544D01*
X163992206Y-93962880D01*
X163992207Y-93962882D01*
X164072850Y-94072150D01*
X164182118Y-94152793D01*
X164224845Y-94167744D01*
X164310299Y-94197646D01*
X164340730Y-94200500D01*
X164340734Y-94200500D01*
X166449270Y-94200500D01*
X166479699Y-94197646D01*
X166479701Y-94197646D01*
X166543790Y-94175219D01*
X166607882Y-94152793D01*
X166717150Y-94072150D01*
X166797793Y-93962882D01*
X166820219Y-93898790D01*
X166842646Y-93834701D01*
X166842646Y-93834699D01*
X166845500Y-93804269D01*
X166845500Y-93095730D01*
X166842646Y-93065300D01*
X166842646Y-93065298D01*
X166797793Y-92937119D01*
X166797792Y-92937117D01*
X166752770Y-92876114D01*
X166717150Y-92827850D01*
X166607882Y-92747207D01*
X166607880Y-92747206D01*
X166479700Y-92702353D01*
X166449270Y-92699500D01*
X166449266Y-92699500D01*
X164340734Y-92699500D01*
X164340730Y-92699500D01*
X164310300Y-92702353D01*
X164310298Y-92702353D01*
X164182119Y-92747206D01*
X164182117Y-92747207D01*
X164072850Y-92827850D01*
X163992207Y-92937117D01*
X163964445Y-93016456D01*
X163923723Y-93073231D01*
X163858770Y-93098978D01*
X163847404Y-93099500D01*
X160919500Y-93099500D01*
X160852461Y-93079815D01*
X160806706Y-93027011D01*
X160795500Y-92975500D01*
X160795500Y-91845730D01*
X160792646Y-91815300D01*
X160792646Y-91815298D01*
X160747793Y-91687119D01*
X160747792Y-91687117D01*
X160729906Y-91662882D01*
X160667150Y-91577850D01*
X160557882Y-91497207D01*
X160557880Y-91497206D01*
X160429700Y-91452353D01*
X160399270Y-91449500D01*
X160399266Y-91449500D01*
X158450734Y-91449500D01*
X158450730Y-91449500D01*
X158420300Y-91452353D01*
X158420298Y-91452353D01*
X158292119Y-91497206D01*
X158292117Y-91497207D01*
X158182850Y-91577850D01*
X158102207Y-91687117D01*
X158102206Y-91687119D01*
X158057353Y-91815298D01*
X158057353Y-91815300D01*
X158054500Y-91845730D01*
X158054500Y-92185118D01*
X158034815Y-92252157D01*
X157982011Y-92297912D01*
X157912853Y-92307856D01*
X157891496Y-92302824D01*
X157747607Y-92255144D01*
X157648322Y-92245000D01*
X157600000Y-92245000D01*
X157600000Y-93071000D01*
X157580315Y-93138039D01*
X157527511Y-93183794D01*
X157476000Y-93195000D01*
X157350000Y-93195000D01*
X157350000Y-93321000D01*
X157330315Y-93388039D01*
X157277511Y-93433794D01*
X157226000Y-93445000D01*
X156375001Y-93445000D01*
X156375001Y-93468322D01*
X156385144Y-93567607D01*
X156438452Y-93728481D01*
X156438457Y-93728492D01*
X156527424Y-93872728D01*
X156527427Y-93872732D01*
X156647266Y-93992571D01*
X156754025Y-94058421D01*
X156800749Y-94110369D01*
X156811971Y-94179332D01*
X156784128Y-94243414D01*
X156776611Y-94251640D01*
X156751473Y-94276778D01*
X156690279Y-94396878D01*
X156674500Y-94496506D01*
X156674500Y-95013493D01*
X156690279Y-95113123D01*
X156737448Y-95205697D01*
X156742009Y-95229988D01*
X156750647Y-95253145D01*
X156748345Y-95263724D01*
X156750344Y-95274366D01*
X156741048Y-95297267D01*
X156735795Y-95321418D01*
X156725859Y-95334690D01*
X156724067Y-95339106D01*
X156714644Y-95349672D01*
X156581135Y-95483181D01*
X156519812Y-95516666D01*
X156493456Y-95519500D01*
X156440105Y-95519500D01*
X156422201Y-95521856D01*
X156390513Y-95526028D01*
X156390511Y-95526028D01*
X156390510Y-95526029D01*
X156390509Y-95526029D01*
X156281683Y-95576776D01*
X156196776Y-95661683D01*
X156146027Y-95770514D01*
X156139500Y-95820097D01*
X156139500Y-96179894D01*
X156139501Y-96179900D01*
X156146028Y-96229487D01*
X156146029Y-96229489D01*
X156146029Y-96229490D01*
X156196776Y-96338316D01*
X156270779Y-96412319D01*
X156304264Y-96473642D01*
X156299280Y-96543334D01*
X156270779Y-96587681D01*
X156196776Y-96661683D01*
X156146027Y-96770514D01*
X156139500Y-96820097D01*
X156139500Y-97179894D01*
X156139501Y-97179900D01*
X156146028Y-97229487D01*
X156146029Y-97229489D01*
X156146029Y-97229490D01*
X156196776Y-97338316D01*
X156263181Y-97404721D01*
X156277884Y-97431648D01*
X156294477Y-97457467D01*
X156295368Y-97463667D01*
X156296666Y-97466044D01*
X156299500Y-97492402D01*
X156299500Y-97512036D01*
X156279815Y-97579075D01*
X156263181Y-97599717D01*
X156239513Y-97623384D01*
X156239511Y-97623387D01*
X156186139Y-97715830D01*
X156180201Y-97726114D01*
X156149500Y-97840691D01*
X156149500Y-97959309D01*
X156176294Y-98059306D01*
X156180202Y-98073890D01*
X156181098Y-98076052D01*
X156181309Y-98078021D01*
X156182305Y-98081736D01*
X156181725Y-98081891D01*
X156188564Y-98145521D01*
X156157287Y-98207999D01*
X156097196Y-98243649D01*
X156066535Y-98247500D01*
X152582438Y-98247500D01*
X152506011Y-98267979D01*
X152506009Y-98267980D01*
X152485153Y-98280021D01*
X152485152Y-98280020D01*
X152437495Y-98307535D01*
X152437487Y-98307541D01*
X151831848Y-98913181D01*
X151770525Y-98946666D01*
X151744167Y-98949500D01*
X150300247Y-98949500D01*
X150241770Y-98961131D01*
X150241769Y-98961132D01*
X150175447Y-99005447D01*
X150131132Y-99071769D01*
X150131131Y-99071770D01*
X150119500Y-99130247D01*
X150119500Y-100869752D01*
X150131131Y-100928229D01*
X150131132Y-100928230D01*
X150175447Y-100994552D01*
X150241769Y-101038867D01*
X150241770Y-101038868D01*
X150300247Y-101050499D01*
X150300250Y-101050500D01*
X150300252Y-101050500D01*
X152039750Y-101050500D01*
X152039751Y-101050499D01*
X152054568Y-101047552D01*
X152098229Y-101038868D01*
X152098229Y-101038867D01*
X152098231Y-101038867D01*
X152164552Y-100994552D01*
X152208867Y-100928231D01*
X152208867Y-100928229D01*
X152208868Y-100928229D01*
X152220499Y-100869752D01*
X152220500Y-100869750D01*
X152220500Y-99425833D01*
X152240185Y-99358794D01*
X152256819Y-99338152D01*
X152710152Y-98884819D01*
X152771475Y-98851334D01*
X152797833Y-98848500D01*
X153133719Y-98848500D01*
X153200758Y-98868185D01*
X153246513Y-98920989D01*
X153256457Y-98990147D01*
X153227432Y-99053703D01*
X153202611Y-99075600D01*
X153143681Y-99114976D01*
X153040342Y-99184024D01*
X152894024Y-99330342D01*
X152779058Y-99502403D01*
X152699870Y-99693579D01*
X152699868Y-99693587D01*
X152659500Y-99896530D01*
X152659500Y-100103469D01*
X152699868Y-100306412D01*
X152699870Y-100306420D01*
X152765939Y-100465925D01*
X152779059Y-100497598D01*
X152798862Y-100527235D01*
X152894024Y-100669657D01*
X153040342Y-100815975D01*
X153040345Y-100815977D01*
X153212402Y-100930941D01*
X153403580Y-101010130D01*
X153592016Y-101047612D01*
X153606530Y-101050499D01*
X153606534Y-101050500D01*
X153606535Y-101050500D01*
X153813466Y-101050500D01*
X153813467Y-101050499D01*
X154016420Y-101010130D01*
X154207598Y-100930941D01*
X154379655Y-100815977D01*
X154525977Y-100669655D01*
X154640941Y-100497598D01*
X154709165Y-100332889D01*
X154753004Y-100278488D01*
X154819298Y-100256423D01*
X154886998Y-100273702D01*
X154934609Y-100324839D01*
X154941656Y-100342026D01*
X154998904Y-100518216D01*
X155095375Y-100707550D01*
X155134728Y-100761716D01*
X155767036Y-100129407D01*
X155784075Y-100192993D01*
X155849901Y-100307007D01*
X155942993Y-100400099D01*
X156057007Y-100465925D01*
X156120589Y-100482962D01*
X155488282Y-101115269D01*
X155488282Y-101115270D01*
X155542449Y-101154624D01*
X155731782Y-101251095D01*
X155933870Y-101316757D01*
X156143754Y-101350000D01*
X156356246Y-101350000D01*
X156566127Y-101316757D01*
X156566130Y-101316757D01*
X156684366Y-101278340D01*
X156754207Y-101276345D01*
X156814040Y-101312425D01*
X156844868Y-101375126D01*
X156836903Y-101444540D01*
X156810365Y-101483952D01*
X155681137Y-102613181D01*
X155619814Y-102646666D01*
X155593456Y-102649500D01*
X154492402Y-102649500D01*
X154425363Y-102629815D01*
X154404721Y-102613181D01*
X154338316Y-102546776D01*
X154290545Y-102524500D01*
X154229487Y-102496028D01*
X154229485Y-102496027D01*
X154229486Y-102496027D01*
X154179902Y-102489500D01*
X153820105Y-102489500D01*
X153804386Y-102491569D01*
X153770513Y-102496028D01*
X153770511Y-102496029D01*
X153770509Y-102496029D01*
X153661683Y-102546776D01*
X153587681Y-102620779D01*
X153526358Y-102654264D01*
X153456666Y-102649280D01*
X153412319Y-102620779D01*
X153338316Y-102546776D01*
X153290545Y-102524500D01*
X153229487Y-102496028D01*
X153229485Y-102496027D01*
X153229486Y-102496027D01*
X153179902Y-102489500D01*
X152820105Y-102489500D01*
X152804386Y-102491569D01*
X152770513Y-102496028D01*
X152770511Y-102496029D01*
X152770509Y-102496029D01*
X152661683Y-102546776D01*
X152576776Y-102631683D01*
X152541699Y-102706906D01*
X152495526Y-102759345D01*
X152429317Y-102778501D01*
X152096832Y-102778501D01*
X152029793Y-102758816D01*
X152009151Y-102742182D01*
X151484288Y-102217319D01*
X150926510Y-101659540D01*
X150926509Y-101659539D01*
X150911771Y-101651030D01*
X150897032Y-101642521D01*
X150877510Y-101631250D01*
X150857989Y-101619979D01*
X150832512Y-101613152D01*
X150781561Y-101599500D01*
X150781559Y-101599500D01*
X148613333Y-101599500D01*
X148546294Y-101579815D01*
X148525652Y-101563181D01*
X148311818Y-101349347D01*
X148278333Y-101288024D01*
X148275499Y-101261666D01*
X148275499Y-100655143D01*
X148275499Y-100655136D01*
X148275497Y-100655117D01*
X148272586Y-100630012D01*
X148272585Y-100630010D01*
X148272585Y-100630009D01*
X148227206Y-100527235D01*
X148147765Y-100447794D01*
X148085042Y-100420099D01*
X148044992Y-100402415D01*
X148019865Y-100399500D01*
X147730143Y-100399500D01*
X147730117Y-100399502D01*
X147705013Y-100402413D01*
X147600086Y-100448743D01*
X147530807Y-100457814D01*
X147499914Y-100448743D01*
X147479438Y-100439702D01*
X147394991Y-100402415D01*
X147369865Y-100399500D01*
X147080143Y-100399500D01*
X147080117Y-100399502D01*
X147055012Y-100402413D01*
X147055010Y-100402414D01*
X147049585Y-100404810D01*
X146980307Y-100413881D01*
X146917122Y-100384057D01*
X146880092Y-100324807D01*
X146875500Y-100291375D01*
X146875500Y-99902772D01*
X146895185Y-99835733D01*
X146947989Y-99789978D01*
X146999500Y-99778772D01*
X147569750Y-99778772D01*
X147569751Y-99778771D01*
X147584568Y-99775824D01*
X147628229Y-99767140D01*
X147628229Y-99767139D01*
X147628231Y-99767139D01*
X147694552Y-99722824D01*
X147738867Y-99656503D01*
X147738867Y-99656501D01*
X147738868Y-99656501D01*
X147750499Y-99598024D01*
X147750500Y-99598022D01*
X147750500Y-98525446D01*
X147770185Y-98458407D01*
X147822989Y-98412652D01*
X147892147Y-98402708D01*
X147936497Y-98418058D01*
X148026114Y-98469799D01*
X148140691Y-98500500D01*
X148140694Y-98500500D01*
X148259306Y-98500500D01*
X148259309Y-98500500D01*
X148373886Y-98469799D01*
X148476613Y-98410489D01*
X148560489Y-98326613D01*
X148619799Y-98223886D01*
X148650500Y-98109309D01*
X148650500Y-97990691D01*
X148619799Y-97876114D01*
X148560489Y-97773387D01*
X148476613Y-97689511D01*
X148373886Y-97630201D01*
X148259309Y-97599500D01*
X148140691Y-97599500D01*
X148026114Y-97630201D01*
X148026112Y-97630201D01*
X148026112Y-97630202D01*
X148006670Y-97641427D01*
X147936499Y-97681940D01*
X147868601Y-97698413D01*
X147802574Y-97675561D01*
X147759383Y-97620640D01*
X147750500Y-97574553D01*
X147750500Y-96558521D01*
X147750499Y-96558519D01*
X147738868Y-96500042D01*
X147738867Y-96500041D01*
X147694552Y-96433719D01*
X147628230Y-96389404D01*
X147628229Y-96389403D01*
X147569752Y-96377772D01*
X147569748Y-96377772D01*
X146530252Y-96377772D01*
X146530247Y-96377772D01*
X146471770Y-96389403D01*
X146471769Y-96389404D01*
X146405447Y-96433719D01*
X146361132Y-96500041D01*
X146361131Y-96500042D01*
X146349500Y-96558519D01*
X146349500Y-98309623D01*
X146332888Y-98371622D01*
X146294979Y-98437282D01*
X146274500Y-98513711D01*
X146274500Y-99118439D01*
X146254815Y-99185478D01*
X146202011Y-99231233D01*
X146132853Y-99241177D01*
X146069297Y-99212152D01*
X146062819Y-99206120D01*
X145462362Y-98605663D01*
X145428877Y-98544340D01*
X145433861Y-98474648D01*
X145475733Y-98418715D01*
X145541197Y-98394298D01*
X145582136Y-98398207D01*
X145590691Y-98400500D01*
X145590693Y-98400500D01*
X145709306Y-98400500D01*
X145709309Y-98400500D01*
X145823886Y-98369799D01*
X145926613Y-98310489D01*
X146010489Y-98226613D01*
X146069799Y-98123886D01*
X146100500Y-98009309D01*
X146100500Y-97890691D01*
X146069799Y-97776114D01*
X146010489Y-97673387D01*
X145926613Y-97589511D01*
X145823886Y-97530201D01*
X145709309Y-97499500D01*
X145590691Y-97499500D01*
X145485505Y-97527684D01*
X145476110Y-97530202D01*
X145396500Y-97576166D01*
X145328600Y-97592639D01*
X145262573Y-97569787D01*
X145219383Y-97514866D01*
X145210500Y-97468779D01*
X145210500Y-96558521D01*
X145210499Y-96558519D01*
X145198868Y-96500042D01*
X145198867Y-96500041D01*
X145154552Y-96433719D01*
X145088230Y-96389404D01*
X145088229Y-96389403D01*
X145029752Y-96377772D01*
X145029748Y-96377772D01*
X143990252Y-96377772D01*
X143990247Y-96377772D01*
X143931770Y-96389403D01*
X143931769Y-96389404D01*
X143865447Y-96433719D01*
X143821132Y-96500041D01*
X143821131Y-96500042D01*
X143809500Y-96558519D01*
X143809500Y-99193439D01*
X143789815Y-99260478D01*
X143737011Y-99306233D01*
X143667853Y-99316177D01*
X143604297Y-99287152D01*
X143597819Y-99281120D01*
X142978880Y-98662181D01*
X142945395Y-98600858D01*
X142950379Y-98531166D01*
X142992251Y-98475233D01*
X143051458Y-98453149D01*
X143051249Y-98451561D01*
X143059305Y-98450500D01*
X143059309Y-98450500D01*
X143173886Y-98419799D01*
X143276613Y-98360489D01*
X143360489Y-98276613D01*
X143419799Y-98173886D01*
X143450500Y-98059309D01*
X143450500Y-97940691D01*
X143419799Y-97826114D01*
X143360489Y-97723387D01*
X143276613Y-97639511D01*
X143173886Y-97580201D01*
X143059309Y-97549500D01*
X142940691Y-97549500D01*
X142826593Y-97580072D01*
X142756743Y-97578409D01*
X142698881Y-97539246D01*
X142671377Y-97475017D01*
X142670500Y-97460297D01*
X142670500Y-96558521D01*
X142670499Y-96558519D01*
X142658868Y-96500042D01*
X142658867Y-96500041D01*
X142614552Y-96433719D01*
X142548230Y-96389404D01*
X142548229Y-96389403D01*
X142489752Y-96377772D01*
X142489748Y-96377772D01*
X141450252Y-96377772D01*
X141450247Y-96377772D01*
X141391770Y-96389403D01*
X141391769Y-96389404D01*
X141325447Y-96433719D01*
X141281132Y-96500041D01*
X141281131Y-96500042D01*
X141269500Y-96558519D01*
X141269500Y-99193439D01*
X141249815Y-99260478D01*
X141197011Y-99306233D01*
X141127853Y-99316177D01*
X141064297Y-99287152D01*
X141057819Y-99281120D01*
X140437818Y-98661119D01*
X140404333Y-98599796D01*
X140409317Y-98530104D01*
X140451189Y-98474171D01*
X140501722Y-98453590D01*
X140501458Y-98452603D01*
X140509306Y-98450500D01*
X140509309Y-98450500D01*
X140623886Y-98419799D01*
X140726613Y-98360489D01*
X140810489Y-98276613D01*
X140869799Y-98173886D01*
X140900500Y-98059309D01*
X140900500Y-97940691D01*
X140869799Y-97826114D01*
X140810489Y-97723387D01*
X140726613Y-97639511D01*
X140623886Y-97580201D01*
X140509309Y-97549500D01*
X140390691Y-97549500D01*
X140286593Y-97577393D01*
X140216743Y-97575730D01*
X140158881Y-97536567D01*
X140131377Y-97472339D01*
X140130500Y-97457618D01*
X140130500Y-96558521D01*
X140130499Y-96558519D01*
X140118868Y-96500042D01*
X140118867Y-96500041D01*
X140074552Y-96433719D01*
X140008230Y-96389404D01*
X140008229Y-96389403D01*
X139949752Y-96377772D01*
X139949748Y-96377772D01*
X138910252Y-96377772D01*
X138910247Y-96377772D01*
X138851770Y-96389403D01*
X138851769Y-96389404D01*
X138785447Y-96433719D01*
X138741132Y-96500041D01*
X138741131Y-96500042D01*
X138729500Y-96558519D01*
X138729500Y-99193439D01*
X138709815Y-99260478D01*
X138657011Y-99306233D01*
X138587853Y-99316177D01*
X138524297Y-99287152D01*
X138517819Y-99281120D01*
X137925438Y-98688739D01*
X137891953Y-98627416D01*
X137896937Y-98557724D01*
X137938809Y-98501791D01*
X137981022Y-98481284D01*
X138023886Y-98469799D01*
X138126613Y-98410489D01*
X138210489Y-98326613D01*
X138269799Y-98223886D01*
X138300500Y-98109309D01*
X138300500Y-97990691D01*
X138269799Y-97876114D01*
X138210489Y-97773387D01*
X138126613Y-97689511D01*
X138023886Y-97630201D01*
X137909309Y-97599500D01*
X137790691Y-97599500D01*
X137746593Y-97611316D01*
X137676743Y-97609653D01*
X137618881Y-97570490D01*
X137591377Y-97506261D01*
X137590500Y-97491541D01*
X137590500Y-96558521D01*
X137590499Y-96558519D01*
X137578868Y-96500042D01*
X137578867Y-96500041D01*
X137534552Y-96433719D01*
X137468230Y-96389404D01*
X137468229Y-96389403D01*
X137409752Y-96377772D01*
X137409748Y-96377772D01*
X136370252Y-96377772D01*
X136370247Y-96377772D01*
X136311770Y-96389403D01*
X136311769Y-96389404D01*
X136245447Y-96433719D01*
X136201132Y-96500041D01*
X136201131Y-96500042D01*
X136189500Y-96558519D01*
X136189500Y-99598024D01*
X136201131Y-99656501D01*
X136201132Y-99656502D01*
X136245447Y-99722824D01*
X136311769Y-99767139D01*
X136311770Y-99767140D01*
X136370247Y-99778771D01*
X136370250Y-99778772D01*
X136370252Y-99778772D01*
X137409750Y-99778772D01*
X137409751Y-99778771D01*
X137424568Y-99775824D01*
X137468229Y-99767140D01*
X137468229Y-99767139D01*
X137468231Y-99767139D01*
X137534552Y-99722824D01*
X137578867Y-99656503D01*
X137578867Y-99656501D01*
X137578868Y-99656501D01*
X137590499Y-99598024D01*
X137590500Y-99598022D01*
X137590500Y-99503105D01*
X137610185Y-99436066D01*
X137662989Y-99390311D01*
X137732147Y-99380367D01*
X137795703Y-99409392D01*
X137802181Y-99415424D01*
X138400540Y-100013783D01*
X138456489Y-100069732D01*
X138456491Y-100069733D01*
X138456495Y-100069736D01*
X138514918Y-100103466D01*
X138525011Y-100109293D01*
X138601438Y-100129772D01*
X138680562Y-100129772D01*
X140054821Y-100129772D01*
X140121860Y-100149457D01*
X140167615Y-100202261D01*
X140177559Y-100271419D01*
X140153197Y-100329259D01*
X140100899Y-100397413D01*
X140040445Y-100543365D01*
X140040444Y-100543369D01*
X140025000Y-100660669D01*
X140025000Y-101137500D01*
X140601000Y-101137500D01*
X140668039Y-101157185D01*
X140713794Y-101209989D01*
X140725000Y-101261500D01*
X140725000Y-101337500D01*
X140801000Y-101337500D01*
X140868039Y-101357185D01*
X140913794Y-101409989D01*
X140925000Y-101461500D01*
X140925000Y-101901500D01*
X140922449Y-101910185D01*
X140923738Y-101919147D01*
X140912759Y-101943187D01*
X140905315Y-101968539D01*
X140898474Y-101974466D01*
X140894713Y-101982703D01*
X140872478Y-101996992D01*
X140852511Y-102014294D01*
X140841996Y-102016581D01*
X140835935Y-102020477D01*
X140801000Y-102025500D01*
X140649000Y-102025500D01*
X140581961Y-102005815D01*
X140536206Y-101953011D01*
X140525000Y-101901500D01*
X140525000Y-101537500D01*
X140025001Y-101537500D01*
X140025001Y-102014324D01*
X140040442Y-102131628D01*
X140040444Y-102131633D01*
X140063595Y-102187525D01*
X140064730Y-102198085D01*
X140069918Y-102207354D01*
X140068400Y-102232220D01*
X140071064Y-102256994D01*
X140066308Y-102266493D01*
X140065662Y-102277094D01*
X140050940Y-102297194D01*
X140039788Y-102319473D01*
X140029562Y-102326382D01*
X140024378Y-102333462D01*
X140004896Y-102343051D01*
X139993580Y-102350699D01*
X139987454Y-102353056D01*
X139937565Y-102366425D01*
X139915634Y-102379087D01*
X139907235Y-102383935D01*
X139907235Y-102383936D01*
X139869043Y-102405985D01*
X139869041Y-102405987D01*
X139786848Y-102488181D01*
X139725525Y-102521666D01*
X139699167Y-102524500D01*
X138764562Y-102524500D01*
X138685438Y-102524500D01*
X138609012Y-102544978D01*
X138609011Y-102544978D01*
X138609009Y-102544979D01*
X138609008Y-102544979D01*
X138586652Y-102557887D01*
X138524652Y-102574500D01*
X138465691Y-102574500D01*
X138351114Y-102605201D01*
X138351112Y-102605201D01*
X138351112Y-102605202D01*
X138248387Y-102664511D01*
X138248384Y-102664513D01*
X138164513Y-102748384D01*
X138164511Y-102748387D01*
X138140429Y-102790099D01*
X138138741Y-102793022D01*
X138088173Y-102841237D01*
X138019566Y-102854459D01*
X137954701Y-102828491D01*
X137943673Y-102818702D01*
X135007727Y-99882756D01*
X134974242Y-99821433D01*
X134979226Y-99751741D01*
X134992307Y-99726183D01*
X134994551Y-99722824D01*
X134994552Y-99722824D01*
X135038867Y-99656503D01*
X135038867Y-99656502D01*
X135038868Y-99656501D01*
X135050499Y-99598024D01*
X135050500Y-99598022D01*
X135050500Y-98582636D01*
X135070185Y-98515597D01*
X135122989Y-98469842D01*
X135192147Y-98459898D01*
X135221954Y-98468075D01*
X135226105Y-98469793D01*
X135226114Y-98469799D01*
X135340691Y-98500500D01*
X135340694Y-98500500D01*
X135459306Y-98500500D01*
X135459309Y-98500500D01*
X135573886Y-98469799D01*
X135676613Y-98410489D01*
X135760489Y-98326613D01*
X135819799Y-98223886D01*
X135850500Y-98109309D01*
X135850500Y-97990691D01*
X135819799Y-97876114D01*
X135760489Y-97773387D01*
X135676613Y-97689511D01*
X135573886Y-97630201D01*
X135459309Y-97599500D01*
X135340691Y-97599500D01*
X135261796Y-97620640D01*
X135226106Y-97630203D01*
X135221945Y-97631927D01*
X135152476Y-97639391D01*
X135089998Y-97608113D01*
X135054350Y-97548021D01*
X135050500Y-97517363D01*
X135050500Y-96558521D01*
X135050499Y-96558519D01*
X135038868Y-96500042D01*
X135038867Y-96500041D01*
X134994552Y-96433719D01*
X134928230Y-96389404D01*
X134928229Y-96389403D01*
X134869752Y-96377772D01*
X134869748Y-96377772D01*
X133830252Y-96377772D01*
X133830247Y-96377772D01*
X133771770Y-96389403D01*
X133771769Y-96389404D01*
X133705447Y-96433719D01*
X133661132Y-96500041D01*
X133661131Y-96500042D01*
X133649500Y-96558519D01*
X133649500Y-99598024D01*
X133661131Y-99656501D01*
X133661132Y-99656502D01*
X133705447Y-99722824D01*
X133771769Y-99767139D01*
X133771770Y-99767140D01*
X133830247Y-99778771D01*
X133830250Y-99778772D01*
X133830252Y-99778772D01*
X134005768Y-99778772D01*
X134072807Y-99798457D01*
X134102535Y-99829639D01*
X134104592Y-99828062D01*
X134109542Y-99834513D01*
X137362848Y-103087819D01*
X137396333Y-103149142D01*
X137391349Y-103218834D01*
X137349477Y-103274767D01*
X137284013Y-103299184D01*
X137275167Y-103299500D01*
X137165691Y-103299500D01*
X137051114Y-103330201D01*
X137051112Y-103330201D01*
X137051112Y-103330202D01*
X136948387Y-103389511D01*
X136948384Y-103389513D01*
X136864513Y-103473384D01*
X136864511Y-103473387D01*
X136805201Y-103576114D01*
X136774500Y-103690691D01*
X136774500Y-103690693D01*
X136774500Y-103724167D01*
X136754815Y-103791206D01*
X136738181Y-103811848D01*
X136236848Y-104313181D01*
X136175525Y-104346666D01*
X136149167Y-104349500D01*
X135310438Y-104349500D01*
X135259486Y-104363152D01*
X135234010Y-104369979D01*
X135196807Y-104391459D01*
X135196805Y-104391459D01*
X135165495Y-104409535D01*
X135165487Y-104409541D01*
X106199506Y-133375521D01*
X106138183Y-133409006D01*
X106068491Y-133404022D01*
X106053331Y-133396262D01*
X106052973Y-133396932D01*
X106047595Y-133394057D01*
X105856420Y-133314870D01*
X105856412Y-133314868D01*
X105653469Y-133274500D01*
X105653465Y-133274500D01*
X105446535Y-133274500D01*
X105446530Y-133274500D01*
X105243587Y-133314868D01*
X105243579Y-133314870D01*
X105052403Y-133394058D01*
X104880342Y-133509024D01*
X104734024Y-133655342D01*
X104619058Y-133827403D01*
X104539870Y-134018579D01*
X104539868Y-134018587D01*
X104499500Y-134221530D01*
X104499500Y-134678469D01*
X104539868Y-134881412D01*
X104539870Y-134881420D01*
X104619058Y-135072596D01*
X104734024Y-135244657D01*
X104880342Y-135390975D01*
X104880345Y-135390977D01*
X105052402Y-135505941D01*
X105243580Y-135585130D01*
X105397825Y-135615811D01*
X105446530Y-135625499D01*
X105446534Y-135625500D01*
X105446535Y-135625500D01*
X105653466Y-135625500D01*
X105653467Y-135625499D01*
X105856420Y-135585130D01*
X106047598Y-135505941D01*
X106219655Y-135390977D01*
X106365977Y-135244655D01*
X106480941Y-135072598D01*
X106560130Y-134881420D01*
X106600500Y-134678465D01*
X106600500Y-134221535D01*
X106560130Y-134018580D01*
X106546807Y-133986416D01*
X106539338Y-133916947D01*
X106570613Y-133854467D01*
X106573659Y-133851310D01*
X135438152Y-104986819D01*
X135499475Y-104953334D01*
X135525833Y-104950500D01*
X136364560Y-104950500D01*
X136364562Y-104950500D01*
X136440989Y-104930021D01*
X136509511Y-104890460D01*
X136565460Y-104834511D01*
X137163152Y-104236819D01*
X137224475Y-104203334D01*
X137250833Y-104200500D01*
X137284306Y-104200500D01*
X137284309Y-104200500D01*
X137398886Y-104169799D01*
X137501613Y-104110489D01*
X137585489Y-104026613D01*
X137644799Y-103923886D01*
X137675500Y-103809309D01*
X137675500Y-103699833D01*
X137695185Y-103632794D01*
X137747989Y-103587039D01*
X137817147Y-103577095D01*
X137880703Y-103606120D01*
X137887181Y-103612152D01*
X138183811Y-103908782D01*
X138217296Y-103970105D01*
X138212312Y-104039797D01*
X138170440Y-104095730D01*
X138128225Y-104116237D01*
X138076115Y-104130200D01*
X138076114Y-104130200D01*
X137973387Y-104189511D01*
X137973384Y-104189513D01*
X137889513Y-104273384D01*
X137889511Y-104273387D01*
X137830201Y-104376114D01*
X137799500Y-104490691D01*
X137799500Y-104490693D01*
X137799500Y-104524167D01*
X137779815Y-104591206D01*
X137763181Y-104611848D01*
X137334541Y-105040487D01*
X137334539Y-105040489D01*
X137321833Y-105062499D01*
X137271266Y-105110715D01*
X137214445Y-105124500D01*
X137035438Y-105124500D01*
X136959010Y-105144978D01*
X136890489Y-105184540D01*
X136890486Y-105184542D01*
X108699506Y-133375521D01*
X108638183Y-133409006D01*
X108568491Y-133404022D01*
X108553331Y-133396262D01*
X108552973Y-133396932D01*
X108547595Y-133394057D01*
X108356420Y-133314870D01*
X108356412Y-133314868D01*
X108153469Y-133274500D01*
X108153465Y-133274500D01*
X107946535Y-133274500D01*
X107946530Y-133274500D01*
X107743587Y-133314868D01*
X107743579Y-133314870D01*
X107552403Y-133394058D01*
X107380342Y-133509024D01*
X107234024Y-133655342D01*
X107119058Y-133827403D01*
X107039870Y-134018579D01*
X107039868Y-134018587D01*
X106999500Y-134221530D01*
X106999500Y-134678469D01*
X107039868Y-134881412D01*
X107039870Y-134881420D01*
X107119058Y-135072596D01*
X107234024Y-135244657D01*
X107380342Y-135390975D01*
X107380345Y-135390977D01*
X107552402Y-135505941D01*
X107743580Y-135585130D01*
X107897825Y-135615811D01*
X107946530Y-135625499D01*
X107946534Y-135625500D01*
X107946535Y-135625500D01*
X108153466Y-135625500D01*
X108153467Y-135625499D01*
X108356420Y-135585130D01*
X108547598Y-135505941D01*
X108719655Y-135390977D01*
X108865977Y-135244655D01*
X108980941Y-135072598D01*
X109060130Y-134881420D01*
X109100500Y-134678465D01*
X109100500Y-134221535D01*
X109060130Y-134018580D01*
X109046807Y-133986416D01*
X109039338Y-133916947D01*
X109070613Y-133854467D01*
X109073659Y-133851310D01*
X137163152Y-105761819D01*
X137224475Y-105728334D01*
X137250833Y-105725500D01*
X137614560Y-105725500D01*
X137614562Y-105725500D01*
X137690989Y-105705021D01*
X137759511Y-105665460D01*
X137815460Y-105609511D01*
X137855021Y-105540989D01*
X137875500Y-105464562D01*
X137875500Y-105400833D01*
X137895185Y-105333794D01*
X137911819Y-105313152D01*
X138188152Y-105036819D01*
X138207710Y-105026139D01*
X138224587Y-105011585D01*
X138240778Y-105008082D01*
X138249475Y-105003334D01*
X138258475Y-105001721D01*
X138267111Y-105000500D01*
X138309309Y-105000500D01*
X138356442Y-104987870D01*
X138363894Y-104986817D01*
X138391308Y-104990824D01*
X138419006Y-104991483D01*
X138425395Y-104995807D01*
X138433029Y-104996923D01*
X138453925Y-105015116D01*
X138476870Y-105030645D01*
X138479906Y-105037736D01*
X138485725Y-105042802D01*
X138493468Y-105069403D01*
X138504375Y-105094873D01*
X138503685Y-105104507D01*
X138505252Y-105109888D01*
X138502680Y-105118570D01*
X138501027Y-105141689D01*
X138489545Y-105184542D01*
X138474500Y-105240691D01*
X138474500Y-105359309D01*
X138505201Y-105473886D01*
X138564511Y-105576613D01*
X138564513Y-105576615D01*
X138588181Y-105600283D01*
X138602884Y-105627210D01*
X138619477Y-105653029D01*
X138620368Y-105659229D01*
X138621666Y-105661606D01*
X138624500Y-105687964D01*
X138624500Y-105899166D01*
X138604815Y-105966205D01*
X138588181Y-105986847D01*
X111199506Y-133375521D01*
X111138183Y-133409006D01*
X111068491Y-133404022D01*
X111053331Y-133396262D01*
X111052973Y-133396932D01*
X111047595Y-133394057D01*
X110856420Y-133314870D01*
X110856412Y-133314868D01*
X110653469Y-133274500D01*
X110653465Y-133274500D01*
X110446535Y-133274500D01*
X110446530Y-133274500D01*
X110243587Y-133314868D01*
X110243579Y-133314870D01*
X110052403Y-133394058D01*
X109880342Y-133509024D01*
X109734024Y-133655342D01*
X109619058Y-133827403D01*
X109539870Y-134018579D01*
X109539868Y-134018587D01*
X109499500Y-134221530D01*
X109499500Y-134678469D01*
X109539868Y-134881412D01*
X109539870Y-134881420D01*
X109619058Y-135072596D01*
X109734024Y-135244657D01*
X109880342Y-135390975D01*
X109880345Y-135390977D01*
X110052402Y-135505941D01*
X110243580Y-135585130D01*
X110397825Y-135615811D01*
X110446530Y-135625499D01*
X110446534Y-135625500D01*
X110446535Y-135625500D01*
X110653466Y-135625500D01*
X110653467Y-135625499D01*
X110856420Y-135585130D01*
X111047598Y-135505941D01*
X111219655Y-135390977D01*
X111365977Y-135244655D01*
X111480941Y-135072598D01*
X111560130Y-134881420D01*
X111600500Y-134678465D01*
X111600500Y-134221535D01*
X111560130Y-134018580D01*
X111546807Y-133986416D01*
X111539338Y-133916947D01*
X111570613Y-133854467D01*
X111573659Y-133851310D01*
X139165460Y-106259511D01*
X139178456Y-106237001D01*
X139205021Y-106190989D01*
X139225500Y-106114562D01*
X139225500Y-105687964D01*
X139245185Y-105620925D01*
X139261819Y-105600283D01*
X139285489Y-105576613D01*
X139344799Y-105473886D01*
X139374612Y-105362620D01*
X139410974Y-105302965D01*
X139473821Y-105272435D01*
X139543197Y-105280729D01*
X139582066Y-105307037D01*
X140263181Y-105988152D01*
X140295654Y-106045190D01*
X140299500Y-106060270D01*
X140299500Y-106113562D01*
X140319979Y-106189989D01*
X140342553Y-106229088D01*
X140346776Y-106245647D01*
X140346110Y-106264173D01*
X140350482Y-106282191D01*
X140344563Y-106307277D01*
X140344269Y-106315472D01*
X140341786Y-106319045D01*
X140340058Y-106326373D01*
X140327415Y-106355007D01*
X140327415Y-106355009D01*
X140324500Y-106380131D01*
X140324500Y-106658958D01*
X140304815Y-106725997D01*
X140252011Y-106771752D01*
X140182853Y-106781696D01*
X140168407Y-106778733D01*
X140142354Y-106771752D01*
X140059309Y-106749500D01*
X139940691Y-106749500D01*
X139826114Y-106780201D01*
X139826112Y-106780201D01*
X139826112Y-106780202D01*
X139723387Y-106839511D01*
X139723384Y-106839513D01*
X139639513Y-106923384D01*
X139639511Y-106923387D01*
X139580201Y-107026114D01*
X139549500Y-107140691D01*
X139549500Y-107259309D01*
X139580201Y-107373886D01*
X139639511Y-107476613D01*
X139723387Y-107560489D01*
X139826114Y-107619799D01*
X139940691Y-107650500D01*
X139940694Y-107650500D01*
X140059306Y-107650500D01*
X140059309Y-107650500D01*
X140168410Y-107621266D01*
X140238255Y-107622929D01*
X140296118Y-107662091D01*
X140323623Y-107726319D01*
X140324500Y-107741024D01*
X140324500Y-107744848D01*
X140324502Y-107744881D01*
X140327414Y-107769988D01*
X140327415Y-107769991D01*
X140372793Y-107872764D01*
X140372794Y-107872765D01*
X140452235Y-107952206D01*
X140555009Y-107997585D01*
X140580135Y-108000500D01*
X140869864Y-108000499D01*
X140869879Y-108000497D01*
X140869882Y-108000497D01*
X140894987Y-107997586D01*
X140894987Y-107997585D01*
X140894991Y-107997585D01*
X140997765Y-107952206D01*
X140997766Y-107952204D01*
X140999912Y-107951257D01*
X141033083Y-107946913D01*
X141066098Y-107941741D01*
X141068163Y-107942319D01*
X141069190Y-107942185D01*
X141100085Y-107951257D01*
X141176374Y-107984942D01*
X141229751Y-108030028D01*
X141250278Y-108096814D01*
X141231440Y-108164096D01*
X141213969Y-108186057D01*
X115286847Y-134113181D01*
X115225524Y-134146666D01*
X115199166Y-134149500D01*
X114187936Y-134149500D01*
X114120897Y-134129815D01*
X114075142Y-134077011D01*
X114066319Y-134049692D01*
X114060131Y-134018585D01*
X114060130Y-134018584D01*
X114060130Y-134018580D01*
X113980941Y-133827402D01*
X113865977Y-133655345D01*
X113865975Y-133655342D01*
X113719657Y-133509024D01*
X113569968Y-133409006D01*
X113547598Y-133394059D01*
X113547593Y-133394057D01*
X113356420Y-133314870D01*
X113356412Y-133314868D01*
X113153469Y-133274500D01*
X113153465Y-133274500D01*
X112946535Y-133274500D01*
X112946530Y-133274500D01*
X112743587Y-133314868D01*
X112743579Y-133314870D01*
X112552403Y-133394058D01*
X112380342Y-133509024D01*
X112234024Y-133655342D01*
X112119058Y-133827403D01*
X112039870Y-134018579D01*
X112039868Y-134018587D01*
X111999500Y-134221530D01*
X111999500Y-134678469D01*
X112039868Y-134881412D01*
X112039870Y-134881420D01*
X112119058Y-135072596D01*
X112234024Y-135244657D01*
X112380342Y-135390975D01*
X112380345Y-135390977D01*
X112552402Y-135505941D01*
X112743580Y-135585130D01*
X112897825Y-135615811D01*
X112946530Y-135625499D01*
X112946534Y-135625500D01*
X112946535Y-135625500D01*
X113153466Y-135625500D01*
X113153467Y-135625499D01*
X113356420Y-135585130D01*
X113547598Y-135505941D01*
X113719655Y-135390977D01*
X113865977Y-135244655D01*
X113980941Y-135072598D01*
X114060130Y-134881420D01*
X114065863Y-134852598D01*
X114066319Y-134850308D01*
X114098704Y-134788397D01*
X114159420Y-134753823D01*
X114187936Y-134750500D01*
X115414559Y-134750500D01*
X115414561Y-134750500D01*
X115490988Y-134730021D01*
X115559510Y-134690460D01*
X115615459Y-134634511D01*
X142265460Y-107984510D01*
X142265461Y-107984507D01*
X142269700Y-107980269D01*
X142281517Y-107973816D01*
X142290336Y-107963638D01*
X142311586Y-107957397D01*
X142331023Y-107946784D01*
X142345915Y-107947315D01*
X142357375Y-107943950D01*
X142378912Y-107948492D01*
X142392310Y-107948971D01*
X142401780Y-107951751D01*
X142402235Y-107952206D01*
X142505009Y-107997585D01*
X142530135Y-108000500D01*
X142567833Y-108000499D01*
X142584935Y-108005520D01*
X142599935Y-108015159D01*
X142617041Y-108020181D01*
X142637687Y-108036818D01*
X142836380Y-108235511D01*
X142892329Y-108291460D01*
X142892331Y-108291461D01*
X142892335Y-108291464D01*
X142952352Y-108326114D01*
X142960851Y-108331021D01*
X142990501Y-108338965D01*
X143004387Y-108346982D01*
X143017834Y-108349908D01*
X143046088Y-108371059D01*
X143113181Y-108438152D01*
X143146666Y-108499475D01*
X143149500Y-108525833D01*
X143149500Y-108559309D01*
X143180201Y-108673886D01*
X143239511Y-108776613D01*
X143323387Y-108860489D01*
X143426114Y-108919799D01*
X143540691Y-108950500D01*
X143540694Y-108950500D01*
X143659306Y-108950500D01*
X143659309Y-108950500D01*
X143773886Y-108919799D01*
X143876613Y-108860489D01*
X143960489Y-108776613D01*
X144019799Y-108673886D01*
X144019799Y-108673884D01*
X144021481Y-108670972D01*
X144072048Y-108622757D01*
X144140656Y-108609535D01*
X144205520Y-108635503D01*
X144236253Y-108670971D01*
X144239511Y-108676613D01*
X144323387Y-108760489D01*
X144426114Y-108819799D01*
X144540691Y-108850500D01*
X144540694Y-108850500D01*
X144659306Y-108850500D01*
X144659309Y-108850500D01*
X144773886Y-108819799D01*
X144876613Y-108760489D01*
X144960489Y-108676613D01*
X145019799Y-108573886D01*
X145050500Y-108459309D01*
X145050500Y-108340691D01*
X145019799Y-108226114D01*
X144995588Y-108184181D01*
X144979116Y-108116282D01*
X145001968Y-108050255D01*
X145056889Y-108007064D01*
X145117267Y-107999007D01*
X145130135Y-108000500D01*
X145419864Y-108000499D01*
X145419879Y-108000497D01*
X145419882Y-108000497D01*
X145444987Y-107997586D01*
X145444987Y-107997585D01*
X145444991Y-107997585D01*
X145547765Y-107952206D01*
X145547766Y-107952204D01*
X145549912Y-107951257D01*
X145619190Y-107942185D01*
X145650085Y-107951257D01*
X145726375Y-107984942D01*
X145755009Y-107997585D01*
X145780135Y-108000500D01*
X146069864Y-108000499D01*
X146069879Y-108000497D01*
X146069882Y-108000497D01*
X146094987Y-107997586D01*
X146094987Y-107997585D01*
X146094991Y-107997585D01*
X146197765Y-107952206D01*
X146197766Y-107952204D01*
X146199912Y-107951257D01*
X146269190Y-107942185D01*
X146300085Y-107951257D01*
X146376375Y-107984942D01*
X146405009Y-107997585D01*
X146430135Y-108000500D01*
X146719864Y-108000499D01*
X146719879Y-108000497D01*
X146719882Y-108000497D01*
X146744987Y-107997586D01*
X146744987Y-107997585D01*
X146744991Y-107997585D01*
X146847765Y-107952206D01*
X146847766Y-107952204D01*
X146849912Y-107951257D01*
X146919190Y-107942185D01*
X146950085Y-107951257D01*
X147026375Y-107984942D01*
X147055009Y-107997585D01*
X147080135Y-108000500D01*
X147369864Y-108000499D01*
X147369879Y-108000497D01*
X147369882Y-108000497D01*
X147394987Y-107997586D01*
X147394987Y-107997585D01*
X147394991Y-107997585D01*
X147497765Y-107952206D01*
X147497766Y-107952204D01*
X147499912Y-107951257D01*
X147569190Y-107942185D01*
X147600085Y-107951257D01*
X147676375Y-107984942D01*
X147705009Y-107997585D01*
X147730135Y-108000500D01*
X148019864Y-108000499D01*
X148019879Y-108000497D01*
X148019882Y-108000497D01*
X148044987Y-107997586D01*
X148044988Y-107997585D01*
X148044991Y-107997585D01*
X148147765Y-107952206D01*
X148227206Y-107872765D01*
X148272585Y-107769991D01*
X148275500Y-107744865D01*
X148275500Y-107581611D01*
X148295185Y-107514572D01*
X148347989Y-107468817D01*
X148417147Y-107458873D01*
X148480703Y-107487898D01*
X148487181Y-107493930D01*
X148546774Y-107553523D01*
X148546778Y-107553526D01*
X148546780Y-107553528D01*
X148666874Y-107614719D01*
X148666876Y-107614719D01*
X148666878Y-107614720D01*
X148766507Y-107630500D01*
X148766512Y-107630500D01*
X149333492Y-107630500D01*
X149395661Y-107620653D01*
X149464955Y-107629607D01*
X149518407Y-107674603D01*
X149539047Y-107741355D01*
X149520323Y-107808668D01*
X149502741Y-107830807D01*
X148145369Y-109188181D01*
X148084046Y-109221666D01*
X148057688Y-109224500D01*
X146235438Y-109224500D01*
X146197224Y-109234739D01*
X146159009Y-109244979D01*
X146159004Y-109244982D01*
X146090495Y-109284535D01*
X146090487Y-109284541D01*
X132909541Y-122465487D01*
X132909535Y-122465495D01*
X132869982Y-122534004D01*
X132869979Y-122534009D01*
X132849500Y-122610439D01*
X132849500Y-133009563D01*
X132829815Y-133076602D01*
X132777011Y-133122357D01*
X132772953Y-133124124D01*
X132652404Y-133174057D01*
X132480342Y-133289024D01*
X132334024Y-133435342D01*
X132219058Y-133607403D01*
X132139870Y-133798579D01*
X132139868Y-133798587D01*
X132099500Y-134001530D01*
X132099500Y-134458469D01*
X132139868Y-134661412D01*
X132139870Y-134661420D01*
X132213363Y-134838848D01*
X132219059Y-134852598D01*
X132267436Y-134925000D01*
X132334024Y-135024657D01*
X132480342Y-135170975D01*
X132480345Y-135170977D01*
X132652402Y-135285941D01*
X132843580Y-135365130D01*
X132989731Y-135394201D01*
X133046530Y-135405499D01*
X133046534Y-135405500D01*
X133046535Y-135405500D01*
X133253466Y-135405500D01*
X133253467Y-135405499D01*
X133456420Y-135365130D01*
X133647598Y-135285941D01*
X133819655Y-135170977D01*
X133965977Y-135024655D01*
X134080941Y-134852598D01*
X134160130Y-134661420D01*
X134200500Y-134458465D01*
X134200500Y-134001535D01*
X134200499Y-134001530D01*
X134599500Y-134001530D01*
X134599500Y-134458469D01*
X134639868Y-134661412D01*
X134639870Y-134661420D01*
X134713363Y-134838848D01*
X134719059Y-134852598D01*
X134767436Y-134925000D01*
X134834024Y-135024657D01*
X134980342Y-135170975D01*
X134980345Y-135170977D01*
X135152402Y-135285941D01*
X135343580Y-135365130D01*
X135489731Y-135394201D01*
X135546530Y-135405499D01*
X135546534Y-135405500D01*
X135546535Y-135405500D01*
X135753466Y-135405500D01*
X135753467Y-135405499D01*
X135956420Y-135365130D01*
X136147598Y-135285941D01*
X136319655Y-135170977D01*
X136465977Y-135024655D01*
X136580941Y-134852598D01*
X136660130Y-134661420D01*
X136700500Y-134458465D01*
X136700500Y-134001535D01*
X136660130Y-133798580D01*
X136652136Y-133779281D01*
X136650080Y-133774316D01*
X136580942Y-133607403D01*
X136465975Y-133435342D01*
X136319657Y-133289024D01*
X136167989Y-133187684D01*
X136147598Y-133174059D01*
X136147593Y-133174057D01*
X135956420Y-133094870D01*
X135956412Y-133094868D01*
X135753469Y-133054500D01*
X135753465Y-133054500D01*
X135546535Y-133054500D01*
X135546530Y-133054500D01*
X135343587Y-133094868D01*
X135343579Y-133094870D01*
X135152403Y-133174058D01*
X134980342Y-133289024D01*
X134834024Y-133435342D01*
X134719058Y-133607403D01*
X134639870Y-133798579D01*
X134639868Y-133798587D01*
X134599500Y-134001530D01*
X134200499Y-134001530D01*
X134160130Y-133798580D01*
X134080941Y-133607402D01*
X133965977Y-133435345D01*
X133965975Y-133435342D01*
X133819657Y-133289024D01*
X133647595Y-133174057D01*
X133527047Y-133124124D01*
X133472643Y-133080282D01*
X133450579Y-133013988D01*
X133450500Y-133009563D01*
X133450500Y-122825833D01*
X133470185Y-122758794D01*
X133486819Y-122738152D01*
X146363152Y-109861819D01*
X146424475Y-109828334D01*
X146450833Y-109825500D01*
X148273081Y-109825500D01*
X148273083Y-109825500D01*
X148349510Y-109805021D01*
X148418032Y-109765460D01*
X148473981Y-109709511D01*
X150791460Y-107392032D01*
X150795802Y-107384511D01*
X150831021Y-107323510D01*
X150851500Y-107247083D01*
X150851500Y-106008954D01*
X150871185Y-105941915D01*
X150923989Y-105896160D01*
X150981667Y-105885107D01*
X150994842Y-105885763D01*
X151003191Y-105888000D01*
X151039762Y-105888000D01*
X151042834Y-105888153D01*
X151073036Y-105898679D01*
X151103706Y-105907685D01*
X151107387Y-105910651D01*
X151108812Y-105911148D01*
X151110194Y-105912913D01*
X151124348Y-105924319D01*
X153563181Y-108363152D01*
X153596666Y-108424475D01*
X153599500Y-108450833D01*
X153599500Y-133284563D01*
X153579815Y-133351602D01*
X153527011Y-133397357D01*
X153522953Y-133399124D01*
X153402404Y-133449057D01*
X153230342Y-133564024D01*
X153084024Y-133710342D01*
X152969058Y-133882403D01*
X152889870Y-134073579D01*
X152889868Y-134073587D01*
X152849500Y-134276530D01*
X152849500Y-134733469D01*
X152889868Y-134936412D01*
X152889870Y-134936420D01*
X152952030Y-135086488D01*
X152969059Y-135127598D01*
X152998044Y-135170977D01*
X153084024Y-135299657D01*
X153230342Y-135445975D01*
X153230345Y-135445977D01*
X153402402Y-135560941D01*
X153593580Y-135640130D01*
X153759941Y-135673221D01*
X153796530Y-135680499D01*
X153796534Y-135680500D01*
X153796535Y-135680500D01*
X154003466Y-135680500D01*
X154003467Y-135680499D01*
X154206420Y-135640130D01*
X154397598Y-135560941D01*
X154569655Y-135445977D01*
X154715977Y-135299655D01*
X154830941Y-135127598D01*
X154910130Y-134936420D01*
X154950500Y-134733465D01*
X154950500Y-134276535D01*
X154910130Y-134073580D01*
X154830941Y-133882402D01*
X154715977Y-133710345D01*
X154715975Y-133710342D01*
X154569657Y-133564024D01*
X154397595Y-133449057D01*
X154277047Y-133399124D01*
X154222643Y-133355282D01*
X154200579Y-133288988D01*
X154200500Y-133284563D01*
X154200500Y-108235439D01*
X154200500Y-108235438D01*
X154180021Y-108159011D01*
X154144112Y-108096814D01*
X154140464Y-108090495D01*
X154140458Y-108090487D01*
X152165662Y-106115691D01*
X152974500Y-106115691D01*
X152974500Y-106234309D01*
X153005201Y-106348886D01*
X153064511Y-106451613D01*
X153148387Y-106535489D01*
X153251114Y-106594799D01*
X153365691Y-106625500D01*
X153399167Y-106625500D01*
X153466206Y-106645185D01*
X153486848Y-106661819D01*
X156063181Y-109238152D01*
X156096666Y-109299475D01*
X156099500Y-109325833D01*
X156099500Y-133284563D01*
X156079815Y-133351602D01*
X156027011Y-133397357D01*
X156022953Y-133399124D01*
X155902404Y-133449057D01*
X155730342Y-133564024D01*
X155584024Y-133710342D01*
X155469058Y-133882403D01*
X155389870Y-134073579D01*
X155389868Y-134073587D01*
X155349500Y-134276530D01*
X155349500Y-134733469D01*
X155389868Y-134936412D01*
X155389870Y-134936420D01*
X155452030Y-135086488D01*
X155469059Y-135127598D01*
X155498044Y-135170977D01*
X155584024Y-135299657D01*
X155730342Y-135445975D01*
X155730345Y-135445977D01*
X155902402Y-135560941D01*
X156093580Y-135640130D01*
X156259941Y-135673221D01*
X156296530Y-135680499D01*
X156296534Y-135680500D01*
X156296535Y-135680500D01*
X156503466Y-135680500D01*
X156503467Y-135680499D01*
X156706420Y-135640130D01*
X156897598Y-135560941D01*
X157069655Y-135445977D01*
X157215977Y-135299655D01*
X157330941Y-135127598D01*
X157410130Y-134936420D01*
X157450500Y-134733465D01*
X157450500Y-134276535D01*
X157410130Y-134073580D01*
X157330941Y-133882402D01*
X157215977Y-133710345D01*
X157215975Y-133710342D01*
X157069657Y-133564024D01*
X156897595Y-133449057D01*
X156777047Y-133399124D01*
X156722643Y-133355282D01*
X156700579Y-133288988D01*
X156700500Y-133284563D01*
X156700500Y-109110439D01*
X156680020Y-109034009D01*
X156680017Y-109034004D01*
X156640464Y-108965495D01*
X156640458Y-108965487D01*
X153911819Y-106236848D01*
X153878334Y-106175525D01*
X153875500Y-106149167D01*
X153875500Y-106115693D01*
X153875500Y-106115691D01*
X153844799Y-106001114D01*
X153785489Y-105898387D01*
X153701613Y-105814511D01*
X153598886Y-105755201D01*
X153484309Y-105724500D01*
X153365691Y-105724500D01*
X153251114Y-105755201D01*
X153251112Y-105755201D01*
X153251112Y-105755202D01*
X153148387Y-105814511D01*
X153148384Y-105814513D01*
X153064513Y-105898384D01*
X153064511Y-105898387D01*
X153007176Y-105997694D01*
X153005201Y-106001114D01*
X152974500Y-106115691D01*
X152165662Y-106115691D01*
X151549319Y-105499348D01*
X151515834Y-105438025D01*
X151513000Y-105411667D01*
X151513000Y-105378193D01*
X151513000Y-105378191D01*
X151482299Y-105263614D01*
X151422989Y-105160887D01*
X151339113Y-105077011D01*
X151236386Y-105017701D01*
X151121809Y-104987000D01*
X151003191Y-104987000D01*
X151003189Y-104987000D01*
X150995135Y-104988061D01*
X150994800Y-104985520D01*
X150937715Y-104984148D01*
X150879862Y-104944972D01*
X150852373Y-104880737D01*
X150851500Y-104866045D01*
X150851500Y-104111439D01*
X150851500Y-104111438D01*
X150831021Y-104035011D01*
X150826174Y-104026615D01*
X150791464Y-103966495D01*
X150791458Y-103966487D01*
X149486819Y-102661848D01*
X149453334Y-102600525D01*
X149450500Y-102574167D01*
X149450500Y-102540693D01*
X149450500Y-102540691D01*
X149419799Y-102426114D01*
X149396927Y-102386500D01*
X149380455Y-102318601D01*
X149403307Y-102252574D01*
X149458228Y-102209383D01*
X149504315Y-102200500D01*
X150566166Y-102200500D01*
X150633205Y-102220185D01*
X150653846Y-102236818D01*
X151680538Y-103263511D01*
X151680539Y-103263512D01*
X154301539Y-105884511D01*
X154357488Y-105940460D01*
X154357490Y-105940461D01*
X154357494Y-105940464D01*
X154406947Y-105969015D01*
X154426010Y-105980021D01*
X154502437Y-106000500D01*
X154502439Y-106000500D01*
X154965790Y-106000500D01*
X155032829Y-106020185D01*
X155078584Y-106072989D01*
X155088528Y-106142147D01*
X155059503Y-106205703D01*
X155041277Y-106222875D01*
X155035887Y-106227010D01*
X154952013Y-106310884D01*
X154952011Y-106310887D01*
X154912033Y-106380131D01*
X154892701Y-106413614D01*
X154862000Y-106528191D01*
X154862000Y-106646809D01*
X154892701Y-106761386D01*
X154952011Y-106864113D01*
X155035887Y-106947989D01*
X155138614Y-107007299D01*
X155253191Y-107038000D01*
X155253194Y-107038000D01*
X155371806Y-107038000D01*
X155371809Y-107038000D01*
X155486386Y-107007299D01*
X155577640Y-106954612D01*
X155593128Y-106950462D01*
X155604705Y-106943023D01*
X155639640Y-106938000D01*
X155840956Y-106938000D01*
X155907995Y-106957685D01*
X155928637Y-106974319D01*
X164388181Y-115433863D01*
X164421666Y-115495186D01*
X164424500Y-115521544D01*
X164424500Y-135678456D01*
X164404815Y-135745495D01*
X164388181Y-135766137D01*
X163741137Y-136413181D01*
X163679814Y-136446666D01*
X163653456Y-136449500D01*
X150500544Y-136449500D01*
X150433505Y-136429815D01*
X150387750Y-136377011D01*
X150377806Y-136307853D01*
X150406831Y-136244297D01*
X150412863Y-136237819D01*
X150529036Y-136121646D01*
X150977461Y-135673219D01*
X151038782Y-135639736D01*
X151089331Y-135639285D01*
X151184386Y-135658192D01*
X151296532Y-135680499D01*
X151296534Y-135680500D01*
X151296535Y-135680500D01*
X151503466Y-135680500D01*
X151503467Y-135680499D01*
X151706420Y-135640130D01*
X151897598Y-135560941D01*
X152069655Y-135445977D01*
X152215977Y-135299655D01*
X152330941Y-135127598D01*
X152410130Y-134936420D01*
X152450500Y-134733465D01*
X152450500Y-134276535D01*
X152410130Y-134073580D01*
X152330941Y-133882402D01*
X152215977Y-133710345D01*
X152215975Y-133710342D01*
X152069657Y-133564024D01*
X151983626Y-133506541D01*
X151897598Y-133449059D01*
X151897593Y-133449057D01*
X151706420Y-133369870D01*
X151706412Y-133369868D01*
X151503469Y-133329500D01*
X151503465Y-133329500D01*
X151296535Y-133329500D01*
X151296530Y-133329500D01*
X151093587Y-133369868D01*
X151093579Y-133369870D01*
X150902403Y-133449058D01*
X150730342Y-133564024D01*
X150584024Y-133710342D01*
X150494149Y-133844851D01*
X150478096Y-133868878D01*
X150477102Y-133870365D01*
X150423489Y-133915171D01*
X150354165Y-133923878D01*
X150291137Y-133893724D01*
X150254417Y-133834281D01*
X150249999Y-133801475D01*
X150249999Y-133730028D01*
X150249998Y-133730012D01*
X150239505Y-133627302D01*
X150184358Y-133460880D01*
X150184356Y-133460875D01*
X150092315Y-133311654D01*
X149968345Y-133187684D01*
X149819124Y-133095643D01*
X149819119Y-133095641D01*
X149652697Y-133040494D01*
X149652690Y-133040493D01*
X149549986Y-133030000D01*
X149150000Y-133030000D01*
X149150000Y-134100854D01*
X149083343Y-134062370D01*
X148962535Y-134030000D01*
X148837465Y-134030000D01*
X148716657Y-134062370D01*
X148650000Y-134100854D01*
X148650000Y-133030000D01*
X148250028Y-133030000D01*
X148250012Y-133030001D01*
X148147302Y-133040494D01*
X147980880Y-133095641D01*
X147980875Y-133095643D01*
X147831654Y-133187684D01*
X147707684Y-133311654D01*
X147615643Y-133460875D01*
X147615641Y-133460880D01*
X147560494Y-133627302D01*
X147560493Y-133627309D01*
X147550000Y-133730013D01*
X147550000Y-134255000D01*
X148495854Y-134255000D01*
X148457370Y-134321657D01*
X148425000Y-134442465D01*
X148425000Y-134567535D01*
X148457370Y-134688343D01*
X148495854Y-134755000D01*
X147550001Y-134755000D01*
X147550001Y-135279986D01*
X147560494Y-135382697D01*
X147615641Y-135549119D01*
X147615643Y-135549124D01*
X147707684Y-135698345D01*
X147831654Y-135822315D01*
X147980875Y-135914356D01*
X147980880Y-135914358D01*
X148147302Y-135969505D01*
X148147309Y-135969506D01*
X148250019Y-135979999D01*
X148649999Y-135979999D01*
X148650000Y-135979998D01*
X148650000Y-134909145D01*
X148716657Y-134947630D01*
X148837465Y-134980000D01*
X148962535Y-134980000D01*
X149083343Y-134947630D01*
X149150000Y-134909145D01*
X149150000Y-135979999D01*
X149379956Y-135979999D01*
X149446995Y-135999684D01*
X149492750Y-136052488D01*
X149502694Y-136121646D01*
X149473669Y-136185202D01*
X149467637Y-136191680D01*
X149246137Y-136413181D01*
X149184814Y-136446666D01*
X149158456Y-136449500D01*
X131049500Y-136449500D01*
X130982461Y-136429815D01*
X130936706Y-136377011D01*
X130925500Y-136325500D01*
X130925500Y-135460791D01*
X130945185Y-135393752D01*
X130997989Y-135347997D01*
X131002048Y-135346230D01*
X131147594Y-135285943D01*
X131147595Y-135285942D01*
X131147598Y-135285941D01*
X131319655Y-135170977D01*
X131465977Y-135024655D01*
X131580941Y-134852598D01*
X131660130Y-134661420D01*
X131700500Y-134458465D01*
X131700500Y-134001535D01*
X131660130Y-133798580D01*
X131580941Y-133607402D01*
X131465977Y-133435345D01*
X131465975Y-133435342D01*
X131319657Y-133289024D01*
X131167989Y-133187684D01*
X131147598Y-133174059D01*
X131147593Y-133174057D01*
X130956420Y-133094870D01*
X130956412Y-133094868D01*
X130753469Y-133054500D01*
X130753465Y-133054500D01*
X130546535Y-133054500D01*
X130546530Y-133054500D01*
X130343587Y-133094868D01*
X130343579Y-133094870D01*
X130152403Y-133174058D01*
X129980342Y-133289024D01*
X129834024Y-133435342D01*
X129727102Y-133595365D01*
X129673489Y-133640171D01*
X129604165Y-133648878D01*
X129541137Y-133618724D01*
X129504417Y-133559281D01*
X129499999Y-133526475D01*
X129499999Y-133455028D01*
X129499998Y-133455012D01*
X129489505Y-133352302D01*
X129434358Y-133185880D01*
X129434356Y-133185875D01*
X129342315Y-133036654D01*
X129218345Y-132912684D01*
X129069124Y-132820643D01*
X129069119Y-132820641D01*
X128902697Y-132765494D01*
X128902690Y-132765493D01*
X128799986Y-132755000D01*
X128400000Y-132755000D01*
X128400000Y-133825854D01*
X128333343Y-133787370D01*
X128212535Y-133755000D01*
X128087465Y-133755000D01*
X127966657Y-133787370D01*
X127900000Y-133825854D01*
X127900000Y-132755000D01*
X127500028Y-132755000D01*
X127500012Y-132755001D01*
X127397302Y-132765494D01*
X127230880Y-132820641D01*
X127230875Y-132820643D01*
X127081654Y-132912684D01*
X126957684Y-133036654D01*
X126865643Y-133185875D01*
X126865641Y-133185880D01*
X126810494Y-133352302D01*
X126810493Y-133352309D01*
X126800000Y-133455013D01*
X126800000Y-133980000D01*
X127745854Y-133980000D01*
X127707370Y-134046657D01*
X127675000Y-134167465D01*
X127675000Y-134292535D01*
X127707370Y-134413343D01*
X127745854Y-134480000D01*
X126800001Y-134480000D01*
X126800001Y-135004986D01*
X126810494Y-135107697D01*
X126865641Y-135274119D01*
X126865643Y-135274124D01*
X126957684Y-135423345D01*
X127081654Y-135547315D01*
X127230875Y-135639356D01*
X127230880Y-135639358D01*
X127397302Y-135694505D01*
X127397309Y-135694506D01*
X127500019Y-135704999D01*
X127899999Y-135704999D01*
X127900000Y-135704998D01*
X127900000Y-134634145D01*
X127966657Y-134672630D01*
X128087465Y-134705000D01*
X128212535Y-134705000D01*
X128333343Y-134672630D01*
X128400000Y-134634145D01*
X128400000Y-135704999D01*
X128799972Y-135704999D01*
X128799986Y-135704998D01*
X128902697Y-135694505D01*
X129069119Y-135639358D01*
X129069124Y-135639356D01*
X129218345Y-135547315D01*
X129342315Y-135423345D01*
X129434356Y-135274124D01*
X129434358Y-135274119D01*
X129489505Y-135107697D01*
X129489506Y-135107690D01*
X129499999Y-135004986D01*
X129499999Y-134933528D01*
X129519683Y-134866488D01*
X129572486Y-134820732D01*
X129641644Y-134810788D01*
X129705200Y-134839812D01*
X129727101Y-134864635D01*
X129834022Y-135024655D01*
X129980342Y-135170975D01*
X129980345Y-135170977D01*
X130152402Y-135285941D01*
X130152403Y-135285941D01*
X130152407Y-135285944D01*
X130157776Y-135288814D01*
X130156577Y-135291056D01*
X130202338Y-135327913D01*
X130224420Y-135394201D01*
X130224500Y-135398659D01*
X130224500Y-136325500D01*
X130204815Y-136392539D01*
X130152011Y-136438294D01*
X130100500Y-136449500D01*
X105596544Y-136449500D01*
X105529505Y-136429815D01*
X105508863Y-136413181D01*
X104093221Y-134997539D01*
X104059736Y-134936216D01*
X104059285Y-134885667D01*
X104060131Y-134881414D01*
X104100500Y-134678465D01*
X104100500Y-134221535D01*
X104060130Y-134018580D01*
X103980941Y-133827402D01*
X103865977Y-133655345D01*
X103865975Y-133655342D01*
X103719657Y-133509024D01*
X103569968Y-133409006D01*
X103547598Y-133394059D01*
X103547593Y-133394057D01*
X103356420Y-133314870D01*
X103356412Y-133314868D01*
X103153469Y-133274500D01*
X103153465Y-133274500D01*
X102946535Y-133274500D01*
X102946530Y-133274500D01*
X102743587Y-133314868D01*
X102743579Y-133314870D01*
X102552403Y-133394058D01*
X102380342Y-133509024D01*
X102234024Y-133655342D01*
X102173132Y-133746475D01*
X102138321Y-133798575D01*
X102127102Y-133815365D01*
X102073489Y-133860171D01*
X102004165Y-133868878D01*
X101941137Y-133838724D01*
X101904417Y-133779281D01*
X101899999Y-133746475D01*
X101899999Y-133675028D01*
X101899998Y-133675012D01*
X101889505Y-133572302D01*
X101834358Y-133405880D01*
X101834356Y-133405875D01*
X101742315Y-133256654D01*
X101618345Y-133132684D01*
X101469124Y-133040643D01*
X101469119Y-133040641D01*
X101302697Y-132985494D01*
X101302690Y-132985493D01*
X101199986Y-132975000D01*
X100800000Y-132975000D01*
X100800000Y-134045854D01*
X100733343Y-134007370D01*
X100612535Y-133975000D01*
X100487465Y-133975000D01*
X100366657Y-134007370D01*
X100300000Y-134045854D01*
X100300000Y-132975000D01*
X99900028Y-132975000D01*
X99900012Y-132975001D01*
X99797302Y-132985494D01*
X99630880Y-133040641D01*
X99630875Y-133040643D01*
X99481654Y-133132684D01*
X99357684Y-133256654D01*
X99265643Y-133405875D01*
X99265641Y-133405880D01*
X99210494Y-133572302D01*
X99210493Y-133572309D01*
X99200000Y-133675013D01*
X83568977Y-133675013D01*
X83561090Y-133625214D01*
X83507694Y-133460880D01*
X83483241Y-133385621D01*
X83483239Y-133385618D01*
X83483239Y-133385616D01*
X83417529Y-133256654D01*
X83368870Y-133161155D01*
X83348185Y-133132684D01*
X83220798Y-132957350D01*
X83220794Y-132957345D01*
X83042654Y-132779205D01*
X83042649Y-132779201D01*
X82838848Y-132631132D01*
X82838847Y-132631131D01*
X82838845Y-132631130D01*
X82768747Y-132595413D01*
X82614383Y-132516760D01*
X82374785Y-132438910D01*
X82125962Y-132399500D01*
X81874038Y-132399500D01*
X81749626Y-132419205D01*
X81625214Y-132438910D01*
X81385616Y-132516760D01*
X81161151Y-132631132D01*
X80957350Y-132779201D01*
X80957345Y-132779205D01*
X80779205Y-132957345D01*
X80779201Y-132957350D01*
X80631132Y-133161151D01*
X80516760Y-133385616D01*
X80438910Y-133625214D01*
X80414508Y-133779281D01*
X80399500Y-133874038D01*
X78500500Y-133874038D01*
X78500500Y-96558519D01*
X108249500Y-96558519D01*
X108249500Y-99598024D01*
X108261131Y-99656501D01*
X108261132Y-99656502D01*
X108305447Y-99722824D01*
X108371769Y-99767139D01*
X108371770Y-99767140D01*
X108430247Y-99778771D01*
X108430250Y-99778772D01*
X108430252Y-99778772D01*
X109469750Y-99778772D01*
X109469751Y-99778771D01*
X109484568Y-99775824D01*
X109528229Y-99767140D01*
X109528229Y-99767139D01*
X109528231Y-99767139D01*
X109594552Y-99722824D01*
X109638867Y-99656503D01*
X109638867Y-99656501D01*
X109638868Y-99656501D01*
X109650499Y-99598024D01*
X109650500Y-99598022D01*
X109650500Y-98424500D01*
X109653050Y-98415814D01*
X109651762Y-98406853D01*
X109662740Y-98382812D01*
X109670185Y-98357461D01*
X109677025Y-98351533D01*
X109680787Y-98343297D01*
X109703021Y-98329007D01*
X109722989Y-98311706D01*
X109733503Y-98309418D01*
X109739565Y-98305523D01*
X109774500Y-98300500D01*
X109862036Y-98300500D01*
X109929075Y-98320185D01*
X109949717Y-98336819D01*
X109973387Y-98360489D01*
X110076114Y-98419799D01*
X110190691Y-98450500D01*
X110190694Y-98450500D01*
X110309306Y-98450500D01*
X110309309Y-98450500D01*
X110423886Y-98419799D01*
X110526613Y-98360489D01*
X110577819Y-98309283D01*
X110639142Y-98275798D01*
X110708834Y-98280782D01*
X110764767Y-98322654D01*
X110789184Y-98388118D01*
X110789500Y-98396964D01*
X110789500Y-99598024D01*
X110801131Y-99656501D01*
X110801132Y-99656502D01*
X110845447Y-99722824D01*
X110911769Y-99767139D01*
X110911770Y-99767140D01*
X110970247Y-99778771D01*
X110970250Y-99778772D01*
X110970252Y-99778772D01*
X112009750Y-99778772D01*
X112009751Y-99778771D01*
X112024568Y-99775824D01*
X112068229Y-99767140D01*
X112068229Y-99767139D01*
X112068231Y-99767139D01*
X112134552Y-99722824D01*
X112178867Y-99656503D01*
X112178867Y-99656501D01*
X112178868Y-99656501D01*
X112190499Y-99598024D01*
X112190500Y-99598022D01*
X112190500Y-98424500D01*
X112193050Y-98415814D01*
X112191762Y-98406853D01*
X112202740Y-98382812D01*
X112210185Y-98357461D01*
X112217025Y-98351533D01*
X112220787Y-98343297D01*
X112243021Y-98329007D01*
X112262989Y-98311706D01*
X112273503Y-98309418D01*
X112279565Y-98305523D01*
X112314500Y-98300500D01*
X112362036Y-98300500D01*
X112429075Y-98320185D01*
X112449717Y-98336819D01*
X112473387Y-98360489D01*
X112576114Y-98419799D01*
X112690691Y-98450500D01*
X112690694Y-98450500D01*
X112809306Y-98450500D01*
X112809309Y-98450500D01*
X112923886Y-98419799D01*
X113026613Y-98360489D01*
X113110489Y-98276613D01*
X113110489Y-98276612D01*
X113116236Y-98270866D01*
X113118246Y-98272876D01*
X113163552Y-98239795D01*
X113233298Y-98235640D01*
X113294219Y-98269852D01*
X113326971Y-98331570D01*
X113329500Y-98356484D01*
X113329500Y-99598024D01*
X113341131Y-99656501D01*
X113341132Y-99656502D01*
X113385447Y-99722824D01*
X113451769Y-99767139D01*
X113451770Y-99767140D01*
X113510247Y-99778771D01*
X113510250Y-99778772D01*
X113510252Y-99778772D01*
X114549750Y-99778772D01*
X114549751Y-99778771D01*
X114564568Y-99775824D01*
X114608229Y-99767140D01*
X114608229Y-99767139D01*
X114608231Y-99767139D01*
X114674552Y-99722824D01*
X114718867Y-99656503D01*
X114718867Y-99656501D01*
X114718868Y-99656501D01*
X114730499Y-99598024D01*
X114730500Y-99598022D01*
X114730500Y-98424500D01*
X114733050Y-98415814D01*
X114731762Y-98406853D01*
X114742740Y-98382812D01*
X114750185Y-98357461D01*
X114757025Y-98351533D01*
X114760787Y-98343297D01*
X114783021Y-98329007D01*
X114802989Y-98311706D01*
X114813503Y-98309418D01*
X114819565Y-98305523D01*
X114854500Y-98300500D01*
X114862036Y-98300500D01*
X114929075Y-98320185D01*
X114949717Y-98336819D01*
X114973387Y-98360489D01*
X115076114Y-98419799D01*
X115190691Y-98450500D01*
X115190694Y-98450500D01*
X115309306Y-98450500D01*
X115309309Y-98450500D01*
X115423886Y-98419799D01*
X115526613Y-98360489D01*
X115610489Y-98276613D01*
X115638113Y-98228766D01*
X115688680Y-98180551D01*
X115757287Y-98167329D01*
X115822152Y-98193297D01*
X115862680Y-98250211D01*
X115869500Y-98290767D01*
X115869500Y-99598024D01*
X115881131Y-99656501D01*
X115881132Y-99656502D01*
X115925447Y-99722824D01*
X115991769Y-99767139D01*
X115991770Y-99767140D01*
X116050247Y-99778771D01*
X116050250Y-99778772D01*
X116050252Y-99778772D01*
X117089750Y-99778772D01*
X117089751Y-99778771D01*
X117104568Y-99775824D01*
X117148229Y-99767140D01*
X117148229Y-99767139D01*
X117148231Y-99767139D01*
X117214552Y-99722824D01*
X117258867Y-99656503D01*
X117258867Y-99656501D01*
X117258868Y-99656501D01*
X117270499Y-99598024D01*
X117270500Y-99598022D01*
X117270500Y-98456255D01*
X117290185Y-98389216D01*
X117342989Y-98343461D01*
X117412147Y-98333517D01*
X117469989Y-98357881D01*
X117473386Y-98360488D01*
X117473387Y-98360489D01*
X117576114Y-98419799D01*
X117690691Y-98450500D01*
X117690694Y-98450500D01*
X117809306Y-98450500D01*
X117809309Y-98450500D01*
X117923886Y-98419799D01*
X118026613Y-98360489D01*
X118110489Y-98276613D01*
X118169799Y-98173886D01*
X118169800Y-98173881D01*
X118170936Y-98171140D01*
X118172517Y-98169176D01*
X118173863Y-98166847D01*
X118174226Y-98167056D01*
X118214774Y-98116734D01*
X118281067Y-98094665D01*
X118348768Y-98111941D01*
X118396381Y-98163075D01*
X118409500Y-98218586D01*
X118409500Y-99598024D01*
X118421131Y-99656501D01*
X118421132Y-99656502D01*
X118465447Y-99722824D01*
X118531769Y-99767139D01*
X118531770Y-99767140D01*
X118590247Y-99778771D01*
X118590250Y-99778772D01*
X118590252Y-99778772D01*
X119629750Y-99778772D01*
X119629751Y-99778771D01*
X119644568Y-99775824D01*
X119688229Y-99767140D01*
X119688229Y-99767139D01*
X119688231Y-99767139D01*
X119754552Y-99722824D01*
X119798867Y-99656503D01*
X119798867Y-99656501D01*
X119798868Y-99656501D01*
X119810499Y-99598024D01*
X119810500Y-99598022D01*
X119810500Y-98481220D01*
X119830185Y-98414181D01*
X119882989Y-98368426D01*
X119952147Y-98358482D01*
X119996501Y-98373834D01*
X120076108Y-98419796D01*
X120076109Y-98419797D01*
X120076111Y-98419797D01*
X120076114Y-98419799D01*
X120190691Y-98450500D01*
X120190694Y-98450500D01*
X120309306Y-98450500D01*
X120309309Y-98450500D01*
X120423886Y-98419799D01*
X120526613Y-98360489D01*
X120610489Y-98276613D01*
X120669799Y-98173886D01*
X120700500Y-98059309D01*
X120700500Y-97940691D01*
X120669799Y-97826114D01*
X120610489Y-97723387D01*
X120526613Y-97639511D01*
X120423886Y-97580201D01*
X120309309Y-97549500D01*
X120190691Y-97549500D01*
X120095461Y-97575017D01*
X120076110Y-97580202D01*
X119996500Y-97626166D01*
X119928600Y-97642639D01*
X119862573Y-97619787D01*
X119819383Y-97564866D01*
X119810500Y-97518779D01*
X119810500Y-96558521D01*
X119810499Y-96558519D01*
X120949500Y-96558519D01*
X120949500Y-99598024D01*
X120961131Y-99656501D01*
X120961132Y-99656502D01*
X121005447Y-99722824D01*
X121071769Y-99767139D01*
X121071770Y-99767140D01*
X121130247Y-99778771D01*
X121130250Y-99778772D01*
X121130252Y-99778772D01*
X122169750Y-99778772D01*
X122169751Y-99778771D01*
X122184568Y-99775824D01*
X122228229Y-99767140D01*
X122228229Y-99767139D01*
X122228231Y-99767139D01*
X122294552Y-99722824D01*
X122338867Y-99656503D01*
X122338867Y-99656501D01*
X122338868Y-99656501D01*
X122350499Y-99598024D01*
X122350500Y-99598022D01*
X122350500Y-98487772D01*
X122353050Y-98479086D01*
X122351762Y-98470125D01*
X122362740Y-98446084D01*
X122370185Y-98420733D01*
X122377025Y-98414805D01*
X122380787Y-98406569D01*
X122403021Y-98392279D01*
X122422989Y-98374978D01*
X122433503Y-98372690D01*
X122439565Y-98368795D01*
X122474500Y-98363772D01*
X122675308Y-98363772D01*
X122742347Y-98383457D01*
X122762989Y-98400091D01*
X122786659Y-98423761D01*
X122889386Y-98483071D01*
X123003963Y-98513772D01*
X123003966Y-98513772D01*
X123122578Y-98513772D01*
X123122581Y-98513772D01*
X123237158Y-98483071D01*
X123237160Y-98483069D01*
X123237162Y-98483069D01*
X123237163Y-98483068D01*
X123240884Y-98480920D01*
X123263790Y-98467695D01*
X123303499Y-98444769D01*
X123371399Y-98428295D01*
X123437426Y-98451147D01*
X123480617Y-98506068D01*
X123489500Y-98552155D01*
X123489500Y-99598024D01*
X123501131Y-99656501D01*
X123501132Y-99656502D01*
X123545447Y-99722824D01*
X123611769Y-99767139D01*
X123611770Y-99767140D01*
X123670247Y-99778771D01*
X123670250Y-99778772D01*
X123670252Y-99778772D01*
X124709750Y-99778772D01*
X124709751Y-99778771D01*
X124724568Y-99775824D01*
X124768229Y-99767140D01*
X124768229Y-99767139D01*
X124768231Y-99767139D01*
X124834552Y-99722824D01*
X124878867Y-99656503D01*
X124878867Y-99656501D01*
X124878868Y-99656501D01*
X124890499Y-99598024D01*
X124890500Y-99598022D01*
X124890500Y-98487772D01*
X124893050Y-98479086D01*
X124891762Y-98470125D01*
X124902740Y-98446084D01*
X124910185Y-98420733D01*
X124917025Y-98414805D01*
X124920787Y-98406569D01*
X124943021Y-98392279D01*
X124962989Y-98374978D01*
X124973503Y-98372690D01*
X124979565Y-98368795D01*
X125014500Y-98363772D01*
X125175308Y-98363772D01*
X125242347Y-98383457D01*
X125262989Y-98400091D01*
X125286659Y-98423761D01*
X125389386Y-98483071D01*
X125503963Y-98513772D01*
X125503966Y-98513772D01*
X125622578Y-98513772D01*
X125622581Y-98513772D01*
X125737158Y-98483071D01*
X125737160Y-98483069D01*
X125737162Y-98483069D01*
X125737163Y-98483068D01*
X125740364Y-98481220D01*
X125839885Y-98423761D01*
X125839886Y-98423759D01*
X125843499Y-98421674D01*
X125911398Y-98405200D01*
X125977426Y-98428052D01*
X126020617Y-98482972D01*
X126029500Y-98529060D01*
X126029500Y-99598024D01*
X126041131Y-99656501D01*
X126041132Y-99656502D01*
X126085447Y-99722824D01*
X126151769Y-99767139D01*
X126151770Y-99767140D01*
X126210247Y-99778771D01*
X126210250Y-99778772D01*
X126210252Y-99778772D01*
X127249750Y-99778772D01*
X127249751Y-99778771D01*
X127264568Y-99775824D01*
X127308229Y-99767140D01*
X127308229Y-99767139D01*
X127308231Y-99767139D01*
X127374552Y-99722824D01*
X127418867Y-99656503D01*
X127418867Y-99656501D01*
X127418868Y-99656501D01*
X127430499Y-99598024D01*
X127430500Y-99598022D01*
X127430500Y-96558521D01*
X127430499Y-96558519D01*
X128569500Y-96558519D01*
X128569500Y-99598024D01*
X128581131Y-99656501D01*
X128581132Y-99656502D01*
X128625447Y-99722824D01*
X128691769Y-99767139D01*
X128691770Y-99767140D01*
X128750247Y-99778771D01*
X128750250Y-99778772D01*
X128750252Y-99778772D01*
X129789750Y-99778772D01*
X129789751Y-99778771D01*
X129804568Y-99775824D01*
X129848229Y-99767140D01*
X129848229Y-99767139D01*
X129848231Y-99767139D01*
X129914552Y-99722824D01*
X129958867Y-99656503D01*
X129958867Y-99656501D01*
X129958868Y-99656501D01*
X129970499Y-99598024D01*
X129970500Y-99598022D01*
X129970500Y-98639702D01*
X129990185Y-98572663D01*
X130042989Y-98526908D01*
X130112147Y-98516964D01*
X130126584Y-98519924D01*
X130240691Y-98550500D01*
X130240694Y-98550500D01*
X130359306Y-98550500D01*
X130359309Y-98550500D01*
X130473886Y-98519799D01*
X130576613Y-98460489D01*
X130660489Y-98376613D01*
X130719799Y-98273886D01*
X130750500Y-98159309D01*
X130750500Y-98040691D01*
X130719799Y-97926114D01*
X130660489Y-97823387D01*
X130576613Y-97739511D01*
X130473886Y-97680201D01*
X130359309Y-97649500D01*
X130240691Y-97649500D01*
X130126593Y-97680072D01*
X130056743Y-97678409D01*
X129998881Y-97639246D01*
X129971377Y-97575017D01*
X129970500Y-97560297D01*
X129970500Y-96558521D01*
X129970499Y-96558519D01*
X131109500Y-96558519D01*
X131109500Y-99598024D01*
X131121131Y-99656501D01*
X131121132Y-99656502D01*
X131165447Y-99722824D01*
X131231769Y-99767139D01*
X131231770Y-99767140D01*
X131290247Y-99778771D01*
X131290250Y-99778772D01*
X131290252Y-99778772D01*
X132329750Y-99778772D01*
X132329751Y-99778771D01*
X132344568Y-99775824D01*
X132388229Y-99767140D01*
X132388229Y-99767139D01*
X132388231Y-99767139D01*
X132454552Y-99722824D01*
X132498867Y-99656503D01*
X132498867Y-99656501D01*
X132498868Y-99656501D01*
X132510499Y-99598024D01*
X132510500Y-99598022D01*
X132510500Y-98586778D01*
X132530185Y-98519739D01*
X132582989Y-98473984D01*
X132652147Y-98464040D01*
X132668072Y-98468409D01*
X132668264Y-98467695D01*
X132676112Y-98469797D01*
X132676114Y-98469799D01*
X132790691Y-98500500D01*
X132790694Y-98500500D01*
X132909306Y-98500500D01*
X132909309Y-98500500D01*
X133023886Y-98469799D01*
X133126613Y-98410489D01*
X133210489Y-98326613D01*
X133269799Y-98223886D01*
X133300500Y-98109309D01*
X133300500Y-97990691D01*
X133269799Y-97876114D01*
X133210489Y-97773387D01*
X133126613Y-97689511D01*
X133023886Y-97630201D01*
X132909309Y-97599500D01*
X132790691Y-97599500D01*
X132676114Y-97630201D01*
X132676112Y-97630202D01*
X132668264Y-97632305D01*
X132667471Y-97629346D01*
X132612437Y-97635242D01*
X132549970Y-97603944D01*
X132514340Y-97543842D01*
X132510500Y-97513221D01*
X132510500Y-96558521D01*
X132510499Y-96558519D01*
X132498868Y-96500042D01*
X132498867Y-96500041D01*
X132454552Y-96433719D01*
X132388230Y-96389404D01*
X132388229Y-96389403D01*
X132329752Y-96377772D01*
X132329748Y-96377772D01*
X131290252Y-96377772D01*
X131290247Y-96377772D01*
X131231770Y-96389403D01*
X131231769Y-96389404D01*
X131165447Y-96433719D01*
X131121132Y-96500041D01*
X131121131Y-96500042D01*
X131109500Y-96558519D01*
X129970499Y-96558519D01*
X129958868Y-96500042D01*
X129958867Y-96500041D01*
X129914552Y-96433719D01*
X129848230Y-96389404D01*
X129848229Y-96389403D01*
X129789752Y-96377772D01*
X129789748Y-96377772D01*
X128750252Y-96377772D01*
X128750247Y-96377772D01*
X128691770Y-96389403D01*
X128691769Y-96389404D01*
X128625447Y-96433719D01*
X128581132Y-96500041D01*
X128581131Y-96500042D01*
X128569500Y-96558519D01*
X127430499Y-96558519D01*
X127418868Y-96500042D01*
X127418867Y-96500041D01*
X127374552Y-96433719D01*
X127308230Y-96389404D01*
X127308229Y-96389403D01*
X127249752Y-96377772D01*
X127249748Y-96377772D01*
X126210252Y-96377772D01*
X126210247Y-96377772D01*
X126151770Y-96389403D01*
X126151769Y-96389404D01*
X126085447Y-96433719D01*
X126041132Y-96500041D01*
X126041131Y-96500042D01*
X126029500Y-96558519D01*
X126029500Y-97597483D01*
X126009815Y-97664522D01*
X125957011Y-97710277D01*
X125887853Y-97720221D01*
X125843499Y-97704870D01*
X125839886Y-97702784D01*
X125839885Y-97702783D01*
X125737158Y-97643473D01*
X125622581Y-97612772D01*
X125503963Y-97612772D01*
X125389386Y-97643473D01*
X125389384Y-97643473D01*
X125389384Y-97643474D01*
X125286659Y-97702783D01*
X125286656Y-97702785D01*
X125262989Y-97726453D01*
X125236061Y-97741156D01*
X125210243Y-97757749D01*
X125204042Y-97758640D01*
X125201666Y-97759938D01*
X125175308Y-97762772D01*
X125014500Y-97762772D01*
X124947461Y-97743087D01*
X124901706Y-97690283D01*
X124890500Y-97638772D01*
X124890500Y-96558521D01*
X124890499Y-96558519D01*
X124878868Y-96500042D01*
X124878867Y-96500041D01*
X124834552Y-96433719D01*
X124768230Y-96389404D01*
X124768229Y-96389403D01*
X124709752Y-96377772D01*
X124709748Y-96377772D01*
X123670252Y-96377772D01*
X123670247Y-96377772D01*
X123611770Y-96389403D01*
X123611769Y-96389404D01*
X123545447Y-96433719D01*
X123501132Y-96500041D01*
X123501131Y-96500042D01*
X123489500Y-96558519D01*
X123489500Y-97574388D01*
X123469815Y-97641427D01*
X123417011Y-97687182D01*
X123347853Y-97697126D01*
X123303500Y-97681775D01*
X123237161Y-97643474D01*
X123237162Y-97643474D01*
X123219614Y-97638772D01*
X123122581Y-97612772D01*
X123003963Y-97612772D01*
X122889386Y-97643473D01*
X122889384Y-97643473D01*
X122889384Y-97643474D01*
X122786659Y-97702783D01*
X122786656Y-97702785D01*
X122762989Y-97726453D01*
X122736061Y-97741156D01*
X122710243Y-97757749D01*
X122704042Y-97758640D01*
X122701666Y-97759938D01*
X122675308Y-97762772D01*
X122474500Y-97762772D01*
X122407461Y-97743087D01*
X122361706Y-97690283D01*
X122350500Y-97638772D01*
X122350500Y-96558521D01*
X122350499Y-96558519D01*
X122338868Y-96500042D01*
X122338867Y-96500041D01*
X122294552Y-96433719D01*
X122228230Y-96389404D01*
X122228229Y-96389403D01*
X122169752Y-96377772D01*
X122169748Y-96377772D01*
X121130252Y-96377772D01*
X121130247Y-96377772D01*
X121071770Y-96389403D01*
X121071769Y-96389404D01*
X121005447Y-96433719D01*
X120961132Y-96500041D01*
X120961131Y-96500042D01*
X120949500Y-96558519D01*
X119810499Y-96558519D01*
X119798868Y-96500042D01*
X119798867Y-96500041D01*
X119754552Y-96433719D01*
X119688230Y-96389404D01*
X119688229Y-96389403D01*
X119629752Y-96377772D01*
X119629748Y-96377772D01*
X118590252Y-96377772D01*
X118590247Y-96377772D01*
X118531770Y-96389403D01*
X118531769Y-96389404D01*
X118465447Y-96433719D01*
X118421132Y-96500041D01*
X118421131Y-96500042D01*
X118409500Y-96558519D01*
X118409500Y-97781413D01*
X118389815Y-97848452D01*
X118337011Y-97894207D01*
X118267853Y-97904151D01*
X118204297Y-97875126D01*
X118173981Y-97833084D01*
X118173863Y-97833153D01*
X118173186Y-97831981D01*
X118170938Y-97828863D01*
X118169800Y-97826116D01*
X118169798Y-97826112D01*
X118110489Y-97723387D01*
X118026613Y-97639511D01*
X117923886Y-97580201D01*
X117809309Y-97549500D01*
X117690691Y-97549500D01*
X117576114Y-97580201D01*
X117576112Y-97580201D01*
X117576112Y-97580202D01*
X117473381Y-97639514D01*
X117469982Y-97642123D01*
X117466598Y-97643430D01*
X117466349Y-97643575D01*
X117466326Y-97643536D01*
X117404812Y-97667314D01*
X117336368Y-97653273D01*
X117286380Y-97604457D01*
X117270500Y-97543744D01*
X117270500Y-96558521D01*
X117270499Y-96558519D01*
X117258868Y-96500042D01*
X117258867Y-96500041D01*
X117214552Y-96433719D01*
X117148230Y-96389404D01*
X117148229Y-96389403D01*
X117089752Y-96377772D01*
X117089748Y-96377772D01*
X116050252Y-96377772D01*
X116050247Y-96377772D01*
X115991770Y-96389403D01*
X115991769Y-96389404D01*
X115925447Y-96433719D01*
X115881132Y-96500041D01*
X115881131Y-96500042D01*
X115869500Y-96558519D01*
X115869500Y-97709232D01*
X115849815Y-97776271D01*
X115797011Y-97822026D01*
X115727853Y-97831970D01*
X115664297Y-97802945D01*
X115638113Y-97771233D01*
X115631592Y-97759938D01*
X115610489Y-97723387D01*
X115526613Y-97639511D01*
X115423886Y-97580201D01*
X115309309Y-97549500D01*
X115190691Y-97549500D01*
X115076114Y-97580201D01*
X115076112Y-97580201D01*
X115076112Y-97580202D01*
X114973387Y-97639511D01*
X114973384Y-97639513D01*
X114949717Y-97663181D01*
X114922789Y-97677884D01*
X114896971Y-97694477D01*
X114890770Y-97695368D01*
X114888394Y-97696666D01*
X114862036Y-97699500D01*
X114854500Y-97699500D01*
X114787461Y-97679815D01*
X114741706Y-97627011D01*
X114730500Y-97575500D01*
X114730500Y-96558521D01*
X114730499Y-96558519D01*
X114718868Y-96500042D01*
X114718867Y-96500041D01*
X114674552Y-96433719D01*
X114608230Y-96389404D01*
X114608229Y-96389403D01*
X114549752Y-96377772D01*
X114549748Y-96377772D01*
X113510252Y-96377772D01*
X113510247Y-96377772D01*
X113451770Y-96389403D01*
X113451769Y-96389404D01*
X113385447Y-96433719D01*
X113341132Y-96500041D01*
X113341131Y-96500042D01*
X113329500Y-96558519D01*
X113329500Y-97643515D01*
X113309815Y-97710554D01*
X113257011Y-97756309D01*
X113187853Y-97766253D01*
X113124297Y-97737228D01*
X113116458Y-97728911D01*
X113116236Y-97729134D01*
X113026615Y-97639513D01*
X113026613Y-97639511D01*
X112923886Y-97580201D01*
X112809309Y-97549500D01*
X112690691Y-97549500D01*
X112576114Y-97580201D01*
X112576112Y-97580201D01*
X112576112Y-97580202D01*
X112473387Y-97639511D01*
X112473384Y-97639513D01*
X112449717Y-97663181D01*
X112422789Y-97677884D01*
X112396971Y-97694477D01*
X112390770Y-97695368D01*
X112388394Y-97696666D01*
X112362036Y-97699500D01*
X112314500Y-97699500D01*
X112247461Y-97679815D01*
X112201706Y-97627011D01*
X112190500Y-97575500D01*
X112190500Y-96558521D01*
X112190499Y-96558519D01*
X112178868Y-96500042D01*
X112178867Y-96500041D01*
X112134552Y-96433719D01*
X112068230Y-96389404D01*
X112068229Y-96389403D01*
X112009752Y-96377772D01*
X112009748Y-96377772D01*
X110970252Y-96377772D01*
X110970247Y-96377772D01*
X110911770Y-96389403D01*
X110911769Y-96389404D01*
X110845447Y-96433719D01*
X110801132Y-96500041D01*
X110801131Y-96500042D01*
X110789500Y-96558519D01*
X110789500Y-97603036D01*
X110769815Y-97670075D01*
X110717011Y-97715830D01*
X110647853Y-97725774D01*
X110584297Y-97696749D01*
X110577819Y-97690717D01*
X110526615Y-97639513D01*
X110526613Y-97639511D01*
X110423886Y-97580201D01*
X110309309Y-97549500D01*
X110190691Y-97549500D01*
X110076114Y-97580201D01*
X110076112Y-97580201D01*
X110076112Y-97580202D01*
X109973387Y-97639511D01*
X109973384Y-97639513D01*
X109949717Y-97663181D01*
X109922789Y-97677884D01*
X109896971Y-97694477D01*
X109890770Y-97695368D01*
X109888394Y-97696666D01*
X109862036Y-97699500D01*
X109774500Y-97699500D01*
X109707461Y-97679815D01*
X109661706Y-97627011D01*
X109650500Y-97575500D01*
X109650500Y-96558521D01*
X109650499Y-96558519D01*
X109638868Y-96500042D01*
X109638867Y-96500041D01*
X109594552Y-96433719D01*
X109528230Y-96389404D01*
X109528229Y-96389403D01*
X109469752Y-96377772D01*
X109469748Y-96377772D01*
X108430252Y-96377772D01*
X108430247Y-96377772D01*
X108371770Y-96389403D01*
X108371769Y-96389404D01*
X108305447Y-96433719D01*
X108261132Y-96500041D01*
X108261131Y-96500042D01*
X108249500Y-96558519D01*
X78500500Y-96558519D01*
X78500500Y-93874038D01*
X101399500Y-93874038D01*
X101399500Y-94125962D01*
X101403750Y-94152793D01*
X101438910Y-94374785D01*
X101516760Y-94614383D01*
X101577118Y-94732841D01*
X101614139Y-94805499D01*
X101631132Y-94838848D01*
X101779201Y-95042649D01*
X101779205Y-95042654D01*
X101957345Y-95220794D01*
X101957350Y-95220798D01*
X102062650Y-95297302D01*
X102161155Y-95368870D01*
X102300683Y-95439963D01*
X102385616Y-95483239D01*
X102385618Y-95483239D01*
X102385621Y-95483241D01*
X102625215Y-95561090D01*
X102874038Y-95600500D01*
X102874039Y-95600500D01*
X103125961Y-95600500D01*
X103125962Y-95600500D01*
X103374785Y-95561090D01*
X103614379Y-95483241D01*
X103838845Y-95368870D01*
X104042656Y-95220793D01*
X104220793Y-95042656D01*
X104368870Y-94838845D01*
X104483241Y-94614379D01*
X104561090Y-94374785D01*
X104600500Y-94125962D01*
X104600500Y-93874038D01*
X104561090Y-93625215D01*
X104483241Y-93385621D01*
X104368870Y-93161155D01*
X104299228Y-93065301D01*
X104220798Y-92957350D01*
X104220794Y-92957345D01*
X104042654Y-92779205D01*
X104042649Y-92779201D01*
X103838848Y-92631132D01*
X103838847Y-92631131D01*
X103838845Y-92631130D01*
X103768747Y-92595413D01*
X103614383Y-92516760D01*
X103374785Y-92438910D01*
X103125962Y-92399500D01*
X102874038Y-92399500D01*
X102749626Y-92419205D01*
X102625214Y-92438910D01*
X102385616Y-92516760D01*
X102161151Y-92631132D01*
X101957350Y-92779201D01*
X101957345Y-92779205D01*
X101779205Y-92957345D01*
X101779201Y-92957350D01*
X101631132Y-93161151D01*
X101516760Y-93385616D01*
X101457628Y-93567607D01*
X101438910Y-93625215D01*
X101399500Y-93874038D01*
X78500500Y-93874038D01*
X78500500Y-91725000D01*
X85450000Y-91725000D01*
X87450000Y-91725000D01*
X87450000Y-91490427D01*
X107950000Y-91490427D01*
X107950000Y-92788272D01*
X108300000Y-92788272D01*
X108300000Y-93288272D01*
X107950000Y-93288272D01*
X107950000Y-94586116D01*
X107956401Y-94645644D01*
X107956403Y-94645651D01*
X108006645Y-94780358D01*
X108006649Y-94780365D01*
X108092809Y-94895459D01*
X108092812Y-94895462D01*
X108207906Y-94981622D01*
X108207913Y-94981626D01*
X108342620Y-95031868D01*
X108342627Y-95031870D01*
X108402155Y-95038271D01*
X108402172Y-95038272D01*
X108700000Y-95038272D01*
X108700000Y-94600000D01*
X109200000Y-94600000D01*
X109200000Y-95038272D01*
X109497828Y-95038272D01*
X109497844Y-95038271D01*
X109557372Y-95031870D01*
X109557379Y-95031868D01*
X109692086Y-94981626D01*
X109692093Y-94981622D01*
X109807187Y-94895462D01*
X109807190Y-94895459D01*
X109893350Y-94780365D01*
X109893354Y-94780358D01*
X109943596Y-94645651D01*
X109943598Y-94645644D01*
X109948506Y-94600000D01*
X110350000Y-94600000D01*
X110350000Y-91450000D01*
X109945652Y-91450000D01*
X109943598Y-91430899D01*
X109943596Y-91430892D01*
X109893354Y-91296185D01*
X109893350Y-91296178D01*
X109807190Y-91181084D01*
X109807187Y-91181081D01*
X109692093Y-91094921D01*
X109692086Y-91094917D01*
X109557379Y-91044675D01*
X109557372Y-91044673D01*
X109497844Y-91038272D01*
X109200000Y-91038272D01*
X109200000Y-91450000D01*
X108700000Y-91450000D01*
X108700000Y-91038272D01*
X108402155Y-91038272D01*
X108342627Y-91044673D01*
X108342620Y-91044675D01*
X108207913Y-91094917D01*
X108207906Y-91094921D01*
X108092812Y-91181081D01*
X108092809Y-91181084D01*
X108006649Y-91296178D01*
X108006645Y-91296185D01*
X107956403Y-91430892D01*
X107956401Y-91430899D01*
X107950000Y-91490427D01*
X87450000Y-91490427D01*
X87450000Y-89725000D01*
X85450000Y-89725000D01*
X85450000Y-91725000D01*
X78500500Y-91725000D01*
X78500500Y-88624500D01*
X78520185Y-88557461D01*
X78572989Y-88511706D01*
X78624500Y-88500500D01*
X162855442Y-88500500D01*
X162922481Y-88520185D01*
G37*
%TD.AperFunction*%
%TD*%
M02*
