M48
; DRILL file {KiCad 9.0.2} date 2026-03-12T18:43:55+0100
; FORMAT={-:-/ absolute / inch / decimal}
; #@! TF.CreationDate,2026-03-12T18:43:55+01:00
; #@! TF.GenerationSoftware,Kicad,Pcbnew,9.0.2
; #@! TF.FileFunction,Plated,1,2,PTH
FMAT,2
INCH
; #@! TA.AperFunction,Plated,PTH,ViaDrill
T1C0.0118
; #@! TA.AperFunction,Plated,PTH,ComponentDrill
T2C0.0118
; #@! TA.AperFunction,Plated,PTH,ComponentDrill
T3C0.0374
; #@! TA.AperFunction,Plated,PTH,ComponentDrill
T4C0.0394
; #@! TA.AperFunction,Plated,PTH,ComponentDrill
T5C0.1063
%
G90
G05
T1
X4.3346Y-3.6201
X4.3346Y-3.6594
X4.3346Y-3.7008
X4.3406Y-3.8583
X4.439Y-3.622
X4.439Y-3.6555
X4.439Y-3.685
X4.439Y-3.7126
X4.439Y-3.8583
X4.5374Y-3.8583
X4.5531Y-3.6122
X4.5531Y-3.6516
X4.5531Y-3.6929
X4.6358Y-3.8583
X4.7343Y-3.8583
X4.7382Y-3.6181
X4.7382Y-3.6575
X4.7382Y-3.6969
X4.8386Y-3.6201
X4.8386Y-3.6594
X4.8386Y-3.6988
X4.845Y-3.8608
X4.939Y-3.6201
X4.939Y-3.6594
X4.939Y-3.6988
X4.9434Y-3.8608
X5.1299Y-3.8622
X5.1378Y-3.6201
X5.1378Y-3.6594
X5.1378Y-3.7008
X5.2303Y-3.8602
X5.2382Y-3.624
X5.2382Y-3.6634
X5.2382Y-3.7047
X5.3307Y-3.8602
X5.3386Y-3.622
X5.3386Y-3.6614
X5.3386Y-3.7028
X5.4026Y-4.0846
X5.4272Y-3.8602
X5.4429Y-4.1161
X5.4537Y-4.0561
X5.4695Y-4.1457
X5.4783Y-4.0807
X5.5Y-3.9862
X5.501Y-4.1053
X5.5118Y-4.2205
X5.5295Y-3.8583
X5.5591Y-4.1535
X5.565Y-4.0502
X5.5984Y-4.1575
X5.6299Y-3.8583
X5.6457Y-3.6634
X5.6535Y-4.2717
X5.6654Y-4.1693
X5.6919Y-4.0512
X5.6929Y-4.2677
X5.7205Y-4.0443
X5.7343Y-3.8563
X5.7972Y-4.0404
X5.8327Y-3.6201
X5.8327Y-3.6594
X5.8327Y-3.7008
X5.8346Y-3.8602
X5.8622Y-4.248
X5.8661Y-4.0394
X5.9075Y-4.1496
X5.9075Y-4.2126
X5.9473Y-4.1511
X6.0404Y-4.1801
X6.1147Y-4.1964
X6.1339Y-3.5709
X6.1654Y-3.8543
X6.3976Y-4.1043
X6.7126Y-3.9902
X6.7126Y-4.0433
X6.7146Y-3.8898
X6.7165Y-3.9429
X6.9035Y-4.0768
T2
X6.2766Y-3.6398
X6.2766Y-3.6791
X6.2766Y-3.7185
T3
X3.9587Y-5.2933
X4.0571Y-5.2933
X4.1555Y-5.2933
X4.2539Y-5.2933
X4.3524Y-5.2933
X4.4508Y-5.2933
X5.0453Y-5.2846
X5.1437Y-5.2846
X5.2421Y-5.2846
X5.3406Y-5.2846
X5.8622Y-5.2955
X5.9606Y-5.2955
X6.0591Y-5.2955
X6.1575Y-5.2955
T4
X5.9516Y-3.937
X6.0516Y-3.937
X6.1516Y-3.937
X6.2516Y-3.937
T5
X3.2283Y-3.622
M30
