%TF.GenerationSoftware,KiCad,Pcbnew,9.0.2*%
%TF.CreationDate,2026-03-12T18:43:54+01:00*%
%TF.ProjectId,MMS3_hat_protcol_board_basic,4d4d5333-5f68-4617-945f-70726f74636f,R0*%
%TF.SameCoordinates,Original*%
%TF.FileFunction,Soldermask,Top*%
%TF.FilePolarity,Negative*%
%FSLAX46Y46*%
G04 Gerber Fmt 4.6, Leading zero omitted, Abs format (unit mm)*
G04 Created by KiCad (PCBNEW 9.0.2) date 2026-03-12 18:43:54*
%MOMM*%
%LPD*%
G01*
G04 APERTURE LIST*
G04 Aperture macros list*
%AMRoundRect*
0 Rectangle with rounded corners*
0 $1 Rounding radius*
0 $2 $3 $4 $5 $6 $7 $8 $9 X,Y pos of 4 corners*
0 Add a 4 corners polygon primitive as box body*
4,1,4,$2,$3,$4,$5,$6,$7,$8,$9,$2,$3,0*
0 Add four circle primitives for the rounded corners*
1,1,$1+$1,$2,$3*
1,1,$1+$1,$4,$5*
1,1,$1+$1,$6,$7*
1,1,$1+$1,$8,$9*
0 Add four rect primitives between the rounded corners*
20,1,$1+$1,$2,$3,$4,$5,0*
20,1,$1+$1,$4,$5,$6,$7,0*
20,1,$1+$1,$6,$7,$8,$9,0*
20,1,$1+$1,$8,$9,$2,$3,0*%
G04 Aperture macros list end*
%ADD10RoundRect,0.250000X-0.600000X-0.725000X0.600000X-0.725000X0.600000X0.725000X-0.600000X0.725000X0*%
%ADD11O,1.700000X1.950000*%
%ADD12RoundRect,0.250000X-1.000000X-0.300000X1.000000X-0.300000X1.000000X0.300000X-1.000000X0.300000X0*%
%ADD13C,0.500000*%
%ADD14RoundRect,0.250000X-0.920000X-1.550000X0.920000X-1.550000X0.920000X1.550000X-0.920000X1.550000X0*%
%ADD15RoundRect,0.100000X-0.100000X0.637500X-0.100000X-0.637500X0.100000X-0.637500X0.100000X0.637500X0*%
%ADD16RoundRect,0.244000X0.269000X-0.244000X0.269000X0.244000X-0.269000X0.244000X-0.269000X-0.244000X0*%
%ADD17C,3.100000*%
%ADD18C,4.700000*%
%ADD19RoundRect,0.159000X-0.189000X0.159000X-0.189000X-0.159000X0.189000X-0.159000X0.189000X0.159000X0*%
%ADD20RoundRect,0.244000X-0.244000X-0.269000X0.244000X-0.269000X0.244000X0.269000X-0.244000X0.269000X0*%
%ADD21R,1.000000X3.000000*%
%ADD22C,1.296000*%
%ADD23R,1.700000X1.700000*%
%ADD24C,1.700000*%
%ADD25O,1.950000X0.570000*%
%ADD26RoundRect,0.244000X-0.269000X0.244000X-0.269000X-0.244000X0.269000X-0.244000X0.269000X0.244000X0*%
%ADD27RoundRect,0.159000X0.189000X-0.159000X0.189000X0.159000X-0.189000X0.159000X-0.189000X-0.159000X0*%
%ADD28RoundRect,0.218750X0.256250X-0.218750X0.256250X0.218750X-0.256250X0.218750X-0.256250X-0.218750X0*%
%ADD29RoundRect,0.159000X-0.159000X-0.189000X0.159000X-0.189000X0.159000X0.189000X-0.159000X0.189000X0*%
G04 APERTURE END LIST*
D10*
%TO.C,J4*%
X148900000Y-134505000D03*
D11*
X151400000Y-134505000D03*
X153900000Y-134505000D03*
X156400000Y-134505000D03*
%TD*%
D12*
%TO.C,U3*%
X165395000Y-95750000D03*
X165395000Y-93450000D03*
X165395000Y-91150000D03*
D13*
X159425000Y-92450000D03*
X159425000Y-93450000D03*
D14*
X159425000Y-93450000D03*
D13*
X159425000Y-94450000D03*
%TD*%
D15*
%TO.C,U1*%
X147875000Y-101337500D03*
X147225000Y-101337500D03*
X146575000Y-101337500D03*
X145925000Y-101337500D03*
X145275000Y-101337500D03*
X144625000Y-101337500D03*
X143975000Y-101337500D03*
X143325000Y-101337500D03*
X142675000Y-101337500D03*
X142025000Y-101337500D03*
X141375000Y-101337500D03*
X140725000Y-101337500D03*
X140725000Y-107062500D03*
X141375000Y-107062500D03*
X142025000Y-107062500D03*
X142675000Y-107062500D03*
X143325000Y-107062500D03*
X143975000Y-107062500D03*
X144625000Y-107062500D03*
X145275000Y-107062500D03*
X145925000Y-107062500D03*
X146575000Y-107062500D03*
X147225000Y-107062500D03*
X147875000Y-107062500D03*
%TD*%
D16*
%TO.C,C4*%
X157350000Y-94755000D03*
X157350000Y-93195000D03*
%TD*%
D17*
%TO.C,H1*%
X82000000Y-92000000D03*
D18*
X82000000Y-92000000D03*
%TD*%
D19*
%TO.C,R2*%
X156650000Y-96000000D03*
X156650000Y-97000000D03*
%TD*%
D20*
%TO.C,C3*%
X163595000Y-89075000D03*
X165155000Y-89075000D03*
%TD*%
D21*
%TO.C,J2*%
X108950000Y-93038272D03*
X108950000Y-98078272D03*
X111490000Y-93038272D03*
X111490000Y-98078272D03*
X114030000Y-93038272D03*
X114030000Y-98078272D03*
X116570000Y-93038272D03*
X116570000Y-98078272D03*
X119110000Y-93038272D03*
X119110000Y-98078272D03*
X121650000Y-93038272D03*
X121650000Y-98078272D03*
X124190000Y-93038272D03*
X124190000Y-98078272D03*
X126730000Y-93038272D03*
X126730000Y-98078272D03*
X129270000Y-93038272D03*
X129270000Y-98078272D03*
X131810000Y-93038272D03*
X131810000Y-98078272D03*
X134350000Y-93038272D03*
X134350000Y-98078272D03*
X136890000Y-93038272D03*
X136890000Y-98078272D03*
X139430000Y-93038272D03*
X139430000Y-98078272D03*
X141970000Y-93038272D03*
X141970000Y-98078272D03*
X144510000Y-93038272D03*
X144510000Y-98078272D03*
X147050000Y-93038272D03*
X147050000Y-98078272D03*
%TD*%
D22*
%TO.C,H8*%
X176350000Y-96250000D03*
%TD*%
D23*
%TO.C,J3*%
X151170000Y-100000000D03*
D24*
X153710000Y-100000000D03*
X156250000Y-100000000D03*
X158790000Y-100000000D03*
%TD*%
D22*
%TO.C,H7*%
X86800000Y-135550000D03*
%TD*%
D25*
%TO.C,U2*%
X168710000Y-102660000D03*
X168710000Y-101390000D03*
X168710000Y-100110000D03*
X168710000Y-98840000D03*
X163290000Y-98840000D03*
X163290000Y-100110000D03*
X163290000Y-101390000D03*
X163290000Y-102660000D03*
%TD*%
D26*
%TO.C,C2*%
X161450000Y-102670000D03*
X161450000Y-104230000D03*
%TD*%
D27*
%TO.C,R1*%
X173600000Y-101600000D03*
X173600000Y-100600000D03*
%TD*%
D28*
%TO.C,D1*%
X175350000Y-102187500D03*
X175350000Y-100612500D03*
%TD*%
D10*
%TO.C,J7*%
X100550000Y-134450000D03*
D11*
X103050000Y-134450000D03*
X105550000Y-134450000D03*
X108050000Y-134450000D03*
X110550000Y-134450000D03*
X113050000Y-134450000D03*
%TD*%
D16*
%TO.C,C1*%
X149050000Y-106980000D03*
X149050000Y-105420000D03*
%TD*%
D22*
%TO.C,H9*%
X86450000Y-90725000D03*
%TD*%
D19*
%TO.C,R3*%
X157750000Y-96650000D03*
X157750000Y-97650000D03*
%TD*%
D29*
%TO.C,R4*%
X153000000Y-103000000D03*
X154000000Y-103000000D03*
%TD*%
D10*
%TO.C,J11*%
X128150000Y-134230000D03*
D11*
X130650000Y-134230000D03*
X133150000Y-134230000D03*
X135650000Y-134230000D03*
%TD*%
M02*
