%TF.GenerationSoftware,KiCad,Pcbnew,9.0.2*%
%TF.CreationDate,2026-03-12T18:43:54+01:00*%
%TF.ProjectId,MMS3_hat_protcol_board_basic,4d4d5333-5f68-4617-945f-70726f74636f,R0*%
%TF.SameCoordinates,Original*%
%TF.FileFunction,Copper,L2,Bot*%
%TF.FilePolarity,Positive*%
%FSLAX46Y46*%
G04 Gerber Fmt 4.6, Leading zero omitted, Abs format (unit mm)*
G04 Created by KiCad (PCBNEW 9.0.2) date 2026-03-12 18:43:54*
%MOMM*%
%LPD*%
G01*
G04 APERTURE LIST*
G04 Aperture macros list*
%AMRoundRect*
0 Rectangle with rounded corners*
0 $1 Rounding radius*
0 $2 $3 $4 $5 $6 $7 $8 $9 X,Y pos of 4 corners*
0 Add a 4 corners polygon primitive as box body*
4,1,4,$2,$3,$4,$5,$6,$7,$8,$9,$2,$3,0*
0 Add four circle primitives for the rounded corners*
1,1,$1+$1,$2,$3*
1,1,$1+$1,$4,$5*
1,1,$1+$1,$6,$7*
1,1,$1+$1,$8,$9*
0 Add four rect primitives between the rounded corners*
20,1,$1+$1,$2,$3,$4,$5,0*
20,1,$1+$1,$4,$5,$6,$7,0*
20,1,$1+$1,$6,$7,$8,$9,0*
20,1,$1+$1,$8,$9,$2,$3,0*%
G04 Aperture macros list end*
%TA.AperFunction,ComponentPad*%
%ADD10RoundRect,0.250000X-0.600000X-0.725000X0.600000X-0.725000X0.600000X0.725000X-0.600000X0.725000X0*%
%TD*%
%TA.AperFunction,ComponentPad*%
%ADD11O,1.700000X1.950000*%
%TD*%
%TA.AperFunction,ComponentPad*%
%ADD12C,0.500000*%
%TD*%
%TA.AperFunction,SMDPad,CuDef*%
%ADD13RoundRect,0.250000X-0.920000X-1.550000X0.920000X-1.550000X0.920000X1.550000X-0.920000X1.550000X0*%
%TD*%
%TA.AperFunction,ComponentPad*%
%ADD14C,3.100000*%
%TD*%
%TA.AperFunction,ComponentPad*%
%ADD15R,1.700000X1.700000*%
%TD*%
%TA.AperFunction,ComponentPad*%
%ADD16C,1.700000*%
%TD*%
%TA.AperFunction,SMDPad,CuDef*%
%ADD17R,1.000000X3.150000*%
%TD*%
%TA.AperFunction,ViaPad*%
%ADD18C,0.500000*%
%TD*%
%TA.AperFunction,Conductor*%
%ADD19C,0.200000*%
%TD*%
%TA.AperFunction,Conductor*%
%ADD20C,0.300000*%
%TD*%
G04 APERTURE END LIST*
D10*
%TO.P,J4,1,Pin_1*%
%TO.N,GND*%
X148900000Y-134505000D03*
D11*
%TO.P,J4,2,Pin_2*%
%TO.N,+3V3*%
X151400000Y-134505000D03*
%TO.P,J4,3,Pin_3*%
%TO.N,/Chainbus.SDA*%
X153900000Y-134505000D03*
%TO.P,J4,4,Pin_4*%
%TO.N,/Chainbus.SCL*%
X156400000Y-134505000D03*
%TD*%
D12*
%TO.P,U3,4,VOUT*%
%TO.N,+3V3*%
X159425000Y-92450000D03*
X159425000Y-93450000D03*
D13*
X159425000Y-93450000D03*
D12*
X159425000Y-94450000D03*
%TD*%
D14*
%TO.P,H1,1,1*%
%TO.N,GND*%
X82000000Y-92000000D03*
%TD*%
D15*
%TO.P,J3,1,Pin_1*%
%TO.N,/Chainbus.SDA*%
X151170000Y-100000000D03*
D16*
%TO.P,J3,2,Pin_2*%
%TO.N,/Chainbus.SCL*%
X153710000Y-100000000D03*
%TO.P,J3,3,Pin_3*%
%TO.N,GND*%
X156250000Y-100000000D03*
%TO.P,J3,4,Pin_4*%
%TO.N,+3V3*%
X158790000Y-100000000D03*
%TD*%
D10*
%TO.P,J7,1,Pin_1*%
%TO.N,GND*%
X100550000Y-134450000D03*
D11*
%TO.P,J7,2,Pin_2*%
%TO.N,+3V3*%
X103050000Y-134450000D03*
%TO.P,J7,3,Pin_3*%
%TO.N,/Chainbus.SCK*%
X105550000Y-134450000D03*
%TO.P,J7,4,Pin_4*%
%TO.N,/Chainbus.MISO*%
X108050000Y-134450000D03*
%TO.P,J7,5,Pin_5*%
%TO.N,/Chainbus.MOSI*%
X110550000Y-134450000D03*
%TO.P,J7,6,Pin_6*%
%TO.N,/Chainbus.CS*%
X113050000Y-134450000D03*
%TD*%
D17*
%TO.P,J1,1,Pin_1*%
%TO.N,GND*%
X108940000Y-93013272D03*
%TO.P,J1,2,Pin_2*%
%TO.N,/Bus_switch/SEL1*%
X108940000Y-98063272D03*
%TO.P,J1,3,Pin_3*%
%TO.N,+5V*%
X111480000Y-93013272D03*
%TO.P,J1,4,Pin_4*%
%TO.N,/Interboard_connector/SEL2*%
X111480000Y-98063272D03*
%TO.P,J1,5,Pin_5*%
%TO.N,+5V*%
X114020000Y-93013272D03*
%TO.P,J1,6,Pin_6*%
%TO.N,/Interboard_connector/SEL3*%
X114020000Y-98063272D03*
%TO.P,J1,7,Pin_7*%
%TO.N,GND*%
X116560000Y-93013272D03*
%TO.P,J1,8,Pin_8*%
%TO.N,/Interboard_connector/SEL4*%
X116560000Y-98063272D03*
%TO.P,J1,9,Pin_9*%
%TO.N,BRD_VIN*%
X119100000Y-93013272D03*
%TO.P,J1,10,Pin_10*%
%TO.N,/Interboard_connector/SEL5*%
X119100000Y-98063272D03*
%TO.P,J1,11,Pin_11*%
%TO.N,BRD_VIN*%
X121640000Y-93013272D03*
%TO.P,J1,12,Pin_12*%
%TO.N,/Interboard_connector/SEL6*%
X121640000Y-98063272D03*
%TO.P,J1,13,Pin_13*%
%TO.N,BRD_VIN*%
X124180000Y-93013272D03*
%TO.P,J1,14,Pin_14*%
%TO.N,/Interboard_connector/SEL7*%
X124180000Y-98063272D03*
%TO.P,J1,15,Pin_15*%
%TO.N,BRD_VIN*%
X126720000Y-93013272D03*
%TO.P,J1,16,Pin_16*%
%TO.N,/Interboard_connector/SEL8*%
X126720000Y-98063272D03*
%TO.P,J1,17,Pin_17*%
%TO.N,GND*%
X129260000Y-93013272D03*
%TO.P,J1,18,Pin_18*%
%TO.N,/Bus_switch/Chainbus_In.SDA*%
X129260000Y-98063272D03*
%TO.P,J1,19,Pin_19*%
%TO.N,GND*%
X131800000Y-93013272D03*
%TO.P,J1,20,Pin_20*%
%TO.N,/Bus_switch/Chainbus_In.SCL*%
X131800000Y-98063272D03*
%TO.P,J1,21,Pin_21*%
%TO.N,GND*%
X134340000Y-93013272D03*
%TO.P,J1,22,Pin_22*%
%TO.N,/Bus_switch/Chainbus_In.CS*%
X134340000Y-98063272D03*
%TO.P,J1,23,Pin_23*%
%TO.N,GND*%
X136880000Y-93013272D03*
%TO.P,J1,24,Pin_24*%
%TO.N,/Bus_switch/Chainbus_In.SCK*%
X136880000Y-98063272D03*
%TO.P,J1,25,Pin_25*%
%TO.N,unconnected-(J1-Pin_25-Pad25)*%
X139420000Y-93013272D03*
%TO.P,J1,26,Pin_26*%
%TO.N,/Bus_switch/Chainbus_In.MOSI*%
X139420000Y-98063272D03*
%TO.P,J1,27,Pin_27*%
%TO.N,unconnected-(J1-Pin_27-Pad27)*%
X141960000Y-93013272D03*
%TO.P,J1,28,Pin_28*%
%TO.N,/Bus_switch/Chainbus_In.MISO*%
X141960000Y-98063272D03*
%TO.P,J1,29,Pin_29*%
%TO.N,+12V stby*%
X144500000Y-93013272D03*
%TO.P,J1,30,Pin_30*%
%TO.N,/Bus_switch/Chainbus_In.TX*%
X144500000Y-98063272D03*
%TO.P,J1,31,Pin_31*%
%TO.N,GND*%
X147040000Y-93013272D03*
%TO.P,J1,32,Pin_32*%
%TO.N,/Bus_switch/Chainbus_In.RX*%
X147040000Y-98063272D03*
%TD*%
D10*
%TO.P,J11,1,Pin_1*%
%TO.N,GND*%
X128150000Y-134230000D03*
D11*
%TO.P,J11,2,Pin_2*%
%TO.N,+3V3*%
X130650000Y-134230000D03*
%TO.P,J11,3,Pin_3*%
%TO.N,/Chainbus.RX*%
X133150000Y-134230000D03*
%TO.P,J11,4,Pin_4*%
%TO.N,/Chainbus.TX*%
X135650000Y-134230000D03*
%TD*%
D18*
%TO.N,/Chainbus.MISO*%
X144575000Y-102900000D03*
X141350000Y-102875000D03*
X139150000Y-103650000D03*
X138250000Y-104550000D03*
%TO.N,/Chainbus.SCK*%
X137225000Y-103750000D03*
X138525000Y-103025000D03*
%TO.N,/Chainbus.MOSI*%
X138925000Y-105300000D03*
X139725000Y-104275000D03*
%TO.N,/Chainbus.RX*%
X147250000Y-102625000D03*
X149000000Y-102600000D03*
%TO.N,/Chainbus.TX*%
X145300000Y-102725000D03*
%TO.N,/Chainbus.SCL*%
X153425000Y-106175000D03*
%TO.N,/Chainbus.SDA*%
X151062500Y-105437500D03*
%TO.N,+3V3*%
X155312500Y-106587500D03*
%TO.N,GND*%
X170500000Y-102700000D03*
X133050000Y-92050000D03*
X155800000Y-90700000D03*
X115650000Y-93800000D03*
X115650000Y-91750000D03*
X110100000Y-92950000D03*
X148150000Y-92950000D03*
X139700000Y-101250000D03*
X170550000Y-98800000D03*
X162500000Y-104250000D03*
X130500000Y-94000000D03*
X170600000Y-100150000D03*
X175350000Y-103550000D03*
X148150000Y-94000000D03*
X148150000Y-91950000D03*
X170500000Y-101350000D03*
X115650000Y-92750000D03*
X150050000Y-105400000D03*
X110100000Y-91950000D03*
X133050000Y-94100000D03*
X130500000Y-92950000D03*
X135600000Y-92000000D03*
X135600000Y-94050000D03*
X148900000Y-107900000D03*
X135600000Y-93000000D03*
X110100000Y-94000000D03*
X133050000Y-93050000D03*
X130500000Y-91950000D03*
%TO.N,/Chainbus.SCL*%
X156600000Y-97900000D03*
X144600000Y-108400000D03*
%TO.N,+3V3*%
X150050000Y-107000000D03*
%TO.N,+5V*%
X112750000Y-92000000D03*
X112750000Y-93600000D03*
X112750000Y-92850000D03*
X112750000Y-94300000D03*
%TO.N,/Chainbus.SDA*%
X143600000Y-108500000D03*
%TO.N,/Bus_switch/Chainbus_In.RX*%
X148200000Y-98050000D03*
%TO.N,/Bus_switch/Chainbus_In.MOSI*%
X140450000Y-98000000D03*
%TO.N,/Bus_switch/Chainbus_In.SDA*%
X142200000Y-105600000D03*
X130300000Y-98100000D03*
%TO.N,/Bus_switch/SEL1*%
X140000000Y-107200000D03*
X141200000Y-105500000D03*
%TO.N,/Interboard_connector/SEL2*%
X110250000Y-98000000D03*
%TO.N,/Bus_switch/Chainbus_In.TX*%
X145650000Y-97950000D03*
%TO.N,/Interboard_connector/SEL8*%
X125563272Y-98063272D03*
%TO.N,/Interboard_connector/SEL5*%
X117750000Y-98000000D03*
%TO.N,/Interboard_connector/SEL7*%
X123063272Y-98063272D03*
%TO.N,/Interboard_connector/SEL4*%
X115250000Y-98000000D03*
%TO.N,/Bus_switch/Chainbus_In.SCK*%
X137850000Y-98050000D03*
%TO.N,/Bus_switch/Chainbus_In.MISO*%
X143000000Y-98000000D03*
%TO.N,+12V stby*%
X143400000Y-93050000D03*
%TO.N,/Bus_switch/Chainbus_In.SCL*%
X132850000Y-98050000D03*
X143900000Y-105900000D03*
%TO.N,/Bus_switch/Chainbus_In.CS*%
X135400000Y-98050000D03*
%TO.N,/Interboard_connector/SEL3*%
X112750000Y-98000000D03*
%TO.N,/Interboard_connector/SEL6*%
X120250000Y-98000000D03*
%TO.N,BRD_VIN*%
X122900000Y-92950000D03*
X120350000Y-93900000D03*
X125450000Y-91950000D03*
X120350000Y-92900000D03*
X122900000Y-93950000D03*
X125450000Y-92950000D03*
X120350000Y-91900000D03*
X122900000Y-91950000D03*
X125450000Y-93950000D03*
%TD*%
D19*
%TO.N,/Chainbus.MISO*%
X144550000Y-102875000D02*
X144575000Y-102900000D01*
X141350000Y-102875000D02*
X144550000Y-102875000D01*
X138250000Y-104550000D02*
X139150000Y-103650000D01*
%TO.N,/Chainbus.SCK*%
X137800000Y-103750000D02*
X138525000Y-103025000D01*
X137225000Y-103750000D02*
X137800000Y-103750000D01*
%TO.N,/Chainbus.MOSI*%
X138925000Y-105300000D02*
X138925000Y-105075000D01*
X138925000Y-105075000D02*
X139725000Y-104275000D01*
%TO.N,/Chainbus.RX*%
X147275000Y-102600000D02*
X147250000Y-102625000D01*
X149000000Y-102600000D02*
X147275000Y-102600000D01*
%TO.N,/Chainbus.TX*%
X140845000Y-134230000D02*
X135650000Y-134230000D01*
X141500000Y-133575000D02*
X140845000Y-134230000D01*
X141625000Y-133575000D02*
X141500000Y-133575000D01*
X141625000Y-109178612D02*
X141625000Y-133575000D01*
X145300000Y-105503612D02*
X141625000Y-109178612D01*
X145300000Y-102725000D02*
X145300000Y-105503612D01*
%TO.N,/Chainbus.SCL*%
X153425000Y-106175000D02*
X153200000Y-106400000D01*
%TO.N,/Chainbus.SDA*%
X151062500Y-105437500D02*
X151170000Y-105330000D01*
D20*
%TO.N,+3V3*%
X155312500Y-106587500D02*
X154900000Y-107000000D01*
D19*
%TO.N,/Chainbus.SCL*%
X153200000Y-106400000D02*
X146600000Y-106400000D01*
X153710000Y-100000000D02*
X153710000Y-105890000D01*
X155810000Y-97900000D02*
X156600000Y-97900000D01*
X153710000Y-100000000D02*
X155810000Y-97900000D01*
X153710000Y-105890000D02*
X153425000Y-106175000D01*
X146600000Y-106400000D02*
X144600000Y-108400000D01*
D20*
%TO.N,+3V3*%
X158790000Y-100000000D02*
X158790000Y-103110000D01*
X154900000Y-107000000D02*
X150050000Y-107000000D01*
X158790000Y-103110000D02*
X155312500Y-106587500D01*
D19*
%TO.N,/Chainbus.SDA*%
X145300000Y-106000000D02*
X150500000Y-106000000D01*
X150500000Y-106000000D02*
X151062500Y-105437500D01*
X143600000Y-108500000D02*
X143600000Y-107700000D01*
X143600000Y-107700000D02*
X145300000Y-106000000D01*
X151170000Y-105330000D02*
X151170000Y-100000000D01*
%TO.N,/Bus_switch/Chainbus_In.RX*%
X148200000Y-98050000D02*
X147053272Y-98050000D01*
%TO.N,/Bus_switch/Chainbus_In.MOSI*%
X140450000Y-98000000D02*
X139483272Y-98000000D01*
%TO.N,/Bus_switch/Chainbus_In.SDA*%
X134900000Y-101198000D02*
X137994388Y-101198000D01*
X130300000Y-98100000D02*
X129296728Y-98100000D01*
X137994388Y-101198000D02*
X142200000Y-105403612D01*
X142200000Y-105403612D02*
X142200000Y-105600000D01*
X132394728Y-101198000D02*
X134900000Y-101198000D01*
X129260000Y-98063272D02*
X132394728Y-101198000D01*
%TO.N,/Bus_switch/SEL1*%
X132249340Y-101549000D02*
X137849000Y-101549000D01*
X111323272Y-95680000D02*
X127180000Y-95680000D01*
X140251000Y-105200000D02*
X140251000Y-106949000D01*
X128919000Y-101549000D02*
X132249340Y-101549000D01*
X140251000Y-103951000D02*
X140251000Y-105200000D01*
X137849000Y-101549000D02*
X140251000Y-103951000D01*
X140900000Y-105200000D02*
X141200000Y-105500000D01*
X140251000Y-105200000D02*
X140900000Y-105200000D01*
X108940000Y-98063272D02*
X111323272Y-95680000D01*
X140251000Y-106949000D02*
X140000000Y-107200000D01*
X128140000Y-96640000D02*
X128140000Y-100770000D01*
X127180000Y-95680000D02*
X128140000Y-96640000D01*
X128140000Y-100770000D02*
X128919000Y-101549000D01*
%TO.N,/Interboard_connector/SEL2*%
X110313272Y-98063272D02*
X110250000Y-98000000D01*
X111480000Y-98063272D02*
X110313272Y-98063272D01*
%TO.N,/Bus_switch/Chainbus_In.TX*%
X145536728Y-98063272D02*
X145650000Y-97950000D01*
X144500000Y-98063272D02*
X145536728Y-98063272D01*
%TO.N,/Interboard_connector/SEL8*%
X126720000Y-98063272D02*
X125563272Y-98063272D01*
%TO.N,/Interboard_connector/SEL5*%
X117813272Y-98063272D02*
X117750000Y-98000000D01*
X119100000Y-98063272D02*
X117813272Y-98063272D01*
%TO.N,/Interboard_connector/SEL7*%
X124180000Y-98063272D02*
X123063272Y-98063272D01*
%TO.N,/Interboard_connector/SEL4*%
X115313272Y-98063272D02*
X115250000Y-98000000D01*
X116560000Y-98063272D02*
X115313272Y-98063272D01*
%TO.N,/Bus_switch/Chainbus_In.SCK*%
X137850000Y-98050000D02*
X136893272Y-98050000D01*
%TO.N,/Bus_switch/Chainbus_In.MISO*%
X141960000Y-98063272D02*
X142936728Y-98063272D01*
X142936728Y-98063272D02*
X143000000Y-98000000D01*
D20*
%TO.N,+12V stby*%
X143436728Y-93013272D02*
X143400000Y-93050000D01*
X144500000Y-93013272D02*
X143436728Y-93013272D01*
D19*
%TO.N,/Bus_switch/Chainbus_In.SCL*%
X132850000Y-98050000D02*
X131813272Y-98050000D01*
X142100000Y-104100000D02*
X143900000Y-105900000D01*
X131800000Y-98063272D02*
X134583728Y-100847000D01*
X138147000Y-100847000D02*
X141400000Y-104100000D01*
X134583728Y-100847000D02*
X138147000Y-100847000D01*
X141400000Y-104100000D02*
X142100000Y-104100000D01*
%TO.N,/Bus_switch/Chainbus_In.CS*%
X135400000Y-98050000D02*
X134353272Y-98050000D01*
%TO.N,/Interboard_connector/SEL3*%
X114020000Y-98063272D02*
X112813272Y-98063272D01*
X112813272Y-98063272D02*
X112750000Y-98000000D01*
%TO.N,/Interboard_connector/SEL6*%
X120313272Y-98063272D02*
X120250000Y-98000000D01*
X121640000Y-98063272D02*
X120313272Y-98063272D01*
%TD*%
%TA.AperFunction,Conductor*%
%TO.N,GND*%
G36*
X117300000Y-94450000D02*
G01*
X115250000Y-94450000D01*
X115250000Y-91300000D01*
X117300000Y-91300000D01*
X117300000Y-94450000D01*
G37*
%TD.AperFunction*%
%TD*%
%TA.AperFunction,Conductor*%
%TO.N,GND*%
G36*
X137400000Y-94600000D02*
G01*
X128700000Y-94600000D01*
X128700000Y-91450000D01*
X137400000Y-91450000D01*
X137400000Y-94600000D01*
G37*
%TD.AperFunction*%
%TD*%
%TA.AperFunction,Conductor*%
%TO.N,GND*%
G36*
X110350000Y-94600000D02*
G01*
X108300000Y-94600000D01*
X108300000Y-91450000D01*
X110350000Y-91450000D01*
X110350000Y-94600000D01*
G37*
%TD.AperFunction*%
%TD*%
%TA.AperFunction,Conductor*%
%TO.N,GND*%
G36*
X148400000Y-94600000D02*
G01*
X146350000Y-94600000D01*
X146350000Y-91450000D01*
X148400000Y-91450000D01*
X148400000Y-94600000D01*
G37*
%TD.AperFunction*%
%TD*%
%TA.AperFunction,Conductor*%
%TO.N,+5V*%
G36*
X114443039Y-91469685D02*
G01*
X114488794Y-91522489D01*
X114500000Y-91574000D01*
X114500000Y-94476000D01*
X114480315Y-94543039D01*
X114427511Y-94588794D01*
X114376000Y-94600000D01*
X111124000Y-94600000D01*
X111056961Y-94580315D01*
X111011206Y-94527511D01*
X111000000Y-94476000D01*
X111000000Y-91574000D01*
X111019685Y-91506961D01*
X111072489Y-91461206D01*
X111124000Y-91450000D01*
X114376000Y-91450000D01*
X114443039Y-91469685D01*
G37*
%TD.AperFunction*%
%TD*%
%TA.AperFunction,Conductor*%
%TO.N,BRD_VIN*%
G36*
X127340955Y-91469685D02*
G01*
X127386710Y-91522489D01*
X127397899Y-91576066D01*
X127352032Y-94328066D01*
X127331233Y-94394769D01*
X127277674Y-94439637D01*
X127228049Y-94450000D01*
X118721951Y-94450000D01*
X118654912Y-94430315D01*
X118609157Y-94377511D01*
X118597968Y-94328066D01*
X118552101Y-91576066D01*
X118570666Y-91508708D01*
X118622700Y-91462080D01*
X118676084Y-91450000D01*
X127273916Y-91450000D01*
X127340955Y-91469685D01*
G37*
%TD.AperFunction*%
%TD*%
%TA.AperFunction,Conductor*%
%TO.N,GND*%
G36*
X157365270Y-100761717D02*
G01*
X157365270Y-100761716D01*
X157404622Y-100707554D01*
X157501095Y-100518217D01*
X157558343Y-100342026D01*
X157597780Y-100284351D01*
X157662139Y-100257152D01*
X157730985Y-100269066D01*
X157782461Y-100316310D01*
X157790835Y-100332891D01*
X157845939Y-100465925D01*
X157859059Y-100497598D01*
X157872836Y-100518217D01*
X157974024Y-100669657D01*
X158120342Y-100815975D01*
X158292405Y-100930943D01*
X158362952Y-100960164D01*
X158417356Y-101004005D01*
X158439421Y-101070299D01*
X158439500Y-101074725D01*
X158439500Y-102913456D01*
X158419815Y-102980495D01*
X158403181Y-103001137D01*
X155295982Y-106108335D01*
X155240395Y-106140428D01*
X155138614Y-106167701D01*
X155138612Y-106167701D01*
X155138612Y-106167702D01*
X155035887Y-106227011D01*
X155035884Y-106227013D01*
X154952013Y-106310884D01*
X154952011Y-106310887D01*
X154917369Y-106370889D01*
X154892701Y-106413614D01*
X154868026Y-106505703D01*
X154865429Y-106515395D01*
X154857411Y-106529281D01*
X154854487Y-106542727D01*
X154833336Y-106570981D01*
X154791138Y-106613180D01*
X154729816Y-106646666D01*
X154703456Y-106649500D01*
X153885092Y-106649500D01*
X153818053Y-106629815D01*
X153772298Y-106577011D01*
X153762354Y-106507853D01*
X153782754Y-106459418D01*
X153781425Y-106458651D01*
X153785487Y-106451614D01*
X153785489Y-106451613D01*
X153844799Y-106348886D01*
X153875500Y-106234309D01*
X153875500Y-106200833D01*
X153882577Y-106176730D01*
X153885611Y-106151789D01*
X153893175Y-106140636D01*
X153895185Y-106133794D01*
X153904042Y-106121689D01*
X153907728Y-106117242D01*
X153950460Y-106074511D01*
X153961963Y-106054587D01*
X153990021Y-106005989D01*
X154010500Y-105929562D01*
X154010500Y-101095435D01*
X154016132Y-101076253D01*
X154016846Y-101056275D01*
X154025774Y-101043415D01*
X154030185Y-101028396D01*
X154045292Y-101015305D01*
X154056695Y-100998883D01*
X154080641Y-100984675D01*
X154082989Y-100982641D01*
X154087012Y-100980889D01*
X154207598Y-100930941D01*
X154379655Y-100815977D01*
X154525977Y-100669655D01*
X154640941Y-100497598D01*
X154709165Y-100332889D01*
X154753004Y-100278488D01*
X154819298Y-100256423D01*
X154886998Y-100273702D01*
X154934609Y-100324839D01*
X154941656Y-100342026D01*
X154998904Y-100518216D01*
X155095375Y-100707550D01*
X155134728Y-100761716D01*
X155767037Y-100129408D01*
X155784075Y-100192993D01*
X155849901Y-100307007D01*
X155942993Y-100400099D01*
X156057007Y-100465925D01*
X156120590Y-100482962D01*
X155488282Y-101115269D01*
X155488282Y-101115270D01*
X155542449Y-101154624D01*
X155731782Y-101251095D01*
X155933870Y-101316757D01*
X156143754Y-101350000D01*
X156356246Y-101350000D01*
X156566127Y-101316757D01*
X156566130Y-101316757D01*
X156768217Y-101251095D01*
X156957554Y-101154622D01*
X157011716Y-101115270D01*
X157011717Y-101115270D01*
X156379408Y-100482962D01*
X156442993Y-100465925D01*
X156557007Y-100400099D01*
X156650099Y-100307007D01*
X156715925Y-100192993D01*
X156732962Y-100129408D01*
X157365270Y-100761717D01*
G37*
%TD.AperFunction*%
%TA.AperFunction,Conductor*%
G36*
X177442539Y-88520185D02*
G01*
X177488294Y-88572989D01*
X177499500Y-88624500D01*
X177499500Y-95126000D01*
X177479815Y-95193039D01*
X177427011Y-95238794D01*
X177375500Y-95250000D01*
X175350000Y-95250000D01*
X175350000Y-97250000D01*
X177375500Y-97250000D01*
X177442539Y-97269685D01*
X177488294Y-97322489D01*
X177499500Y-97374000D01*
X177499500Y-137375500D01*
X177479815Y-137442539D01*
X177427011Y-137488294D01*
X177375500Y-137499500D01*
X78624500Y-137499500D01*
X78557461Y-137479815D01*
X78511706Y-137427011D01*
X78500500Y-137375500D01*
X78500500Y-136550000D01*
X85800000Y-136550000D01*
X87800000Y-136550000D01*
X87800000Y-134550000D01*
X85800000Y-134550000D01*
X85800000Y-136550000D01*
X78500500Y-136550000D01*
X78500500Y-133874038D01*
X80399500Y-133874038D01*
X80399500Y-134125962D01*
X80423349Y-134276535D01*
X80438910Y-134374785D01*
X80516760Y-134614383D01*
X80577436Y-134733465D01*
X80616834Y-134810788D01*
X80631132Y-134838848D01*
X80779201Y-135042649D01*
X80779205Y-135042654D01*
X80957345Y-135220794D01*
X80957350Y-135220798D01*
X81065888Y-135299655D01*
X81161155Y-135368870D01*
X81304184Y-135441747D01*
X81385616Y-135483239D01*
X81385618Y-135483239D01*
X81385621Y-135483241D01*
X81625215Y-135561090D01*
X81874038Y-135600500D01*
X81874039Y-135600500D01*
X82125961Y-135600500D01*
X82125962Y-135600500D01*
X82374785Y-135561090D01*
X82614379Y-135483241D01*
X82838845Y-135368870D01*
X83042656Y-135220793D01*
X83220793Y-135042656D01*
X83368870Y-134838845D01*
X83483241Y-134614379D01*
X83561090Y-134374785D01*
X83600500Y-134125962D01*
X83600500Y-133874038D01*
X83582361Y-133759511D01*
X83571551Y-133691262D01*
X83568977Y-133675013D01*
X99200000Y-133675013D01*
X99200000Y-134200000D01*
X100145854Y-134200000D01*
X100107370Y-134266657D01*
X100075000Y-134387465D01*
X100075000Y-134512535D01*
X100107370Y-134633343D01*
X100145854Y-134700000D01*
X99200001Y-134700000D01*
X99200001Y-135224986D01*
X99210494Y-135327697D01*
X99265641Y-135494119D01*
X99265643Y-135494124D01*
X99357684Y-135643345D01*
X99481654Y-135767315D01*
X99630875Y-135859356D01*
X99630880Y-135859358D01*
X99797302Y-135914505D01*
X99797309Y-135914506D01*
X99900019Y-135924999D01*
X100299999Y-135924999D01*
X100300000Y-135924998D01*
X100300000Y-134854145D01*
X100366657Y-134892630D01*
X100487465Y-134925000D01*
X100612535Y-134925000D01*
X100733343Y-134892630D01*
X100800000Y-134854145D01*
X100800000Y-135924999D01*
X101199972Y-135924999D01*
X101199986Y-135924998D01*
X101302697Y-135914505D01*
X101469119Y-135859358D01*
X101469124Y-135859356D01*
X101618345Y-135767315D01*
X101742315Y-135643345D01*
X101834356Y-135494124D01*
X101834358Y-135494119D01*
X101889505Y-135327697D01*
X101889506Y-135327690D01*
X101899999Y-135224986D01*
X101899999Y-135153528D01*
X101919683Y-135086488D01*
X101972486Y-135040732D01*
X102041644Y-135030788D01*
X102105200Y-135059812D01*
X102127101Y-135084635D01*
X102234022Y-135244655D01*
X102380342Y-135390975D01*
X102380345Y-135390977D01*
X102552402Y-135505941D01*
X102743580Y-135585130D01*
X102946530Y-135625499D01*
X102946534Y-135625500D01*
X102946535Y-135625500D01*
X103153466Y-135625500D01*
X103153467Y-135625499D01*
X103356420Y-135585130D01*
X103547598Y-135505941D01*
X103719655Y-135390977D01*
X103865977Y-135244655D01*
X103980941Y-135072598D01*
X104060130Y-134881420D01*
X104100500Y-134678465D01*
X104100500Y-134221535D01*
X104100499Y-134221530D01*
X104499500Y-134221530D01*
X104499500Y-134678469D01*
X104539868Y-134881412D01*
X104539870Y-134881420D01*
X104619058Y-135072596D01*
X104734024Y-135244657D01*
X104880342Y-135390975D01*
X104880345Y-135390977D01*
X105052402Y-135505941D01*
X105243580Y-135585130D01*
X105446530Y-135625499D01*
X105446534Y-135625500D01*
X105446535Y-135625500D01*
X105653466Y-135625500D01*
X105653467Y-135625499D01*
X105856420Y-135585130D01*
X106047598Y-135505941D01*
X106219655Y-135390977D01*
X106365977Y-135244655D01*
X106480941Y-135072598D01*
X106560130Y-134881420D01*
X106600500Y-134678465D01*
X106600500Y-134221535D01*
X106600499Y-134221530D01*
X106999500Y-134221530D01*
X106999500Y-134678469D01*
X107039868Y-134881412D01*
X107039870Y-134881420D01*
X107119058Y-135072596D01*
X107234024Y-135244657D01*
X107380342Y-135390975D01*
X107380345Y-135390977D01*
X107552402Y-135505941D01*
X107743580Y-135585130D01*
X107946530Y-135625499D01*
X107946534Y-135625500D01*
X107946535Y-135625500D01*
X108153466Y-135625500D01*
X108153467Y-135625499D01*
X108356420Y-135585130D01*
X108547598Y-135505941D01*
X108719655Y-135390977D01*
X108865977Y-135244655D01*
X108980941Y-135072598D01*
X109060130Y-134881420D01*
X109100500Y-134678465D01*
X109100500Y-134221535D01*
X109100499Y-134221530D01*
X109499500Y-134221530D01*
X109499500Y-134678469D01*
X109539868Y-134881412D01*
X109539870Y-134881420D01*
X109619058Y-135072596D01*
X109734024Y-135244657D01*
X109880342Y-135390975D01*
X109880345Y-135390977D01*
X110052402Y-135505941D01*
X110243580Y-135585130D01*
X110446530Y-135625499D01*
X110446534Y-135625500D01*
X110446535Y-135625500D01*
X110653466Y-135625500D01*
X110653467Y-135625499D01*
X110856420Y-135585130D01*
X111047598Y-135505941D01*
X111219655Y-135390977D01*
X111365977Y-135244655D01*
X111480941Y-135072598D01*
X111560130Y-134881420D01*
X111600500Y-134678465D01*
X111600500Y-134221535D01*
X111600499Y-134221530D01*
X111999500Y-134221530D01*
X111999500Y-134678469D01*
X112039868Y-134881412D01*
X112039870Y-134881420D01*
X112119058Y-135072596D01*
X112234024Y-135244657D01*
X112380342Y-135390975D01*
X112380345Y-135390977D01*
X112552402Y-135505941D01*
X112743580Y-135585130D01*
X112946530Y-135625499D01*
X112946534Y-135625500D01*
X112946535Y-135625500D01*
X113153466Y-135625500D01*
X113153467Y-135625499D01*
X113356420Y-135585130D01*
X113547598Y-135505941D01*
X113719655Y-135390977D01*
X113865977Y-135244655D01*
X113980941Y-135072598D01*
X114060130Y-134881420D01*
X114100500Y-134678465D01*
X114100500Y-134221535D01*
X114060130Y-134018580D01*
X113980941Y-133827402D01*
X113865977Y-133655345D01*
X113865975Y-133655342D01*
X113719657Y-133509024D01*
X113638823Y-133455013D01*
X126800000Y-133455013D01*
X126800000Y-133980000D01*
X127745854Y-133980000D01*
X127707370Y-134046657D01*
X127675000Y-134167465D01*
X127675000Y-134292535D01*
X127707370Y-134413343D01*
X127745854Y-134480000D01*
X126800001Y-134480000D01*
X126800001Y-135004986D01*
X126810494Y-135107697D01*
X126865641Y-135274119D01*
X126865643Y-135274124D01*
X126957684Y-135423345D01*
X127081654Y-135547315D01*
X127230875Y-135639356D01*
X127230880Y-135639358D01*
X127397302Y-135694505D01*
X127397309Y-135694506D01*
X127500019Y-135704999D01*
X127899999Y-135704999D01*
X127900000Y-135704998D01*
X127900000Y-134634145D01*
X127966657Y-134672630D01*
X128087465Y-134705000D01*
X128212535Y-134705000D01*
X128333343Y-134672630D01*
X128400000Y-134634145D01*
X128400000Y-135704999D01*
X128799972Y-135704999D01*
X128799986Y-135704998D01*
X128902697Y-135694505D01*
X129069119Y-135639358D01*
X129069124Y-135639356D01*
X129218345Y-135547315D01*
X129342315Y-135423345D01*
X129434356Y-135274124D01*
X129434358Y-135274119D01*
X129489505Y-135107697D01*
X129489506Y-135107690D01*
X129499999Y-135004986D01*
X129499999Y-134933528D01*
X129519683Y-134866488D01*
X129572486Y-134820732D01*
X129641644Y-134810788D01*
X129705200Y-134839812D01*
X129727101Y-134864635D01*
X129834022Y-135024655D01*
X129980342Y-135170975D01*
X129980345Y-135170977D01*
X130152402Y-135285941D01*
X130343580Y-135365130D01*
X130546530Y-135405499D01*
X130546534Y-135405500D01*
X130546535Y-135405500D01*
X130753466Y-135405500D01*
X130753467Y-135405499D01*
X130956420Y-135365130D01*
X131147598Y-135285941D01*
X131319655Y-135170977D01*
X131465977Y-135024655D01*
X131580941Y-134852598D01*
X131660130Y-134661420D01*
X131700500Y-134458465D01*
X131700500Y-134001535D01*
X131700499Y-134001530D01*
X132099500Y-134001530D01*
X132099500Y-134458469D01*
X132139868Y-134661412D01*
X132139870Y-134661420D01*
X132213363Y-134838848D01*
X132219059Y-134852598D01*
X132267436Y-134925000D01*
X132334024Y-135024657D01*
X132480342Y-135170975D01*
X132480345Y-135170977D01*
X132652402Y-135285941D01*
X132843580Y-135365130D01*
X133046530Y-135405499D01*
X133046534Y-135405500D01*
X133046535Y-135405500D01*
X133253466Y-135405500D01*
X133253467Y-135405499D01*
X133456420Y-135365130D01*
X133647598Y-135285941D01*
X133819655Y-135170977D01*
X133965977Y-135024655D01*
X134080941Y-134852598D01*
X134160130Y-134661420D01*
X134200500Y-134458465D01*
X134200500Y-134001535D01*
X134160130Y-133798580D01*
X134080941Y-133607402D01*
X133965977Y-133435345D01*
X133965975Y-133435342D01*
X133819657Y-133289024D01*
X133667989Y-133187684D01*
X133647598Y-133174059D01*
X133616445Y-133161155D01*
X133456420Y-133094870D01*
X133456412Y-133094868D01*
X133253469Y-133054500D01*
X133253465Y-133054500D01*
X133046535Y-133054500D01*
X133046530Y-133054500D01*
X132843587Y-133094868D01*
X132843579Y-133094870D01*
X132652403Y-133174058D01*
X132480342Y-133289024D01*
X132334024Y-133435342D01*
X132219058Y-133607403D01*
X132139870Y-133798579D01*
X132139868Y-133798587D01*
X132099500Y-134001530D01*
X131700499Y-134001530D01*
X131660130Y-133798580D01*
X131580941Y-133607402D01*
X131465977Y-133435345D01*
X131465975Y-133435342D01*
X131319657Y-133289024D01*
X131167989Y-133187684D01*
X131147598Y-133174059D01*
X131116445Y-133161155D01*
X130956420Y-133094870D01*
X130956412Y-133094868D01*
X130753469Y-133054500D01*
X130753465Y-133054500D01*
X130546535Y-133054500D01*
X130546530Y-133054500D01*
X130343587Y-133094868D01*
X130343579Y-133094870D01*
X130152403Y-133174058D01*
X129980342Y-133289024D01*
X129834024Y-133435342D01*
X129727102Y-133595365D01*
X129673489Y-133640171D01*
X129604165Y-133648878D01*
X129541137Y-133618724D01*
X129504417Y-133559281D01*
X129499999Y-133526475D01*
X129499999Y-133455028D01*
X129499998Y-133455012D01*
X129489505Y-133352302D01*
X129434358Y-133185880D01*
X129434356Y-133185875D01*
X129342315Y-133036654D01*
X129218345Y-132912684D01*
X129069124Y-132820643D01*
X129069119Y-132820641D01*
X128902697Y-132765494D01*
X128902690Y-132765493D01*
X128799986Y-132755000D01*
X128400000Y-132755000D01*
X128400000Y-133825854D01*
X128333343Y-133787370D01*
X128212535Y-133755000D01*
X128087465Y-133755000D01*
X127966657Y-133787370D01*
X127900000Y-133825854D01*
X127900000Y-132755000D01*
X127500028Y-132755000D01*
X127500012Y-132755001D01*
X127397302Y-132765494D01*
X127230880Y-132820641D01*
X127230875Y-132820643D01*
X127081654Y-132912684D01*
X126957684Y-133036654D01*
X126865643Y-133185875D01*
X126865641Y-133185880D01*
X126810494Y-133352302D01*
X126810493Y-133352309D01*
X126800000Y-133455013D01*
X113638823Y-133455013D01*
X113609383Y-133435342D01*
X113547598Y-133394059D01*
X113356420Y-133314870D01*
X113356412Y-133314868D01*
X113153469Y-133274500D01*
X113153465Y-133274500D01*
X112946535Y-133274500D01*
X112946530Y-133274500D01*
X112743587Y-133314868D01*
X112743579Y-133314870D01*
X112552403Y-133394058D01*
X112380342Y-133509024D01*
X112234024Y-133655342D01*
X112119058Y-133827403D01*
X112039870Y-134018579D01*
X112039868Y-134018587D01*
X111999500Y-134221530D01*
X111600499Y-134221530D01*
X111560130Y-134018580D01*
X111480941Y-133827402D01*
X111365977Y-133655345D01*
X111365975Y-133655342D01*
X111219657Y-133509024D01*
X111109383Y-133435342D01*
X111047598Y-133394059D01*
X110856420Y-133314870D01*
X110856412Y-133314868D01*
X110653469Y-133274500D01*
X110653465Y-133274500D01*
X110446535Y-133274500D01*
X110446530Y-133274500D01*
X110243587Y-133314868D01*
X110243579Y-133314870D01*
X110052403Y-133394058D01*
X109880342Y-133509024D01*
X109734024Y-133655342D01*
X109619058Y-133827403D01*
X109539870Y-134018579D01*
X109539868Y-134018587D01*
X109499500Y-134221530D01*
X109100499Y-134221530D01*
X109060130Y-134018580D01*
X108980941Y-133827402D01*
X108865977Y-133655345D01*
X108865975Y-133655342D01*
X108719657Y-133509024D01*
X108609383Y-133435342D01*
X108547598Y-133394059D01*
X108356420Y-133314870D01*
X108356412Y-133314868D01*
X108153469Y-133274500D01*
X108153465Y-133274500D01*
X107946535Y-133274500D01*
X107946530Y-133274500D01*
X107743587Y-133314868D01*
X107743579Y-133314870D01*
X107552403Y-133394058D01*
X107380342Y-133509024D01*
X107234024Y-133655342D01*
X107119058Y-133827403D01*
X107039870Y-134018579D01*
X107039868Y-134018587D01*
X106999500Y-134221530D01*
X106600499Y-134221530D01*
X106560130Y-134018580D01*
X106480941Y-133827402D01*
X106365977Y-133655345D01*
X106365975Y-133655342D01*
X106219657Y-133509024D01*
X106109383Y-133435342D01*
X106047598Y-133394059D01*
X105856420Y-133314870D01*
X105856412Y-133314868D01*
X105653469Y-133274500D01*
X105653465Y-133274500D01*
X105446535Y-133274500D01*
X105446530Y-133274500D01*
X105243587Y-133314868D01*
X105243579Y-133314870D01*
X105052403Y-133394058D01*
X104880342Y-133509024D01*
X104734024Y-133655342D01*
X104619058Y-133827403D01*
X104539870Y-134018579D01*
X104539868Y-134018587D01*
X104499500Y-134221530D01*
X104100499Y-134221530D01*
X104060130Y-134018580D01*
X103980941Y-133827402D01*
X103865977Y-133655345D01*
X103865975Y-133655342D01*
X103719657Y-133509024D01*
X103609383Y-133435342D01*
X103547598Y-133394059D01*
X103356420Y-133314870D01*
X103356412Y-133314868D01*
X103153469Y-133274500D01*
X103153465Y-133274500D01*
X102946535Y-133274500D01*
X102946530Y-133274500D01*
X102743587Y-133314868D01*
X102743579Y-133314870D01*
X102552403Y-133394058D01*
X102380342Y-133509024D01*
X102234024Y-133655342D01*
X102127102Y-133815365D01*
X102073489Y-133860171D01*
X102004165Y-133868878D01*
X101941137Y-133838724D01*
X101904417Y-133779281D01*
X101899999Y-133746475D01*
X101899999Y-133675028D01*
X101899998Y-133675012D01*
X101889505Y-133572302D01*
X101834358Y-133405880D01*
X101834356Y-133405875D01*
X101742315Y-133256654D01*
X101618345Y-133132684D01*
X101469124Y-133040643D01*
X101469119Y-133040641D01*
X101302697Y-132985494D01*
X101302690Y-132985493D01*
X101199986Y-132975000D01*
X100800000Y-132975000D01*
X100800000Y-134045854D01*
X100733343Y-134007370D01*
X100612535Y-133975000D01*
X100487465Y-133975000D01*
X100366657Y-134007370D01*
X100300000Y-134045854D01*
X100300000Y-132975000D01*
X99900028Y-132975000D01*
X99900012Y-132975001D01*
X99797302Y-132985494D01*
X99630880Y-133040641D01*
X99630875Y-133040643D01*
X99481654Y-133132684D01*
X99357684Y-133256654D01*
X99265643Y-133405875D01*
X99265641Y-133405880D01*
X99210494Y-133572302D01*
X99210493Y-133572309D01*
X99200000Y-133675013D01*
X83568977Y-133675013D01*
X83561090Y-133625214D01*
X83507694Y-133460880D01*
X83483241Y-133385621D01*
X83483239Y-133385618D01*
X83483239Y-133385616D01*
X83417529Y-133256654D01*
X83368870Y-133161155D01*
X83321273Y-133095643D01*
X83220798Y-132957350D01*
X83220794Y-132957345D01*
X83042654Y-132779205D01*
X83042649Y-132779201D01*
X82838848Y-132631132D01*
X82838847Y-132631131D01*
X82838845Y-132631130D01*
X82768747Y-132595413D01*
X82614383Y-132516760D01*
X82374785Y-132438910D01*
X82125962Y-132399500D01*
X81874038Y-132399500D01*
X81749626Y-132419205D01*
X81625214Y-132438910D01*
X81385616Y-132516760D01*
X81161151Y-132631132D01*
X80957350Y-132779201D01*
X80957345Y-132779205D01*
X80779205Y-132957345D01*
X80779201Y-132957350D01*
X80631132Y-133161151D01*
X80516760Y-133385616D01*
X80438910Y-133625214D01*
X80417639Y-133759511D01*
X80399500Y-133874038D01*
X78500500Y-133874038D01*
X78500500Y-96468519D01*
X108239500Y-96468519D01*
X108239500Y-99658024D01*
X108251131Y-99716501D01*
X108251132Y-99716502D01*
X108295447Y-99782824D01*
X108361769Y-99827139D01*
X108361770Y-99827140D01*
X108420247Y-99838771D01*
X108420250Y-99838772D01*
X108420252Y-99838772D01*
X109459750Y-99838772D01*
X109459751Y-99838771D01*
X109474568Y-99835824D01*
X109518229Y-99827140D01*
X109518229Y-99827139D01*
X109518231Y-99827139D01*
X109584552Y-99782824D01*
X109628867Y-99716503D01*
X109628867Y-99716501D01*
X109628868Y-99716501D01*
X109640499Y-99658024D01*
X109640500Y-99658022D01*
X109640500Y-98308087D01*
X109660185Y-98241048D01*
X109712989Y-98195293D01*
X109782147Y-98185349D01*
X109845703Y-98214374D01*
X109871885Y-98246085D01*
X109889511Y-98276613D01*
X109973387Y-98360489D01*
X110076114Y-98419799D01*
X110190691Y-98450500D01*
X110190694Y-98450500D01*
X110309306Y-98450500D01*
X110309309Y-98450500D01*
X110423886Y-98419799D01*
X110492153Y-98380384D01*
X110507641Y-98376234D01*
X110519218Y-98368795D01*
X110554153Y-98363772D01*
X110655500Y-98363772D01*
X110722539Y-98383457D01*
X110768294Y-98436261D01*
X110779500Y-98487772D01*
X110779500Y-99658024D01*
X110791131Y-99716501D01*
X110791132Y-99716502D01*
X110835447Y-99782824D01*
X110901769Y-99827139D01*
X110901770Y-99827140D01*
X110960247Y-99838771D01*
X110960250Y-99838772D01*
X110960252Y-99838772D01*
X111999750Y-99838772D01*
X111999751Y-99838771D01*
X112014568Y-99835824D01*
X112058229Y-99827140D01*
X112058229Y-99827139D01*
X112058231Y-99827139D01*
X112124552Y-99782824D01*
X112168867Y-99716503D01*
X112168867Y-99716501D01*
X112168868Y-99716501D01*
X112180499Y-99658024D01*
X112180500Y-99658022D01*
X112180500Y-98366964D01*
X112200185Y-98299925D01*
X112252989Y-98254170D01*
X112322147Y-98244226D01*
X112385703Y-98273251D01*
X112392181Y-98279283D01*
X112473387Y-98360489D01*
X112576114Y-98419799D01*
X112690691Y-98450500D01*
X112690694Y-98450500D01*
X112809306Y-98450500D01*
X112809309Y-98450500D01*
X112923886Y-98419799D01*
X112992153Y-98380384D01*
X113007641Y-98376234D01*
X113019218Y-98368795D01*
X113054153Y-98363772D01*
X113195500Y-98363772D01*
X113262539Y-98383457D01*
X113308294Y-98436261D01*
X113319500Y-98487772D01*
X113319500Y-99658024D01*
X113331131Y-99716501D01*
X113331132Y-99716502D01*
X113375447Y-99782824D01*
X113441769Y-99827139D01*
X113441770Y-99827140D01*
X113500247Y-99838771D01*
X113500250Y-99838772D01*
X113500252Y-99838772D01*
X114539750Y-99838772D01*
X114539751Y-99838771D01*
X114554568Y-99835824D01*
X114598229Y-99827140D01*
X114598229Y-99827139D01*
X114598231Y-99827139D01*
X114664552Y-99782824D01*
X114708867Y-99716503D01*
X114708867Y-99716501D01*
X114708868Y-99716501D01*
X114720499Y-99658024D01*
X114720500Y-99658022D01*
X114720500Y-98406964D01*
X114740185Y-98339925D01*
X114792989Y-98294170D01*
X114862147Y-98284226D01*
X114925703Y-98313251D01*
X114932181Y-98319283D01*
X114973387Y-98360489D01*
X115076114Y-98419799D01*
X115190691Y-98450500D01*
X115190694Y-98450500D01*
X115309306Y-98450500D01*
X115309309Y-98450500D01*
X115423886Y-98419799D01*
X115492153Y-98380384D01*
X115507641Y-98376234D01*
X115519218Y-98368795D01*
X115554153Y-98363772D01*
X115735500Y-98363772D01*
X115802539Y-98383457D01*
X115848294Y-98436261D01*
X115859500Y-98487772D01*
X115859500Y-99658024D01*
X115871131Y-99716501D01*
X115871132Y-99716502D01*
X115915447Y-99782824D01*
X115981769Y-99827139D01*
X115981770Y-99827140D01*
X116040247Y-99838771D01*
X116040250Y-99838772D01*
X116040252Y-99838772D01*
X117079750Y-99838772D01*
X117079751Y-99838771D01*
X117094568Y-99835824D01*
X117138229Y-99827140D01*
X117138229Y-99827139D01*
X117138231Y-99827139D01*
X117204552Y-99782824D01*
X117248867Y-99716503D01*
X117248867Y-99716501D01*
X117248868Y-99716501D01*
X117260499Y-99658024D01*
X117260500Y-99658022D01*
X117260500Y-98446964D01*
X117280185Y-98379925D01*
X117332989Y-98334170D01*
X117402147Y-98324226D01*
X117465703Y-98353251D01*
X117472181Y-98359283D01*
X117473387Y-98360489D01*
X117576114Y-98419799D01*
X117690691Y-98450500D01*
X117690694Y-98450500D01*
X117809306Y-98450500D01*
X117809309Y-98450500D01*
X117923886Y-98419799D01*
X117992153Y-98380384D01*
X118007641Y-98376234D01*
X118019218Y-98368795D01*
X118054153Y-98363772D01*
X118275500Y-98363772D01*
X118342539Y-98383457D01*
X118388294Y-98436261D01*
X118399500Y-98487772D01*
X118399500Y-99658024D01*
X118411131Y-99716501D01*
X118411132Y-99716502D01*
X118455447Y-99782824D01*
X118521769Y-99827139D01*
X118521770Y-99827140D01*
X118580247Y-99838771D01*
X118580250Y-99838772D01*
X118580252Y-99838772D01*
X119619750Y-99838772D01*
X119619751Y-99838771D01*
X119634568Y-99835824D01*
X119678229Y-99827140D01*
X119678229Y-99827139D01*
X119678231Y-99827139D01*
X119744552Y-99782824D01*
X119788867Y-99716503D01*
X119788867Y-99716501D01*
X119788868Y-99716501D01*
X119800499Y-99658024D01*
X119800500Y-99658022D01*
X119800500Y-98475446D01*
X119820185Y-98408407D01*
X119872989Y-98362652D01*
X119942147Y-98352708D01*
X119986497Y-98368058D01*
X120076114Y-98419799D01*
X120190691Y-98450500D01*
X120190694Y-98450500D01*
X120309306Y-98450500D01*
X120309309Y-98450500D01*
X120423886Y-98419799D01*
X120492153Y-98380384D01*
X120554153Y-98363772D01*
X120815500Y-98363772D01*
X120882539Y-98383457D01*
X120928294Y-98436261D01*
X120939500Y-98487772D01*
X120939500Y-99658024D01*
X120951131Y-99716501D01*
X120951132Y-99716502D01*
X120995447Y-99782824D01*
X121061769Y-99827139D01*
X121061770Y-99827140D01*
X121120247Y-99838771D01*
X121120250Y-99838772D01*
X121120252Y-99838772D01*
X122159750Y-99838772D01*
X122159751Y-99838771D01*
X122174568Y-99835824D01*
X122218229Y-99827140D01*
X122218229Y-99827139D01*
X122218231Y-99827139D01*
X122284552Y-99782824D01*
X122328867Y-99716503D01*
X122328867Y-99716501D01*
X122328868Y-99716501D01*
X122340499Y-99658024D01*
X122340500Y-99658022D01*
X122340500Y-96468521D01*
X122340499Y-96468519D01*
X122328868Y-96410042D01*
X122328867Y-96410041D01*
X122284552Y-96343719D01*
X122218230Y-96299404D01*
X122218229Y-96299403D01*
X122159752Y-96287772D01*
X122159748Y-96287772D01*
X121120252Y-96287772D01*
X121120247Y-96287772D01*
X121061770Y-96299403D01*
X121061769Y-96299404D01*
X120995447Y-96343719D01*
X120951132Y-96410041D01*
X120951131Y-96410042D01*
X120939500Y-96468519D01*
X120939500Y-97638772D01*
X120936949Y-97647457D01*
X120938238Y-97656419D01*
X120927259Y-97680459D01*
X120919815Y-97705811D01*
X120912974Y-97711738D01*
X120909213Y-97719975D01*
X120886978Y-97734264D01*
X120867011Y-97751566D01*
X120856496Y-97753853D01*
X120850435Y-97757749D01*
X120815500Y-97762772D01*
X120701236Y-97762772D01*
X120634197Y-97743087D01*
X120613555Y-97726453D01*
X120526615Y-97639513D01*
X120526613Y-97639511D01*
X120423886Y-97580201D01*
X120309309Y-97549500D01*
X120190691Y-97549500D01*
X120076114Y-97580201D01*
X119986499Y-97631940D01*
X119918601Y-97648413D01*
X119852574Y-97625561D01*
X119809383Y-97570640D01*
X119800500Y-97524553D01*
X119800500Y-96468521D01*
X119800499Y-96468519D01*
X119788868Y-96410042D01*
X119788867Y-96410041D01*
X119744552Y-96343719D01*
X119678230Y-96299404D01*
X119678229Y-96299403D01*
X119619752Y-96287772D01*
X119619748Y-96287772D01*
X118580252Y-96287772D01*
X118580247Y-96287772D01*
X118521770Y-96299403D01*
X118521769Y-96299404D01*
X118455447Y-96343719D01*
X118411132Y-96410041D01*
X118411131Y-96410042D01*
X118399500Y-96468519D01*
X118399500Y-97638772D01*
X118396949Y-97647457D01*
X118398238Y-97656419D01*
X118387259Y-97680459D01*
X118379815Y-97705811D01*
X118372974Y-97711738D01*
X118369213Y-97719975D01*
X118346978Y-97734264D01*
X118327011Y-97751566D01*
X118316496Y-97753853D01*
X118310435Y-97757749D01*
X118275500Y-97762772D01*
X118201236Y-97762772D01*
X118134197Y-97743087D01*
X118113555Y-97726453D01*
X118026615Y-97639513D01*
X118026613Y-97639511D01*
X117923886Y-97580201D01*
X117809309Y-97549500D01*
X117690691Y-97549500D01*
X117576114Y-97580201D01*
X117576112Y-97580201D01*
X117576112Y-97580202D01*
X117473387Y-97639511D01*
X117473384Y-97639513D01*
X117472181Y-97640717D01*
X117470916Y-97641407D01*
X117466941Y-97644458D01*
X117466465Y-97643838D01*
X117410858Y-97674202D01*
X117341166Y-97669218D01*
X117285233Y-97627346D01*
X117260816Y-97561882D01*
X117260500Y-97553036D01*
X117260500Y-96468521D01*
X117260499Y-96468519D01*
X117248868Y-96410042D01*
X117248867Y-96410041D01*
X117204552Y-96343719D01*
X117138230Y-96299404D01*
X117138229Y-96299403D01*
X117079752Y-96287772D01*
X117079748Y-96287772D01*
X116040252Y-96287772D01*
X116040247Y-96287772D01*
X115981770Y-96299403D01*
X115981769Y-96299404D01*
X115915447Y-96343719D01*
X115871132Y-96410041D01*
X115871131Y-96410042D01*
X115859500Y-96468519D01*
X115859500Y-97638772D01*
X115856949Y-97647457D01*
X115858238Y-97656419D01*
X115847259Y-97680459D01*
X115839815Y-97705811D01*
X115832974Y-97711738D01*
X115829213Y-97719975D01*
X115806978Y-97734264D01*
X115787011Y-97751566D01*
X115776496Y-97753853D01*
X115770435Y-97757749D01*
X115735500Y-97762772D01*
X115701236Y-97762772D01*
X115634197Y-97743087D01*
X115613555Y-97726453D01*
X115526615Y-97639513D01*
X115526613Y-97639511D01*
X115423886Y-97580201D01*
X115309309Y-97549500D01*
X115190691Y-97549500D01*
X115076114Y-97580201D01*
X115076112Y-97580201D01*
X115076112Y-97580202D01*
X114973387Y-97639511D01*
X114973384Y-97639513D01*
X114932181Y-97680717D01*
X114870858Y-97714202D01*
X114801166Y-97709218D01*
X114745233Y-97667346D01*
X114720816Y-97601882D01*
X114720500Y-97593036D01*
X114720500Y-96468521D01*
X114720499Y-96468519D01*
X114708868Y-96410042D01*
X114708867Y-96410041D01*
X114664552Y-96343719D01*
X114598230Y-96299404D01*
X114598229Y-96299403D01*
X114539752Y-96287772D01*
X114539748Y-96287772D01*
X113500252Y-96287772D01*
X113500247Y-96287772D01*
X113441770Y-96299403D01*
X113441769Y-96299404D01*
X113375447Y-96343719D01*
X113331132Y-96410041D01*
X113331131Y-96410042D01*
X113319500Y-96468519D01*
X113319500Y-97633036D01*
X113299815Y-97700075D01*
X113247011Y-97745830D01*
X113177853Y-97755774D01*
X113114297Y-97726749D01*
X113107819Y-97720717D01*
X113026615Y-97639513D01*
X113026613Y-97639511D01*
X112923886Y-97580201D01*
X112809309Y-97549500D01*
X112690691Y-97549500D01*
X112576114Y-97580201D01*
X112576112Y-97580201D01*
X112576112Y-97580202D01*
X112473387Y-97639511D01*
X112473384Y-97639513D01*
X112392181Y-97720717D01*
X112330858Y-97754202D01*
X112261166Y-97749218D01*
X112205233Y-97707346D01*
X112180816Y-97641882D01*
X112180500Y-97633036D01*
X112180500Y-96468521D01*
X112180499Y-96468519D01*
X112168868Y-96410042D01*
X112168867Y-96410041D01*
X112124552Y-96343719D01*
X112058230Y-96299404D01*
X112058229Y-96299403D01*
X111999752Y-96287772D01*
X111999748Y-96287772D01*
X111439833Y-96287772D01*
X111418587Y-96281533D01*
X111396499Y-96279954D01*
X111385715Y-96271881D01*
X111372794Y-96268087D01*
X111358294Y-96251353D01*
X111340566Y-96238082D01*
X111335858Y-96225461D01*
X111327039Y-96215283D01*
X111323887Y-96193365D01*
X111316149Y-96172618D01*
X111319011Y-96159457D01*
X111317095Y-96146125D01*
X111326294Y-96125981D01*
X111331001Y-96104345D01*
X111344269Y-96086619D01*
X111346120Y-96082569D01*
X111352152Y-96076091D01*
X111411424Y-96016819D01*
X111472747Y-95983334D01*
X111499105Y-95980500D01*
X127004167Y-95980500D01*
X127071206Y-96000185D01*
X127091848Y-96016819D01*
X127151120Y-96076091D01*
X127184605Y-96137414D01*
X127179621Y-96207106D01*
X127137749Y-96263039D01*
X127072285Y-96287456D01*
X127063439Y-96287772D01*
X126200247Y-96287772D01*
X126141770Y-96299403D01*
X126141769Y-96299404D01*
X126075447Y-96343719D01*
X126031132Y-96410041D01*
X126031131Y-96410042D01*
X126019500Y-96468519D01*
X126019500Y-97591709D01*
X125999815Y-97658748D01*
X125947011Y-97704503D01*
X125877853Y-97714447D01*
X125833500Y-97699096D01*
X125737161Y-97643474D01*
X125737158Y-97643473D01*
X125622581Y-97612772D01*
X125503963Y-97612772D01*
X125389386Y-97643473D01*
X125389384Y-97643473D01*
X125389384Y-97643474D01*
X125286659Y-97702783D01*
X125286656Y-97702785D01*
X125202785Y-97786656D01*
X125202783Y-97786659D01*
X125143473Y-97889386D01*
X125124738Y-97959306D01*
X125124275Y-97961035D01*
X125087910Y-98020695D01*
X125025062Y-98051224D01*
X124955687Y-98042929D01*
X124901809Y-97998444D01*
X124880535Y-97931891D01*
X124880500Y-97928941D01*
X124880500Y-96468521D01*
X124880499Y-96468519D01*
X124868868Y-96410042D01*
X124868867Y-96410041D01*
X124824552Y-96343719D01*
X124758230Y-96299404D01*
X124758229Y-96299403D01*
X124699752Y-96287772D01*
X124699748Y-96287772D01*
X123660252Y-96287772D01*
X123660247Y-96287772D01*
X123601770Y-96299403D01*
X123601769Y-96299404D01*
X123535447Y-96343719D01*
X123491132Y-96410041D01*
X123491131Y-96410042D01*
X123479500Y-96468519D01*
X123479500Y-97568615D01*
X123459815Y-97635654D01*
X123407011Y-97681409D01*
X123337853Y-97691353D01*
X123293499Y-97676002D01*
X123237158Y-97643473D01*
X123122581Y-97612772D01*
X123003963Y-97612772D01*
X122889386Y-97643473D01*
X122889384Y-97643473D01*
X122889384Y-97643474D01*
X122786659Y-97702783D01*
X122786656Y-97702785D01*
X122702785Y-97786656D01*
X122702783Y-97786659D01*
X122643473Y-97889386D01*
X122612772Y-98003963D01*
X122612772Y-98122581D01*
X122643473Y-98237158D01*
X122702783Y-98339885D01*
X122786659Y-98423761D01*
X122889386Y-98483071D01*
X123003963Y-98513772D01*
X123003966Y-98513772D01*
X123122578Y-98513772D01*
X123122581Y-98513772D01*
X123237158Y-98483071D01*
X123293500Y-98450541D01*
X123361398Y-98434068D01*
X123427425Y-98456919D01*
X123470617Y-98511840D01*
X123479500Y-98557928D01*
X123479500Y-99658024D01*
X123491131Y-99716501D01*
X123491132Y-99716502D01*
X123535447Y-99782824D01*
X123601769Y-99827139D01*
X123601770Y-99827140D01*
X123660247Y-99838771D01*
X123660250Y-99838772D01*
X123660252Y-99838772D01*
X124699750Y-99838772D01*
X124699751Y-99838771D01*
X124714568Y-99835824D01*
X124758229Y-99827140D01*
X124758229Y-99827139D01*
X124758231Y-99827139D01*
X124824552Y-99782824D01*
X124868867Y-99716503D01*
X124868867Y-99716501D01*
X124868868Y-99716501D01*
X124880499Y-99658024D01*
X124880500Y-99658022D01*
X124880500Y-98197602D01*
X124900185Y-98130563D01*
X124952989Y-98084808D01*
X125022147Y-98074864D01*
X125085703Y-98103889D01*
X125123477Y-98162667D01*
X125124260Y-98165455D01*
X125143473Y-98237158D01*
X125202783Y-98339885D01*
X125286659Y-98423761D01*
X125389386Y-98483071D01*
X125503963Y-98513772D01*
X125503966Y-98513772D01*
X125622578Y-98513772D01*
X125622581Y-98513772D01*
X125737158Y-98483071D01*
X125737160Y-98483069D01*
X125737162Y-98483069D01*
X125737163Y-98483068D01*
X125760146Y-98469799D01*
X125833499Y-98427448D01*
X125901399Y-98410974D01*
X125967426Y-98433826D01*
X126010617Y-98488747D01*
X126019500Y-98534834D01*
X126019500Y-99658024D01*
X126031131Y-99716501D01*
X126031132Y-99716502D01*
X126075447Y-99782824D01*
X126141769Y-99827139D01*
X126141770Y-99827140D01*
X126200247Y-99838771D01*
X126200250Y-99838772D01*
X126200252Y-99838772D01*
X127239750Y-99838772D01*
X127239751Y-99838771D01*
X127254568Y-99835824D01*
X127298229Y-99827140D01*
X127298229Y-99827139D01*
X127298231Y-99827139D01*
X127364552Y-99782824D01*
X127408867Y-99716503D01*
X127408867Y-99716501D01*
X127408868Y-99716501D01*
X127420499Y-99658024D01*
X127420500Y-99658022D01*
X127420500Y-96644833D01*
X127426738Y-96623587D01*
X127428318Y-96601499D01*
X127436390Y-96590715D01*
X127440185Y-96577794D01*
X127456918Y-96563294D01*
X127470190Y-96545566D01*
X127482810Y-96540858D01*
X127492989Y-96532039D01*
X127514906Y-96528887D01*
X127535654Y-96521149D01*
X127548814Y-96524011D01*
X127562147Y-96522095D01*
X127582290Y-96531294D01*
X127603927Y-96536001D01*
X127621652Y-96549269D01*
X127625703Y-96551120D01*
X127632181Y-96557152D01*
X127803181Y-96728152D01*
X127836666Y-96789475D01*
X127839500Y-96815833D01*
X127839500Y-100809562D01*
X127841219Y-100815977D01*
X127859979Y-100885990D01*
X127866442Y-100897184D01*
X127885932Y-100930941D01*
X127899540Y-100954511D01*
X128678540Y-101733511D01*
X128734489Y-101789460D01*
X128734491Y-101789461D01*
X128734495Y-101789464D01*
X128803004Y-101829017D01*
X128803011Y-101829021D01*
X128879438Y-101849500D01*
X128958562Y-101849500D01*
X132209778Y-101849500D01*
X137673167Y-101849500D01*
X137740206Y-101869185D01*
X137760848Y-101885819D01*
X138318702Y-102443673D01*
X138352187Y-102504996D01*
X138347203Y-102574688D01*
X138305331Y-102630621D01*
X138293022Y-102638741D01*
X138248387Y-102664511D01*
X138248384Y-102664513D01*
X138164513Y-102748384D01*
X138164511Y-102748387D01*
X138125652Y-102815693D01*
X138105201Y-102851114D01*
X138074500Y-102965691D01*
X138074500Y-102965693D01*
X138074500Y-102999167D01*
X138054815Y-103066206D01*
X138038181Y-103086848D01*
X137711848Y-103413181D01*
X137684920Y-103427884D01*
X137659102Y-103444477D01*
X137652901Y-103445368D01*
X137650525Y-103446666D01*
X137624167Y-103449500D01*
X137612964Y-103449500D01*
X137545925Y-103429815D01*
X137525283Y-103413181D01*
X137501615Y-103389513D01*
X137501613Y-103389511D01*
X137398886Y-103330201D01*
X137284309Y-103299500D01*
X137165691Y-103299500D01*
X137051114Y-103330201D01*
X137051112Y-103330201D01*
X137051112Y-103330202D01*
X136948387Y-103389511D01*
X136948384Y-103389513D01*
X136864513Y-103473384D01*
X136864511Y-103473387D01*
X136805201Y-103576114D01*
X136774500Y-103690691D01*
X136774500Y-103809309D01*
X136805201Y-103923886D01*
X136864511Y-104026613D01*
X136948387Y-104110489D01*
X137051114Y-104169799D01*
X137165691Y-104200500D01*
X137165694Y-104200500D01*
X137284306Y-104200500D01*
X137284309Y-104200500D01*
X137398886Y-104169799D01*
X137501613Y-104110489D01*
X137525283Y-104086819D01*
X137552210Y-104072115D01*
X137578029Y-104055523D01*
X137584229Y-104054631D01*
X137586606Y-104053334D01*
X137612964Y-104050500D01*
X137813036Y-104050500D01*
X137880075Y-104070185D01*
X137925830Y-104122989D01*
X137935774Y-104192147D01*
X137906749Y-104255703D01*
X137900717Y-104262181D01*
X137889513Y-104273384D01*
X137889511Y-104273387D01*
X137835665Y-104366651D01*
X137830201Y-104376114D01*
X137799500Y-104490691D01*
X137799500Y-104609309D01*
X137830201Y-104723886D01*
X137889511Y-104826613D01*
X137973387Y-104910489D01*
X138076114Y-104969799D01*
X138190691Y-105000500D01*
X138190694Y-105000500D01*
X138309307Y-105000500D01*
X138309309Y-105000500D01*
X138349159Y-104989822D01*
X138419006Y-104991483D01*
X138476870Y-105030645D01*
X138504375Y-105094873D01*
X138501027Y-105141689D01*
X138480579Y-105218005D01*
X138474500Y-105240691D01*
X138474500Y-105359309D01*
X138505201Y-105473886D01*
X138564511Y-105576613D01*
X138648387Y-105660489D01*
X138751114Y-105719799D01*
X138865691Y-105750500D01*
X138865694Y-105750500D01*
X138984306Y-105750500D01*
X138984309Y-105750500D01*
X139098886Y-105719799D01*
X139201613Y-105660489D01*
X139285489Y-105576613D01*
X139344799Y-105473886D01*
X139375500Y-105359309D01*
X139375500Y-105240691D01*
X139353619Y-105159030D01*
X139355282Y-105089182D01*
X139385713Y-105039257D01*
X139514482Y-104910489D01*
X139663152Y-104761819D01*
X139685295Y-104749727D01*
X139705190Y-104734206D01*
X139718301Y-104731705D01*
X139724475Y-104728334D01*
X139739520Y-104726017D01*
X139745163Y-104725500D01*
X139784309Y-104725500D01*
X139804646Y-104720050D01*
X139815187Y-104719085D01*
X139839488Y-104723865D01*
X139864251Y-104724454D01*
X139873174Y-104730492D01*
X139883743Y-104732572D01*
X139901602Y-104749731D01*
X139922115Y-104763614D01*
X139926355Y-104773516D01*
X139934125Y-104780981D01*
X139939872Y-104805076D01*
X139949622Y-104827841D01*
X139950500Y-104842568D01*
X139950500Y-106651723D01*
X139930815Y-106718762D01*
X139878011Y-106764517D01*
X139858595Y-106771497D01*
X139826115Y-106780200D01*
X139826114Y-106780200D01*
X139723387Y-106839511D01*
X139723384Y-106839513D01*
X139639513Y-106923384D01*
X139639511Y-106923387D01*
X139591065Y-107007298D01*
X139580201Y-107026114D01*
X139549500Y-107140691D01*
X139549500Y-107259309D01*
X139580201Y-107373886D01*
X139639511Y-107476613D01*
X139723387Y-107560489D01*
X139826114Y-107619799D01*
X139940691Y-107650500D01*
X139940694Y-107650500D01*
X140059306Y-107650500D01*
X140059309Y-107650500D01*
X140173886Y-107619799D01*
X140276613Y-107560489D01*
X140360489Y-107476613D01*
X140419799Y-107373886D01*
X140450500Y-107259309D01*
X140450500Y-107225833D01*
X140470185Y-107158794D01*
X140486819Y-107138152D01*
X140491460Y-107133511D01*
X140531022Y-107064988D01*
X140551500Y-106988562D01*
X140551500Y-106909438D01*
X140551500Y-105740539D01*
X140571185Y-105673500D01*
X140623989Y-105627745D01*
X140693147Y-105617801D01*
X140756703Y-105646826D01*
X140782886Y-105678537D01*
X140839511Y-105776613D01*
X140923387Y-105860489D01*
X141026114Y-105919799D01*
X141140691Y-105950500D01*
X141140694Y-105950500D01*
X141259306Y-105950500D01*
X141259309Y-105950500D01*
X141373886Y-105919799D01*
X141476613Y-105860489D01*
X141560489Y-105776613D01*
X141563742Y-105770977D01*
X141614303Y-105722762D01*
X141682909Y-105709534D01*
X141747776Y-105735497D01*
X141778517Y-105770972D01*
X141835776Y-105870144D01*
X141839511Y-105876613D01*
X141923387Y-105960489D01*
X142026114Y-106019799D01*
X142140691Y-106050500D01*
X142140694Y-106050500D01*
X142259306Y-106050500D01*
X142259309Y-106050500D01*
X142373886Y-106019799D01*
X142476613Y-105960489D01*
X142560489Y-105876613D01*
X142619799Y-105773886D01*
X142650500Y-105659309D01*
X142650500Y-105540691D01*
X142619799Y-105426114D01*
X142569807Y-105339526D01*
X142553335Y-105271629D01*
X142566590Y-105233330D01*
X142531316Y-105246487D01*
X142463043Y-105231635D01*
X142460472Y-105230191D01*
X142453502Y-105226167D01*
X142427819Y-105206460D01*
X141833540Y-104612181D01*
X141822927Y-104592744D01*
X141808427Y-104576011D01*
X141806510Y-104562679D01*
X141800055Y-104550858D01*
X141801634Y-104528771D01*
X141798483Y-104506853D01*
X141804078Y-104494601D01*
X141805039Y-104481166D01*
X141818309Y-104463439D01*
X141827508Y-104443297D01*
X141838839Y-104436014D01*
X141846911Y-104425233D01*
X141867656Y-104417495D01*
X141886286Y-104405523D01*
X141908204Y-104402371D01*
X141912375Y-104400816D01*
X141921221Y-104400500D01*
X141924167Y-104400500D01*
X141991206Y-104420185D01*
X142011848Y-104436819D01*
X142610151Y-105035122D01*
X142643636Y-105096445D01*
X142638972Y-105161660D01*
X142700661Y-105155769D01*
X142762764Y-105187784D01*
X142764876Y-105189847D01*
X143413181Y-105838152D01*
X143446666Y-105899475D01*
X143449500Y-105925833D01*
X143449500Y-105959309D01*
X143480201Y-106073886D01*
X143539511Y-106176613D01*
X143623387Y-106260489D01*
X143726114Y-106319799D01*
X143781073Y-106334525D01*
X143840732Y-106370889D01*
X143871261Y-106433735D01*
X143862967Y-106503111D01*
X143836659Y-106541980D01*
X141440489Y-108938152D01*
X141384541Y-108994099D01*
X141384535Y-108994107D01*
X141344982Y-109062616D01*
X141344979Y-109062621D01*
X141324500Y-109139051D01*
X141324500Y-133274167D01*
X141304815Y-133341206D01*
X141288181Y-133361848D01*
X140756848Y-133893181D01*
X140695525Y-133926666D01*
X140669167Y-133929500D01*
X136787936Y-133929500D01*
X136720897Y-133909815D01*
X136675142Y-133857011D01*
X136666319Y-133829692D01*
X136660131Y-133798585D01*
X136660130Y-133798584D01*
X136660130Y-133798580D01*
X136580941Y-133607402D01*
X136465977Y-133435345D01*
X136465975Y-133435342D01*
X136319657Y-133289024D01*
X136167989Y-133187684D01*
X136147598Y-133174059D01*
X136116445Y-133161155D01*
X135956420Y-133094870D01*
X135956412Y-133094868D01*
X135753469Y-133054500D01*
X135753465Y-133054500D01*
X135546535Y-133054500D01*
X135546530Y-133054500D01*
X135343587Y-133094868D01*
X135343579Y-133094870D01*
X135152403Y-133174058D01*
X134980342Y-133289024D01*
X134834024Y-133435342D01*
X134719058Y-133607403D01*
X134639870Y-133798579D01*
X134639868Y-133798587D01*
X134599500Y-134001530D01*
X134599500Y-134458469D01*
X134639868Y-134661412D01*
X134639870Y-134661420D01*
X134713363Y-134838848D01*
X134719059Y-134852598D01*
X134767436Y-134925000D01*
X134834024Y-135024657D01*
X134980342Y-135170975D01*
X134980345Y-135170977D01*
X135152402Y-135285941D01*
X135343580Y-135365130D01*
X135546530Y-135405499D01*
X135546534Y-135405500D01*
X135546535Y-135405500D01*
X135753466Y-135405500D01*
X135753467Y-135405499D01*
X135956420Y-135365130D01*
X136147598Y-135285941D01*
X136319655Y-135170977D01*
X136465977Y-135024655D01*
X136580941Y-134852598D01*
X136660130Y-134661420D01*
X136666626Y-134628759D01*
X136666971Y-134627231D01*
X136683211Y-134598013D01*
X136698704Y-134568397D01*
X136700124Y-134567588D01*
X136700917Y-134566162D01*
X136730354Y-134550373D01*
X136759420Y-134533823D01*
X136761712Y-134533555D01*
X136762490Y-134533139D01*
X136764157Y-134533270D01*
X136787936Y-134530500D01*
X140884560Y-134530500D01*
X140884562Y-134530500D01*
X140960989Y-134510021D01*
X141029511Y-134470460D01*
X141085460Y-134414511D01*
X141588630Y-133911340D01*
X141649951Y-133877857D01*
X141660126Y-133876084D01*
X141664558Y-133875500D01*
X141664562Y-133875500D01*
X141740989Y-133855021D01*
X141809511Y-133815460D01*
X141865460Y-133759511D01*
X141882491Y-133730013D01*
X147550000Y-133730013D01*
X147550000Y-134255000D01*
X148495854Y-134255000D01*
X148457370Y-134321657D01*
X148425000Y-134442465D01*
X148425000Y-134567535D01*
X148457370Y-134688343D01*
X148495854Y-134755000D01*
X147550001Y-134755000D01*
X147550001Y-135279986D01*
X147560494Y-135382697D01*
X147615641Y-135549119D01*
X147615643Y-135549124D01*
X147707684Y-135698345D01*
X147831654Y-135822315D01*
X147980875Y-135914356D01*
X147980880Y-135914358D01*
X148147302Y-135969505D01*
X148147309Y-135969506D01*
X148250019Y-135979999D01*
X148649999Y-135979999D01*
X148650000Y-135979998D01*
X148650000Y-134909145D01*
X148716657Y-134947630D01*
X148837465Y-134980000D01*
X148962535Y-134980000D01*
X149083343Y-134947630D01*
X149150000Y-134909145D01*
X149150000Y-135979999D01*
X149549972Y-135979999D01*
X149549986Y-135979998D01*
X149652697Y-135969505D01*
X149819119Y-135914358D01*
X149819124Y-135914356D01*
X149968345Y-135822315D01*
X150092315Y-135698345D01*
X150184356Y-135549124D01*
X150184358Y-135549119D01*
X150239505Y-135382697D01*
X150239506Y-135382690D01*
X150249999Y-135279986D01*
X150249999Y-135208528D01*
X150269683Y-135141488D01*
X150322486Y-135095732D01*
X150391644Y-135085788D01*
X150455200Y-135114812D01*
X150477101Y-135139635D01*
X150584022Y-135299655D01*
X150730342Y-135445975D01*
X150730345Y-135445977D01*
X150902402Y-135560941D01*
X151093580Y-135640130D01*
X151296530Y-135680499D01*
X151296534Y-135680500D01*
X151296535Y-135680500D01*
X151503466Y-135680500D01*
X151503467Y-135680499D01*
X151706420Y-135640130D01*
X151897598Y-135560941D01*
X152069655Y-135445977D01*
X152215977Y-135299655D01*
X152330941Y-135127598D01*
X152410130Y-134936420D01*
X152450500Y-134733465D01*
X152450500Y-134276535D01*
X152450499Y-134276530D01*
X152849500Y-134276530D01*
X152849500Y-134733469D01*
X152889868Y-134936412D01*
X152889870Y-134936420D01*
X152955859Y-135095732D01*
X152969059Y-135127598D01*
X152998044Y-135170977D01*
X153084024Y-135299657D01*
X153230342Y-135445975D01*
X153230345Y-135445977D01*
X153402402Y-135560941D01*
X153593580Y-135640130D01*
X153796530Y-135680499D01*
X153796534Y-135680500D01*
X153796535Y-135680500D01*
X154003466Y-135680500D01*
X154003467Y-135680499D01*
X154206420Y-135640130D01*
X154397598Y-135560941D01*
X154569655Y-135445977D01*
X154715977Y-135299655D01*
X154830941Y-135127598D01*
X154910130Y-134936420D01*
X154950500Y-134733465D01*
X154950500Y-134276535D01*
X154950499Y-134276530D01*
X155349500Y-134276530D01*
X155349500Y-134733469D01*
X155389868Y-134936412D01*
X155389870Y-134936420D01*
X155455859Y-135095732D01*
X155469059Y-135127598D01*
X155498044Y-135170977D01*
X155584024Y-135299657D01*
X155730342Y-135445975D01*
X155730345Y-135445977D01*
X155902402Y-135560941D01*
X156093580Y-135640130D01*
X156296530Y-135680499D01*
X156296534Y-135680500D01*
X156296535Y-135680500D01*
X156503466Y-135680500D01*
X156503467Y-135680499D01*
X156706420Y-135640130D01*
X156897598Y-135560941D01*
X157069655Y-135445977D01*
X157215977Y-135299655D01*
X157330941Y-135127598D01*
X157410130Y-134936420D01*
X157450500Y-134733465D01*
X157450500Y-134276535D01*
X157410130Y-134073580D01*
X157330941Y-133882402D01*
X157325352Y-133874038D01*
X172399500Y-133874038D01*
X172399500Y-134125962D01*
X172423349Y-134276535D01*
X172438910Y-134374785D01*
X172516760Y-134614383D01*
X172577436Y-134733465D01*
X172616834Y-134810788D01*
X172631132Y-134838848D01*
X172779201Y-135042649D01*
X172779205Y-135042654D01*
X172957345Y-135220794D01*
X172957350Y-135220798D01*
X173065888Y-135299655D01*
X173161155Y-135368870D01*
X173304184Y-135441747D01*
X173385616Y-135483239D01*
X173385618Y-135483239D01*
X173385621Y-135483241D01*
X173625215Y-135561090D01*
X173874038Y-135600500D01*
X173874039Y-135600500D01*
X174125961Y-135600500D01*
X174125962Y-135600500D01*
X174374785Y-135561090D01*
X174614379Y-135483241D01*
X174838845Y-135368870D01*
X175042656Y-135220793D01*
X175220793Y-135042656D01*
X175368870Y-134838845D01*
X175483241Y-134614379D01*
X175561090Y-134374785D01*
X175600500Y-134125962D01*
X175600500Y-133874038D01*
X175561090Y-133625215D01*
X175483241Y-133385621D01*
X175483239Y-133385618D01*
X175483239Y-133385616D01*
X175417529Y-133256654D01*
X175368870Y-133161155D01*
X175321273Y-133095643D01*
X175220798Y-132957350D01*
X175220794Y-132957345D01*
X175042654Y-132779205D01*
X175042649Y-132779201D01*
X174838848Y-132631132D01*
X174838847Y-132631131D01*
X174838845Y-132631130D01*
X174768747Y-132595413D01*
X174614383Y-132516760D01*
X174374785Y-132438910D01*
X174125962Y-132399500D01*
X173874038Y-132399500D01*
X173749626Y-132419205D01*
X173625214Y-132438910D01*
X173385616Y-132516760D01*
X173161151Y-132631132D01*
X172957350Y-132779201D01*
X172957345Y-132779205D01*
X172779205Y-132957345D01*
X172779201Y-132957350D01*
X172631132Y-133161151D01*
X172516760Y-133385616D01*
X172438910Y-133625214D01*
X172417639Y-133759511D01*
X172399500Y-133874038D01*
X157325352Y-133874038D01*
X157215977Y-133710345D01*
X157215975Y-133710342D01*
X157069657Y-133564024D01*
X156983626Y-133506541D01*
X156897598Y-133449059D01*
X156864482Y-133435342D01*
X156706420Y-133369870D01*
X156706412Y-133369868D01*
X156503469Y-133329500D01*
X156503465Y-133329500D01*
X156296535Y-133329500D01*
X156296530Y-133329500D01*
X156093587Y-133369868D01*
X156093579Y-133369870D01*
X155902403Y-133449058D01*
X155730342Y-133564024D01*
X155584024Y-133710342D01*
X155469058Y-133882403D01*
X155389870Y-134073579D01*
X155389868Y-134073587D01*
X155349500Y-134276530D01*
X154950499Y-134276530D01*
X154910130Y-134073580D01*
X154830941Y-133882402D01*
X154715977Y-133710345D01*
X154715975Y-133710342D01*
X154569657Y-133564024D01*
X154483626Y-133506541D01*
X154397598Y-133449059D01*
X154364482Y-133435342D01*
X154206420Y-133369870D01*
X154206412Y-133369868D01*
X154003469Y-133329500D01*
X154003465Y-133329500D01*
X153796535Y-133329500D01*
X153796530Y-133329500D01*
X153593587Y-133369868D01*
X153593579Y-133369870D01*
X153402403Y-133449058D01*
X153230342Y-133564024D01*
X153084024Y-133710342D01*
X152969058Y-133882403D01*
X152889870Y-134073579D01*
X152889868Y-134073587D01*
X152849500Y-134276530D01*
X152450499Y-134276530D01*
X152410130Y-134073580D01*
X152330941Y-133882402D01*
X152215977Y-133710345D01*
X152215975Y-133710342D01*
X152069657Y-133564024D01*
X151983626Y-133506541D01*
X151897598Y-133449059D01*
X151864482Y-133435342D01*
X151706420Y-133369870D01*
X151706412Y-133369868D01*
X151503469Y-133329500D01*
X151503465Y-133329500D01*
X151296535Y-133329500D01*
X151296530Y-133329500D01*
X151093587Y-133369868D01*
X151093579Y-133369870D01*
X150902403Y-133449058D01*
X150730342Y-133564024D01*
X150584024Y-133710342D01*
X150494149Y-133844851D01*
X150478096Y-133868878D01*
X150477102Y-133870365D01*
X150423489Y-133915171D01*
X150354165Y-133923878D01*
X150291137Y-133893724D01*
X150254417Y-133834281D01*
X150249999Y-133801475D01*
X150249999Y-133730028D01*
X150249998Y-133730012D01*
X150239505Y-133627302D01*
X150184358Y-133460880D01*
X150184356Y-133460875D01*
X150092315Y-133311654D01*
X149968345Y-133187684D01*
X149819124Y-133095643D01*
X149819119Y-133095641D01*
X149652697Y-133040494D01*
X149652690Y-133040493D01*
X149549986Y-133030000D01*
X149150000Y-133030000D01*
X149150000Y-134100854D01*
X149083343Y-134062370D01*
X148962535Y-134030000D01*
X148837465Y-134030000D01*
X148716657Y-134062370D01*
X148650000Y-134100854D01*
X148650000Y-133030000D01*
X148250028Y-133030000D01*
X148250012Y-133030001D01*
X148147302Y-133040494D01*
X147980880Y-133095641D01*
X147980875Y-133095643D01*
X147831654Y-133187684D01*
X147707684Y-133311654D01*
X147615643Y-133460875D01*
X147615641Y-133460880D01*
X147560494Y-133627302D01*
X147560493Y-133627309D01*
X147550000Y-133730013D01*
X141882491Y-133730013D01*
X141905021Y-133690989D01*
X141925500Y-133614562D01*
X141925500Y-109354445D01*
X141945185Y-109287406D01*
X141961819Y-109266764D01*
X142451971Y-108776612D01*
X142954629Y-108273953D01*
X143015950Y-108240470D01*
X143085641Y-108245454D01*
X143141575Y-108287326D01*
X143165992Y-108352790D01*
X143162083Y-108393728D01*
X143149500Y-108440689D01*
X143149500Y-108440691D01*
X143149500Y-108559309D01*
X143180201Y-108673886D01*
X143239511Y-108776613D01*
X143323387Y-108860489D01*
X143426114Y-108919799D01*
X143540691Y-108950500D01*
X143540694Y-108950500D01*
X143659306Y-108950500D01*
X143659309Y-108950500D01*
X143773886Y-108919799D01*
X143876613Y-108860489D01*
X143960489Y-108776613D01*
X144019799Y-108673886D01*
X144019799Y-108673884D01*
X144021481Y-108670972D01*
X144072048Y-108622757D01*
X144140656Y-108609535D01*
X144205520Y-108635503D01*
X144236253Y-108670971D01*
X144239511Y-108676613D01*
X144323387Y-108760489D01*
X144426114Y-108819799D01*
X144540691Y-108850500D01*
X144540694Y-108850500D01*
X144659306Y-108850500D01*
X144659309Y-108850500D01*
X144773886Y-108819799D01*
X144876613Y-108760489D01*
X144960489Y-108676613D01*
X145019799Y-108573886D01*
X145050500Y-108459309D01*
X145050500Y-108425833D01*
X145070185Y-108358794D01*
X145086819Y-108338152D01*
X146688152Y-106736819D01*
X146749475Y-106703334D01*
X146775833Y-106700500D01*
X149502259Y-106700500D01*
X149569298Y-106720185D01*
X149615053Y-106772989D01*
X149624997Y-106842147D01*
X149622034Y-106856593D01*
X149607874Y-106909438D01*
X149599500Y-106940691D01*
X149599500Y-107059309D01*
X149630201Y-107173886D01*
X149689511Y-107276613D01*
X149773387Y-107360489D01*
X149876114Y-107419799D01*
X149990691Y-107450500D01*
X149990694Y-107450500D01*
X150109306Y-107450500D01*
X150109309Y-107450500D01*
X150223886Y-107419799D01*
X150315140Y-107367112D01*
X150377140Y-107350500D01*
X154946142Y-107350500D01*
X154946144Y-107350500D01*
X155035288Y-107326614D01*
X155045912Y-107320480D01*
X155115212Y-107280470D01*
X155329019Y-107066662D01*
X155384600Y-107034572D01*
X155486386Y-107007299D01*
X155589113Y-106947989D01*
X155672989Y-106864113D01*
X155732299Y-106761386D01*
X155759572Y-106659600D01*
X155791662Y-106604019D01*
X159070470Y-103325212D01*
X159116614Y-103245288D01*
X159119240Y-103235489D01*
X159140500Y-103156144D01*
X159140500Y-101074725D01*
X159160185Y-101007686D01*
X159212989Y-100961931D01*
X159217048Y-100960164D01*
X159287594Y-100930943D01*
X159287595Y-100930942D01*
X159287598Y-100930941D01*
X159459655Y-100815977D01*
X159605977Y-100669655D01*
X159720941Y-100497598D01*
X159800130Y-100306420D01*
X159840500Y-100103465D01*
X159840500Y-99896535D01*
X159800130Y-99693580D01*
X159720941Y-99502402D01*
X159605977Y-99330345D01*
X159605975Y-99330342D01*
X159459657Y-99184024D01*
X159291655Y-99071770D01*
X159287598Y-99069059D01*
X159096420Y-98989870D01*
X159096412Y-98989868D01*
X158893469Y-98949500D01*
X158893465Y-98949500D01*
X158686535Y-98949500D01*
X158686530Y-98949500D01*
X158483587Y-98989868D01*
X158483579Y-98989870D01*
X158292403Y-99069058D01*
X158120342Y-99184024D01*
X157974024Y-99330342D01*
X157859057Y-99502403D01*
X157790835Y-99667108D01*
X157746994Y-99721511D01*
X157680700Y-99743576D01*
X157613000Y-99726297D01*
X157565390Y-99675159D01*
X157558343Y-99657973D01*
X157501095Y-99481782D01*
X157404624Y-99292449D01*
X157365270Y-99238282D01*
X157365269Y-99238282D01*
X156732962Y-99870590D01*
X156715925Y-99807007D01*
X156650099Y-99692993D01*
X156557007Y-99599901D01*
X156442993Y-99534075D01*
X156379408Y-99517037D01*
X157011716Y-98884728D01*
X156957550Y-98845375D01*
X156768217Y-98748904D01*
X156566129Y-98683242D01*
X156356246Y-98650000D01*
X156143754Y-98650000D01*
X155933872Y-98683242D01*
X155933869Y-98683242D01*
X155731779Y-98748905D01*
X155724484Y-98752622D01*
X155655814Y-98765512D01*
X155591076Y-98739230D01*
X155550824Y-98682120D01*
X155547837Y-98612314D01*
X155580514Y-98554456D01*
X155898154Y-98236816D01*
X155925085Y-98222111D01*
X155950898Y-98205523D01*
X155957098Y-98204631D01*
X155959475Y-98203334D01*
X155985833Y-98200500D01*
X156212036Y-98200500D01*
X156279075Y-98220185D01*
X156299716Y-98236818D01*
X156323387Y-98260489D01*
X156426114Y-98319799D01*
X156540691Y-98350500D01*
X156540694Y-98350500D01*
X156659306Y-98350500D01*
X156659309Y-98350500D01*
X156773886Y-98319799D01*
X156876613Y-98260489D01*
X156960489Y-98176613D01*
X157019799Y-98073886D01*
X157050500Y-97959309D01*
X157050500Y-97840691D01*
X157019799Y-97726114D01*
X156960489Y-97623387D01*
X156876613Y-97539511D01*
X156773886Y-97480201D01*
X156659309Y-97449500D01*
X156540691Y-97449500D01*
X156426114Y-97480201D01*
X156426112Y-97480201D01*
X156426112Y-97480202D01*
X156323387Y-97539511D01*
X156323384Y-97539513D01*
X156299717Y-97563181D01*
X156238394Y-97596666D01*
X156212036Y-97599500D01*
X155770438Y-97599500D01*
X155738295Y-97608113D01*
X155694009Y-97619979D01*
X155694008Y-97619980D01*
X155656896Y-97641407D01*
X155653318Y-97643473D01*
X155645049Y-97648246D01*
X155625489Y-97659539D01*
X155625487Y-97659541D01*
X154272104Y-99012923D01*
X154210781Y-99046408D01*
X154141089Y-99041424D01*
X154136971Y-99039803D01*
X154016424Y-98989871D01*
X154016412Y-98989868D01*
X153813469Y-98949500D01*
X153813465Y-98949500D01*
X153606535Y-98949500D01*
X153606530Y-98949500D01*
X153403587Y-98989868D01*
X153403579Y-98989870D01*
X153212403Y-99069058D01*
X153040342Y-99184024D01*
X152894024Y-99330342D01*
X152779058Y-99502403D01*
X152699870Y-99693579D01*
X152699868Y-99693587D01*
X152659500Y-99896530D01*
X152659500Y-100103469D01*
X152699868Y-100306412D01*
X152699870Y-100306420D01*
X152765939Y-100465925D01*
X152779059Y-100497598D01*
X152792836Y-100518217D01*
X152894024Y-100669657D01*
X153040342Y-100815975D01*
X153040345Y-100815977D01*
X153212402Y-100930941D01*
X153332953Y-100980875D01*
X153387356Y-101024714D01*
X153409421Y-101091008D01*
X153409500Y-101095435D01*
X153409500Y-105617613D01*
X153389815Y-105684652D01*
X153337011Y-105730407D01*
X153317598Y-105737386D01*
X153251114Y-105755201D01*
X153251112Y-105755201D01*
X153251112Y-105755202D01*
X153148387Y-105814511D01*
X153148384Y-105814513D01*
X153064513Y-105898384D01*
X153064511Y-105898387D01*
X153005201Y-106001113D01*
X153005201Y-106001114D01*
X153003895Y-106005990D01*
X153003465Y-106007594D01*
X152967100Y-106067254D01*
X152904253Y-106097783D01*
X152883690Y-106099500D01*
X151274352Y-106099500D01*
X151207313Y-106079815D01*
X151161558Y-106027011D01*
X151151614Y-105957853D01*
X151180639Y-105894297D01*
X151229826Y-105862686D01*
X151228882Y-105860407D01*
X151236383Y-105857299D01*
X151236386Y-105857299D01*
X151339113Y-105797989D01*
X151422989Y-105714113D01*
X151482299Y-105611386D01*
X151513000Y-105496809D01*
X151513000Y-105378191D01*
X151482299Y-105263614D01*
X151482298Y-105263612D01*
X151479937Y-105257912D01*
X151470500Y-105210463D01*
X151470500Y-101174500D01*
X151490185Y-101107461D01*
X151542989Y-101061706D01*
X151594500Y-101050500D01*
X152039750Y-101050500D01*
X152039751Y-101050499D01*
X152054568Y-101047552D01*
X152098229Y-101038868D01*
X152098229Y-101038867D01*
X152098231Y-101038867D01*
X152164552Y-100994552D01*
X152208867Y-100928231D01*
X152208867Y-100928229D01*
X152208868Y-100928229D01*
X152220499Y-100869752D01*
X152220500Y-100869750D01*
X152220500Y-99130249D01*
X152220499Y-99130247D01*
X152208868Y-99071770D01*
X152208867Y-99071769D01*
X152164552Y-99005447D01*
X152098230Y-98961132D01*
X152098229Y-98961131D01*
X152039752Y-98949500D01*
X152039748Y-98949500D01*
X150300252Y-98949500D01*
X150300247Y-98949500D01*
X150241770Y-98961131D01*
X150241769Y-98961132D01*
X150175447Y-99005447D01*
X150131132Y-99071769D01*
X150131131Y-99071770D01*
X150119500Y-99130247D01*
X150119500Y-100869752D01*
X150131131Y-100928229D01*
X150131132Y-100928230D01*
X150175447Y-100994552D01*
X150241769Y-101038867D01*
X150241770Y-101038868D01*
X150300247Y-101050499D01*
X150300250Y-101050500D01*
X150300252Y-101050500D01*
X150745500Y-101050500D01*
X150812539Y-101070185D01*
X150858294Y-101122989D01*
X150869500Y-101174500D01*
X150869500Y-104957145D01*
X150849815Y-105024184D01*
X150807502Y-105064531D01*
X150785887Y-105077010D01*
X150702010Y-105160887D01*
X150654500Y-105243177D01*
X150642701Y-105263614D01*
X150612000Y-105378191D01*
X150612000Y-105378193D01*
X150612000Y-105411667D01*
X150603355Y-105441107D01*
X150596832Y-105471094D01*
X150593077Y-105476109D01*
X150592315Y-105478706D01*
X150575681Y-105499348D01*
X150411848Y-105663181D01*
X150350525Y-105696666D01*
X150324167Y-105699500D01*
X145720212Y-105699500D01*
X145653173Y-105679815D01*
X145607418Y-105627011D01*
X145597474Y-105557853D01*
X145600439Y-105543400D01*
X145600500Y-105543174D01*
X145600500Y-103112964D01*
X145620185Y-103045925D01*
X145636819Y-103025283D01*
X145642305Y-103019797D01*
X145660489Y-103001613D01*
X145719799Y-102898886D01*
X145750500Y-102784309D01*
X145750500Y-102665691D01*
X145723705Y-102565691D01*
X146799500Y-102565691D01*
X146799500Y-102684309D01*
X146830201Y-102798886D01*
X146889511Y-102901613D01*
X146973387Y-102985489D01*
X147076114Y-103044799D01*
X147190691Y-103075500D01*
X147190694Y-103075500D01*
X147309306Y-103075500D01*
X147309309Y-103075500D01*
X147423886Y-103044799D01*
X147526613Y-102985489D01*
X147575283Y-102936819D01*
X147636606Y-102903334D01*
X147662964Y-102900500D01*
X148612036Y-102900500D01*
X148679075Y-102920185D01*
X148699717Y-102936819D01*
X148723387Y-102960489D01*
X148826114Y-103019799D01*
X148940691Y-103050500D01*
X148940694Y-103050500D01*
X149059306Y-103050500D01*
X149059309Y-103050500D01*
X149173886Y-103019799D01*
X149276613Y-102960489D01*
X149360489Y-102876613D01*
X149419799Y-102773886D01*
X149450500Y-102659309D01*
X149450500Y-102540691D01*
X149419799Y-102426114D01*
X149360489Y-102323387D01*
X149276613Y-102239511D01*
X149173886Y-102180201D01*
X149059309Y-102149500D01*
X148940691Y-102149500D01*
X148826114Y-102180201D01*
X148826112Y-102180201D01*
X148826112Y-102180202D01*
X148723387Y-102239511D01*
X148723384Y-102239513D01*
X148699717Y-102263181D01*
X148638394Y-102296666D01*
X148612036Y-102299500D01*
X147612964Y-102299500D01*
X147545925Y-102279815D01*
X147533064Y-102269451D01*
X147533059Y-102269458D01*
X147526615Y-102264513D01*
X147526613Y-102264511D01*
X147423886Y-102205201D01*
X147309309Y-102174500D01*
X147190691Y-102174500D01*
X147076114Y-102205201D01*
X147076112Y-102205201D01*
X147076112Y-102205202D01*
X146973387Y-102264511D01*
X146973384Y-102264513D01*
X146889513Y-102348384D01*
X146889511Y-102348387D01*
X146830201Y-102451114D01*
X146799500Y-102565691D01*
X145723705Y-102565691D01*
X145719799Y-102551114D01*
X145660489Y-102448387D01*
X145576613Y-102364511D01*
X145473886Y-102305201D01*
X145359309Y-102274500D01*
X145240691Y-102274500D01*
X145126114Y-102305201D01*
X145126112Y-102305201D01*
X145126112Y-102305202D01*
X145023387Y-102364511D01*
X145023384Y-102364513D01*
X144939513Y-102448384D01*
X144934563Y-102454836D01*
X144933302Y-102453868D01*
X144889495Y-102495627D01*
X144820887Y-102508840D01*
X144770690Y-102492789D01*
X144748891Y-102480203D01*
X144748890Y-102480202D01*
X144739494Y-102477684D01*
X144634309Y-102449500D01*
X144515691Y-102449500D01*
X144401114Y-102480201D01*
X144401112Y-102480201D01*
X144401112Y-102480202D01*
X144298387Y-102539511D01*
X144291941Y-102544458D01*
X144290842Y-102543026D01*
X144238394Y-102571666D01*
X144212036Y-102574500D01*
X141737964Y-102574500D01*
X141670925Y-102554815D01*
X141650283Y-102538181D01*
X141626615Y-102514513D01*
X141626613Y-102514511D01*
X141523886Y-102455201D01*
X141409309Y-102424500D01*
X141290691Y-102424500D01*
X141176114Y-102455201D01*
X141176112Y-102455201D01*
X141176112Y-102455202D01*
X141073387Y-102514511D01*
X141073384Y-102514513D01*
X140989513Y-102598384D01*
X140989511Y-102598387D01*
X140950652Y-102665693D01*
X140930201Y-102701114D01*
X140899500Y-102815691D01*
X140899500Y-102815693D01*
X140899500Y-102875167D01*
X140879815Y-102942206D01*
X140827011Y-102987961D01*
X140757853Y-102997905D01*
X140694297Y-102968880D01*
X140687819Y-102962848D01*
X138331512Y-100606541D01*
X138331504Y-100606535D01*
X138290653Y-100582950D01*
X138290651Y-100582950D01*
X138262989Y-100566979D01*
X138186562Y-100546500D01*
X138186560Y-100546500D01*
X134759561Y-100546500D01*
X134692522Y-100526815D01*
X134671880Y-100510181D01*
X134212152Y-100050453D01*
X134178667Y-99989130D01*
X134183651Y-99919438D01*
X134225523Y-99863505D01*
X134290987Y-99839088D01*
X134299833Y-99838772D01*
X134859750Y-99838772D01*
X134859751Y-99838771D01*
X134874568Y-99835824D01*
X134918229Y-99827140D01*
X134918229Y-99827139D01*
X134918231Y-99827139D01*
X134984552Y-99782824D01*
X135028867Y-99716503D01*
X135028867Y-99716501D01*
X135028868Y-99716501D01*
X135040499Y-99658024D01*
X135040500Y-99658022D01*
X135040500Y-98577409D01*
X135060185Y-98510370D01*
X135112989Y-98464615D01*
X135182147Y-98454671D01*
X135218382Y-98467213D01*
X135218600Y-98466687D01*
X135226109Y-98469797D01*
X135226111Y-98469797D01*
X135226114Y-98469799D01*
X135340691Y-98500500D01*
X135340694Y-98500500D01*
X135459306Y-98500500D01*
X135459309Y-98500500D01*
X135573886Y-98469799D01*
X135676613Y-98410489D01*
X135760489Y-98326613D01*
X135819799Y-98223886D01*
X135850500Y-98109309D01*
X135850500Y-97990691D01*
X135819799Y-97876114D01*
X135760489Y-97773387D01*
X135676613Y-97689511D01*
X135573886Y-97630201D01*
X135459309Y-97599500D01*
X135340691Y-97599500D01*
X135264263Y-97619979D01*
X135226109Y-97630202D01*
X135218600Y-97633313D01*
X135218066Y-97632024D01*
X135158592Y-97646449D01*
X135092567Y-97623593D01*
X135049380Y-97568669D01*
X135040500Y-97522590D01*
X135040500Y-96468521D01*
X135040499Y-96468519D01*
X136179500Y-96468519D01*
X136179500Y-99658024D01*
X136191131Y-99716501D01*
X136191132Y-99716502D01*
X136235447Y-99782824D01*
X136301769Y-99827139D01*
X136301770Y-99827140D01*
X136360247Y-99838771D01*
X136360250Y-99838772D01*
X136360252Y-99838772D01*
X137399750Y-99838772D01*
X137399751Y-99838771D01*
X137414568Y-99835824D01*
X137458229Y-99827140D01*
X137458229Y-99827139D01*
X137458231Y-99827139D01*
X137524552Y-99782824D01*
X137568867Y-99716503D01*
X137568867Y-99716501D01*
X137568868Y-99716501D01*
X137580499Y-99658024D01*
X137580500Y-99658022D01*
X137580500Y-98605779D01*
X137600185Y-98538740D01*
X137652989Y-98492985D01*
X137722147Y-98483041D01*
X137736583Y-98486001D01*
X137790691Y-98500500D01*
X137790694Y-98500500D01*
X137909306Y-98500500D01*
X137909309Y-98500500D01*
X138023886Y-98469799D01*
X138126613Y-98410489D01*
X138210489Y-98326613D01*
X138269799Y-98223886D01*
X138300500Y-98109309D01*
X138300500Y-97990691D01*
X138269799Y-97876114D01*
X138210489Y-97773387D01*
X138126613Y-97689511D01*
X138023886Y-97630201D01*
X137909309Y-97599500D01*
X137790691Y-97599500D01*
X137790689Y-97599500D01*
X137736592Y-97613995D01*
X137666742Y-97612332D01*
X137608880Y-97573168D01*
X137581377Y-97508939D01*
X137580500Y-97494220D01*
X137580500Y-96468521D01*
X137580499Y-96468519D01*
X138719500Y-96468519D01*
X138719500Y-99658024D01*
X138731131Y-99716501D01*
X138731132Y-99716502D01*
X138775447Y-99782824D01*
X138841769Y-99827139D01*
X138841770Y-99827140D01*
X138900247Y-99838771D01*
X138900250Y-99838772D01*
X138900252Y-99838772D01*
X139939750Y-99838772D01*
X139939751Y-99838771D01*
X139954568Y-99835824D01*
X139998229Y-99827140D01*
X139998229Y-99827139D01*
X139998231Y-99827139D01*
X140064552Y-99782824D01*
X140108867Y-99716503D01*
X140108867Y-99716501D01*
X140108868Y-99716501D01*
X140120499Y-99658024D01*
X140120500Y-99658022D01*
X140120500Y-98539702D01*
X140140185Y-98472663D01*
X140192989Y-98426908D01*
X140262147Y-98416964D01*
X140276584Y-98419924D01*
X140390691Y-98450500D01*
X140390694Y-98450500D01*
X140509306Y-98450500D01*
X140509309Y-98450500D01*
X140623886Y-98419799D01*
X140726613Y-98360489D01*
X140810489Y-98276613D01*
X140869799Y-98173886D01*
X140900500Y-98059309D01*
X140900500Y-97940691D01*
X140869799Y-97826114D01*
X140810489Y-97723387D01*
X140726613Y-97639511D01*
X140623886Y-97580201D01*
X140509309Y-97549500D01*
X140390691Y-97549500D01*
X140276593Y-97580072D01*
X140206743Y-97578409D01*
X140148881Y-97539246D01*
X140121377Y-97475017D01*
X140120500Y-97460297D01*
X140120500Y-96468521D01*
X140120499Y-96468519D01*
X141259500Y-96468519D01*
X141259500Y-99658024D01*
X141271131Y-99716501D01*
X141271132Y-99716502D01*
X141315447Y-99782824D01*
X141381769Y-99827139D01*
X141381770Y-99827140D01*
X141440247Y-99838771D01*
X141440250Y-99838772D01*
X141440252Y-99838772D01*
X142479750Y-99838772D01*
X142479751Y-99838771D01*
X142494568Y-99835824D01*
X142538229Y-99827140D01*
X142538229Y-99827139D01*
X142538231Y-99827139D01*
X142604552Y-99782824D01*
X142648867Y-99716503D01*
X142648867Y-99716501D01*
X142648868Y-99716501D01*
X142660499Y-99658024D01*
X142660500Y-99658022D01*
X142660500Y-98536778D01*
X142680185Y-98469739D01*
X142732989Y-98423984D01*
X142802147Y-98414040D01*
X142818072Y-98418409D01*
X142818264Y-98417695D01*
X142826112Y-98419797D01*
X142826114Y-98419799D01*
X142940691Y-98450500D01*
X142940694Y-98450500D01*
X143059306Y-98450500D01*
X143059309Y-98450500D01*
X143173886Y-98419799D01*
X143276613Y-98360489D01*
X143360489Y-98276613D01*
X143419799Y-98173886D01*
X143450500Y-98059309D01*
X143450500Y-97940691D01*
X143419799Y-97826114D01*
X143360489Y-97723387D01*
X143276613Y-97639511D01*
X143173886Y-97580201D01*
X143059309Y-97549500D01*
X142940691Y-97549500D01*
X142826114Y-97580201D01*
X142826112Y-97580202D01*
X142818264Y-97582305D01*
X142817471Y-97579346D01*
X142762437Y-97585242D01*
X142699970Y-97553944D01*
X142664340Y-97493842D01*
X142660500Y-97463221D01*
X142660500Y-96468521D01*
X142660499Y-96468519D01*
X143799500Y-96468519D01*
X143799500Y-99658024D01*
X143811131Y-99716501D01*
X143811132Y-99716502D01*
X143855447Y-99782824D01*
X143921769Y-99827139D01*
X143921770Y-99827140D01*
X143980247Y-99838771D01*
X143980250Y-99838772D01*
X143980252Y-99838772D01*
X145019750Y-99838772D01*
X145019751Y-99838771D01*
X145034568Y-99835824D01*
X145078229Y-99827140D01*
X145078229Y-99827139D01*
X145078231Y-99827139D01*
X145144552Y-99782824D01*
X145188867Y-99716503D01*
X145188867Y-99716501D01*
X145188868Y-99716501D01*
X145200499Y-99658024D01*
X145200500Y-99658022D01*
X145200500Y-98487772D01*
X145203050Y-98479086D01*
X145201762Y-98470125D01*
X145212740Y-98446084D01*
X145220185Y-98420733D01*
X145227025Y-98414805D01*
X145230787Y-98406569D01*
X145253021Y-98392279D01*
X145272989Y-98374978D01*
X145283503Y-98372690D01*
X145289565Y-98368795D01*
X145324500Y-98363772D01*
X145437297Y-98363772D01*
X145469391Y-98367997D01*
X145476112Y-98369797D01*
X145476114Y-98369799D01*
X145590691Y-98400500D01*
X145590694Y-98400500D01*
X145709306Y-98400500D01*
X145709309Y-98400500D01*
X145823886Y-98369799D01*
X145926613Y-98310489D01*
X146010489Y-98226613D01*
X146069799Y-98123886D01*
X146100500Y-98009309D01*
X146100500Y-97890691D01*
X146069799Y-97776114D01*
X146010489Y-97673387D01*
X145926613Y-97589511D01*
X145823886Y-97530201D01*
X145709309Y-97499500D01*
X145590691Y-97499500D01*
X145476114Y-97530201D01*
X145386499Y-97581940D01*
X145318601Y-97598413D01*
X145252574Y-97575561D01*
X145209383Y-97520640D01*
X145200500Y-97474553D01*
X145200500Y-96468521D01*
X145200499Y-96468519D01*
X146339500Y-96468519D01*
X146339500Y-99658024D01*
X146351131Y-99716501D01*
X146351132Y-99716502D01*
X146395447Y-99782824D01*
X146461769Y-99827139D01*
X146461770Y-99827140D01*
X146520247Y-99838771D01*
X146520250Y-99838772D01*
X146520252Y-99838772D01*
X147559750Y-99838772D01*
X147559751Y-99838771D01*
X147574568Y-99835824D01*
X147618229Y-99827140D01*
X147618229Y-99827139D01*
X147618231Y-99827139D01*
X147684552Y-99782824D01*
X147728867Y-99716503D01*
X147728867Y-99716501D01*
X147728868Y-99716501D01*
X147740499Y-99658024D01*
X147740500Y-99658022D01*
X147740500Y-98519673D01*
X147760185Y-98452634D01*
X147812989Y-98406879D01*
X147882147Y-98396935D01*
X147926497Y-98412284D01*
X148026114Y-98469799D01*
X148140691Y-98500500D01*
X148140694Y-98500500D01*
X148259306Y-98500500D01*
X148259309Y-98500500D01*
X148373886Y-98469799D01*
X148476613Y-98410489D01*
X148560489Y-98326613D01*
X148619799Y-98223886D01*
X148650500Y-98109309D01*
X148650500Y-97990691D01*
X148619799Y-97876114D01*
X148560489Y-97773387D01*
X148476613Y-97689511D01*
X148373886Y-97630201D01*
X148259309Y-97599500D01*
X148140691Y-97599500D01*
X148043431Y-97625561D01*
X148026110Y-97630202D01*
X147926500Y-97687713D01*
X147858600Y-97704186D01*
X147792573Y-97681334D01*
X147749383Y-97626412D01*
X147740500Y-97580326D01*
X147740500Y-96468521D01*
X147740499Y-96468519D01*
X147728868Y-96410042D01*
X147728867Y-96410041D01*
X147684552Y-96343719D01*
X147618230Y-96299404D01*
X147618229Y-96299403D01*
X147559752Y-96287772D01*
X147559748Y-96287772D01*
X146520252Y-96287772D01*
X146520247Y-96287772D01*
X146461770Y-96299403D01*
X146461769Y-96299404D01*
X146395447Y-96343719D01*
X146351132Y-96410041D01*
X146351131Y-96410042D01*
X146339500Y-96468519D01*
X145200499Y-96468519D01*
X145188868Y-96410042D01*
X145188867Y-96410041D01*
X145144552Y-96343719D01*
X145078230Y-96299404D01*
X145078229Y-96299403D01*
X145019752Y-96287772D01*
X145019748Y-96287772D01*
X143980252Y-96287772D01*
X143980247Y-96287772D01*
X143921770Y-96299403D01*
X143921769Y-96299404D01*
X143855447Y-96343719D01*
X143811132Y-96410041D01*
X143811131Y-96410042D01*
X143799500Y-96468519D01*
X142660499Y-96468519D01*
X142648868Y-96410042D01*
X142648867Y-96410041D01*
X142604552Y-96343719D01*
X142538230Y-96299404D01*
X142538229Y-96299403D01*
X142479752Y-96287772D01*
X142479748Y-96287772D01*
X141440252Y-96287772D01*
X141440247Y-96287772D01*
X141381770Y-96299403D01*
X141381769Y-96299404D01*
X141315447Y-96343719D01*
X141271132Y-96410041D01*
X141271131Y-96410042D01*
X141259500Y-96468519D01*
X140120499Y-96468519D01*
X140108868Y-96410042D01*
X140108867Y-96410041D01*
X140064552Y-96343719D01*
X139998230Y-96299404D01*
X139998229Y-96299403D01*
X139939752Y-96287772D01*
X139939748Y-96287772D01*
X138900252Y-96287772D01*
X138900247Y-96287772D01*
X138841770Y-96299403D01*
X138841769Y-96299404D01*
X138775447Y-96343719D01*
X138731132Y-96410041D01*
X138731131Y-96410042D01*
X138719500Y-96468519D01*
X137580499Y-96468519D01*
X137568868Y-96410042D01*
X137568867Y-96410041D01*
X137524552Y-96343719D01*
X137458230Y-96299404D01*
X137458229Y-96299403D01*
X137399752Y-96287772D01*
X137399748Y-96287772D01*
X136360252Y-96287772D01*
X136360247Y-96287772D01*
X136301770Y-96299403D01*
X136301769Y-96299404D01*
X136235447Y-96343719D01*
X136191132Y-96410041D01*
X136191131Y-96410042D01*
X136179500Y-96468519D01*
X135040499Y-96468519D01*
X135028868Y-96410042D01*
X135028867Y-96410041D01*
X134984552Y-96343719D01*
X134918230Y-96299404D01*
X134918229Y-96299403D01*
X134859752Y-96287772D01*
X134859748Y-96287772D01*
X133820252Y-96287772D01*
X133820247Y-96287772D01*
X133761770Y-96299403D01*
X133761769Y-96299404D01*
X133695447Y-96343719D01*
X133651132Y-96410041D01*
X133651131Y-96410042D01*
X133639500Y-96468519D01*
X133639500Y-99178439D01*
X133619815Y-99245478D01*
X133567011Y-99291233D01*
X133497853Y-99301177D01*
X133434297Y-99272152D01*
X133427819Y-99266120D01*
X132866287Y-98704588D01*
X132832802Y-98643265D01*
X132837786Y-98573573D01*
X132879658Y-98517640D01*
X132921870Y-98497134D01*
X133023886Y-98469799D01*
X133126613Y-98410489D01*
X133210489Y-98326613D01*
X133269799Y-98223886D01*
X133300500Y-98109309D01*
X133300500Y-97990691D01*
X133269799Y-97876114D01*
X133210489Y-97773387D01*
X133126613Y-97689511D01*
X133023886Y-97630201D01*
X132909309Y-97599500D01*
X132790691Y-97599500D01*
X132701555Y-97623384D01*
X132676106Y-97630203D01*
X132671945Y-97631927D01*
X132602476Y-97639391D01*
X132539998Y-97608113D01*
X132504350Y-97548021D01*
X132500500Y-97517363D01*
X132500500Y-96468521D01*
X132500499Y-96468519D01*
X132488868Y-96410042D01*
X132488867Y-96410041D01*
X132444552Y-96343719D01*
X132378230Y-96299404D01*
X132378229Y-96299403D01*
X132319752Y-96287772D01*
X132319748Y-96287772D01*
X131280252Y-96287772D01*
X131280247Y-96287772D01*
X131221770Y-96299403D01*
X131221769Y-96299404D01*
X131155447Y-96343719D01*
X131111132Y-96410041D01*
X131111131Y-96410042D01*
X131099500Y-96468519D01*
X131099500Y-99178439D01*
X131079815Y-99245478D01*
X131027011Y-99291233D01*
X130957853Y-99301177D01*
X130894297Y-99272152D01*
X130887819Y-99266120D01*
X130363607Y-98741908D01*
X130330122Y-98680585D01*
X130335106Y-98610893D01*
X130376978Y-98554960D01*
X130419190Y-98534454D01*
X130473886Y-98519799D01*
X130576613Y-98460489D01*
X130660489Y-98376613D01*
X130719799Y-98273886D01*
X130750500Y-98159309D01*
X130750500Y-98040691D01*
X130719799Y-97926114D01*
X130660489Y-97823387D01*
X130576613Y-97739511D01*
X130473886Y-97680201D01*
X130359309Y-97649500D01*
X130240691Y-97649500D01*
X130126114Y-97680201D01*
X130126112Y-97680202D01*
X130118264Y-97682305D01*
X130117471Y-97679346D01*
X130062437Y-97685242D01*
X129999970Y-97653944D01*
X129964340Y-97593842D01*
X129960500Y-97563221D01*
X129960500Y-96468521D01*
X129960499Y-96468519D01*
X129948868Y-96410042D01*
X129948867Y-96410041D01*
X129904552Y-96343719D01*
X129838230Y-96299404D01*
X129838229Y-96299403D01*
X129779752Y-96287772D01*
X129779748Y-96287772D01*
X128740252Y-96287772D01*
X128740247Y-96287772D01*
X128681770Y-96299403D01*
X128681769Y-96299404D01*
X128615447Y-96343719D01*
X128564348Y-96420195D01*
X128562297Y-96418824D01*
X128529140Y-96459962D01*
X128462844Y-96482019D01*
X128395146Y-96464733D01*
X128370750Y-96445779D01*
X127364512Y-95439541D01*
X127364504Y-95439535D01*
X127295995Y-95399982D01*
X127295990Y-95399979D01*
X127270513Y-95393152D01*
X127219562Y-95379500D01*
X111362834Y-95379500D01*
X111283710Y-95379500D01*
X111207282Y-95399978D01*
X111138761Y-95439540D01*
X111138758Y-95439542D01*
X109852181Y-96726120D01*
X109790858Y-96759605D01*
X109721166Y-96754621D01*
X109665233Y-96712749D01*
X109640816Y-96647285D01*
X109640500Y-96638439D01*
X109640500Y-96468521D01*
X109640499Y-96468519D01*
X109628868Y-96410042D01*
X109628867Y-96410041D01*
X109584552Y-96343719D01*
X109518230Y-96299404D01*
X109518229Y-96299403D01*
X109459752Y-96287772D01*
X109459748Y-96287772D01*
X108420252Y-96287772D01*
X108420247Y-96287772D01*
X108361770Y-96299403D01*
X108361769Y-96299404D01*
X108295447Y-96343719D01*
X108251132Y-96410041D01*
X108251131Y-96410042D01*
X108239500Y-96468519D01*
X78500500Y-96468519D01*
X78500500Y-93874038D01*
X101399500Y-93874038D01*
X101399500Y-94125961D01*
X101438910Y-94374785D01*
X101516760Y-94614383D01*
X101595413Y-94768747D01*
X101626809Y-94830365D01*
X101631132Y-94838848D01*
X101779201Y-95042649D01*
X101779205Y-95042654D01*
X101957345Y-95220794D01*
X101957350Y-95220798D01*
X102096849Y-95322149D01*
X102161155Y-95368870D01*
X102299843Y-95439535D01*
X102385616Y-95483239D01*
X102385618Y-95483239D01*
X102385621Y-95483241D01*
X102625215Y-95561090D01*
X102874038Y-95600500D01*
X102874039Y-95600500D01*
X103125961Y-95600500D01*
X103125962Y-95600500D01*
X103374785Y-95561090D01*
X103614379Y-95483241D01*
X103838845Y-95368870D01*
X104042656Y-95220793D01*
X104220793Y-95042656D01*
X104368870Y-94838845D01*
X104483241Y-94614379D01*
X104561090Y-94374785D01*
X104600500Y-94125962D01*
X104600500Y-93874038D01*
X104561090Y-93625215D01*
X104483241Y-93385621D01*
X104368870Y-93161155D01*
X104282776Y-93042656D01*
X104220798Y-92957350D01*
X104220794Y-92957345D01*
X104042654Y-92779205D01*
X104042649Y-92779201D01*
X103838848Y-92631132D01*
X103838847Y-92631131D01*
X103838845Y-92631130D01*
X103768747Y-92595413D01*
X103614383Y-92516760D01*
X103374785Y-92438910D01*
X103125962Y-92399500D01*
X102874038Y-92399500D01*
X102749626Y-92419205D01*
X102625214Y-92438910D01*
X102385616Y-92516760D01*
X102161151Y-92631132D01*
X101957350Y-92779201D01*
X101957345Y-92779205D01*
X101779205Y-92957345D01*
X101779201Y-92957350D01*
X101631132Y-93161151D01*
X101516760Y-93385616D01*
X101438910Y-93625214D01*
X101399500Y-93874038D01*
X78500500Y-93874038D01*
X78500500Y-91725000D01*
X85450000Y-91725000D01*
X87450000Y-91725000D01*
X87450000Y-91390427D01*
X107940000Y-91390427D01*
X107940000Y-92763272D01*
X108300000Y-92763272D01*
X108300000Y-93263272D01*
X107940000Y-93263272D01*
X107940000Y-94636116D01*
X107946401Y-94695644D01*
X107946403Y-94695651D01*
X107996645Y-94830358D01*
X107996649Y-94830365D01*
X108082809Y-94945459D01*
X108082812Y-94945462D01*
X108197906Y-95031622D01*
X108197913Y-95031626D01*
X108332620Y-95081868D01*
X108332627Y-95081870D01*
X108392155Y-95088271D01*
X108392172Y-95088272D01*
X108690000Y-95088272D01*
X108690000Y-94600000D01*
X109190000Y-94600000D01*
X109190000Y-95088272D01*
X109487828Y-95088272D01*
X109487844Y-95088271D01*
X109547372Y-95081870D01*
X109547379Y-95081868D01*
X109682086Y-95031626D01*
X109682093Y-95031622D01*
X109797187Y-94945462D01*
X109797190Y-94945459D01*
X109883350Y-94830365D01*
X109883354Y-94830358D01*
X109933596Y-94695651D01*
X109933598Y-94695644D01*
X109939999Y-94636116D01*
X109940000Y-94636099D01*
X109940000Y-94600000D01*
X110350000Y-94600000D01*
X110350000Y-91450000D01*
X109940000Y-91450000D01*
X109940000Y-91418519D01*
X110779500Y-91418519D01*
X110779500Y-94608024D01*
X110791131Y-94666501D01*
X110791132Y-94666502D01*
X110835447Y-94732824D01*
X110901769Y-94777139D01*
X110901770Y-94777140D01*
X110960247Y-94788771D01*
X110960250Y-94788772D01*
X110960252Y-94788772D01*
X111019655Y-94788772D01*
X111054593Y-94793796D01*
X111064705Y-94796765D01*
X111066102Y-94797175D01*
X111124000Y-94805500D01*
X111124004Y-94805500D01*
X114375991Y-94805500D01*
X114376000Y-94805500D01*
X114419684Y-94800803D01*
X114461962Y-94791605D01*
X114488318Y-94788772D01*
X114539750Y-94788772D01*
X114539751Y-94788771D01*
X114554568Y-94785824D01*
X114598229Y-94777140D01*
X114598229Y-94777139D01*
X114598231Y-94777139D01*
X114664552Y-94732824D01*
X114708867Y-94666503D01*
X114708867Y-94666501D01*
X114708868Y-94666501D01*
X114720499Y-94608024D01*
X114720500Y-94608022D01*
X114720500Y-91418521D01*
X114720499Y-91418519D01*
X114719066Y-91411310D01*
X114719066Y-91411309D01*
X114708867Y-91360042D01*
X114708867Y-91360041D01*
X114668749Y-91300000D01*
X115250000Y-91300000D01*
X115250000Y-94450000D01*
X115560000Y-94450000D01*
X115560000Y-94636116D01*
X115566401Y-94695644D01*
X115566403Y-94695651D01*
X115616645Y-94830358D01*
X115616649Y-94830365D01*
X115702809Y-94945459D01*
X115702812Y-94945462D01*
X115817906Y-95031622D01*
X115817913Y-95031626D01*
X115952620Y-95081868D01*
X115952627Y-95081870D01*
X116012155Y-95088271D01*
X116012172Y-95088272D01*
X116310000Y-95088272D01*
X116310000Y-94450000D01*
X116810000Y-94450000D01*
X116810000Y-95088272D01*
X117107828Y-95088272D01*
X117107844Y-95088271D01*
X117167372Y-95081870D01*
X117167379Y-95081868D01*
X117302086Y-95031626D01*
X117302093Y-95031622D01*
X117417187Y-94945462D01*
X117417190Y-94945459D01*
X117503350Y-94830365D01*
X117503354Y-94830358D01*
X117553596Y-94695651D01*
X117553598Y-94695644D01*
X117559999Y-94636116D01*
X117560000Y-94636099D01*
X117560000Y-93263272D01*
X117300000Y-93263272D01*
X117300000Y-92763272D01*
X117560000Y-92763272D01*
X117560000Y-91579491D01*
X118346630Y-91579491D01*
X118346860Y-91593346D01*
X118346860Y-91593350D01*
X118392496Y-94331484D01*
X118392497Y-94331493D01*
X118397537Y-94373428D01*
X118397692Y-94374326D01*
X118397809Y-94375691D01*
X118397917Y-94376590D01*
X118397886Y-94376593D01*
X118399500Y-94395423D01*
X118399500Y-94608024D01*
X118411131Y-94666501D01*
X118411132Y-94666502D01*
X118455447Y-94732824D01*
X118521769Y-94777139D01*
X118521770Y-94777140D01*
X118580247Y-94788771D01*
X118580250Y-94788772D01*
X118580252Y-94788772D01*
X119619750Y-94788772D01*
X119619751Y-94788771D01*
X119634568Y-94785824D01*
X119678229Y-94777140D01*
X119678229Y-94777139D01*
X119678231Y-94777139D01*
X119744552Y-94732824D01*
X119759396Y-94710609D01*
X119813008Y-94665804D01*
X119862498Y-94655500D01*
X120877502Y-94655500D01*
X120944541Y-94675185D01*
X120980604Y-94710609D01*
X120995447Y-94732824D01*
X121061769Y-94777139D01*
X121061770Y-94777140D01*
X121120247Y-94788771D01*
X121120250Y-94788772D01*
X121120252Y-94788772D01*
X122159750Y-94788772D01*
X122159751Y-94788771D01*
X122174568Y-94785824D01*
X122218229Y-94777140D01*
X122218229Y-94777139D01*
X122218231Y-94777139D01*
X122284552Y-94732824D01*
X122299396Y-94710609D01*
X122353008Y-94665804D01*
X122402498Y-94655500D01*
X123417502Y-94655500D01*
X123484541Y-94675185D01*
X123520604Y-94710609D01*
X123535447Y-94732824D01*
X123601769Y-94777139D01*
X123601770Y-94777140D01*
X123660247Y-94788771D01*
X123660250Y-94788772D01*
X123660252Y-94788772D01*
X124699750Y-94788772D01*
X124699751Y-94788771D01*
X124714568Y-94785824D01*
X124758229Y-94777140D01*
X124758229Y-94777139D01*
X124758231Y-94777139D01*
X124824552Y-94732824D01*
X124839396Y-94710609D01*
X124893008Y-94665804D01*
X124942498Y-94655500D01*
X125957502Y-94655500D01*
X126024541Y-94675185D01*
X126060604Y-94710609D01*
X126075447Y-94732824D01*
X126141769Y-94777139D01*
X126141770Y-94777140D01*
X126200247Y-94788771D01*
X126200250Y-94788772D01*
X126200252Y-94788772D01*
X127239750Y-94788772D01*
X127239751Y-94788771D01*
X127254568Y-94785824D01*
X127298229Y-94777140D01*
X127298229Y-94777139D01*
X127298231Y-94777139D01*
X127364552Y-94732824D01*
X127408867Y-94666503D01*
X127416744Y-94626900D01*
X127449127Y-94564992D01*
X127458733Y-94556037D01*
X127463199Y-94552297D01*
X127481447Y-94535005D01*
X127527417Y-94455942D01*
X127548216Y-94389239D01*
X127557503Y-94331491D01*
X127603370Y-91579491D01*
X127599059Y-91534056D01*
X127599058Y-91534051D01*
X127599058Y-91534048D01*
X127587875Y-91480504D01*
X127587870Y-91480479D01*
X127585026Y-91468627D01*
X127543355Y-91390427D01*
X128260000Y-91390427D01*
X128260000Y-92763272D01*
X128700000Y-92763272D01*
X128700000Y-93263272D01*
X128260000Y-93263272D01*
X128260000Y-94636116D01*
X128266401Y-94695644D01*
X128266403Y-94695651D01*
X128316645Y-94830358D01*
X128316649Y-94830365D01*
X128402809Y-94945459D01*
X128402812Y-94945462D01*
X128517906Y-95031622D01*
X128517913Y-95031626D01*
X128652620Y-95081868D01*
X128652627Y-95081870D01*
X128712155Y-95088271D01*
X128712172Y-95088272D01*
X129010000Y-95088272D01*
X129010000Y-94600000D01*
X129510000Y-94600000D01*
X129510000Y-95088272D01*
X129807828Y-95088272D01*
X129807844Y-95088271D01*
X129867372Y-95081870D01*
X129867379Y-95081868D01*
X130002086Y-95031626D01*
X130002093Y-95031622D01*
X130117187Y-94945462D01*
X130117190Y-94945459D01*
X130203350Y-94830365D01*
X130203354Y-94830358D01*
X130253596Y-94695651D01*
X130253598Y-94695644D01*
X130259999Y-94636116D01*
X130260000Y-94636099D01*
X130260000Y-94600000D01*
X130800000Y-94600000D01*
X130800000Y-94636116D01*
X130806401Y-94695644D01*
X130806403Y-94695651D01*
X130856645Y-94830358D01*
X130856649Y-94830365D01*
X130942809Y-94945459D01*
X130942812Y-94945462D01*
X131057906Y-95031622D01*
X131057913Y-95031626D01*
X131192620Y-95081868D01*
X131192627Y-95081870D01*
X131252155Y-95088271D01*
X131252172Y-95088272D01*
X131550000Y-95088272D01*
X131550000Y-94600000D01*
X132050000Y-94600000D01*
X132050000Y-95088272D01*
X132347828Y-95088272D01*
X132347844Y-95088271D01*
X132407372Y-95081870D01*
X132407379Y-95081868D01*
X132542086Y-95031626D01*
X132542093Y-95031622D01*
X132657187Y-94945462D01*
X132657190Y-94945459D01*
X132743350Y-94830365D01*
X132743354Y-94830358D01*
X132793596Y-94695651D01*
X132793598Y-94695644D01*
X132799999Y-94636116D01*
X132800000Y-94636099D01*
X132800000Y-94600000D01*
X133340000Y-94600000D01*
X133340000Y-94636116D01*
X133346401Y-94695644D01*
X133346403Y-94695651D01*
X133396645Y-94830358D01*
X133396649Y-94830365D01*
X133482809Y-94945459D01*
X133482812Y-94945462D01*
X133597906Y-95031622D01*
X133597913Y-95031626D01*
X133732620Y-95081868D01*
X133732627Y-95081870D01*
X133792155Y-95088271D01*
X133792172Y-95088272D01*
X134090000Y-95088272D01*
X134090000Y-94600000D01*
X134590000Y-94600000D01*
X134590000Y-95088272D01*
X134887828Y-95088272D01*
X134887844Y-95088271D01*
X134947372Y-95081870D01*
X134947379Y-95081868D01*
X135082086Y-95031626D01*
X135082093Y-95031622D01*
X135197187Y-94945462D01*
X135197190Y-94945459D01*
X135283350Y-94830365D01*
X135283354Y-94830358D01*
X135333596Y-94695651D01*
X135333598Y-94695644D01*
X135339999Y-94636116D01*
X135340000Y-94636099D01*
X135340000Y-94600000D01*
X135880000Y-94600000D01*
X135880000Y-94636116D01*
X135886401Y-94695644D01*
X135886403Y-94695651D01*
X135936645Y-94830358D01*
X135936649Y-94830365D01*
X136022809Y-94945459D01*
X136022812Y-94945462D01*
X136137906Y-95031622D01*
X136137913Y-95031626D01*
X136272620Y-95081868D01*
X136272627Y-95081870D01*
X136332155Y-95088271D01*
X136332172Y-95088272D01*
X136630000Y-95088272D01*
X136630000Y-94600000D01*
X137130000Y-94600000D01*
X137130000Y-95088272D01*
X137427828Y-95088272D01*
X137427844Y-95088271D01*
X137487372Y-95081870D01*
X137487379Y-95081868D01*
X137622086Y-95031626D01*
X137622093Y-95031622D01*
X137737187Y-94945462D01*
X137737190Y-94945459D01*
X137823350Y-94830365D01*
X137823354Y-94830358D01*
X137873596Y-94695651D01*
X137873598Y-94695644D01*
X137879999Y-94636116D01*
X137880000Y-94636099D01*
X137880000Y-93263272D01*
X137400000Y-93263272D01*
X137400000Y-92763272D01*
X137880000Y-92763272D01*
X137880000Y-91418519D01*
X138719500Y-91418519D01*
X138719500Y-94608024D01*
X138731131Y-94666501D01*
X138731132Y-94666502D01*
X138775447Y-94732824D01*
X138841769Y-94777139D01*
X138841770Y-94777140D01*
X138900247Y-94788771D01*
X138900250Y-94788772D01*
X138900252Y-94788772D01*
X139939750Y-94788772D01*
X139939751Y-94788771D01*
X139954568Y-94785824D01*
X139998229Y-94777140D01*
X139998229Y-94777139D01*
X139998231Y-94777139D01*
X140064552Y-94732824D01*
X140108867Y-94666503D01*
X140108867Y-94666501D01*
X140108868Y-94666501D01*
X140120499Y-94608024D01*
X140120500Y-94608022D01*
X140120500Y-91418521D01*
X140120499Y-91418519D01*
X141259500Y-91418519D01*
X141259500Y-94608024D01*
X141271131Y-94666501D01*
X141271132Y-94666502D01*
X141315447Y-94732824D01*
X141381769Y-94777139D01*
X141381770Y-94777140D01*
X141440247Y-94788771D01*
X141440250Y-94788772D01*
X141440252Y-94788772D01*
X142479750Y-94788772D01*
X142479751Y-94788771D01*
X142494568Y-94785824D01*
X142538229Y-94777140D01*
X142538229Y-94777139D01*
X142538231Y-94777139D01*
X142604552Y-94732824D01*
X142648867Y-94666503D01*
X142648867Y-94666501D01*
X142648868Y-94666501D01*
X142660499Y-94608024D01*
X142660500Y-94608022D01*
X142660500Y-92990691D01*
X142949500Y-92990691D01*
X142949500Y-93109309D01*
X142980201Y-93223886D01*
X143039511Y-93326613D01*
X143123387Y-93410489D01*
X143226114Y-93469799D01*
X143340691Y-93500500D01*
X143340694Y-93500500D01*
X143459306Y-93500500D01*
X143459309Y-93500500D01*
X143573886Y-93469799D01*
X143613501Y-93446927D01*
X143681397Y-93430454D01*
X143747425Y-93453305D01*
X143790617Y-93508225D01*
X143799500Y-93554314D01*
X143799500Y-94608024D01*
X143811131Y-94666501D01*
X143811132Y-94666502D01*
X143855447Y-94732824D01*
X143921769Y-94777139D01*
X143921770Y-94777140D01*
X143980247Y-94788771D01*
X143980250Y-94788772D01*
X143980252Y-94788772D01*
X145019750Y-94788772D01*
X145019751Y-94788771D01*
X145034568Y-94785824D01*
X145078229Y-94777140D01*
X145078229Y-94777139D01*
X145078231Y-94777139D01*
X145144552Y-94732824D01*
X145188867Y-94666503D01*
X145188867Y-94666501D01*
X145188868Y-94666501D01*
X145200499Y-94608024D01*
X145200500Y-94608022D01*
X145200500Y-91418521D01*
X145200499Y-91418519D01*
X145199066Y-91411310D01*
X145199066Y-91411309D01*
X145194912Y-91390427D01*
X146040000Y-91390427D01*
X146040000Y-92763272D01*
X146350000Y-92763272D01*
X146350000Y-93263272D01*
X146040000Y-93263272D01*
X146040000Y-94636116D01*
X146046401Y-94695644D01*
X146046403Y-94695651D01*
X146096645Y-94830358D01*
X146096649Y-94830365D01*
X146182809Y-94945459D01*
X146182812Y-94945462D01*
X146297906Y-95031622D01*
X146297913Y-95031626D01*
X146432620Y-95081868D01*
X146432627Y-95081870D01*
X146492155Y-95088271D01*
X146492172Y-95088272D01*
X146790000Y-95088272D01*
X146790000Y-94600000D01*
X147290000Y-94600000D01*
X147290000Y-95088272D01*
X147587828Y-95088272D01*
X147587844Y-95088271D01*
X147647372Y-95081870D01*
X147647379Y-95081868D01*
X147782086Y-95031626D01*
X147782093Y-95031622D01*
X147897187Y-94945462D01*
X147897190Y-94945459D01*
X147983350Y-94830365D01*
X147983354Y-94830358D01*
X148033596Y-94695651D01*
X148033598Y-94695644D01*
X148039999Y-94636116D01*
X148040000Y-94636099D01*
X148040000Y-94600000D01*
X148400000Y-94600000D01*
X148400000Y-93874038D01*
X151399500Y-93874038D01*
X151399500Y-94125961D01*
X151438910Y-94374785D01*
X151516760Y-94614383D01*
X151595413Y-94768747D01*
X151626809Y-94830365D01*
X151631132Y-94838848D01*
X151779201Y-95042649D01*
X151779205Y-95042654D01*
X151957345Y-95220794D01*
X151957350Y-95220798D01*
X152096849Y-95322149D01*
X152161155Y-95368870D01*
X152299843Y-95439535D01*
X152385616Y-95483239D01*
X152385618Y-95483239D01*
X152385621Y-95483241D01*
X152625215Y-95561090D01*
X152874038Y-95600500D01*
X152874039Y-95600500D01*
X153125961Y-95600500D01*
X153125962Y-95600500D01*
X153374785Y-95561090D01*
X153614379Y-95483241D01*
X153838845Y-95368870D01*
X154042656Y-95220793D01*
X154220793Y-95042656D01*
X154368870Y-94838845D01*
X154483241Y-94614379D01*
X154561090Y-94374785D01*
X154600500Y-94125962D01*
X154600500Y-93874038D01*
X154561090Y-93625215D01*
X154483241Y-93385621D01*
X154483239Y-93385618D01*
X154483239Y-93385616D01*
X154441747Y-93304184D01*
X154368870Y-93161155D01*
X154282776Y-93042656D01*
X154220798Y-92957350D01*
X154220794Y-92957345D01*
X154042654Y-92779205D01*
X154042649Y-92779201D01*
X153838848Y-92631132D01*
X153838847Y-92631131D01*
X153838845Y-92631130D01*
X153768747Y-92595413D01*
X153614383Y-92516760D01*
X153374785Y-92438910D01*
X153125962Y-92399500D01*
X152874038Y-92399500D01*
X152749626Y-92419205D01*
X152625214Y-92438910D01*
X152385616Y-92516760D01*
X152161151Y-92631132D01*
X151957350Y-92779201D01*
X151957345Y-92779205D01*
X151779205Y-92957345D01*
X151779201Y-92957350D01*
X151631132Y-93161151D01*
X151516760Y-93385616D01*
X151438910Y-93625214D01*
X151399500Y-93874038D01*
X148400000Y-93874038D01*
X148400000Y-91845730D01*
X158054500Y-91845730D01*
X158054500Y-95054269D01*
X158057353Y-95084699D01*
X158057353Y-95084701D01*
X158102206Y-95212880D01*
X158102207Y-95212882D01*
X158182850Y-95322150D01*
X158292118Y-95402793D01*
X158334845Y-95417744D01*
X158420299Y-95447646D01*
X158450730Y-95450500D01*
X158450734Y-95450500D01*
X160399270Y-95450500D01*
X160429699Y-95447646D01*
X160429701Y-95447646D01*
X160493790Y-95425219D01*
X160557882Y-95402793D01*
X160667150Y-95322150D01*
X160747793Y-95212882D01*
X160791396Y-95088272D01*
X160792646Y-95084701D01*
X160792646Y-95084699D01*
X160795500Y-95054269D01*
X160795500Y-91874038D01*
X172399500Y-91874038D01*
X172399500Y-92125961D01*
X172438910Y-92374785D01*
X172516760Y-92614383D01*
X172631132Y-92838848D01*
X172779201Y-93042649D01*
X172779205Y-93042654D01*
X172957345Y-93220794D01*
X172957350Y-93220798D01*
X173015811Y-93263272D01*
X173161155Y-93368870D01*
X173282021Y-93430454D01*
X173385616Y-93483239D01*
X173385618Y-93483239D01*
X173385621Y-93483241D01*
X173625215Y-93561090D01*
X173874038Y-93600500D01*
X173874039Y-93600500D01*
X174125961Y-93600500D01*
X174125962Y-93600500D01*
X174374785Y-93561090D01*
X174614379Y-93483241D01*
X174838845Y-93368870D01*
X175042656Y-93220793D01*
X175220793Y-93042656D01*
X175368870Y-92838845D01*
X175483241Y-92614379D01*
X175561090Y-92374785D01*
X175600500Y-92125962D01*
X175600500Y-91874038D01*
X175561090Y-91625215D01*
X175483241Y-91385621D01*
X175483239Y-91385618D01*
X175483239Y-91385616D01*
X175436415Y-91293719D01*
X175368870Y-91161155D01*
X175310693Y-91081081D01*
X175220798Y-90957350D01*
X175220794Y-90957345D01*
X175042654Y-90779205D01*
X175042649Y-90779201D01*
X174838848Y-90631132D01*
X174838847Y-90631131D01*
X174838845Y-90631130D01*
X174768747Y-90595413D01*
X174614383Y-90516760D01*
X174374785Y-90438910D01*
X174125962Y-90399500D01*
X173874038Y-90399500D01*
X173749626Y-90419205D01*
X173625214Y-90438910D01*
X173385616Y-90516760D01*
X173161151Y-90631132D01*
X172957350Y-90779201D01*
X172957345Y-90779205D01*
X172779205Y-90957345D01*
X172779201Y-90957350D01*
X172631132Y-91161151D01*
X172516760Y-91385616D01*
X172438910Y-91625214D01*
X172399500Y-91874038D01*
X160795500Y-91874038D01*
X160795500Y-91845730D01*
X160792646Y-91815300D01*
X160792646Y-91815298D01*
X160747793Y-91687119D01*
X160747792Y-91687117D01*
X160667150Y-91577850D01*
X160557882Y-91497207D01*
X160557880Y-91497206D01*
X160429700Y-91452353D01*
X160399270Y-91449500D01*
X160399266Y-91449500D01*
X158450734Y-91449500D01*
X158450730Y-91449500D01*
X158420300Y-91452353D01*
X158420298Y-91452353D01*
X158292119Y-91497206D01*
X158292117Y-91497207D01*
X158182850Y-91577850D01*
X158102207Y-91687117D01*
X158102206Y-91687119D01*
X158057353Y-91815298D01*
X158057353Y-91815300D01*
X158054500Y-91845730D01*
X148400000Y-91845730D01*
X148400000Y-91450000D01*
X148040000Y-91450000D01*
X148040000Y-91390444D01*
X148039999Y-91390427D01*
X148033598Y-91330899D01*
X148033596Y-91330892D01*
X147983354Y-91196185D01*
X147983350Y-91196178D01*
X147897190Y-91081084D01*
X147897187Y-91081081D01*
X147782093Y-90994921D01*
X147782086Y-90994917D01*
X147647379Y-90944675D01*
X147647372Y-90944673D01*
X147587844Y-90938272D01*
X147290000Y-90938272D01*
X147290000Y-91450000D01*
X146790000Y-91450000D01*
X146790000Y-90938272D01*
X146492155Y-90938272D01*
X146432627Y-90944673D01*
X146432620Y-90944675D01*
X146297913Y-90994917D01*
X146297906Y-90994921D01*
X146182812Y-91081081D01*
X146182809Y-91081084D01*
X146096649Y-91196178D01*
X146096645Y-91196185D01*
X146046403Y-91330892D01*
X146046401Y-91330899D01*
X146040000Y-91390427D01*
X145194912Y-91390427D01*
X145188867Y-91360042D01*
X145188867Y-91360041D01*
X145144552Y-91293719D01*
X145078230Y-91249404D01*
X145078229Y-91249403D01*
X145019752Y-91237772D01*
X145019748Y-91237772D01*
X143980252Y-91237772D01*
X143980247Y-91237772D01*
X143921770Y-91249403D01*
X143921769Y-91249404D01*
X143855447Y-91293719D01*
X143811132Y-91360041D01*
X143811131Y-91360042D01*
X143799500Y-91418519D01*
X143799500Y-92538772D01*
X143796949Y-92547457D01*
X143798238Y-92556419D01*
X143787259Y-92580459D01*
X143779815Y-92605811D01*
X143772974Y-92611738D01*
X143769213Y-92619975D01*
X143746978Y-92634264D01*
X143727011Y-92651566D01*
X143716496Y-92653853D01*
X143710435Y-92657749D01*
X143675500Y-92662772D01*
X143663527Y-92662772D01*
X143601527Y-92646159D01*
X143573889Y-92630202D01*
X143573890Y-92630202D01*
X143564494Y-92627684D01*
X143459309Y-92599500D01*
X143340691Y-92599500D01*
X143226114Y-92630201D01*
X143226112Y-92630201D01*
X143226112Y-92630202D01*
X143123387Y-92689511D01*
X143123384Y-92689513D01*
X143039513Y-92773384D01*
X143039511Y-92773387D01*
X142980201Y-92876114D01*
X142949500Y-92990691D01*
X142660500Y-92990691D01*
X142660500Y-91418521D01*
X142660499Y-91418519D01*
X142648868Y-91360042D01*
X142648867Y-91360041D01*
X142604552Y-91293719D01*
X142538230Y-91249404D01*
X142538229Y-91249403D01*
X142479752Y-91237772D01*
X142479748Y-91237772D01*
X141440252Y-91237772D01*
X141440247Y-91237772D01*
X141381770Y-91249403D01*
X141381769Y-91249404D01*
X141315447Y-91293719D01*
X141271132Y-91360041D01*
X141271131Y-91360042D01*
X141259500Y-91418519D01*
X140120499Y-91418519D01*
X140108868Y-91360042D01*
X140108867Y-91360041D01*
X140064552Y-91293719D01*
X139998230Y-91249404D01*
X139998229Y-91249403D01*
X139939752Y-91237772D01*
X139939748Y-91237772D01*
X138900252Y-91237772D01*
X138900247Y-91237772D01*
X138841770Y-91249403D01*
X138841769Y-91249404D01*
X138775447Y-91293719D01*
X138731132Y-91360041D01*
X138731131Y-91360042D01*
X138719500Y-91418519D01*
X137880000Y-91418519D01*
X137880000Y-91390444D01*
X137879999Y-91390427D01*
X137873598Y-91330899D01*
X137873596Y-91330892D01*
X137823354Y-91196185D01*
X137823350Y-91196178D01*
X137737190Y-91081084D01*
X137737187Y-91081081D01*
X137622093Y-90994921D01*
X137622086Y-90994917D01*
X137487379Y-90944675D01*
X137487372Y-90944673D01*
X137427844Y-90938272D01*
X137130000Y-90938272D01*
X137130000Y-91450000D01*
X136630000Y-91450000D01*
X136630000Y-90938272D01*
X136332155Y-90938272D01*
X136272627Y-90944673D01*
X136272620Y-90944675D01*
X136137913Y-90994917D01*
X136137906Y-90994921D01*
X136022812Y-91081081D01*
X136022809Y-91081084D01*
X135936649Y-91196178D01*
X135936645Y-91196185D01*
X135886403Y-91330892D01*
X135886401Y-91330899D01*
X135880000Y-91390427D01*
X135880000Y-91450000D01*
X135340000Y-91450000D01*
X135340000Y-91390444D01*
X135339999Y-91390427D01*
X135333598Y-91330899D01*
X135333596Y-91330892D01*
X135283354Y-91196185D01*
X135283350Y-91196178D01*
X135197190Y-91081084D01*
X135197187Y-91081081D01*
X135082093Y-90994921D01*
X135082086Y-90994917D01*
X134947379Y-90944675D01*
X134947372Y-90944673D01*
X134887844Y-90938272D01*
X134590000Y-90938272D01*
X134590000Y-91450000D01*
X134090000Y-91450000D01*
X134090000Y-90938272D01*
X133792155Y-90938272D01*
X133732627Y-90944673D01*
X133732620Y-90944675D01*
X133597913Y-90994917D01*
X133597906Y-90994921D01*
X133482812Y-91081081D01*
X133482809Y-91081084D01*
X133396649Y-91196178D01*
X133396645Y-91196185D01*
X133346403Y-91330892D01*
X133346401Y-91330899D01*
X133340000Y-91390427D01*
X133340000Y-91450000D01*
X132800000Y-91450000D01*
X132800000Y-91390444D01*
X132799999Y-91390427D01*
X132793598Y-91330899D01*
X132793596Y-91330892D01*
X132743354Y-91196185D01*
X132743350Y-91196178D01*
X132657190Y-91081084D01*
X132657187Y-91081081D01*
X132542093Y-90994921D01*
X132542086Y-90994917D01*
X132407379Y-90944675D01*
X132407372Y-90944673D01*
X132347844Y-90938272D01*
X132050000Y-90938272D01*
X132050000Y-91450000D01*
X131550000Y-91450000D01*
X131550000Y-90938272D01*
X131252155Y-90938272D01*
X131192627Y-90944673D01*
X131192620Y-90944675D01*
X131057913Y-90994917D01*
X131057906Y-90994921D01*
X130942812Y-91081081D01*
X130942809Y-91081084D01*
X130856649Y-91196178D01*
X130856645Y-91196185D01*
X130806403Y-91330892D01*
X130806401Y-91330899D01*
X130800000Y-91390427D01*
X130800000Y-91450000D01*
X130260000Y-91450000D01*
X130260000Y-91390444D01*
X130259999Y-91390427D01*
X130253598Y-91330899D01*
X130253596Y-91330892D01*
X130203354Y-91196185D01*
X130203350Y-91196178D01*
X130117190Y-91081084D01*
X130117187Y-91081081D01*
X130002093Y-90994921D01*
X130002086Y-90994917D01*
X129867379Y-90944675D01*
X129867372Y-90944673D01*
X129807844Y-90938272D01*
X129510000Y-90938272D01*
X129510000Y-91450000D01*
X129010000Y-91450000D01*
X129010000Y-90938272D01*
X128712155Y-90938272D01*
X128652627Y-90944673D01*
X128652620Y-90944675D01*
X128517913Y-90994917D01*
X128517906Y-90994921D01*
X128402812Y-91081081D01*
X128402809Y-91081084D01*
X128316649Y-91196178D01*
X128316645Y-91196185D01*
X128266403Y-91330892D01*
X128266401Y-91330899D01*
X128260000Y-91390427D01*
X127543355Y-91390427D01*
X127542016Y-91387915D01*
X127496261Y-91335111D01*
X127496255Y-91335104D01*
X127478673Y-91317160D01*
X127478672Y-91317159D01*
X127478670Y-91317157D01*
X127478668Y-91317156D01*
X127478666Y-91317154D01*
X127398856Y-91272511D01*
X127398851Y-91272509D01*
X127331813Y-91252824D01*
X127275954Y-91244792D01*
X127269414Y-91243673D01*
X127239748Y-91237772D01*
X126200252Y-91237772D01*
X126200251Y-91237772D01*
X126178408Y-91242117D01*
X126154216Y-91244500D01*
X124745784Y-91244500D01*
X124721592Y-91242117D01*
X124699749Y-91237772D01*
X124699748Y-91237772D01*
X123660252Y-91237772D01*
X123660251Y-91237772D01*
X123638408Y-91242117D01*
X123614216Y-91244500D01*
X122205784Y-91244500D01*
X122181592Y-91242117D01*
X122159749Y-91237772D01*
X122159748Y-91237772D01*
X121120252Y-91237772D01*
X121120251Y-91237772D01*
X121098408Y-91242117D01*
X121074216Y-91244500D01*
X119665784Y-91244500D01*
X119641592Y-91242117D01*
X119619749Y-91237772D01*
X119619748Y-91237772D01*
X118580252Y-91237772D01*
X118580247Y-91237772D01*
X118521770Y-91249403D01*
X118521769Y-91249404D01*
X118455447Y-91293719D01*
X118411132Y-91360041D01*
X118407707Y-91377261D01*
X118406069Y-91381821D01*
X118405389Y-91386887D01*
X118401702Y-91399891D01*
X118372553Y-91454105D01*
X118353988Y-91521463D01*
X118346630Y-91579491D01*
X117560000Y-91579491D01*
X117560000Y-91390444D01*
X117559999Y-91390427D01*
X117553598Y-91330899D01*
X117553596Y-91330892D01*
X117503354Y-91196185D01*
X117503350Y-91196178D01*
X117417190Y-91081084D01*
X117417187Y-91081081D01*
X117302093Y-90994921D01*
X117302086Y-90994917D01*
X117167379Y-90944675D01*
X117167372Y-90944673D01*
X117107844Y-90938272D01*
X116810000Y-90938272D01*
X116810000Y-91300000D01*
X116310000Y-91300000D01*
X116310000Y-90938272D01*
X116012155Y-90938272D01*
X115952627Y-90944673D01*
X115952620Y-90944675D01*
X115817913Y-90994917D01*
X115817906Y-90994921D01*
X115702812Y-91081081D01*
X115702809Y-91081084D01*
X115616649Y-91196178D01*
X115616645Y-91196185D01*
X115577925Y-91300000D01*
X115250000Y-91300000D01*
X114668749Y-91300000D01*
X114664552Y-91293719D01*
X114598230Y-91249404D01*
X114598229Y-91249403D01*
X114539752Y-91237772D01*
X114539748Y-91237772D01*
X113500252Y-91237772D01*
X113500251Y-91237772D01*
X113478408Y-91242117D01*
X113454216Y-91244500D01*
X112045784Y-91244500D01*
X112021592Y-91242117D01*
X111999749Y-91237772D01*
X111999748Y-91237772D01*
X110960252Y-91237772D01*
X110960247Y-91237772D01*
X110901770Y-91249403D01*
X110901769Y-91249404D01*
X110835447Y-91293719D01*
X110791132Y-91360041D01*
X110791131Y-91360042D01*
X110779500Y-91418519D01*
X109940000Y-91418519D01*
X109940000Y-91390444D01*
X109939999Y-91390427D01*
X109933598Y-91330899D01*
X109933596Y-91330892D01*
X109883354Y-91196185D01*
X109883350Y-91196178D01*
X109797190Y-91081084D01*
X109797187Y-91081081D01*
X109682093Y-90994921D01*
X109682086Y-90994917D01*
X109547379Y-90944675D01*
X109547372Y-90944673D01*
X109487844Y-90938272D01*
X109190000Y-90938272D01*
X109190000Y-91450000D01*
X108690000Y-91450000D01*
X108690000Y-90938272D01*
X108392155Y-90938272D01*
X108332627Y-90944673D01*
X108332620Y-90944675D01*
X108197913Y-90994917D01*
X108197906Y-90994921D01*
X108082812Y-91081081D01*
X108082809Y-91081084D01*
X107996649Y-91196178D01*
X107996645Y-91196185D01*
X107946403Y-91330892D01*
X107946401Y-91330899D01*
X107940000Y-91390427D01*
X87450000Y-91390427D01*
X87450000Y-89725000D01*
X85450000Y-89725000D01*
X85450000Y-91725000D01*
X78500500Y-91725000D01*
X78500500Y-88624500D01*
X78520185Y-88557461D01*
X78572989Y-88511706D01*
X78624500Y-88500500D01*
X177375500Y-88500500D01*
X177442539Y-88520185D01*
G37*
%TD.AperFunction*%
%TD*%
M02*
